<?xml version="1.0" encoding="UTF-8"?>
<svg width="218px" height="48px" viewBox="0 0 218 48" version="1.1" xmlns="http://www.w3.org/2000/svg" xmlns:xlink="http://www.w3.org/1999/xlink">
    <!-- Generator: Sketch 53.2 (72643) - https://sketchapp.com -->
    <title>ChildhoodCancerResearchResources</title>
    <desc>Created with Sketch.</desc>
    <g id="ChildhoodCancerResearchResources--Email-Templates" stroke="none" stroke-width="1" fill="none" fill-rule="evenodd">
        <g id="ChildhoodCancerResearchResources--dataset-delivery" transform="translate(-35.000000, -58.000000)" fill="#017FA3" fill-rule="nonzero">
            <path d="M45.6626534,63.1125037 C45.2798896,62.5682557 44.9347238,62.1821856 44.6271457,61.9542818 C44.3195677,61.7263779 43.9880718,61.563106 43.6326483,61.4644611 C43.2772247,61.3658161 42.9047191,61.3164944 42.5151202,61.3164944 C41.9409744,61.3164944 41.4078471,61.4440506 40.9157221,61.6991668 C40.4235972,61.9542831 39.9981206,62.3012359 39.6392795,62.7400358 C39.2804384,63.1788358 38.9984961,63.6890606 38.793444,64.2707256 C38.588392,64.8523906 38.4858675,65.4697626 38.4858675,66.1228601 C38.4858675,66.7827608 38.5866832,67.4035343 38.7883177,67.9851993 C38.9899523,68.5668643 39.2684771,69.0753883 39.6239007,69.5107867 C39.9793242,69.9461851 40.4030921,70.2914372 40.895217,70.5465534 C41.387342,70.8016696 41.9273043,70.9292258 42.5151202,70.9292258 C42.9252243,70.9292258 43.3079824,70.8628966 43.6634059,70.7302362 C44.0188295,70.5975757 44.3417816,70.4223986 44.632272,70.2046994 C44.9227624,69.9870002 45.1773649,69.73699 45.3960871,69.4546614 C45.6148093,69.1723328 45.7856834,68.8781032 45.9087147,68.5719637 L49.2100362,69.4903775 C48.9981491,70.1570813 48.6871581,70.7744533 48.277054,71.3425121 C47.8669499,71.9105709 47.3731236,72.4020874 46.7955604,72.8170765 C46.2179971,73.2320656 45.5686753,73.5586094 44.8475756,73.7967179 C44.1264759,74.0348264 43.3489985,74.1538789 42.5151202,74.1538789 C41.8111081,74.1538789 41.137864,74.0586369 40.4953675,73.8681501 C39.8528711,73.6776633 39.2531028,73.4089449 38.6960448,73.0619869 C38.1389867,72.7150288 37.6331992,72.2966444 37.1786672,71.8068213 C36.7241351,71.3169981 36.3362508,70.7744591 36.0150026,70.1791879 C35.6937544,69.5839167 35.4442781,68.9444349 35.2665663,68.2607234 C35.0888546,67.5770119 35,66.864398 35,66.1228601 C35,65.0139549 35.1947965,63.9747971 35.5843954,63.0053554 C35.9739943,62.0359137 36.5071217,61.1889405 37.1837934,60.4644105 C37.8604652,59.7398804 38.65503,59.1684286 39.5675116,58.750038 C40.4799933,58.3316473 41.4625196,58.1224552 42.5151202,58.1224552 C43.3558336,58.1224552 44.0632525,58.2262009 44.6373983,58.4336954 C45.211544,58.64119 45.8437784,59.0510705 46.5341203,59.6633495 L48.8306918,59.6633495 L48.8306918,63.1125037 L45.6626534,63.1125037 Z M50.8401919,58 L55.6281334,58 L55.6281334,64.2860325 C56.0314024,63.9186651 56.4739665,63.6312384 56.9558388,63.4237439 C57.4377111,63.2162494 57.9691297,63.1125037 58.5501105,63.1125037 C59.8282683,63.1125037 60.8056684,63.4679603 61.4823402,64.1788842 C62.159012,64.8898081 62.4973428,65.9289659 62.4973428,67.2963889 L62.4973428,71.0822948 L64.0557306,71.0822948 L64.0557306,73.8783547 L59.3087993,73.8783547 L59.3087993,68.0107108 C59.3087993,67.4188411 59.1618476,66.9528358 58.8679396,66.6126808 C58.5740317,66.2725259 58.1946911,66.1024509 57.7299064,66.1024509 C57.4223283,66.1024509 57.087415,66.1874884 56.7251564,66.3575659 C56.3628977,66.5276434 55.9972271,66.7759528 55.6281334,67.1025015 L55.6281334,71.0822948 L57.1865212,71.0822948 L57.1865212,73.8783547 L50.8401919,73.8783547 L50.8401919,71.0822948 L52.4806001,71.0822948 L52.4806001,60.7960599 L50.8401919,60.7960599 L50.8401919,58 Z M65.2860368,63.306391 L70.0534732,63.306391 L70.0534732,71.0822948 L71.5298406,71.0822948 L71.5298406,73.8783547 L65.2860368,73.8783547 L65.2860368,71.0822948 L66.8854348,71.0822948 L66.8854348,66.1024509 L65.2860368,66.1024509 L65.2860368,63.306391 Z M66.721394,59.8980553 C66.721394,59.6463406 66.76753,59.4099364 66.8598034,59.1888357 C66.9520768,58.967735 67.0802324,58.7755503 67.2442741,58.6122759 C67.4083157,58.4490015 67.6014035,58.3197446 67.8235432,58.2245012 C68.045683,58.1292578 68.2866155,58.0816368 68.5463481,58.0816368 C68.7924106,58.0816368 69.0247994,58.1292578 69.2435216,58.2245012 C69.4622438,58.3197446 69.6536228,58.4490015 69.8176645,58.6122759 C69.9817061,58.7755503 70.1115705,58.967735 70.2072614,59.1888357 C70.3029524,59.4099364 70.3507972,59.6463406 70.3507972,59.8980553 C70.3507972,60.1497699 70.3029524,60.3861741 70.2072614,60.6072748 C70.1115705,60.8283756 69.9817061,61.0205602 69.8176645,61.1838346 C69.6536228,61.347109 69.4622438,61.476366 69.2435216,61.5716094 C69.0247994,61.6668527 68.7924106,61.7144737 68.5463481,61.7144737 C68.2866155,61.7144737 68.045683,61.6668527 67.8235432,61.5716094 C67.6014035,61.476366 67.4083157,61.347109 67.2442741,61.1838346 C67.0802324,61.0205602 66.9520768,60.8283756 66.8598034,60.6072748 C66.76753,60.3861741 66.721394,60.1497699 66.721394,59.8980553 Z M73.1702488,58 L77.9581903,58 L77.9581903,71.0822948 L79.5985985,71.0822948 L79.5985985,73.8783547 L73.1702488,73.8783547 L73.1702488,71.0822948 L74.810657,71.0822948 L74.810657,60.7960599 L73.1702488,60.7960599 L73.1702488,58 Z M87.6673564,58 L92.3117622,58 L92.3117622,71.0822948 L94.3827776,71.0822948 L94.3827776,73.8783547 L89.1539764,73.8783547 L89.1539764,73.4701708 C88.7848827,73.6606576 88.4072508,73.8103235 88.0210695,73.9191731 C87.6348881,74.0280227 87.2435863,74.0824467 86.8471523,74.0824467 C86.0337792,74.0824467 85.2870592,73.937883 84.6069699,73.6487513 C83.9268805,73.3596195 83.342491,72.9633449 82.8537836,72.4599156 C82.3650762,71.9564862 81.9840268,71.3663262 81.7106241,70.6894178 C81.4372214,70.0125094 81.300522,69.2862894 81.300522,68.5107361 C81.300522,67.7351828 81.4355126,67.0123643 81.7054978,66.342259 C81.975483,65.6721537 82.3514061,65.0887967 82.8332785,64.5921704 C83.3151508,64.0955441 83.8927054,63.7043718 84.5659596,63.4186416 C85.2392139,63.1329114 85.9790989,62.9900485 86.785637,62.9900485 C87.2299165,62.9900485 87.6468494,63.0325672 88.0364483,63.117606 C88.4260472,63.2026447 88.7985528,63.3233979 89.1539764,63.4798692 L89.1539764,60.7960599 L87.6673564,60.7960599 L87.6673564,58 Z M87.0214457,71.2659776 C87.4725602,71.2523714 87.8809494,71.1367204 88.2466256,70.9190212 C88.6123018,70.7013221 88.914749,70.4155962 89.1539764,70.061835 L89.1539764,66.9494326 C88.914749,66.5888683 88.6054668,66.3082447 88.2261205,66.1075532 C87.8467742,65.9068618 87.4452199,65.8099191 87.0214457,65.8167222 C86.6660221,65.8099191 86.3328176,65.8711461 86.0218219,66.0004049 C85.7108263,66.1296638 85.4374277,66.3133448 85.2016178,66.5514532 C84.965808,66.7895617 84.7795552,67.0752876 84.6428538,67.4086395 C84.5061524,67.7419914 84.4378028,68.1195577 84.4378028,68.5413499 C84.4378028,68.9563389 84.5061524,69.3322046 84.6428538,69.668958 C84.7795552,70.0057114 84.965808,70.2914373 85.2016178,70.5261442 C85.4374277,70.7608512 85.7108263,70.9394298 86.0218219,71.0618856 C86.3328176,71.1843414 86.6660221,71.2523714 87.0214457,71.2659776 Z M95.5003057,58 L100.288247,58 L100.288247,64.2860325 C100.691516,63.9186651 101.13408,63.6312384 101.615953,63.4237439 C102.097825,63.2162494 102.629244,63.1125037 103.210224,63.1125037 C104.488382,63.1125037 105.465782,63.4679603 106.142454,64.1788842 C106.819126,64.8898081 107.157457,65.9289659 107.157457,67.2963889 L107.157457,71.0822948 L108.715844,71.0822948 L108.715844,73.8783547 L103.968913,73.8783547 L103.968913,68.0107108 C103.968913,67.4188411 103.821961,66.9528358 103.528053,66.6126808 C103.234145,66.2725259 102.854805,66.1024509 102.39002,66.1024509 C102.082442,66.1024509 101.747529,66.1874884 101.38527,66.3575659 C101.023012,66.5276434 100.657341,66.7759528 100.288247,67.1025015 L100.288247,71.0822948 L101.846635,71.0822948 L101.846635,73.8783547 L95.5003057,73.8783547 L95.5003057,71.0822948 L97.1407139,71.0822948 L97.1407139,60.7960599 L95.5003057,60.7960599 L95.5003057,58 Z M109.86413,68.5515545 C109.86413,67.7828042 110.004247,67.0616865 110.284485,66.3881797 C110.564723,65.7146728 110.954316,65.1262136 111.453276,64.6227842 C111.952236,64.1193548 112.546878,63.7213795 113.23722,63.4288462 C113.927561,63.1363129 114.686243,62.9900485 115.513286,62.9900485 C116.340329,62.9900485 117.100719,63.1363129 117.794479,63.4288462 C118.488238,63.7213795 119.084589,64.1193548 119.583549,64.6227842 C120.082509,65.1262136 120.470393,65.7146728 120.747213,66.3881797 C121.024034,67.0616865 121.162442,67.7828042 121.162442,68.5515545 C121.162442,69.3203047 121.027451,70.0431232 120.757466,70.7200316 C120.487481,71.39694 120.104723,71.9888008 119.60918,72.4956317 C119.113638,73.0024626 118.518996,73.4021387 117.825236,73.6946719 C117.131477,73.9872052 116.360834,74.1334697 115.513286,74.1334697 C114.658902,74.1334697 113.884843,73.9872052 113.191083,73.6946719 C112.497324,73.4021387 111.90439,73.0041633 111.412265,72.500734 C110.920141,71.9973046 110.539091,71.4071446 110.269106,70.7302362 C109.999121,70.0533278 109.86413,69.3271078 109.86413,68.5515545 Z M112.929643,68.5515545 C112.929643,68.9529373 112.997993,69.322 113.134694,69.6587534 C113.271395,69.9955068 113.457648,70.2863349 113.693458,70.5312465 C113.929268,70.7761581 114.202667,70.966642 114.513662,71.102704 C114.824658,71.238766 115.157862,71.306796 115.513286,71.306796 C115.875545,71.306796 116.212167,71.2404668 116.523162,71.1078063 C116.834158,70.9751459 117.104139,70.7863627 117.333114,70.5414511 C117.562089,70.2965395 117.741507,70.0057114 117.871373,69.668958 C118.001239,69.3322046 118.066171,68.9597404 118.066171,68.5515545 C118.066171,68.1297623 118.001239,67.7487945 117.871373,67.4086395 C117.741507,67.0684845 117.562089,66.7793571 117.333114,66.5412486 C117.104139,66.3031402 116.834158,66.12116 116.523162,65.9953026 C116.212167,65.8694453 115.875545,65.8099191 115.513286,65.8167222 C115.157862,65.8099191 114.824658,65.8694453 114.513662,65.9953026 C114.202667,66.12116 113.929268,66.3031402 113.693458,66.5412486 C113.457648,66.7793571 113.271395,67.0684845 113.134694,67.4086395 C112.997993,67.7487945 112.929643,68.1297623 112.929643,68.5515545 Z M122.628557,68.5515545 C122.628557,67.7828042 122.768673,67.0616865 123.048911,66.3881797 C123.329149,65.7146728 123.718742,65.1262136 124.217702,64.6227842 C124.716662,64.1193548 125.311304,63.7213795 126.001646,63.4288462 C126.691988,63.1363129 127.450669,62.9900485 128.277712,62.9900485 C129.104756,62.9900485 129.865146,63.1363129 130.558905,63.4288462 C131.252665,63.7213795 131.849015,64.1193548 132.347975,64.6227842 C132.846935,65.1262136 133.23482,65.7146728 133.51164,66.3881797 C133.78846,67.0616865 133.926868,67.7828042 133.926868,68.5515545 C133.926868,69.3203047 133.791878,70.0431232 133.521892,70.7200316 C133.251907,71.39694 132.869149,71.9888008 132.373607,72.4956317 C131.878064,73.0024626 131.283422,73.4021387 130.589663,73.6946719 C129.895903,73.9872052 129.125261,74.1334697 128.277712,74.1334697 C127.423329,74.1334697 126.649269,73.9872052 125.95551,73.6946719 C125.26175,73.4021387 124.668817,73.0041633 124.176692,72.500734 C123.684567,71.9973046 123.303518,71.4071446 123.033532,70.7302362 C122.763547,70.0533278 122.628557,69.3271078 122.628557,68.5515545 Z M125.69407,68.5515545 C125.69407,68.9529373 125.762419,69.322 125.899121,69.6587534 C126.035822,69.9955068 126.222075,70.2863349 126.457885,70.5312465 C126.693694,70.7761581 126.967093,70.966642 127.278089,71.102704 C127.589084,71.238766 127.922289,71.306796 128.277712,71.306796 C128.639971,71.306796 128.976593,71.2404668 129.287589,71.1078063 C129.598584,70.9751459 129.868566,70.7863627 130.09754,70.5414511 C130.326515,70.2965395 130.505933,70.0057114 130.635799,69.668958 C130.765666,69.3322046 130.830598,68.9597404 130.830598,68.5515545 C130.830598,68.1297623 130.765666,67.7487945 130.635799,67.4086395 C130.505933,67.0684845 130.326515,66.7793571 130.09754,66.5412486 C129.868566,66.3031402 129.598584,66.12116 129.287589,65.9953026 C128.976593,65.8694453 128.639971,65.8099191 128.277712,65.8167222 C127.922289,65.8099191 127.589084,65.8694453 127.278089,65.9953026 C126.967093,66.12116 126.693694,66.3031402 126.457885,66.5412486 C126.222075,66.7793571 126.035822,67.0684845 125.899121,67.4086395 C125.762419,67.7487945 125.69407,68.1297623 125.69407,68.5515545 Z M141.759818,58 L146.404223,58 L146.404223,71.0822948 L148.475239,71.0822948 L148.475239,73.8783547 L143.246437,73.8783547 L143.246437,73.4701708 C142.877344,73.6606576 142.499712,73.8103235 142.113531,73.9191731 C141.727349,74.0280227 141.336047,74.0824467 140.939613,74.0824467 C140.12624,74.0824467 139.37952,73.937883 138.699431,73.6487513 C138.019342,73.3596195 137.434952,72.9633449 136.946245,72.4599156 C136.457537,71.9564862 136.076488,71.3663262 135.803085,70.6894178 C135.529682,70.0125094 135.392983,69.2862894 135.392983,68.5107361 C135.392983,67.7351828 135.527974,67.0123643 135.797959,66.342259 C136.067944,65.6721537 136.443867,65.0887967 136.92574,64.5921704 C137.407612,64.0955441 137.985166,63.7043718 138.658421,63.4186416 C139.331675,63.1329114 140.07156,62.9900485 140.878098,62.9900485 C141.322378,62.9900485 141.73931,63.0325672 142.128909,63.117606 C142.518508,63.2026447 142.891014,63.3233979 143.246437,63.4798692 L143.246437,60.7960599 L141.759818,60.7960599 L141.759818,58 Z M141.113907,71.2659776 C141.565021,71.2523714 141.973411,71.1367204 142.339087,70.9190212 C142.704763,70.7013221 143.00721,70.4155962 143.246437,70.061835 L143.246437,66.9494326 C143.00721,66.5888683 142.697928,66.3082447 142.318582,66.1075532 C141.939235,65.9068618 141.537681,65.8099191 141.113907,65.8167222 C140.758483,65.8099191 140.425279,65.8711461 140.114283,66.0004049 C139.803287,66.1296638 139.529889,66.3133448 139.294079,66.5514532 C139.058269,66.7895617 138.872016,67.0752876 138.735315,67.4086395 C138.598613,67.7419914 138.530264,68.1195577 138.530264,68.5413499 C138.530264,68.9563389 138.598613,69.3322046 138.735315,69.668958 C138.872016,70.0057114 139.058269,70.2914373 139.294079,70.5261442 C139.529889,70.7608512 139.803287,70.9394298 140.114283,71.0618856 C140.425279,71.1843414 140.758483,71.2523714 141.113907,71.2659776 Z M164.551239,63.1125037 C164.168475,62.5682557 163.82331,62.1821856 163.515732,61.9542818 C163.208153,61.7263779 162.876658,61.563106 162.521234,61.4644611 C162.165811,61.3658161 161.793305,61.3164944 161.403706,61.3164944 C160.82956,61.3164944 160.296433,61.4440506 159.804308,61.6991668 C159.312183,61.9542831 158.886706,62.3012359 158.527865,62.7400358 C158.169024,63.1788358 157.887082,63.6890606 157.68203,64.2707256 C157.476978,64.8523906 157.374453,65.4697626 157.374453,66.1228601 C157.374453,66.7827608 157.475269,67.4035343 157.676904,67.9851993 C157.878538,68.5668643 158.157063,69.0753883 158.512486,69.5107867 C158.86791,69.9461851 159.291678,70.2914372 159.783803,70.5465534 C160.275928,70.8016696 160.81589,70.9292258 161.403706,70.9292258 C161.81381,70.9292258 162.196568,70.8628966 162.551992,70.7302362 C162.907415,70.5975757 163.230367,70.4223986 163.520858,70.2046994 C163.811348,69.9870002 164.065951,69.73699 164.284673,69.4546614 C164.503395,69.1723328 164.674269,68.8781032 164.7973,68.5719637 L168.098622,69.4903775 C167.886735,70.1570813 167.575744,70.7744533 167.16564,71.3425121 C166.755536,71.9105709 166.261709,72.4020874 165.684146,72.8170765 C165.106583,73.2320656 164.457261,73.5586094 163.736161,73.7967179 C163.015062,74.0348264 162.237584,74.1538789 161.403706,74.1538789 C160.699694,74.1538789 160.02645,74.0586369 159.383953,73.8681501 C158.741457,73.6776633 158.141689,73.4089449 157.584631,73.0619869 C157.027573,72.7150288 156.521785,72.2966444 156.067253,71.8068213 C155.612721,71.3169981 155.224837,70.7744591 154.903588,70.1791879 C154.58234,69.5839167 154.332864,68.9444349 154.155152,68.2607234 C153.97744,67.5770119 153.888586,66.864398 153.888586,66.1228601 C153.888586,65.0139549 154.083382,63.9747971 154.472981,63.0053554 C154.86258,62.0359137 155.395707,61.1889405 156.072379,60.4644105 C156.749051,59.7398804 157.543616,59.1684286 158.456097,58.750038 C159.368579,58.3316473 160.351105,58.1224552 161.403706,58.1224552 C162.244419,58.1224552 162.951838,58.2262009 163.525984,58.4336954 C164.10013,58.64119 164.732364,59.0510705 165.422706,59.6633495 L167.719278,59.6633495 L167.719278,63.1125037 L164.551239,63.1125037 Z M176.495462,73.3068972 C176.256234,73.4565654 176.037515,73.5841216 175.839298,73.6895696 C175.641081,73.7950177 175.442867,73.8800552 175.24465,73.9446846 C175.046433,74.009314 174.841384,74.056935 174.629497,74.087549 C174.41761,74.1181629 174.185221,74.1334697 173.932324,74.1334697 C173.296662,74.1334697 172.727651,74.0467314 172.225274,73.8732524 C171.722896,73.6997734 171.299129,73.4616685 170.953958,73.1589305 C170.608787,72.8561926 170.343932,72.4990353 170.159385,72.0874477 C169.974838,71.6758602 169.882566,71.2285631 169.882566,70.7455431 C169.882566,70.2557199 169.976547,69.8033206 170.164511,69.3883315 C170.352476,68.9733425 170.624165,68.6178858 170.979589,68.321951 C171.335013,68.0260162 171.770742,67.7947143 172.286789,67.6280383 C172.802837,67.4613624 173.392353,67.3780257 174.055354,67.3780257 C174.540644,67.3780257 174.983208,67.4035369 175.38306,67.4545602 C175.782911,67.5055834 176.153708,67.5685112 176.495462,67.6433452 L176.495462,67.3167981 C176.495462,67.0514772 176.444199,66.8218761 176.341673,66.6279877 C176.239147,66.4340994 176.095613,66.274229 175.911066,66.1483716 C175.726519,66.0225143 175.504383,65.9306738 175.24465,65.8728475 C174.984918,65.8150211 174.701267,65.7861084 174.393689,65.7861084 C173.751192,65.7861084 173.185599,65.8490361 172.696891,65.9748934 C172.208184,66.1007508 171.73828,66.282731 171.287165,66.5208394 L170.302921,64.5411474 C171.000098,64.0649304 171.72973,63.7009701 172.49184,63.4492554 C173.25395,63.1975407 174.062185,63.0716853 174.916569,63.0716853 C175.57957,63.0716853 176.193009,63.1448175 176.756902,63.2910841 C177.320795,63.4373508 177.804369,63.6754557 178.207638,64.005406 C178.610907,64.3353563 178.927024,64.7656459 179.155999,65.2962877 C179.384973,65.8269294 179.499459,66.4732142 179.499459,67.2351613 L179.499459,71.0822948 L180.924564,71.0822948 L180.924564,73.8783547 L176.495462,73.8783547 L176.495462,73.3068972 Z M174.15788,71.7251845 C174.64317,71.7251845 175.084025,71.64695 175.480459,71.4904787 C175.876893,71.3340075 176.215224,71.1435235 176.495462,70.9190212 L176.495462,69.5720143 L174.034849,69.5720143 C173.877643,69.5720143 173.723856,69.5958248 173.573484,69.6434465 C173.423113,69.6910682 173.288122,69.7590982 173.168509,69.8475384 C173.048895,69.9359787 172.953205,70.0448267 172.881437,70.1740856 C172.809669,70.3033445 172.773785,70.4530104 172.773785,70.6230879 C172.773785,70.9360305 172.888271,71.1979459 173.117246,71.408842 C173.346221,71.619738 173.693095,71.7251845 174.15788,71.7251845 Z M191.823026,67.7964142 C191.823026,67.2045446 191.665822,66.74024 191.351409,66.4034866 C191.036995,66.0667331 190.620062,65.898359 190.100597,65.898359 C189.745174,65.898359 189.386338,65.9765934 189.024079,66.1330647 C188.661821,66.289536 188.30982,66.5820649 187.968067,67.0106602 L187.968067,71.0822948 L189.690495,71.0822948 L189.690495,73.8783547 L183.087852,73.8783547 L183.087852,71.0822948 L184.64624,71.0822948 L184.64624,66.1024509 L183.108357,66.1024509 L183.108357,63.306391 L187.947561,63.306391 L187.947561,64.2350095 C188.391841,63.8880514 188.889085,63.6142307 189.439308,63.4135393 C189.989531,63.2128479 190.568794,63.1125037 191.177115,63.1125037 C192.455273,63.1125037 193.439508,63.4679603 194.12985,64.1788842 C194.820192,64.8898081 195.165358,65.9289659 195.165358,67.2963889 L195.165358,71.0822948 L196.672483,71.0822948 L196.672483,73.8783547 L191.823026,73.8783547 L191.823026,67.7964142 Z M206.012557,66.9596372 C205.718649,66.5922698 205.390571,66.3150477 205.028312,66.1279624 C204.666053,65.9408772 204.238868,65.860942 203.746743,65.8881544 C203.350309,65.860942 202.989765,65.9153659 202.665099,66.0514279 C202.340433,66.1874899 202.0602,66.3779739 201.82439,66.6228854 C201.58858,66.867797 201.405745,67.1586251 201.275878,67.4953786 C201.146012,67.832132 201.08108,68.2113991 201.08108,68.6331913 C201.08108,69.0073617 201.149429,69.3611176 201.286131,69.6944695 C201.422832,70.0278213 201.609085,70.315248 201.844895,70.556758 C202.080705,70.798268 202.360938,70.9870512 202.685604,71.1231132 C203.01027,71.2591752 203.363979,71.3408112 203.746743,71.3680236 C204.067991,71.3408112 204.360186,71.2744819 204.623336,71.1690339 C204.886486,71.0635859 205.120584,70.9275259 205.325636,70.76085 C205.530688,70.594174 205.706689,70.4070916 205.853642,70.1995971 C206.000596,69.9921025 206.115082,69.7965164 206.197103,69.6128327 L209.016555,70.3883821 C208.900358,70.7965681 208.700436,71.2217555 208.41678,71.6639569 C208.133125,72.1061584 207.764037,72.509236 207.309505,72.8732018 C206.854973,73.2371676 206.31501,73.5382002 205.689602,73.7763087 C205.064193,74.0144172 204.351648,74.1334697 203.551945,74.1334697 C202.738572,74.1334697 201.990143,73.9855045 201.306636,73.6895696 C200.623129,73.3936348 200.035322,72.9905572 199.543197,72.4803248 C199.051072,71.9700923 198.666605,71.3714285 198.389785,70.6843155 C198.112965,69.9972024 197.974557,69.2590772 197.974557,68.4699177 C197.974557,67.6875613 198.116382,66.9613413 198.400038,66.291236 C198.683693,65.6211307 199.074995,65.0360729 199.573955,64.5360451 C200.072915,64.0360173 200.665848,63.6465457 201.352772,63.3676186 C202.039697,63.0886915 202.786417,62.9628361 203.592955,62.9900485 C204.167101,62.9628361 204.72415,63.0274646 205.264121,63.1839359 C205.804091,63.3404071 206.316714,63.5751106 206.802003,63.8880531 L208.842261,63.8880531 L208.842261,66.9596372 L206.012557,66.9596372 Z M212.912524,69.2556718 L212.943282,69.5720143 C213.018468,69.8781538 213.146623,70.1468722 213.327752,70.3781775 C213.508882,70.6094829 213.722474,70.8033684 213.968537,70.9598396 C214.214599,71.1163109 214.487998,71.2336626 214.788741,71.3118983 C215.089484,71.3901339 215.39364,71.4292512 215.701218,71.4292512 C216.008796,71.4292512 216.300991,71.4105429 216.577811,71.3731259 C216.854631,71.3357088 217.122904,71.2846863 217.382637,71.2200569 C217.642369,71.1554274 217.895263,71.0805945 218.141325,70.9955557 C218.387388,70.910517 218.636864,70.8203773 218.889762,70.7251339 L220.017542,72.8170765 C219.627943,73.055185 219.270816,73.2575742 218.946151,73.4242501 C218.621485,73.590926 218.295115,73.7286867 217.967032,73.8375363 C217.638949,73.9463859 217.290365,74.0263211 216.921272,74.0773444 C216.552178,74.1283676 216.121575,74.1538789 215.62945,74.1538789 C214.706716,74.1538789 213.88652,74.0025122 213.168838,73.6997742 C212.451156,73.3970363 211.84797,72.9871557 211.359263,72.4701202 C210.870555,71.9530846 210.49805,71.3476178 210.241734,70.6537017 C209.985419,69.9597856 209.857264,69.2250618 209.857264,68.4495085 C209.857264,67.6739552 209.992254,66.9460344 210.26224,66.2657245 C210.532225,65.5854146 210.913274,64.991853 211.405399,64.4850221 C211.897524,63.9781912 212.485331,63.5785151 213.168838,63.2859818 C213.852345,62.9934486 214.611026,62.8471841 215.444904,62.8471841 C216.278783,62.8471841 217.018668,62.9849448 217.664582,63.2604703 C218.310496,63.5359959 218.855584,63.9169637 219.299864,64.4033853 C219.744143,64.8898069 220.085891,65.4612587 220.325119,66.1177578 C220.564346,66.7742569 220.69421,67.4800679 220.714716,68.2352119 C220.735221,68.4052894 220.747182,68.5736636 220.7506,68.7403395 C220.754017,68.9070155 220.748891,69.0787912 220.735221,69.2556718 L212.912524,69.2556718 Z M215.362884,65.3983337 C214.98012,65.3983337 214.65375,65.4442539 214.383765,65.5360957 C214.11378,65.6279376 213.886517,65.753793 213.701971,65.9136659 C213.517424,66.0735387 213.370472,66.2555189 213.261111,66.4596119 C213.15175,66.6637048 213.066313,66.8779993 213.004797,67.1025015 L217.444152,67.1025015 C217.396306,66.8711962 217.327957,66.6535002 217.239101,66.4494073 C217.150245,66.2453143 217.027216,66.0650348 216.870009,65.9085636 C216.712802,65.7520923 216.51288,65.6279376 216.270235,65.5360957 C216.02759,65.4442539 215.725143,65.3983337 215.362884,65.3983337 Z M231.951512,67.1535245 L229.070545,67.1535245 L229.070545,66.0616325 C228.790307,66.0616325 228.533996,66.0803408 228.301604,66.1177578 C228.069211,66.1551749 227.865871,66.2181026 227.691577,66.3065429 C227.517283,66.3949832 227.370331,66.5174371 227.250717,66.6739084 C227.131104,66.8303797 227.047375,67.0242651 226.99953,67.2555705 L226.99953,71.0822948 L229.162818,71.0822948 L229.162818,73.8783547 L222.232093,73.8783547 L222.232093,71.0822948 L223.821239,71.0822948 L223.821239,66.1024509 L222.252598,66.1024509 L222.252598,63.306391 L226.979025,63.306391 L226.979025,64.0513267 C227.279768,63.8132182 227.618098,63.6295373 227.994027,63.5002784 C228.369956,63.3710195 228.780054,63.306391 229.224333,63.306391 C229.675448,63.306391 230.140226,63.3097925 230.61868,63.3165956 C231.097135,63.3233987 231.541408,63.3268002 231.951512,63.3268002 L231.951512,67.1535245 Z M35.4818699,90.2543051 L43.7044161,90.2543051 C44.5041191,90.2543051 45.2183731,90.3733575 45.8471994,90.611466 C46.4760257,90.8495745 47.0057355,91.1676146 47.4363448,91.5655959 C47.8669541,91.9635772 48.1967412,92.4261811 48.425716,92.9534213 C48.6546908,93.4806615 48.7691765,94.0300035 48.7691765,94.6014639 C48.7691765,95.1253025 48.712788,95.5845049 48.6000094,95.9790846 C48.4872308,96.3736644 48.3231916,96.7240188 48.1078869,97.0301582 C47.8925823,97.3362977 47.6277274,97.6067169 47.3133142,97.8414238 C46.9989011,98.0761307 46.6400654,98.2887244 46.2367963,98.4792112 C46.5853848,98.6560918 46.8929583,98.9265109 47.1595259,99.2904767 C47.4260936,99.6544425 47.6277251,100.12555 47.7644265,100.703814 L48.2873066,102.714119 L49.5688755,102.714119 L49.5893806,105.724476 L45.078258,105.724476 L44.4631049,102.050821 C44.4015893,101.615422 44.3076085,101.239557 44.1811598,100.923212 C44.054711,100.606868 43.8855456,100.348354 43.6736585,100.147663 C43.4617713,99.9469715 43.2037514,99.7990063 42.8995908,99.7037629 C42.5954303,99.6085196 42.2348858,99.5608986 41.8179467,99.5608986 L40.4953675,99.5608986 L40.4953675,102.928416 L41.9204722,102.928416 L41.9204722,105.724476 L35.4818699,105.724476 L35.4818699,102.928416 L37.0915205,102.928416 L37.0915205,93.0605696 L35.4818699,93.0605696 L35.4818699,90.2543051 Z M40.4953675,93.0605696 L40.4953675,96.8056571 L42.5356253,96.8056571 C42.9252242,96.8056571 43.2755162,96.7699413 43.5865118,96.6985088 C43.8975074,96.6270762 44.1640711,96.5148268 44.3862108,96.3617571 C44.6083505,96.2086873 44.7792247,96.0165026 44.8988384,95.7851973 C45.0184521,95.5538919 45.078258,95.2783705 45.078258,94.9586248 C45.078258,94.3599521 44.8629566,93.8939467 44.4323473,93.5605949 C44.001738,93.227243 43.3695036,93.0605696 42.5356253,93.0605696 L40.4953675,93.0605696 Z M53.5878757,101.101793 L53.6186333,101.418135 C53.6938191,101.724275 53.8219747,101.992993 54.003104,102.224299 C54.1842333,102.455604 54.397826,102.649489 54.6438884,102.805961 C54.8899509,102.962432 55.1633495,103.079784 55.4640926,103.158019 C55.7648356,103.236255 56.0689915,103.275372 56.3765696,103.275372 C56.6841477,103.275372 56.9763425,103.256664 57.2531628,103.219247 C57.529983,103.18183 57.7982555,103.130807 58.0579881,103.066178 C58.3177207,103.001549 58.5706144,102.926716 58.8166769,102.841677 C59.0627393,102.756638 59.3122156,102.666498 59.5651131,102.571255 L60.6928938,104.663198 C60.3032949,104.901306 59.9461679,105.103695 59.6215021,105.270371 C59.2968364,105.437047 58.9704668,105.574808 58.6423835,105.683657 C58.3143002,105.792507 57.9657169,105.872442 57.5966232,105.923466 C57.2275295,105.974489 56.7969267,106 56.3048018,106 C55.3820675,106 54.5618716,105.848633 53.8441894,105.545895 C53.1265073,105.243157 52.5233215,104.833277 52.0346141,104.316241 C51.5459067,103.799206 51.1734011,103.193739 50.917086,102.499823 C50.660771,101.805907 50.5326153,101.071183 50.5326153,100.29563 C50.5326153,99.5200763 50.6676059,98.7921556 50.9375911,98.1118456 C51.2075763,97.4315357 51.5886257,96.8379742 52.0807506,96.3311433 C52.5728755,95.8243124 53.1606826,95.4246363 53.8441894,95.132103 C54.5276963,94.8395697 55.2863775,94.6933053 56.1202558,94.6933053 C56.9541342,94.6933053 57.6940193,94.831066 58.3399332,95.1065915 C58.9858472,95.382117 59.5309357,95.7630849 59.9752152,96.2495065 C60.4194946,96.7359281 60.7612429,97.3073799 61.0004703,97.963879 C61.2396977,98.6203781 61.369562,99.326189 61.3900673,100.081333 C61.4105725,100.251411 61.4225336,100.419785 61.4259512,100.586461 C61.4293687,100.753137 61.4242425,100.924912 61.4105724,101.101793 L53.5878757,101.101793 Z M56.0382354,97.2444548 C55.6554716,97.2444548 55.329102,97.290375 55.0591168,97.3822169 C54.7891316,97.4740587 54.561869,97.5999142 54.3773221,97.759787 C54.1927753,97.9196598 54.0458235,98.10164 53.9364624,98.305733 C53.8271013,98.509826 53.7416642,98.7241204 53.6801486,98.9486227 L58.1195034,98.9486227 C58.0716579,98.7173173 58.0033082,98.4996214 57.9144523,98.2955284 C57.8255964,98.0914354 57.7025671,97.911156 57.5453605,97.7546847 C57.3881539,97.5982134 57.1882312,97.4740587 56.9455862,97.3822169 C56.7029413,97.290375 56.4004941,97.2444548 56.0382354,97.2444548 Z M69.7664017,98.3873698 C69.7664017,98.2240954 69.7134307,98.0676265 69.6074872,97.9179583 C69.5015436,97.7682901 69.3460481,97.6373324 69.1409961,97.5250812 C68.935944,97.4128301 68.684759,97.3226904 68.3874336,97.2546594 C68.0901081,97.1866284 67.753486,97.1526134 67.3775573,97.1526134 C67.2340208,97.1526134 67.0802341,97.1645187 66.9161924,97.1883295 C66.7521508,97.2121404 66.6000728,97.2546591 66.4599539,97.315887 C66.319835,97.3771149 66.2036406,97.4604516 66.1113672,97.5658996 C66.0190937,97.6713477 65.9729577,97.8057069 65.9729577,97.9689813 C65.9729577,98.0506185 65.9849189,98.1288529 66.0088416,98.203687 C66.0327644,98.2785211 66.0789004,98.3499526 66.1472511,98.4179836 C66.2156018,98.4860146 66.3095826,98.5489423 66.4291963,98.6067686 C66.54881,98.664595 66.7043054,98.7105152 66.8956873,98.7445307 L68.823167,99.1221009 C69.520344,99.2581628 70.1047336,99.4282378 70.5763533,99.6323308 C71.047973,99.8364237 71.4273136,100.074529 71.7143865,100.346653 C72.0014594,100.618777 72.2082171,100.92151 72.3346659,101.254862 C72.4611146,101.588214 72.5243381,101.948773 72.5243381,102.336549 C72.5243381,102.942025 72.3825125,103.472659 72.0988572,103.928467 C71.8152018,104.384274 71.4426962,104.763541 70.9813291,105.066279 C70.519962,105.369017 70.0005045,105.596918 69.4229413,105.749987 C68.845378,105.903057 68.2626971,105.979591 67.6748812,105.979591 C67.2921174,105.979591 66.9452429,105.95578 66.6342473,105.908159 C66.3232517,105.860537 66.0430181,105.795908 65.7935381,105.714271 C65.5440581,105.632634 65.3219217,105.535691 65.1271222,105.42344 C64.9323228,105.311189 64.7529049,105.187034 64.5888633,105.050972 L62.7331515,105.050972 L62.7331515,102.214094 L65.6346235,102.214094 L65.6346235,102.275322 C65.6414586,102.472612 65.7029733,102.644387 65.8191694,102.790654 C65.9353656,102.936921 66.0874436,103.061075 66.275408,103.163122 C66.4633724,103.265168 66.6769651,103.341702 66.9161924,103.392725 C67.1554198,103.443748 67.4083136,103.46926 67.6748812,103.46926 C68.2900374,103.46926 68.7377277,103.389324 69.0179655,103.229452 C69.2982033,103.069579 69.4383201,102.863788 69.4383201,102.612073 C69.4383201,102.414784 69.3699704,102.246409 69.2332691,102.106946 C69.0965677,101.967482 68.8539264,101.856934 68.5053379,101.775296 L66.536848,101.356908 C65.2997007,101.118799 64.3667278,100.722525 63.7379015,100.168072 C63.1090752,99.6136196 62.7946668,98.9010056 62.7946668,98.0302089 C62.7946668,97.5199764 62.9142787,97.0556718 63.1535061,96.6372812 C63.3927335,96.2188906 63.7173944,95.8617332 64.1274985,95.5657984 C64.5376026,95.2698636 65.0177589,95.0402624 65.5679819,94.876988 C66.1182049,94.7137136 66.7077208,94.6320777 67.3365471,94.6320777 C67.7671564,94.6320777 68.1499145,94.6575889 68.4848328,94.7086122 C68.8197512,94.7596354 69.1204897,94.8259646 69.3870573,94.9076018 C69.653625,94.989239 69.8877226,95.0861817 70.0893571,95.1984329 C70.2909916,95.310684 70.4704095,95.4280357 70.627616,95.5504915 L72.41156,95.5504915 L72.41156,98.3873698 L69.7664017,98.3873698 Z M77.0457132,101.101793 L77.0764709,101.418135 C77.1516566,101.724275 77.2798122,101.992993 77.4609415,102.224299 C77.6420709,102.455604 77.8556635,102.649489 78.101726,102.805961 C78.3477885,102.962432 78.6211871,103.079784 78.9219301,103.158019 C79.2226731,103.236255 79.5268291,103.275372 79.8344072,103.275372 C80.1419853,103.275372 80.4341801,103.256664 80.7110003,103.219247 C80.9878206,103.18183 81.256093,103.130807 81.5158256,103.066178 C81.7755582,103.001549 82.028452,102.926716 82.2745144,102.841677 C82.5205769,102.756638 82.7700531,102.666498 83.0229507,102.571255 L84.1507313,104.663198 C83.7611324,104.901306 83.4040054,105.103695 83.0793397,105.270371 C82.7546739,105.437047 82.4283043,105.574808 82.100221,105.683657 C81.7721378,105.792507 81.4235545,105.872442 81.0544608,105.923466 C80.6853671,105.974489 80.2547643,106 79.7626393,106 C78.8399051,106 78.0197092,105.848633 77.302027,105.545895 C76.5843448,105.243157 75.9811591,104.833277 75.4924517,104.316241 C75.0037443,103.799206 74.6312386,103.193739 74.3749236,102.499823 C74.1186085,101.805907 73.9904529,101.071183 73.9904529,100.29563 C73.9904529,99.5200763 74.1254435,98.7921556 74.3954287,98.1118456 C74.6654139,97.4315357 75.0464632,96.8379742 75.5385882,96.3311433 C76.0307131,95.8243124 76.6185202,95.4246363 77.302027,95.132103 C77.9855338,94.8395697 78.7442151,94.6933053 79.5780934,94.6933053 C80.4119717,94.6933053 81.1518568,94.831066 81.7977708,95.1065915 C82.4436847,95.382117 82.9887733,95.7630849 83.4330527,96.2495065 C83.8773322,96.7359281 84.2190805,97.3073799 84.4583079,97.963879 C84.6975353,98.6203781 84.8273996,99.326189 84.8479048,100.081333 C84.86841,100.251411 84.8803712,100.419785 84.8837887,100.586461 C84.8872063,100.753137 84.8820801,100.924912 84.8684099,101.101793 L77.0457132,101.101793 Z M79.496073,97.2444548 C79.1133092,97.2444548 78.7869395,97.290375 78.5169543,97.3822169 C78.2469691,97.4740587 78.0197065,97.5999142 77.8351597,97.759787 C77.6506128,97.9196598 77.5036611,98.10164 77.3943,98.305733 C77.2849389,98.509826 77.1995018,98.7241204 77.1379862,98.9486227 L81.5773409,98.9486227 C81.5294954,98.7173173 81.4611458,98.4996214 81.3722899,98.2955284 C81.283434,98.0914354 81.1604046,97.911156 81.003198,97.7546847 C80.8459915,97.5982134 80.6460687,97.4740587 80.4034238,97.3822169 C80.1607789,97.290375 79.8583316,97.2444548 79.496073,97.2444548 Z M92.9781781,105.153018 C92.7389507,105.302687 92.5202318,105.430243 92.3220148,105.535691 C92.1237978,105.641139 91.9255838,105.726176 91.7273668,105.790806 C91.5291498,105.855435 91.3241008,105.903056 91.1122137,105.93367 C90.9003266,105.964284 90.6679377,105.979591 90.4150402,105.979591 C89.7793788,105.979591 89.2103679,105.892853 88.7079904,105.719374 C88.2056129,105.545895 87.781845,105.30779 87.436674,105.005052 C87.0915031,104.702314 86.8266482,104.345156 86.6421013,103.933569 C86.4575545,103.521981 86.3652824,103.074684 86.3652824,102.591664 C86.3652824,102.101841 86.4592632,101.649442 86.6472276,101.234453 C86.835192,100.819464 87.1068819,100.464007 87.4623054,100.168072 C87.817729,99.8721373 88.253458,99.6408354 88.7695057,99.4741595 C89.2855534,99.3074836 89.8750692,99.2241468 90.5380708,99.2241468 C91.0233607,99.2241468 91.4659247,99.2496581 91.8657762,99.3006813 C92.2656277,99.3517046 92.6364246,99.4146323 92.9781781,99.4894664 L92.9781781,99.1629192 C92.9781781,98.8975984 92.9269158,98.6679972 92.8243898,98.4741089 C92.7218638,98.2802205 92.5783295,98.1203501 92.3937826,97.9944928 C92.2092358,97.8686354 91.9870994,97.776795 91.7273668,97.7189686 C91.4676342,97.6611423 91.1839831,97.6322295 90.876405,97.6322295 C90.2339086,97.6322295 89.6683152,97.6951572 89.1796078,97.8210146 C88.6909004,97.9468719 88.2209965,98.1288521 87.769882,98.3669606 L86.785637,96.3872685 C87.482814,95.9110516 88.2124466,95.5470912 88.9745567,95.2953765 C89.7366669,95.0436619 90.5449016,94.9178064 91.3992851,94.9178064 C92.0622868,94.9178064 92.675725,94.9909386 93.2396181,95.1372053 C93.8035113,95.2834719 94.2870851,95.5215768 94.6903541,95.8515271 C95.0936232,96.1814775 95.4097403,96.6117671 95.6387151,97.1424088 C95.8676899,97.6730506 95.9821756,98.3193353 95.9821756,99.0812825 L95.9821756,102.928416 L97.4072803,102.928416 L97.4072803,105.724476 L92.9781781,105.724476 L92.9781781,105.153018 Z M90.6405963,103.571306 C91.1258862,103.571306 91.5667415,103.493071 91.9631755,103.3366 C92.3596094,103.180129 92.6979403,102.989645 92.9781781,102.765142 L92.9781781,101.418135 L90.5175657,101.418135 C90.3603592,101.418135 90.2065724,101.441946 90.0562009,101.489568 C89.9058294,101.537189 89.7708388,101.605219 89.6512251,101.69366 C89.5316114,101.7821 89.4359219,101.890948 89.3641537,102.020207 C89.2923855,102.149466 89.2565019,102.299132 89.2565019,102.469209 C89.2565019,102.782152 89.3709876,103.044067 89.5999624,103.254963 C89.8289372,103.465859 90.1758117,103.571306 90.6405963,103.571306 Z M109.207967,98.9996457 L106.327,98.9996457 L106.327,97.9077537 C106.046762,97.9077537 105.790451,97.9264619 105.558059,97.963879 C105.325666,98.001296 105.122326,98.0642237 104.948032,98.152664 C104.773738,98.2411043 104.626786,98.3635583 104.507172,98.5200296 C104.387558,98.6765008 104.30383,98.8703863 104.255985,99.1016917 L104.255985,102.928416 L106.419273,102.928416 L106.419273,105.724476 L99.4885482,105.724476 L99.4885482,102.928416 L101.077694,102.928416 L101.077694,97.9485721 L99.5090533,97.9485721 L99.5090533,95.1525122 L104.235479,95.1525122 L104.235479,95.8974478 C104.536222,95.6593394 104.874553,95.4756584 105.250482,95.3463995 C105.626411,95.2171406 106.036509,95.1525122 106.480788,95.1525122 C106.931903,95.1525122 107.39668,95.1559137 107.875135,95.1627168 C108.35359,95.1695199 108.797863,95.1729214 109.207967,95.1729214 L109.207967,98.9996457 Z M118.90688,98.8057583 C118.612973,98.4383909 118.284894,98.1611688 117.922636,97.9740836 C117.560377,97.7869983 117.133192,97.7070631 116.641067,97.7342755 C116.244633,97.7070631 115.884088,97.7614871 115.559422,97.8975491 C115.234757,98.0336111 114.954523,98.224095 114.718713,98.4690066 C114.482903,98.7139182 114.300068,99.0047463 114.170202,99.3414997 C114.040335,99.6782531 113.975403,100.05752 113.975403,100.479312 C113.975403,100.853483 114.043753,101.207239 114.180454,101.540591 C114.317156,101.873942 114.503408,102.161369 114.739218,102.402879 C114.975028,102.644389 115.255262,102.833172 115.579928,102.969234 C115.904593,103.105296 116.258303,103.186932 116.641067,103.214145 C116.962315,103.186932 117.25451,103.120603 117.51766,103.015155 C117.78081,102.909707 118.014908,102.773647 118.21996,102.606971 C118.425012,102.440295 118.601012,102.253213 118.747966,102.045718 C118.89492,101.838224 119.009406,101.642638 119.091426,101.458954 L121.910878,102.234503 C121.794682,102.642689 121.594759,103.067877 121.311104,103.510078 C121.027448,103.95228 120.65836,104.355357 120.203828,104.719323 C119.749296,105.083289 119.209334,105.384321 118.583925,105.62243 C117.958516,105.860538 117.245971,105.979591 116.446268,105.979591 C115.632895,105.979591 114.884466,105.831626 114.200959,105.535691 C113.517453,105.239756 112.929646,104.836678 112.437521,104.326446 C111.945396,103.816213 111.560929,103.21755 111.284109,102.530437 C111.007288,101.843324 110.86888,101.105198 110.86888,100.316039 C110.86888,99.5336824 111.010706,98.8074624 111.294361,98.1373571 C111.578016,97.4672518 111.969318,96.8821941 112.468278,96.3821662 C112.967238,95.8821384 113.560172,95.4926668 114.247096,95.2137398 C114.93402,94.9348127 115.68074,94.8089572 116.487278,94.8361696 C117.061424,94.8089572 117.618474,94.8735857 118.158444,95.030057 C118.698415,95.1865283 119.211037,95.4212317 119.696327,95.7341743 L121.736585,95.7341743 L121.736585,98.8057583 L118.90688,98.8057583 Z M122.813103,89.8461211 L127.601044,89.8461211 L127.601044,96.1321536 C128.004313,95.7647862 128.446877,95.4773596 128.928749,95.2698651 C129.410622,95.0623705 129.94204,94.9586248 130.523021,94.9586248 C131.801179,94.9586248 132.778579,95.3140814 133.455251,96.0250053 C134.131923,96.7359292 134.470253,97.7750871 134.470253,99.14251 L134.470253,102.928416 L136.028641,102.928416 L136.028641,105.724476 L131.28171,105.724476 L131.28171,99.8568319 C131.28171,99.2649623 131.134758,98.7989569 130.84085,98.458802 C130.546942,98.118647 130.167602,97.9485721 129.702817,97.9485721 C129.395239,97.9485721 129.060326,98.0336095 128.698067,98.203687 C128.335808,98.3737645 127.970138,98.6220739 127.601044,98.9486227 L127.601044,102.928416 L129.159432,102.928416 L129.159432,105.724476 L122.813103,105.724476 L122.813103,102.928416 L124.453511,102.928416 L124.453511,92.642181 L122.813103,92.642181 L122.813103,89.8461211 Z M141.800828,90.2543051 L150.023374,90.2543051 C150.823077,90.2543051 151.537331,90.3733575 152.166157,90.611466 C152.794983,90.8495745 153.324693,91.1676146 153.755303,91.5655959 C154.185912,91.9635772 154.515699,92.4261811 154.744674,92.9534213 C154.973649,93.4806615 155.088134,94.0300035 155.088134,94.6014639 C155.088134,95.1253025 155.031746,95.5845049 154.918967,95.9790846 C154.806189,96.3736644 154.642149,96.7240188 154.426845,97.0301582 C154.21154,97.3362977 153.946685,97.6067169 153.632272,97.8414238 C153.317859,98.0761307 152.959023,98.2887244 152.555754,98.4792112 C152.904343,98.6560918 153.211916,98.9265109 153.478484,99.2904767 C153.745051,99.6544425 153.946683,100.12555 154.083384,100.703814 L154.606264,102.714119 L155.887833,102.714119 L155.908338,105.724476 L151.397216,105.724476 L150.782063,102.050821 C150.720547,101.615422 150.626566,101.239557 150.500118,100.923212 C150.373669,100.606868 150.204503,100.348354 149.992616,100.147663 C149.780729,99.9469715 149.522709,99.7990063 149.218549,99.7037629 C148.914388,99.6085196 148.553844,99.5608986 148.136904,99.5608986 L146.814325,99.5608986 L146.814325,102.928416 L148.23943,102.928416 L148.23943,105.724476 L141.800828,105.724476 L141.800828,102.928416 L143.410478,102.928416 L143.410478,93.0605696 L141.800828,93.0605696 L141.800828,90.2543051 Z M146.814325,93.0605696 L146.814325,96.8056571 L148.854583,96.8056571 C149.244182,96.8056571 149.594474,96.7699413 149.90547,96.6985088 C150.216465,96.6270762 150.483029,96.5148268 150.705169,96.3617571 C150.927308,96.2086873 151.098182,96.0165026 151.217796,95.7851973 C151.33741,95.5538919 151.397216,95.2783705 151.397216,94.9586248 C151.397216,94.3599521 151.181914,93.8939467 150.751305,93.5605949 C150.320696,93.227243 149.688461,93.0605696 148.854583,93.0605696 L146.814325,93.0605696 Z M159.906833,101.101793 L159.937591,101.418135 C160.012777,101.724275 160.140932,101.992993 160.322062,102.224299 C160.503191,102.455604 160.716784,102.649489 160.962846,102.805961 C161.208909,102.962432 161.482307,103.079784 161.78305,103.158019 C162.083793,103.236255 162.387949,103.275372 162.695527,103.275372 C163.003106,103.275372 163.2953,103.256664 163.572121,103.219247 C163.848941,103.18183 164.117213,103.130807 164.376946,103.066178 C164.636678,103.001549 164.889572,102.926716 165.135635,102.841677 C165.381697,102.756638 165.631173,102.666498 165.884071,102.571255 L167.011852,104.663198 C166.622253,104.901306 166.265126,105.103695 165.94046,105.270371 C165.615794,105.437047 165.289425,105.574808 164.961341,105.683657 C164.633258,105.792507 164.284675,105.872442 163.915581,105.923466 C163.546487,105.974489 163.115885,106 162.62376,106 C161.701025,106 160.880829,105.848633 160.163147,105.545895 C159.445465,105.243157 158.842279,104.833277 158.353572,104.316241 C157.864865,103.799206 157.492359,103.193739 157.236044,102.499823 C156.979729,101.805907 156.851573,101.071183 156.851573,100.29563 C156.851573,99.5200763 156.986564,98.7921556 157.256549,98.1118456 C157.526534,97.4315357 157.907583,96.8379742 158.399708,96.3311433 C158.891833,95.8243124 159.47964,95.4246363 160.163147,95.132103 C160.846654,94.8395697 161.605335,94.6933053 162.439214,94.6933053 C163.273092,94.6933053 164.012977,94.831066 164.658891,95.1065915 C165.304805,95.382117 165.849894,95.7630849 166.294173,96.2495065 C166.738452,96.7359281 167.080201,97.3073799 167.319428,97.963879 C167.558656,98.6203781 167.68852,99.326189 167.709025,100.081333 C167.72953,100.251411 167.741491,100.419785 167.744909,100.586461 C167.748327,100.753137 167.7432,100.924912 167.72953,101.101793 L159.906833,101.101793 Z M162.357193,97.2444548 C161.974429,97.2444548 161.64806,97.290375 161.378075,97.3822169 C161.108089,97.4740587 160.880827,97.5999142 160.69628,97.759787 C160.511733,97.9196598 160.364781,98.10164 160.25542,98.305733 C160.146059,98.509826 160.060622,98.7241204 159.999106,98.9486227 L164.438461,98.9486227 C164.390616,98.7173173 164.322266,98.4996214 164.23341,98.2955284 C164.144554,98.0914354 164.021525,97.911156 163.864318,97.7546847 C163.707112,97.5982134 163.507189,97.4740587 163.264544,97.3822169 C163.021899,97.290375 162.719452,97.2444548 162.357193,97.2444548 Z M176.08536,98.3873698 C176.08536,98.2240954 176.032389,98.0676265 175.926445,97.9179583 C175.820501,97.7682901 175.665006,97.6373324 175.459954,97.5250812 C175.254902,97.4128301 175.003717,97.3226904 174.706391,97.2546594 C174.409066,97.1866284 174.072444,97.1526134 173.696515,97.1526134 C173.552979,97.1526134 173.399192,97.1645187 173.23515,97.1883295 C173.071109,97.2121404 172.919031,97.2546591 172.778912,97.315887 C172.638793,97.3771149 172.522598,97.4604516 172.430325,97.5658996 C172.338052,97.6713477 172.291916,97.8057069 172.291916,97.9689813 C172.291916,98.0506185 172.303877,98.1288529 172.327799,98.203687 C172.351722,98.2785211 172.397858,98.3499526 172.466209,98.4179836 C172.53456,98.4860146 172.62854,98.5489423 172.748154,98.6067686 C172.867768,98.664595 173.023263,98.7105152 173.214645,98.7445307 L175.142125,99.1221009 C175.839302,99.2581628 176.423691,99.4282378 176.895311,99.6323308 C177.366931,99.8364237 177.746271,100.074529 178.033344,100.346653 C178.320417,100.618777 178.527175,100.92151 178.653624,101.254862 C178.780072,101.588214 178.843296,101.948773 178.843296,102.336549 C178.843296,102.942025 178.70147,103.472659 178.417815,103.928467 C178.13416,104.384274 177.761654,104.763541 177.300287,105.066279 C176.83892,105.369017 176.319462,105.596918 175.741899,105.749987 C175.164336,105.903057 174.581655,105.979591 173.993839,105.979591 C173.611075,105.979591 173.264201,105.95578 172.953205,105.908159 C172.642209,105.860537 172.361976,105.795908 172.112496,105.714271 C171.863016,105.632634 171.640879,105.535691 171.44608,105.42344 C171.251281,105.311189 171.071863,105.187034 170.907821,105.050972 L169.052109,105.050972 L169.052109,102.214094 L171.953581,102.214094 L171.953581,102.275322 C171.960416,102.472612 172.021931,102.644387 172.138127,102.790654 C172.254323,102.936921 172.406401,103.061075 172.594366,103.163122 C172.78233,103.265168 172.995923,103.341702 173.23515,103.392725 C173.474378,103.443748 173.727271,103.46926 173.993839,103.46926 C174.608995,103.46926 175.056685,103.389324 175.336923,103.229452 C175.617161,103.069579 175.757278,102.863788 175.757278,102.612073 C175.757278,102.414784 175.688928,102.246409 175.552227,102.106946 C175.415526,101.967482 175.172884,101.856934 174.824296,101.775296 L172.855806,101.356908 C171.618658,101.118799 170.685686,100.722525 170.056859,100.168072 C169.428033,99.6136196 169.113625,98.9010056 169.113625,98.0302089 C169.113625,97.5199764 169.233237,97.0556718 169.472464,96.6372812 C169.711691,96.2188906 170.036352,95.8617332 170.446456,95.5657984 C170.85656,95.2698636 171.336717,95.0402624 171.88694,94.876988 C172.437163,94.7137136 173.026679,94.6320777 173.655505,94.6320777 C174.086114,94.6320777 174.468872,94.6575889 174.803791,94.7086122 C175.138709,94.7596354 175.439447,94.8259646 175.706015,94.9076018 C175.972583,94.989239 176.20668,95.0861817 176.408315,95.1984329 C176.609949,95.310684 176.789367,95.4280357 176.946574,95.5504915 L178.730518,95.5504915 L178.730518,98.3873698 L176.08536,98.3873698 Z M180.524714,100.397676 C180.524714,99.6289254 180.664831,98.9078077 180.945069,98.2343008 C181.225307,97.560794 181.6149,96.9723347 182.11386,96.4689053 C182.61282,95.965476 183.207462,95.5675006 183.897804,95.2749674 C184.588146,94.9824341 185.346827,94.8361696 186.17387,94.8361696 C187.000913,94.8361696 187.761303,94.9824341 188.455063,95.2749674 C189.148822,95.5675006 189.745173,95.965476 190.244133,96.4689053 C190.743093,96.9723347 191.130977,97.560794 191.407798,98.2343008 C191.684618,98.9078077 191.823026,99.6289254 191.823026,100.397676 C191.823026,101.166426 191.688035,101.889244 191.41805,102.566153 C191.148065,103.243061 190.765307,103.834922 190.269764,104.341753 C189.774222,104.848584 189.17958,105.24826 188.48582,105.540793 C187.792061,105.833326 187.021419,105.979591 186.17387,105.979591 C185.319487,105.979591 184.545427,105.833326 183.851667,105.540793 C183.157908,105.24826 182.564974,104.850284 182.07285,104.346855 C181.580725,103.843426 181.199675,103.253266 180.92969,102.576357 C180.659705,101.899449 180.524714,101.173229 180.524714,100.397676 Z M183.590227,100.397676 C183.590227,100.799058 183.658577,101.168121 183.795278,101.504875 C183.93198,101.841628 184.118232,102.132456 184.354042,102.377368 C184.589852,102.622279 184.863251,102.812763 185.174246,102.948825 C185.485242,103.084887 185.818447,103.152917 186.17387,103.152917 C186.536129,103.152917 186.872751,103.086588 187.183746,102.953927 C187.494742,102.821267 187.764723,102.632484 187.993698,102.387572 C188.222673,102.142661 188.402091,101.851833 188.531957,101.515079 C188.661823,101.178326 188.726755,100.805862 188.726755,100.397676 C188.726755,99.9758835 188.661823,99.5949156 188.531957,99.2547606 C188.402091,98.9146057 188.222673,98.6254783 187.993698,98.3873698 C187.764723,98.1492613 187.494742,97.9672811 187.183746,97.8414238 C186.872751,97.7155664 186.536129,97.6560402 186.17387,97.6628433 C185.818447,97.6560402 185.485242,97.7155664 185.174246,97.8414238 C184.863251,97.9672811 184.589852,98.1492613 184.354042,98.3873698 C184.118232,98.6254783 183.93198,98.9146057 183.795278,99.2547606 C183.658577,99.5949156 183.590227,99.9758835 183.590227,100.397676 Z M199.963552,95.1525122 L204.987302,95.1525122 L204.987302,102.928416 L206.268871,102.928416 L206.268871,105.724476 L201.768001,105.724476 L201.768001,104.826471 C201.405742,105.15302 200.981974,105.404731 200.496684,105.581611 C200.011395,105.758492 199.450927,105.846931 198.815266,105.846931 C198.22745,105.846931 197.673818,105.755091 197.154353,105.571407 C196.634887,105.387723 196.182071,105.110501 195.79589,104.739732 C195.409708,104.368963 195.105552,103.904659 194.883413,103.346804 C194.661273,102.78895 194.550205,102.132461 194.550205,101.377317 L194.550205,97.9485721 L193.16611,97.9485721 L193.16611,95.1525122 L197.861779,95.1525122 L197.861779,101.377317 C197.861779,102.084839 198.042905,102.613772 198.405164,102.964132 C198.767423,103.314492 199.239035,103.489669 199.820016,103.489669 C200.23012,103.489669 200.602626,103.363813 200.937544,103.112099 C201.272462,102.860384 201.515104,102.520234 201.665475,102.091639 L201.665475,97.9485721 L199.963552,97.9485721 L199.963552,95.1525122 Z M217.464657,98.9996457 L214.58369,98.9996457 L214.58369,97.9077537 C214.303452,97.9077537 214.047141,97.9264619 213.814749,97.963879 C213.582356,98.001296 213.379016,98.0642237 213.204722,98.152664 C213.030428,98.2411043 212.883476,98.3635583 212.763862,98.5200296 C212.644248,98.6765008 212.56052,98.8703863 212.512675,99.1016917 L212.512675,102.928416 L214.675963,102.928416 L214.675963,105.724476 L207.745238,105.724476 L207.745238,102.928416 L209.334384,102.928416 L209.334384,97.9485721 L207.765743,97.9485721 L207.765743,95.1525122 L212.492169,95.1525122 L212.492169,95.8974478 C212.792913,95.6593394 213.131243,95.4756584 213.507172,95.3463995 C213.883101,95.2171406 214.293199,95.1525122 214.737478,95.1525122 C215.188593,95.1525122 215.65337,95.1559137 216.131825,95.1627168 C216.61028,95.1695199 217.054553,95.1729214 217.464657,95.1729214 L217.464657,98.9996457 Z M227.163571,98.8057583 C226.869663,98.4383909 226.541584,98.1611688 226.179326,97.9740836 C225.817067,97.7869983 225.389882,97.7070631 224.897757,97.7342755 C224.501323,97.7070631 224.140778,97.7614871 223.816112,97.8975491 C223.491447,98.0336111 223.211213,98.224095 222.975403,98.4690066 C222.739593,98.7139182 222.556758,99.0047463 222.426892,99.3414997 C222.297025,99.6782531 222.232093,100.05752 222.232093,100.479312 C222.232093,100.853483 222.300443,101.207239 222.437144,101.540591 C222.573846,101.873942 222.760099,102.161369 222.995908,102.402879 C223.231718,102.644389 223.511952,102.833172 223.836618,102.969234 C224.161283,103.105296 224.514993,103.186932 224.897757,103.214145 C225.219005,103.186932 225.5112,103.120603 225.77435,103.015155 C226.0375,102.909707 226.271598,102.773647 226.47665,102.606971 C226.681702,102.440295 226.857702,102.253213 227.004656,102.045718 C227.15161,101.838224 227.266096,101.642638 227.348116,101.458954 L230.167568,102.234503 C230.051372,102.642689 229.851449,103.067877 229.567794,103.510078 C229.284138,103.95228 228.91505,104.355357 228.460518,104.719323 C228.005986,105.083289 227.466024,105.384321 226.840615,105.62243 C226.215206,105.860538 225.502661,105.979591 224.702958,105.979591 C223.889585,105.979591 223.141156,105.831626 222.457649,105.535691 C221.774143,105.239756 221.186336,104.836678 220.694211,104.326446 C220.202086,103.816213 219.817619,103.21755 219.540799,102.530437 C219.263978,101.843324 219.12557,101.105198 219.12557,100.316039 C219.12557,99.5336824 219.267396,98.8074624 219.551051,98.1373571 C219.834706,97.4672518 220.226008,96.8821941 220.724968,96.3821662 C221.223928,95.8821384 221.816862,95.4926668 222.503786,95.2137398 C223.19071,94.9348127 223.93743,94.8089572 224.743968,94.8361696 C225.318114,94.8089572 225.875164,94.8735857 226.415134,95.030057 C226.955105,95.1865283 227.467727,95.4212317 227.953017,95.7341743 L229.993275,95.7341743 L229.993275,98.8057583 L227.163571,98.8057583 Z M234.063538,101.101793 L234.094295,101.418135 C234.169481,101.724275 234.297637,101.992993 234.478766,102.224299 C234.659895,102.455604 234.873488,102.649489 235.11955,102.805961 C235.365613,102.962432 235.639011,103.079784 235.939755,103.158019 C236.240498,103.236255 236.544653,103.275372 236.852232,103.275372 C237.15981,103.275372 237.452004,103.256664 237.728825,103.219247 C238.005645,103.18183 238.273917,103.130807 238.53365,103.066178 C238.793383,103.001549 239.046276,102.926716 239.292339,102.841677 C239.538401,102.756638 239.787878,102.666498 240.040775,102.571255 L241.168556,104.663198 C240.778957,104.901306 240.42183,105.103695 240.097164,105.270371 C239.772498,105.437047 239.446129,105.574808 239.118045,105.683657 C238.789962,105.792507 238.441379,105.872442 238.072285,105.923466 C237.703191,105.974489 237.272589,106 236.780464,106 C235.857729,106 235.037534,105.848633 234.319851,105.545895 C233.602169,105.243157 232.998983,104.833277 232.510276,104.316241 C232.021569,103.799206 231.649063,103.193739 231.392748,102.499823 C231.136433,101.805907 231.008277,101.071183 231.008277,100.29563 C231.008277,99.5200763 231.143268,98.7921556 231.413253,98.1118456 C231.683238,97.4315357 232.064288,96.8379742 232.556413,96.3311433 C233.048537,95.8243124 233.636345,95.4246363 234.319851,95.132103 C235.003358,94.8395697 235.762039,94.6933053 236.595918,94.6933053 C237.429796,94.6933053 238.169681,94.831066 238.815595,95.1065915 C239.461509,95.382117 240.006598,95.7630849 240.450877,96.2495065 C240.895157,96.7359281 241.236905,97.3073799 241.476132,97.963879 C241.71536,98.6203781 241.845224,99.326189 241.865729,100.081333 C241.886234,100.251411 241.898196,100.419785 241.901613,100.586461 C241.905031,100.753137 241.899904,100.924912 241.886234,101.101793 L234.063538,101.101793 Z M236.513897,97.2444548 C236.131134,97.2444548 235.804764,97.290375 235.534779,97.3822169 C235.264794,97.4740587 235.037531,97.5999142 234.852984,97.759787 C234.668437,97.9196598 234.521485,98.10164 234.412124,98.305733 C234.302763,98.509826 234.217326,98.7241204 234.155811,98.9486227 L238.595165,98.9486227 C238.54732,98.7173173 238.47897,98.4996214 238.390114,98.2955284 C238.301258,98.0914354 238.178229,97.911156 238.021022,97.7546847 C237.863816,97.5982134 237.663893,97.4740587 237.421248,97.3822169 C237.178603,97.290375 236.876156,97.2444548 236.513897,97.2444548 Z M250.242064,98.3873698 C250.242064,98.2240954 250.189093,98.0676265 250.083149,97.9179583 C249.977206,97.7682901 249.82171,97.6373324 249.616658,97.5250812 C249.411606,97.4128301 249.160421,97.3226904 248.863096,97.2546594 C248.56577,97.1866284 248.229148,97.1526134 247.853219,97.1526134 C247.709683,97.1526134 247.555896,97.1645187 247.391854,97.1883295 C247.227813,97.2121404 247.075735,97.2546591 246.935616,97.315887 C246.795497,97.3771149 246.679303,97.4604516 246.587029,97.5658996 C246.494756,97.6713477 246.44862,97.8057069 246.44862,97.9689813 C246.44862,98.0506185 246.460581,98.1288529 246.484504,98.203687 C246.508426,98.2785211 246.554562,98.3499526 246.622913,98.4179836 C246.691264,98.4860146 246.785245,98.5489423 246.904858,98.6067686 C247.024472,98.664595 247.179967,98.7105152 247.371349,98.7445307 L249.298829,99.1221009 C249.996006,99.2581628 250.580396,99.4282378 251.052015,99.6323308 C251.523635,99.8364237 251.902976,100.074529 252.190048,100.346653 C252.477121,100.618777 252.683879,100.92151 252.810328,101.254862 C252.936777,101.588214 253,101.948773 253,102.336549 C253,102.942025 252.858174,103.472659 252.574519,103.928467 C252.290864,104.384274 251.918358,104.763541 251.456991,105.066279 C250.995624,105.369017 250.476166,105.596918 249.898603,105.749987 C249.32104,105.903057 248.738359,105.979591 248.150543,105.979591 C247.767779,105.979591 247.420905,105.95578 247.109909,105.908159 C246.798914,105.860537 246.51868,105.795908 246.2692,105.714271 C246.01972,105.632634 245.797584,105.535691 245.602784,105.42344 C245.407985,105.311189 245.228567,105.187034 245.064525,105.050972 L243.208813,105.050972 L243.208813,102.214094 L246.110285,102.214094 L246.110285,102.275322 C246.117121,102.472612 246.178635,102.644387 246.294831,102.790654 C246.411028,102.936921 246.563106,103.061075 246.75107,103.163122 C246.939034,103.265168 247.152627,103.341702 247.391854,103.392725 C247.631082,103.443748 247.883976,103.46926 248.150543,103.46926 C248.765699,103.46926 249.21339,103.389324 249.493627,103.229452 C249.773865,103.069579 249.913982,102.863788 249.913982,102.612073 C249.913982,102.414784 249.845632,102.246409 249.708931,102.106946 C249.57223,101.967482 249.329588,101.856934 248.981,101.775296 L247.01251,101.356908 C245.775363,101.118799 244.84239,100.722525 244.213563,100.168072 C243.584737,99.6136196 243.270329,98.9010056 243.270329,98.0302089 C243.270329,97.5199764 243.389941,97.0556718 243.629168,96.6372812 C243.868395,96.2188906 244.193056,95.8617332 244.60316,95.5657984 C245.013265,95.2698636 245.493421,95.0402624 246.043644,94.876988 C246.593867,94.7137136 247.183383,94.6320777 247.812209,94.6320777 C248.242818,94.6320777 248.625576,94.6575889 248.960495,94.7086122 C249.295413,94.7596354 249.596152,94.8259646 249.862719,94.9076018 C250.129287,94.989239 250.363385,95.0861817 250.565019,95.1984329 C250.766654,95.310684 250.946071,95.4280357 251.103278,95.5504915 L252.887222,95.5504915 L252.887222,98.3873698 L250.242064,98.3873698 Z" id="ChildhoodCancerResearchResources--ChildhoodCancerResearchResources"></path>
        </g>
    </g>
</svg>