<?xml version="1.0" encoding="UTF-8"?>
<svg width="359px" height="312px" viewBox="0 0 359 312" version="1.1" xmlns="http://www.w3.org/2000/svg" xmlns:xlink="http://www.w3.org/1999/xlink">
    <!-- Generator: Sketch 53.2 (72643) - https://sketchapp.com -->
    <title>404</title>
    <desc>Created with Sketch.</desc>
    <defs>
        <linearGradient x1="50%" y1="100.004407%" x2="50%" y2="-3.13124773e-15%" id="404--linearGradient-1">
            <stop stop-color="#808080" stop-opacity="0.25" offset="0%"></stop>
            <stop stop-color="#808080" stop-opacity="0.12" offset="54%"></stop>
            <stop stop-color="#808080" stop-opacity="0.1" offset="100%"></stop>
        </linearGradient>
        <linearGradient x1="36.7267401%" y1="103.528257%" x2="64.213635%" y2="4.65100432%" id="404--linearGradient-2">
            <stop stop-color="#808080" stop-opacity="0.25" offset="0%"></stop>
            <stop stop-color="#808080" stop-opacity="0.12" offset="54%"></stop>
            <stop stop-color="#808080" stop-opacity="0.1" offset="100%"></stop>
        </linearGradient>
        <linearGradient x1="36.8062302%" y1="102.990254%" x2="64.2931251%" y2="4.11300106%" id="404--linearGradient-3">
            <stop stop-color="#808080" stop-opacity="0.25" offset="0%"></stop>
            <stop stop-color="#808080" stop-opacity="0.12" offset="54%"></stop>
            <stop stop-color="#808080" stop-opacity="0.1" offset="100%"></stop>
        </linearGradient>
        <linearGradient x1="50%" y1="100%" x2="50%" y2="-9.17895279e-15%" id="404--linearGradient-4">
            <stop stop-color="#808080" stop-opacity="0.25" offset="0%"></stop>
            <stop stop-color="#808080" stop-opacity="0.12" offset="54%"></stop>
            <stop stop-color="#808080" stop-opacity="0.1" offset="100%"></stop>
        </linearGradient>
    </defs>
    <g id="404--Guidelines" stroke="none" stroke-width="1" fill="none" fill-rule="evenodd">
        <g id="404--illustrations" transform="translate(-66.000000, -1612.000000)" fill-rule="nonzero">
            <g id="404--404" transform="translate(66.000000, 1612.000000)">
                <g id="404--Group" opacity="0.8" transform="translate(122.000000, 7.000000)" fill="url(#404--linearGradient-1)">
                    <ellipse id="404--Oval" cx="62.5" cy="48.631886" rx="62.2704082" ry="48.2702632"></ellipse>
                </g>
                <ellipse id="404--Oval" fill="#017FA3" cx="184.5" cy="56.5" rx="61.5" ry="47.5"></ellipse>
                <path d="M132.793891,62.0777697 C132.793891,35.753705 160.344849,14.4134685 194.33339,14.4134685 C204.885825,14.355401 215.333059,16.5113743 225,20.742071 C214.183316,13.4381849 200.03181,9 184.543796,9 C150.555256,9 123,30.3402365 123,56.6643012 C123,74.3397055 135.423931,89.7680908 153.881483,98 C140.959048,89.2611151 132.793891,76.410572 132.793891,62.0777697 Z" id="404--Path" fill="#FFFFFF" opacity="0.1"></path>
                <polygon id="404--Path" fill="#017FA3" opacity="0.2" points="185 76 253 194.002146 321 312 185 312 49 312 117 194.002146"></polygon>
                <g id="404--Group" opacity="0.3" transform="translate(145.000000, 192.000000)" fill="url(#404--linearGradient-2)">
                    <path d="M55.9048966,51.284581 L61.262069,35.5447486 C65.0442354,24.2912665 60.952397,11.9124074 51.182069,5.0501676 L51.2255172,5.02435754 C49.1183267,3.5556076 46.8075547,2.39648304 44.3650345,1.58301676 L44.3650345,1.58301676 L44.2911724,1.5572067 L44.2086207,1.53139665 L44.2086207,1.53139665 C41.8377478,0.737475453 39.3660434,0.277004652 36.8658621,0.163463687 C35.9815538,0.118283366 35.0954806,0.118283366 34.2111724,0.163463687 C32.6768082,0.242973238 31.1520635,0.451640728 29.6534483,0.787206704 C29.2189655,0.881843575 28.7844828,0.989385475 28.3891034,1.10553073 C27.9937241,1.22167598 27.5505517,1.34642458 27.1377931,1.47977654 C26.3122759,1.75078212 25.4997931,2.05620112 24.7046897,2.40463687 C24.3049655,2.57670391 23.9095862,2.7573743 23.5228966,2.95094972 C22.3536196,3.52253909 21.2281954,4.17814749 20.1556552,4.91251397 C19.7950345,5.1577095 19.4431034,5.41150838 19.0955172,5.66960894 C14.8008512,8.9031461 11.5858834,13.3390179 9.86710345,18.4025698 L1.44682759,43.2017318 C0.121605766,47.0909603 -0.276921349,51.2309908 0.282413793,55.2980447 C0.369310345,55.9217877 0.477931034,56.5412291 0.603931034,57.1563687 C0.729931034,57.7715084 0.886344828,58.3780447 1.03841379,58.9802793 C1.15572414,59.3803352 1.27737931,59.7803911 1.41206897,60.1761453 C1.61193103,60.7654749 1.84655172,61.3548045 2.06813793,61.9312291 C2.22889655,62.3140782 2.39834483,62.6969274 2.57648276,63.0754749 C2.92841379,63.8282682 3.31944828,64.5638547 3.74089655,65.2822346 C4.16234483,66.0006145 4.60986207,66.7017877 5.11386207,67.3814525 C5.47882759,67.8890503 5.86551724,68.3880447 6.26524138,68.8698324 C6.804,69.5150838 7.36882759,70.1603352 7.96841379,70.7324581 C10.5635218,73.3228285 13.6693265,75.356694 17.0925517,76.707486 L17.0925517,76.707486 L17.0925517,76.707486 L17.2402759,76.7677095 C17.4241025,76.4448543 17.6272221,76.1331459 17.8485517,75.8342458 C19.152,74.066257 21.42,72.8230726 23.5793793,73.2876536 C23.7357931,73.322067 23.8922069,73.3693855 24.0486207,73.4167039 C25.1435172,73.7995531 26.2210345,74.4835196 27.2768276,74.8190503 C28.0541507,75.1648547 28.9459097,75.1538381 29.7142759,74.7889385 C31.8258621,73.6748045 31.0437931,70.1603352 32.8555862,68.6203352 C32.939936,68.5492884 33.0284336,68.4832152 33.1206207,68.4224581 C33.0949949,68.3912364 33.071758,68.3581651 33.0511034,68.3235196 C34.4501379,67.4631844 36.387931,68.0353073 37.9998621,68.5902235 C39.7377931,69.1967598 42.0057931,69.605419 43.2136552,68.1987709 C44.0304828,67.2351955 43.9696552,65.768324 44.7473793,64.7574302 C45.6511034,63.5959777 47.3542759,63.4669274 48.8271724,63.6734078 L48.9010345,63.6949162 C51.7251724,64.8477654 54.81,62.9335196 54.5927586,59.9180447 C54.3364138,55.8959777 55.6137931,52.1062011 55.9048966,51.284581 Z" id="404--Path"></path>
                </g>
                <path d="M164.68039,266.094701 C165.919058,264.370322 168.044306,263.163257 170.080472,263.63315 C172.116638,264.103044 174.046753,266.073146 175.858092,265.08594 C178.335427,263.740924 176.579234,258.796268 180.600662,258.429838 C181.438674,258.373553 182.277802,258.521346 183.048303,258.860932 C184.745108,259.563617 187.400608,260.356831 188.707147,258.774713 C189.474952,257.843549 189.419805,256.425247 190.153673,255.459595 C191.002076,254.338749 192.618283,254.196488 193.996937,254.412035 L194.064809,254.43359 C196.72455,255.550125 199.634571,253.696418 199.426712,250.782218 C199.159465,246.902365 200.372681,243.246683 200.635686,242.453468 L205.675196,227.231515 C210.137656,213.646706 202.962885,198.95032 189.61918,194.343301 L189.61918,194.343301 C176.252946,189.814319 161.796995,197.106783 157.265353,210.664546 L149.320064,234.603234 C145.033332,247.672818 151.507977,261.873752 164.090751,267 C164.269698,266.686769 164.466583,266.384483 164.68039,266.094701 L164.68039,266.094701 Z" id="404--Path" fill="#FFFFFF"></path>
                <circle id="404--Oval" fill="#000000" opacity="0.2" cx="174" cy="209" r="3"></circle>
                <circle id="404--Oval" fill="#000000" opacity="0.2" cx="188" cy="214" r="3"></circle>
                <ellipse id="404--Oval" fill="#E0E0E0" transform="translate(177.611540, 221.896633) rotate(-71.400000) translate(-177.611540, -221.896633) " cx="177.61154" cy="221.896633" rx="4.18684482" ry="2.78343394"></ellipse>
                <circle id="404--Oval" fill="#FFFFFF" cx="237" cy="210" r="4"></circle>
                <circle id="404--Oval" fill="#FFFFFF" cx="248" cy="202" r="2"></circle>
                <g id="404--Group" opacity="0.5" transform="translate(151.000000, 24.000000)">
                    <g opacity="0.3" fill="url(#404--linearGradient-3)" id="404--Path">
                        <path d="M55.9048966,51.284581 L61.262069,35.5447486 C65.0442354,24.2912665 60.952397,11.9124074 51.182069,5.0501676 L51.2255172,5.02435754 C49.1183267,3.5556076 46.8075547,2.39648304 44.3650345,1.58301676 L44.3650345,1.58301676 L44.2911724,1.5572067 L44.2086207,1.53139665 L44.2086207,1.53139665 C41.8377478,0.737475453 39.3660434,0.277004652 36.8658621,0.163463687 C35.9815538,0.118283366 35.0954806,0.118283366 34.2111724,0.163463687 C32.6768082,0.242973238 31.1520635,0.451640728 29.6534483,0.787206704 C29.2189655,0.881843575 28.7844828,0.989385475 28.3891034,1.10553073 C27.9937241,1.22167598 27.5505517,1.34642458 27.1377931,1.47977654 C26.3122759,1.75078212 25.4997931,2.05620112 24.7046897,2.40463687 C24.3049655,2.57670391 23.9095862,2.7573743 23.5228966,2.95094972 C22.3536196,3.52253909 21.2281954,4.17814749 20.1556552,4.91251397 C19.7950345,5.1577095 19.4431034,5.41150838 19.0955172,5.66960894 C14.8008512,8.9031461 11.5858834,13.3390179 9.86710345,18.4025698 L1.44682759,43.2017318 C0.121605766,47.0909603 -0.276921349,51.2309908 0.282413793,55.2980447 C0.369310345,55.9217877 0.477931034,56.5412291 0.603931034,57.1563687 C0.729931034,57.7715084 0.886344828,58.3780447 1.03841379,58.9802793 C1.15572414,59.3803352 1.27737931,59.7803911 1.41206897,60.1761453 C1.61193103,60.7654749 1.84655172,61.3548045 2.06813793,61.9312291 C2.22889655,62.3140782 2.39834483,62.6969274 2.57648276,63.0754749 C2.92841379,63.8282682 3.31944828,64.5638547 3.74089655,65.2822346 C4.16234483,66.0006145 4.60986207,66.7017877 5.11386207,67.3814525 C5.47882759,67.8890503 5.86551724,68.3880447 6.26524138,68.8698324 C6.804,69.5150838 7.36882759,70.1388268 7.96841379,70.7324581 C10.5635218,73.3228285 13.6693265,75.356694 17.0925517,76.707486 L17.0925517,76.707486 L17.0925517,76.707486 L17.2402759,76.7677095 C17.4241025,76.4448543 17.6272221,76.1331459 17.8485517,75.8342458 C19.152,74.066257 21.42,72.8230726 23.5793793,73.2876536 C23.7357931,73.322067 23.8922069,73.3693855 24.0486207,73.4167039 C25.1435172,73.7995531 26.2210345,74.4835196 27.2768276,74.8190503 C28.0541507,75.1648547 28.9459097,75.1538381 29.7142759,74.7889385 C31.8258621,73.6748045 31.0437931,70.1603352 32.8555862,68.6203352 C32.939936,68.5492884 33.0284336,68.4832152 33.1206207,68.4224581 C33.0949949,68.3912364 33.071758,68.3581651 33.0511034,68.3235196 C34.4501379,67.4631844 36.387931,68.0353073 37.9998621,68.5902235 C39.7377931,69.1967598 42.0057931,69.605419 43.2136552,68.1987709 C44.0304828,67.2351955 43.9696552,65.768324 44.7473793,64.7574302 C45.6511034,63.5959777 47.3542759,63.4669274 48.8271724,63.6734078 L48.9010345,63.6734078 C51.7251724,64.826257 54.81,62.9120112 54.5927586,59.8965363 C54.3364138,55.8959777 55.6137931,52.1062011 55.9048966,51.284581 Z"></path>
                    </g>
                    <path d="M18.3395172,74.5093296 C19.6082069,72.7886592 21.7849655,71.5841899 23.8704828,72.0530726 C25.956,72.5219553 27.9328966,74.4878212 29.7881379,73.5027374 C32.3255172,72.1606145 30.5267586,67.2265922 34.6456552,66.8609497 C35.5039783,66.8047866 36.3634451,66.9522616 37.1526207,67.2911173 C38.8905517,67.9922905 41.6104138,68.7837989 42.9486207,67.2050838 C43.7350345,66.2759218 43.6785517,64.8606704 44.4302069,63.897095 C45.2991724,62.7786592 46.9545517,62.6367039 48.3666207,62.8517877 L48.4361379,62.8732961 C51.1603448,63.9874302 54.1408966,62.1377095 53.928,59.2297765 C53.6542759,55.3582682 54.8968966,51.7104469 55.1662759,50.9189385 L60.327931,35.7297207 C64.8985495,22.1741264 57.5498807,7.50934643 43.8827586,2.91223464 L43.8827586,2.91223464 C30.1925619,-1.60700742 15.3862356,5.66977393 10.7447586,19.1983799 L2.60689655,43.0855866 C-1.78373443,56.1270634 4.84783867,70.2974574 17.7355862,75.4126816 C17.9188706,75.1001243 18.1205278,74.7984883 18.3395172,74.5093296 Z" id="404--Path" fill="#FFFFFF"></path>
                    <ellipse id="404--Oval" fill="#000000" opacity="0.2" cx="27.9589655" cy="16.8109497" rx="2.82848276" ry="2.80039106"></ellipse>
                    <ellipse id="404--Oval" fill="#000000" opacity="0.2" cx="44.0435172" cy="22.1665363" rx="2.82848276" ry="2.80039106"></ellipse>
                </g>
                <path d="M242.397574,42 C243.190705,45.1153342 243.590678,48.3205451 243.587864,51.5384615 C243.587864,78.1030769 216.236796,99.6383217 182.494852,99.6383217 C154.879275,99.620979 131.547035,85.2005594 124,65.4125874 C129.605881,87.4247552 154.29053,104 183.902722,104 C217.644665,104 245,82.4647552 245,55.9001399 C244.991307,51.1425427 244.108713,46.4284071 242.397574,42 L242.397574,42 Z" id="404--Path" fill="#000000" opacity="0.1"></path>
                <g id="404--Group" opacity="0.8" transform="translate(57.000000, 45.000000)" fill="url(#404--linearGradient-4)">
                    <ellipse id="404--Oval" cx="127.5" cy="32.8646154" rx="127.14798" ry="32.7503846"></ellipse>
                </g>
                <path d="M185.5,45 C117.847427,45 63,58.8767032 63,76 L308,76 C308,58.8767032 253.152573,45 185.5,45 Z" id="404--Path" fill="#FFFFFF"></path>
                <path d="M185.5,109 C253.152573,109 308,95.1214429 308,78 L63,78 C63,95.1214429 117.847427,109 185.5,109 Z" id="404--Path" fill="#FFFFFF"></path>
                <path d="M185.5,109 C253.152573,109 308,95.1214429 308,78 L63,78 C63,95.1214429 117.847427,109 185.5,109 Z" id="404--Path" fill="#000000" opacity="0.05"></path>
                <rect id="404--Rectangle" fill="#000000" opacity="0.05" x="127" y="69" width="116" height="17" rx="8.5"></rect>
                <path d="M56.5076364,24.0490379 C55.7411728,23.7148359 55.3463324,22.8603712 55.588842,22.0606968 C55.607656,22.0010335 55.6196837,21.9394425 55.6246974,21.8770887 L55.6246974,21.8770887 C55.6481902,21.5131281 55.4294287,21.1770357 55.0869358,21.0509032 C54.7444429,20.9247708 54.3597095,21.0386095 54.1411806,21.3307427 L54.1411806,21.3307427 C54.1052928,21.3809199 54.0752208,21.435005 54.0515421,21.4919595 C53.718618,22.2593111 52.8620479,22.654475 52.0615679,22.4099999 C52.0017345,22.3916816 51.9401457,22.3796741 51.877809,22.374174 L51.877809,22.374174 C51.5135495,22.3507005 51.1771811,22.5692825 51.050945,22.9114943 C50.924709,23.2537062 51.0386412,23.6381238 51.3310143,23.8564734 L51.3310143,23.8564734 C51.3805205,23.8946318 51.4347523,23.9262411 51.4923636,23.9505165 C52.2588272,24.2847185 52.6536676,25.1391833 52.411158,25.9388577 C52.3927734,25.9971003 52.3807516,26.05716 52.3753026,26.1179876 L52.3753026,26.1179876 C52.3495574,26.4828146 52.5675671,26.820941 52.9106765,26.9483362 C53.253786,27.0757315 53.6398793,26.9619063 53.8588194,26.6688118 L53.8588194,26.6688118 C53.8956506,26.6176269 53.9257748,26.561943 53.9484579,26.5031167 C54.289472,25.7445208 55.1438548,25.3599795 55.9384321,25.6074675 C55.9982655,25.6257859 56.0598543,25.6377933 56.122191,25.6432935 L56.122191,25.6432935 C56.4864505,25.666767 56.8228189,25.448185 56.949055,25.1059732 C57.075291,24.7637613 56.9613588,24.3793437 56.6689857,24.1609941 L56.6689857,24.1609941 C56.6205267,24.1165446 56.566247,24.0788812 56.5076364,24.0490379 Z" id="404--Path" fill="#4D8AF0" opacity="0.5"></path>
                <path d="M274.505791,156.049038 C273.745245,155.706791 273.359571,154.854491 273.606045,154.060697 C273.62493,154.001033 273.637003,153.939442 273.642035,153.877089 L273.642035,153.877089 C273.665616,153.513128 273.446034,153.177036 273.102257,153.050903 C272.758481,152.924771 272.372305,153.03861 272.152957,153.330743 L272.152957,153.330743 C272.116934,153.38092 272.08675,153.435005 272.062982,153.49196 C271.72881,154.259311 270.869029,154.654475 270.065548,154.41 C270.00549,154.391682 269.94367,154.379674 269.8811,154.374174 L269.8811,154.374174 C269.515475,154.3507 269.177845,154.569282 269.051136,154.911494 C268.924427,155.253706 269.038786,155.638124 269.332255,155.856473 L269.332255,155.856473 C269.381947,155.894632 269.436382,155.926241 269.494209,155.950517 C270.254755,156.292763 270.640429,157.145063 270.393955,157.938858 C270.375501,157.9971 270.363434,158.05716 270.357965,158.117988 L270.357965,158.117988 C270.332123,158.482815 270.55095,158.820941 270.895346,158.948336 C271.239742,159.075731 271.627282,158.961906 271.847043,158.668812 L271.847043,158.668812 C271.884013,158.617627 271.91425,158.561943 271.937018,158.503117 C272.27931,157.744521 273.136896,157.359979 273.934452,157.607468 C273.99451,157.625786 274.05633,157.637793 274.1189,157.643293 L274.1189,157.643293 C274.484525,157.666767 274.822155,157.448185 274.948864,157.105973 C275.075573,156.763761 274.961214,156.379344 274.667745,156.160994 L274.667745,156.160994 C274.619104,156.116545 274.564621,156.078881 274.505791,156.049038 L274.505791,156.049038 Z" id="404--Path" fill="#4D8AF0" opacity="0.5"></path>
                <path d="M34.5076364,218.049038 C33.7411728,217.714836 33.3463324,216.860371 33.588842,216.060697 C33.607656,216.001033 33.6196837,215.939442 33.6246974,215.877089 L33.6246974,215.877089 C33.6481902,215.513128 33.4294287,215.177036 33.0869358,215.050903 C32.7444429,214.924771 32.3597095,215.03861 32.1411806,215.330743 L32.1411806,215.330743 C32.1052928,215.38092 32.0752208,215.435005 32.0515421,215.49196 C31.718618,216.259311 30.8620479,216.654475 30.0615679,216.41 C30.0017345,216.391682 29.9401457,216.379674 29.877809,216.374174 L29.877809,216.374174 C29.5135495,216.3507 29.1771811,216.569282 29.050945,216.911494 C28.924709,217.253706 29.0386412,217.638124 29.3310143,217.856473 L29.3310143,217.856473 C29.3805205,217.894632 29.4347523,217.926241 29.4923636,217.950517 C30.2588272,218.284719 30.6536676,219.139183 30.411158,219.938858 C30.3927734,219.9971 30.3807516,220.05716 30.3753026,220.117988 L30.3753026,220.117988 C30.3495574,220.482815 30.5675671,220.820941 30.9106765,220.948336 C31.253786,221.075731 31.6398793,220.961906 31.8588194,220.668812 L31.8588194,220.668812 C31.8956506,220.617627 31.9257748,220.561943 31.9484579,220.503117 C32.289472,219.744521 33.1438548,219.359979 33.9384321,219.607468 C33.9982655,219.625786 34.0598543,219.637793 34.122191,219.643293 L34.122191,219.643293 C34.4864505,219.666767 34.8228189,219.448185 34.949055,219.105973 C35.075291,218.763761 34.9613588,218.379344 34.6689857,218.160994 L34.6689857,218.160994 C34.6205267,218.116545 34.566247,218.078881 34.5076364,218.049038 Z" id="404--Path" fill="#4D8AF0" opacity="0.5"></path>
                <path d="M10.4852268,75.0490379 C9.72752196,74.706791 9.34328788,73.8544913 9.58884202,73.0606968 C9.60765604,73.0010335 9.61968367,72.9394425 9.62469741,72.8770887 L9.62469741,72.8770887 C9.64819018,72.5131281 9.42942866,72.1770357 9.08693577,72.0509032 C8.74444288,71.9247708 8.35970953,72.0386095 8.1411806,72.3307427 L8.1411806,72.3307427 C8.10529279,72.3809199 8.07522083,72.435005 8.05154212,72.4919595 C7.71861805,73.2593111 6.86204791,73.654475 6.06156791,73.4099999 C6.00173446,73.3916816 5.94014565,73.3796741 5.87780903,73.374174 L5.87780903,73.374174 C5.5135495,73.3507005 5.1771811,73.5692825 5.05094505,73.9114943 C4.924709,74.2537062 5.03864122,74.6381238 5.33101432,74.8564734 L5.33101432,74.8564734 C5.38052054,74.8946318 5.43475231,74.9262411 5.49236358,74.9505165 C6.25882721,75.2847185 6.65366759,76.1391833 6.41115798,76.9388577 C6.39277336,76.9971003 6.38075156,77.05716 6.37530259,77.1179876 L6.37530259,77.1179876 C6.34955741,77.4828146 6.56756707,77.820941 6.91067653,77.9483362 C7.253786,78.0757315 7.63987932,77.9619063 7.8588194,77.6688118 L7.8588194,77.6688118 C7.89565062,77.6176269 7.92577479,77.561943 7.94845788,77.5031167 C8.28947199,76.7445208 9.14385479,76.3599795 9.93843209,76.6074675 C9.99826554,76.6257859 10.0598543,76.6377933 10.122191,76.6432935 L10.122191,76.6432935 C10.4864505,76.666767 10.8228189,76.448185 10.949055,76.1059732 C11.075291,75.7637613 10.9613588,75.3793437 10.6689857,75.1609941 L10.6689857,75.1609941 C10.6136392,75.1147612 10.551706,75.0770281 10.4852268,75.0490379 Z" id="404--Path" fill="#4D8AF0" opacity="0.5"></path>
                <path d="M271.507121,3.02453968 C270.762185,2.6850426 270.384426,1.83959094 270.625842,1.05217433 C270.644339,0.992990441 270.656164,0.931894285 270.661094,0.870041491 L270.661094,0.870041491 C270.68419,0.509005207 270.469116,0.175613259 270.132394,0.0504942442 C269.795673,-0.0746247709 269.417424,0.0382992909 269.202577,0.328085244 L269.202577,0.328085244 C269.167294,0.377859319 269.137729,0.431509869 269.11445,0.488006759 C268.779182,1.24050757 267.939198,1.62195917 267.158011,1.37645962 C267.099186,1.35828845 267.038635,1.34637746 266.977349,1.34092151 L266.977349,1.34092151 C266.584823,1.25790962 266.191078,1.47670184 266.051099,1.85561017 C265.911121,2.2345185 266.066977,2.65966723 266.417737,2.85573364 L266.417737,2.85573364 C266.466409,2.89358549 266.519727,2.92494075 266.576367,2.94902119 C267.321303,3.28851828 267.699062,4.13396993 267.457646,4.92138655 C267.439571,4.97916116 267.427752,5.03873827 267.422394,5.09907712 L267.422394,5.09907712 C267.384052,5.47563939 267.607196,5.82947509 267.961698,5.95424364 C268.3162,6.0790122 268.709298,5.94206541 268.911755,5.62326431 L268.911755,5.62326431 C268.947966,5.57249069 268.977582,5.51725412 268.999883,5.45890053 C269.335151,4.70639972 270.175135,4.32494812 270.956322,4.57044767 C271.015147,4.58861884 271.075698,4.60052983 271.136984,4.60598578 L271.136984,4.60598578 C271.495105,4.62927067 271.825805,4.41244492 271.949913,4.07298268 C272.074022,3.73352043 271.96201,3.3521915 271.674564,3.13559629 L271.674564,3.13559629 C271.624208,3.09082279 271.567838,3.05343548 271.507121,3.02453968 L271.507121,3.02453968 Z" id="404--Path" fill="#4D8AF0" opacity="0.5"></path>
                <g id="404--Group" opacity="0.5" transform="translate(45.000000, 111.000000)" fill="#47E6B1">
                    <rect id="404--Rectangle" x="2.88235294" y="0.330555556" width="1.23529412" height="6.61111111"></rect>
                    <polygon id="404--Rectangle" transform="translate(3.500000, 3.636111) rotate(90.000000) translate(-3.500000, -3.636111) " points="2.91666667 0.136111111 4.08333333 0.136111111 4.08333333 7.13611111 2.91666667 7.13611111"></polygon>
                </g>
                <g id="404--Group" opacity="0.5" transform="translate(352.000000, 76.000000)" fill="#47E6B1">
                    <rect id="404--Rectangle" x="2.88235294" y="0.330555556" width="1.23529412" height="6.61111111"></rect>
                    <polygon id="404--Rectangle" transform="translate(3.500000, 3.636111) rotate(90.000000) translate(-3.500000, -3.636111) " points="2.91666667 0.136111111 4.08333333 0.136111111 4.08333333 7.13611111 2.91666667 7.13611111"></polygon>
                </g>
                <g id="404--Group" opacity="0.5" transform="translate(309.000000, 197.000000)" fill="#47E6B1">
                    <rect id="404--Rectangle" x="2.88235294" y="0.330555556" width="1.23529412" height="6.61111111"></rect>
                    <polygon id="404--Rectangle" transform="translate(3.500000, 3.636111) rotate(90.000000) translate(-3.500000, -3.636111) " points="2.91666667 0.136111111 4.08333333 0.136111111 4.08333333 7.13611111 2.91666667 7.13611111"></polygon>
                </g>
                <circle id="404--Oval" fill="#F55F44" opacity="0.5" cx="309" cy="35" r="3"></circle>
                <circle id="404--Oval" fill="#F55F44" opacity="0.5" cx="3" cy="5" r="3"></circle>
                <circle id="404--Oval" fill="#F55F44" opacity="0.5" cx="80" cy="154" r="3"></circle>
                <ellipse id="404--Oval" fill="#000000" opacity="0.05" cx="100.5" cy="67" rx="14.5" ry="3"></ellipse>
                <ellipse id="404--Oval" fill="#000000" opacity="0.05" cx="100.5" cy="89" rx="14.5" ry="3"></ellipse>
                <ellipse id="404--Oval" fill="#000000" opacity="0.05" cx="266.5" cy="67" rx="14.5" ry="3"></ellipse>
                <ellipse id="404--Oval" fill="#000000" opacity="0.05" cx="266.5" cy="89" rx="14.5" ry="3"></ellipse>
                <ellipse id="404--Oval" fill="#000000" opacity="0.05" cx="184.5" cy="54" rx="14.5" ry="3"></ellipse>
                <ellipse id="404--Oval" fill="#000000" opacity="0.05" cx="195.5" cy="22" rx="14.5" ry="3"></ellipse>
                <ellipse id="404--Oval" fill="#000000" opacity="0.05" cx="167.5" cy="34" rx="14.5" ry="3"></ellipse>
                <ellipse id="404--Oval" fill="#000000" opacity="0.05" cx="221.5" cy="41" rx="14.5" ry="3"></ellipse>
                <ellipse id="404--Oval" fill="#000000" opacity="0.05" cx="184.5" cy="98" rx="14.5" ry="3"></ellipse>
            </g>
        </g>
    </g>
</svg>