<?xml version="1.0" encoding="UTF-8"?>
<svg width="85px" height="80px" viewBox="0 0 85 80" version="1.1" xmlns="http://www.w3.org/2000/svg" xmlns:xlink="http://www.w3.org/1999/xlink">
    <!-- Generator: Sketch 53.2 (72643) - https://sketchapp.com -->
    <title>illucons/accelerate</title>
    <desc>Created with Sketch.</desc>
    <g id="illucons/accelerate--Guidelines" stroke="none" stroke-width="1" fill="none" fill-rule="evenodd">
        <g id="illucons/accelerate--icons-badges-variations" transform="translate(-318.000000, -629.000000)">
            <g id="illucons/accelerate--illucons/accelerate" transform="translate(290.000000, 629.000000)">
                <rect id="illucons/accelerate--Rectangle" x="0" y="0" width="140" height="80"></rect>
                <g id="illucons/accelerate--icon" transform="translate(28.000000, 0.000000)" fill-rule="nonzero">
                    <g id="illucons/accelerate--Group" transform="translate(24.194973, 0.000000)" fill="#017FA3">
                        <polygon id="illucons/accelerate--Path" points="0 57.7319588 10.8390774 54.697732 6.51095042 40.8964948"></polygon>
                        <polygon id="illucons/accelerate--Path" points="34.1847826 57.7319588 23.3457052 54.697732 27.6729984 40.8964948"></polygon>
                        <path d="M17.3258484,79.6024742 L13.5838653,63.6156701 C13.5838653,61.5505155 15.2822654,59.8705155 17.3708722,59.8705155 C19.4603128,59.8705155 21.1595467,61.5505155 21.1595467,63.6156701 L21.1253619,63.9043299 L17.3258484,79.6024742 Z M16.0901935,63.4960825 L17.3550305,68.851134 L18.6515509,63.4936082 C18.5890178,62.8494845 18.0378924,62.3439175 17.3700384,62.3439175 C16.7021845,62.3439175 16.1510591,62.851134 16.0901935,63.4960825 Z" id="illucons/accelerate--Shape"></path>
                        <g transform="translate(3.335101, 0.000000)">
                            <path d="M13.6689104,16.1698969 C11.3326723,16.1698969 9.4316649,18.0494845 9.4316649,20.3604124 C9.4316649,22.6713402 11.3326723,24.5509278 13.6689104,24.5509278 C16.0051485,24.5509278 17.9061559,22.6713402 17.9061559,20.3604124 C17.9061559,18.0494845 16.0043147,16.1698969 13.6689104,16.1698969 Z" id="illucons/accelerate--Path"></path>
                            <path d="M13.8331641,0.67628866 C-12.4924536,13.7369072 7.55567073,56.9072165 7.55567073,56.9072165 L13.3020493,56.9072165 L14.0349377,56.9072165 L19.7821501,56.9072165 C19.7821501,56.9072165 40.1596156,13.7369072 13.8331641,0.67628866 Z M13.6689104,27.0259794 C9.95277439,27.0259794 6.93033934,24.0362887 6.93033934,20.3612371 C6.93033934,16.6861856 9.95277439,13.6964948 13.6689104,13.6964948 C17.3842126,13.6964948 20.4074814,16.6861856 20.4074814,20.3612371 C20.4074814,24.0362887 17.3842126,27.0259794 13.6689104,27.0259794 Z" id="illucons/accelerate--Shape"></path>
                        </g>
                    </g>
                    <path d="M12.9347826,11.2790698 C12.0843441,11.2790698 11.3949275,10.5849376 11.3949275,9.72868217 L11.3949275,8.17829457 L9.85507246,8.17829457 C9.00463399,8.17829457 8.31521739,7.4841624 8.31521739,6.62790698 C8.31521739,5.77165155 9.00463399,5.07751938 9.85507246,5.07751938 L11.3949275,5.07751938 L11.3949275,3.52713178 C11.3949275,2.67087636 12.0843441,1.97674419 12.9347826,1.97674419 C13.7852211,1.97674419 14.4746377,2.67087636 14.4746377,3.52713178 L14.4746377,5.07751938 L16.0144928,5.07751938 C16.8649312,5.07751938 17.5543478,5.77165155 17.5543478,6.62790698 C17.5543478,7.4841624 16.8649312,8.17829457 16.0144928,8.17829457 L14.4746377,8.17829457 L14.4746377,9.72868217 C14.4746377,10.5849376 13.7852211,11.2790698 12.9347826,11.2790698 Z" id="illucons/accelerate--Path" fill="#98BF61"></path>
                    <path d="M84.076087,48.4883721 C84.076087,49.3446275 83.3866704,50.0387597 82.5362319,50.0387597 L80.9963768,50.0387597 L80.9963768,51.5891473 C80.9963768,52.4454027 80.3069602,53.1395349 79.4565217,53.1395349 C78.6060833,53.1395349 77.9166667,52.4454027 77.9166667,51.5891473 L77.9166667,50.0387597 L76.3768116,50.0387597 C75.5263731,50.0387597 74.8369565,49.3446275 74.8369565,48.4883721 C74.8369565,47.6321167 75.5263731,46.9379845 76.3768116,46.9379845 L77.9166667,46.9379845 L77.9166667,45.3875969 C77.9166667,44.5313415 78.6060833,43.8372093 79.4565217,43.8372093 C80.3069602,43.8372093 80.9963768,44.5313415 80.9963768,45.3875969 L80.9963768,46.9379845 L82.5362319,46.9379845 C83.3866704,46.9379845 84.076087,47.6321167 84.076087,48.4883721 Z" id="illucons/accelerate--Path" fill="#98BF61"></path>
                    <path d="M4.61956522,42.4418605 C4.61956522,43.7262436 3.58544032,44.7674419 2.30978261,44.7674419 C1.0341249,44.7674419 -1.38555833e-13,43.7262436 -1.38555833e-13,42.4418605 C-1.38555833e-13,41.1574773 1.0341249,40.1162791 2.30978261,40.1162791 C3.58544032,40.1162791 4.61956522,41.1574773 4.61956522,42.4418605 Z" id="illucons/accelerate--Path" fill="#98BF61"></path>
                    <path d="M70.2173913,13.6046512 C70.2173913,14.8890343 68.9764414,15.9302326 67.4456522,15.9302326 C65.9148629,15.9302326 64.673913,14.8890343 64.673913,13.6046512 C64.673913,12.320268 65.9148629,11.2790698 67.4456522,11.2790698 C68.9764414,11.2790698 70.2173913,12.320268 70.2173913,13.6046512 L70.2173913,13.6046512 Z" id="illucons/accelerate--Path" fill="#98BF61"></path>
                    <path d="M15.2445652,26.1627907 C13.9689075,26.1627907 12.9347826,25.1215924 12.9347826,23.8372093 C12.9347826,22.5528262 13.9689075,21.5116279 15.2445652,21.5116279 C16.5202229,21.5116279 17.5543478,22.5528262 17.5543478,23.8372093 C17.5543478,25.1215924 16.5202229,26.1627907 15.2445652,26.1627907 L15.2445652,26.1627907 Z" id="illucons/accelerate--Path" fill="#98BF61"></path>
                </g>
            </g>
        </g>
    </g>
</svg>