<?xml version="1.0" encoding="UTF-8"?>
<svg width="24px" height="23px" viewBox="0 0 24 23" version="1.1" xmlns="http://www.w3.org/2000/svg" xmlns:xlink="http://www.w3.org/1999/xlink">
    <!-- Generator: Sketch 53.2 (72643) - https://sketchapp.com -->
    <title>icons/cite</title>
    <desc>Created with Sketch.</desc>
    <defs>
        <path d="M9.49333333,5.74666667 C10.6666667,5.89333333 12.7333333,7.38666667 12.7333333,9.92 C12.7333333,11.7066667 11.6933333,12.5333333 10.48,12.5333333 C9.12,12.5333333 8.41333333,11.48 8.41333333,10.2266667 C8.41333333,8.57333333 9.65333333,8.16 10.4266667,8.09333333 C10.48,7.65333333 9.92,6.88 9.24,6.44 L9.49333333,5.74666667 Z M4.34666667,5.74666667 C5.52,5.89333333 7.58666667,7.38666667 7.58666667,9.92 C7.58666667,11.7066667 6.54666667,12.5333333 5.33333333,12.5333333 C3.97333333,12.5333333 3.26666667,11.48 3.26666667,10.2266667 C3.26666667,8.57333333 4.50666667,8.16 5.28,8.09333333 C5.33333333,7.65333333 4.77333333,6.88 4.09333333,6.44 L4.34666667,5.74666667 Z M0,0 L0,13.3333333 C0,14.6266667 0.706666667,15.3333333 2,15.3333333 L14,15.3333333 C15.2933333,15.3333333 16,14.6266667 16,13.3333333 L16,5.33333333 C16,4.04 15.2933333,3.33333333 14,3.33333333 L3.33333333,3.33333333 L0,0 Z" id="icons/cite--path-1"></path>
    </defs>
    <g id="icons/cite--Guidelines" stroke="none" stroke-width="1" fill="none" fill-rule="evenodd">
        <g id="icons/cite--Artboard" transform="translate(-194.000000, -70.000000)">
            <g id="icons/cite--icons/cite" transform="translate(198.000000, 72.000000)">
                <mask id="icons/cite--mask-2" fill="white">
                    <use xlink:href="#icons/cite--path-1"></use>
                </mask>
                <use id="icons/cite--Shape" fill="#017FA3" fill-rule="nonzero" transform="translate(8.000000, 7.666667) scale(-1, 1) rotate(-180.000000) translate(-8.000000, -7.666667) " xlink:href="#icons/cite--path-1"></use>
                <g id="icons/cite--color/turteal/base-017FA3" mask="url(#icons/cite--mask-2)" fill="#017FA3" fill-rule="evenodd" stroke="#017FA3" stroke-width="1">
                    <rect id="icons/cite--turteal-017FA3" x="0.5" y="0.5" width="16" height="15"></rect>
                </g>
            </g>
        </g>
    </g>
</svg>