<?xml version="1.0" encoding="UTF-8"?>
<svg width="63px" height="59px" viewBox="0 0 63 59" version="1.1" xmlns="http://www.w3.org/2000/svg" xmlns:xlink="http://www.w3.org/1999/xlink">
    <!-- Generator: Sketch 53.2 (72643) - https://sketchapp.com -->
    <title>illucons/cut-paperwork</title>
    <desc>Created with Sketch.</desc>
    <g id="illucons/cut-paperwork--Guidelines" stroke="none" stroke-width="1" fill="none" fill-rule="evenodd">
        <g id="illucons/cut-paperwork--icons-badges-variations" transform="translate(-351.000000, -934.000000)">
            <g id="illucons/cut-paperwork--illucons/cut-paperwork" transform="translate(346.000000, 927.000000)">
                <rect id="illucons/cut-paperwork--Rectangle" x="0" y="0" width="72" height="72"></rect>
                <g id="illucons/cut-paperwork--icon" transform="translate(5.000000, 7.000000)" fill-rule="nonzero">
                    <rect id="illucons/cut-paperwork--Rectangle" fill="#999999" x="29" y="14" width="13" height="2"></rect>
                    <rect id="illucons/cut-paperwork--Rectangle" fill="#999999" x="29" y="20" width="27" height="2"></rect>
                    <rect id="illucons/cut-paperwork--Rectangle" fill="#999999" x="29" y="26" width="27" height="2"></rect>
                    <polygon id="illucons/cut-paperwork--Rectangle" fill="#999999" transform="translate(43.362615, 43.042825) rotate(160.633701) translate(-43.362615, -43.042825) " points="30.6355462 42.0182789 56.0832873 42.1003726 56.0896842 44.0673719 30.6419431 43.9852782"></polygon>
                    <path d="M24.9754566,31.1939353 C24.9768652,31.035349 24.9745469,30.8375055 24.9628923,30.6187456 L24.9579245,3.93375617 L44.9150331,3.93375617 C45.8397553,6.25369979 47.0753204,10.5193798 46.1505982,13.6913319 C45.9596924,14.3453136 46.1236301,15.0493305 46.5813782,15.5546159 C47.039836,16.0599013 47.7282324,16.2917548 48.4017254,16.1733615 C50.2163951,15.8470754 55.3680132,15.483439 59.0413532,17.2276251 L59.0413532,43.4348132 L30.2365765,54.4813249 L26.1693602,43.6356589 L39.6945754,39.3009161 C38.8074666,39.1754757 37.9104222,39.0338266 37.1333149,38.9774489 C35.1958694,38.8357999 30.3224487,38.6441156 29.0159149,38.5926709 L22.9849946,40.5271318 C22.4697618,40.6899225 22.045369,41.0563777 21.8111723,41.5398168 C21.5755562,42.0232558 21.5500074,42.5799859 21.7366551,43.0817477 L27.2267939,57.7195208 C27.4098931,58.2128259 27.7860273,58.6116984 28.2700338,58.825229 C28.5269405,58.9400987 28.8044281,59 29.0812061,59 C29.3224996,59 29.5652126,58.9563073 29.7951512,58.8682171 L61.7339057,46.6166314 C62.4968192,46.3227625 62.9999873,45.5954898 62.9999873,44.7843552 L62.9999873,15.6420014 C63.000697,15.4446794 62.9715998,15.2473573 62.9112765,15.0584919 C59.2720014,3.4136716 47.2208062,0.194503171 46.7112509,0.0641296688 L46.7112509,0.0641296688 C46.6821538,0.0563777308 46.6516372,0.0577871741 46.62254,0.0514446794 C46.5203451,0.028893587 46.4146018,0.0162085976 46.307439,0.0119802678 C46.2783418,0.0105708245 46.2449866,0 46.21447,0 L22.9793171,0 C22.4548584,0 21.9524,0.207892882 21.5791046,0.576462297 C21.2079383,0.943622269 21,1.44467935 21,1.96476392 L21.0028387,28.8858351" id="illucons/cut-paperwork--Path" fill="#017FA3"></path>
                    <path d="M21.0268501,29.266967 C19.2057034,30.1825856 17.6623668,30.9619557 17.0493099,31.2721425 L12.6210366,30.3763377 C12.9786209,29.726719 13.1827536,29.0045253 13.1827536,28.2353711 C13.1827536,25.2989242 10.2868839,23 6.59067291,23 C2.89446193,23 0,25.2989242 0,28.2353711 C0,31.0038991 2.57770418,33.2053449 5.97053163,33.4472621 L12.1726484,34.7842099 L9.23243255,36.4797643 L9.24299114,36.4883026 C8.49896238,36.6640483 7.76971565,36.9429645 7.08199938,37.3499545 C3.88696954,39.2283698 2.59741355,42.8058971 4.14530309,45.4926002 C5.04841463,47.0622154 6.79762131,48 8.8234631,48 C10.1087957,48 11.4173571,47.6321437 12.6020311,46.9355647 C14.0387035,46.0888547 15.1529868,44.8401355 15.736525,43.413536 C16.3883421,41.8275558 16.3165436,40.1398281 15.5394313,38.7900729 C15.4338454,38.608635 15.3148852,38.4350239 15.1874782,38.268528 L18.0636386,36.6128188 C22.9980204,37.0198087 38.9731696,38.3375455 41.8070956,38.5111566 C45.1668395,38.7146516 44.9986059,33.5547017 44.9986059,33.5547017 L24.2495655,32.410576 L25.1695708,31.8797814" id="illucons/cut-paperwork--Path" fill="#98BF61"></path>
                    <path d="M6.50099019,29 C4.95008577,29 4,28.0308989 4,27.5016854 C4,26.9724719 4.94942553,26 6.50099019,26 C8.05255485,26 8.99999966,26.9716292 8.99999966,27.5016854 C9.0006599,28.0300562 8.05189461,29 6.50099019,29" id="illucons/cut-paperwork--Path" fill="#FDFDFD"></path>
                    <path d="M11.8499706,40.7483572 C11.5874537,41.4069279 11.0288763,42.0306375 10.3127887,42.4626113 C9.08843941,43.2083345 7.5053171,43.1514959 7.11445872,42.4557907 C6.73162168,41.772211 7.32228454,40.3876212 8.68955967,39.5623238 C9.28751467,39.1993142 9.95182808,39 10.556346,39 C11.1893032,39 11.6851683,39.2144712 11.8842436,39.571418 C12.1066537,39.9632259 11.9593526,40.4755317 11.8499706,40.7483572" id="illucons/cut-paperwork--Path" fill="#FDFDFD"></path>
                    <path d="M50.8325038,11.4743718 C50.9657045,9.18966893 50.536422,6.888213 50,5 C52.5561488,6.30115676 55.7884354,8.51116873 58,12 C55.3569813,11.4080574 52.726993,11.3766454 50.8325038,11.4743718" id="illucons/cut-paperwork--Path" fill="#FDFDFD"></path>
                </g>
            </g>
        </g>
    </g>
</svg>