<?xml version="1.0" encoding="UTF-8"?>
<svg width="64px" height="64px" viewBox="0 0 64 64" version="1.1" xmlns="http://www.w3.org/2000/svg" xmlns:xlink="http://www.w3.org/1999/xlink">
    <!-- Generator: Sketch 53.2 (72643) - https://sketchapp.com -->
    <title>icons/deliver</title>
    <desc>Created with Sketch.</desc>
    <defs>
        <circle id="icons/deliver--path-1" cx="32" cy="32" r="32"></circle>
        <path d="M17.6590246,25.2012487 C17.6582568,25.6877728 17.5177348,26.1735969 17.2520484,26.5950178 C16.910342,27.1368446 16.3659153,27.568066 15.7316468,27.8004775 C15.0113757,28.0643906 14.1836014,28.0664907 13.4617946,27.8067778 C12.7077368,27.5358644 12.0826828,26.984237 11.762477,26.2989031 C11.6004544,25.9530859 11.5182912,25.5778674 11.5190591,25.2012487 L9.21311659,25.2012487 L9.17856201,25.1998486 C9.13709651,25.1984486 9.11559588,25.1977485 9.06338007,25.187948 C8.95971632,25.1690471 8.86142772,25.1298452 8.77542521,25.0745424 C8.70708392,25.0318403 8.64565355,24.9793377 8.59574137,24.9170346 C8.57116922,24.8876332 8.5496686,24.8561316 8.53123948,24.82323 C8.52125705,24.8057291 8.51204249,24.7875282 8.50359582,24.7693273 C8.49514914,24.7497263 8.48670247,24.7301253 8.48055943,24.7105244 C8.46059456,24.6531215 8.44907636,24.5943186 8.44600485,24.5348157 C8.44293333,24.4732126 8.44677272,24.4578119 8.45368364,24.3976089 L10.2067528,13.7409808 C10.1760376,13.7332805 10.1460903,13.7248801 10.1153752,13.7171797 C9.2392245,13.481968 8.41068238,13.0997491 7.67966098,12.6006243 L0.766440674,12.6006243 C0.699635146,12.5978242 0.681973914,12.5992243 0.616704146,12.5873237 C0.346410516,12.5383213 0.112975109,12.3479118 0.0315798685,12.1035997 C-0.0559584093,11.8410867 0.0423301833,11.5365716 0.278837109,11.3594628 C0.395554813,11.2719585 0.540684063,11.2173558 0.69118847,11.2040551 C0.715760618,11.201955 0.741100646,11.201955 0.766440674,11.200555 L6.14390172,11.200555 C5.60408234,10.5453225 5.19019522,9.80468581 4.9306519,9.01924689 C4.47529928,7.64227867 4.49987143,6.13440395 5.00590411,4.76653618 C5.40443363,3.68778273 6.0993647,2.70143385 7.0039269,1.91949511 C8.08817294,0.983548734 9.47649931,0.341616927 10.9500603,0.105705238 C11.3862159,0.035701769 11.826211,0.00140006937 12.272349,0 C12.2800278,0 12.2884745,0 12.2969212,0 C13.3665775,0.00210010406 14.428555,0.207210267 15.4014585,0.60202983 C16.9886657,1.24606174 18.3209369,2.38781831 19.1226032,3.81378897 C19.8374991,5.08575199 20.1047213,6.55582483 19.8904828,7.96709476 C19.7944979,8.59852605 19.6002243,9.21665667 19.3199483,9.8004856 L30.7137462,9.8004856 L30.7337111,9.80118564 C30.7398541,9.80118564 30.7459972,9.80118564 30.7529081,9.80118564 C30.759819,9.80188567 30.7674978,9.80258571 30.7751766,9.80328574 L30.7889984,9.80398578 C30.7920699,9.80398578 30.7951415,9.80468581 30.798213,9.80538585 C30.8081954,9.80608588 30.81741,9.80678591 30.8273924,9.80818598 C30.8373748,9.80958605 30.8465894,9.81098612 30.8565718,9.81308623 C30.8588755,9.81308623 30.8611791,9.81378626 30.8634827,9.81378626 C30.9172343,9.82358675 30.9694501,9.83898751 31.0201302,9.85928852 C31.1875279,9.92719188 31.3295857,10.049698 31.4086773,10.2023055 C31.4286421,10.2415075 31.4447676,10.2821095 31.4562858,10.3234115 C31.4601252,10.3367122 31.4639646,10.3507129 31.4670361,10.3640135 C31.4701076,10.3780142 31.4724113,10.3927149 31.4747149,10.4067156 C31.480858,10.4494178 31.4831616,10.4928199 31.480858,10.5362221 C31.4793222,10.5586232 31.4754828,10.5817243 31.4731792,10.6041254 L31.1445267,12.6006243 L39.9283018,12.6006243 C39.952106,12.6020244 39.9759103,12.6027244 39.9989467,12.6034245 C40.0619128,12.6118249 40.0780383,12.6118249 40.1387008,12.6279257 C40.2531148,12.6573272 40.3598501,12.7112298 40.4466205,12.7847335 C40.4934612,12.8239354 40.5019078,12.836536 40.5426055,12.8806382 L42.8462444,15.680777 C42.8831026,15.7304794 42.8938529,15.74168 42.9230323,15.7955827 C42.9660336,15.8760866 42.9913736,15.964291 42.9982845,16.0538955 C43.0021239,16.1133984 42.9990524,16.1280991 42.9936772,16.1876021 L41.8418578,24.5880183 C41.8380184,24.6104194 41.8349469,24.6328205 41.8295717,24.6545216 C41.7696771,24.8960336 41.5623496,25.1011437 41.2989669,25.1725473 C41.2513584,25.1851479 41.2029819,25.1935483 41.1538377,25.1977485 C41.1292655,25.2005487 41.1046934,25.2005487 41.0801212,25.2012487 L36.8560154,25.2012487 C36.8552475,25.6835726 36.717797,26.1665965 36.4536464,26.5880174 C36.1134758,27.1312443 35.5675133,27.5666659 34.9286375,27.8004775 C34.2083664,28.0643906 33.3805922,28.0664907 32.6587853,27.8067778 C31.8025995,27.4987625 31.1138115,26.8260292 30.8435179,26.0090887 C30.7567475,25.7465757 30.7145141,25.4735622 30.715282,25.2012487 L17.6590246,25.2012487 L17.6590246,25.2012487 Z M14.5859704,23.8011793 C14.1889766,23.8018794 13.7958222,23.9488866 13.5124746,24.2029992 C13.1438924,24.5327156 12.9718874,25.0367405 13.0909087,25.5134642 C13.197644,25.9418854 13.5408862,26.3164039 13.9870242,26.4900125 C14.4339302,26.6636212 14.9691423,26.6300195 15.3876367,26.3969079 C15.8368463,26.1462955 16.1286405,25.6786723 16.1240333,25.187948 C16.119426,24.7462261 15.8737045,24.3143047 15.4682641,24.0545919 C15.2163995,23.8928839 14.9100156,23.8032794 14.601328,23.8011793 C14.5959528,23.8011793 14.5905776,23.8011793 14.5859704,23.8011793 L14.5859704,23.8011793 Z M33.7829611,23.8011793 C33.3314479,23.8018794 32.8860777,23.9929888 32.5973549,24.3150048 C32.3109358,24.6328205 32.1903787,25.0682421 32.2786849,25.4756623 C32.3723662,25.9061836 32.7048581,26.2898026 33.145621,26.4746118 C33.59867,26.6643212 34.1523112,26.6377199 34.5846274,26.3969079 C35.0253903,26.1511958 35.3171846,25.6961732 35.321024,25.2103491 C35.3225597,24.9940384 35.2688082,24.7777277 35.1636087,24.5838181 C34.9278696,24.1476965 34.4318194,23.8361811 33.8866248,23.8039795 C33.8520703,23.8018794 33.8175157,23.8011793 33.7829611,23.8011793 L33.7829611,23.8011793 Z M28.2096907,21.0010406 L10.5653526,21.0010406 L10.1046248,23.8011793 L11.928339,23.8011793 C12.3015285,23.2159503 12.9112249,22.7581276 13.6215135,22.543217 C13.9271296,22.4508124 14.250407,22.4032101 14.5729164,22.4011099 C14.5798273,22.4011099 14.5867382,22.4011099 14.5928813,22.4011099 C15.2179353,22.40251 15.8399178,22.5810189 16.3513256,22.9086351 C16.7160685,23.1424467 17.0216845,23.4490619 17.2451375,23.8011793 L27.748963,23.8011793 L28.2096907,21.0010406 Z M39.5443619,14.0006937 L30.9141628,14.0006937 L29.3016156,23.8011793 L31.1253297,23.8011793 C31.4985192,23.2159503 32.1082156,22.7581276 32.8185043,22.543217 C33.1241204,22.4508124 33.4473977,22.4032101 33.7699071,22.4011099 C33.7768181,22.4011099 33.783729,22.4011099 33.789872,22.4011099 C34.4241406,22.40251 35.0553376,22.5866191 35.5713527,22.9233358 C35.9261131,23.1550473 36.2232826,23.4574623 36.4421282,23.8011793 L40.4020835,23.8011793 L41.4310422,16.2947074 L39.5443619,14.0006937 L39.5443619,14.0006937 Z M37.6246629,21.0010406 L33.0173851,21.0010406 C32.992813,21.0003405 32.9690087,21.0003405 32.9444365,20.9982404 C32.6334453,20.9709391 32.3508656,20.7574285 32.2725419,20.4718144 C32.2548806,20.4074112 32.2472018,20.3409079 32.2502734,20.2744046 C32.2510412,20.2527035 32.2541127,20.2303024 32.2564164,20.2086013 L32.8707201,16.0083932 C32.8745595,15.9859921 32.8783989,15.964291 32.883774,15.9425899 C32.9559547,15.660476 33.2339272,15.4322647 33.5579724,15.4042633 C33.5825445,15.4021632 33.6071167,15.4021632 33.6316888,15.4007631 L36.4728434,15.4007631 C36.4981835,15.4021632 36.5227556,15.4028632 36.5480956,15.4042633 C36.6141333,15.4133637 36.6310266,15.4133637 36.6955285,15.4308646 C36.7915135,15.4574659 36.8821233,15.5015681 36.9596791,15.559671 C36.979644,15.5743717 36.9973052,15.5904725 37.0157343,15.6058733 L38.5514936,17.0059426 C38.5929591,17.0479447 38.6052452,17.0570452 38.6405676,17.1039475 C38.7334811,17.2264536 38.7810896,17.3755609 38.7757144,17.5239683 C38.7749466,17.5456694 38.7726429,17.5666704 38.7703393,17.5876714 L38.3863995,20.3878102 C38.3825601,20.4102113 38.3794886,20.4326124 38.3741134,20.4543135 C38.3142188,20.6951254 38.1068913,20.9009356 37.8435086,20.9723392 C37.7959,20.9849398 37.7475236,20.9933402 37.6983793,20.9975404 C37.6738072,21.0003405 37.649235,21.0003405 37.6246629,21.0010406 L37.6246629,21.0010406 Z M29.4935855,13.1970539 L29.822238,11.200555 L18.4261364,11.200555 C18.314026,11.3363617 18.1973083,11.4686683 18.0744475,11.5967746 C17.1253483,12.5901238 15.870633,13.3300605 14.4876818,13.7073792 C13.5938699,13.9516913 12.6516816,14.0440959 11.7202436,13.9817928 L10.7957165,19.6009712 L28.4400546,19.6009712 L28.6704185,18.1988017 L29.4935855,13.1970539 Z M36.1549413,16.8008325 L34.3035835,16.8008325 L33.8943036,19.6009712 L36.9466252,19.6009712 L37.2000254,17.7535797 L36.1549413,16.8008325 Z M7.67735734,18.2009018 L3.83795919,18.2009018 C3.77115366,18.1981017 3.75349243,18.1995018 3.68822266,18.1876012 C3.39335689,18.1343985 3.14456389,17.9117875 3.08466927,17.6373739 C3.0309177,17.3909617 3.13458145,17.1214483 3.35035563,16.9597403 C3.46707333,16.872236 3.61220258,16.8176333 3.76270699,16.8043326 C3.78727913,16.8022325 3.81261916,16.8022325 3.83795919,16.8008325 L7.67735734,16.8008325 C7.70269736,16.8022325 7.72726951,16.8029326 7.75260954,16.8043326 C7.77718169,16.8078328 7.80252172,16.8099329 7.82709386,16.8141331 C8.07358323,16.8589353 8.29012528,17.0213434 8.38687811,17.2327539 C8.50129218,17.4861664 8.43679029,17.7983819 8.22024823,17.9957917 C8.11351297,18.0930965 7.97529463,18.1609999 7.82709386,18.1876012 C7.76105622,18.1995018 7.74416286,18.1981017 7.67735734,18.2009018 Z M7.67735734,15.4007631 L2.30219993,15.4007631 C2.2353944,15.397963 2.21773317,15.399363 2.1524634,15.3874624 C1.85759763,15.3342598 1.60880463,15.1116488 1.54891002,14.8372352 C1.49976572,14.612524 1.58116096,14.3675119 1.75930903,14.2058039 C1.88370553,14.0923983 2.05110329,14.0195947 2.22694773,14.0041939 C2.25151988,14.0020938 2.2768599,14.0020938 2.30219993,14.0006937 L7.67735734,14.0006937 C7.70269736,14.0020938 7.72726951,14.0027938 7.75260954,14.0041939 C7.77718169,14.0076941 7.80252172,14.0097942 7.82709386,14.0139944 C8.12195964,14.067897 8.37075264,14.289808 8.43064725,14.5642216 C8.47979155,14.7889328 8.39762843,15.0339449 8.22024823,15.1956529 C8.11351297,15.2929577 7.97529463,15.3608611 7.82709386,15.3874624 C7.76105622,15.399363 7.74416286,15.397963 7.67735734,15.4007631 L7.67735734,15.4007631 Z M12.2746527,1.40006937 C11.0821356,1.40286951 9.90804766,1.72418543 8.92132234,2.31431467 C7.77871745,2.99824856 6.89642375,4.03569996 6.461036,5.21315831 C6.0578992,6.30451238 6.03639857,7.51207221 6.40114139,8.61532688 C6.81656427,9.87258917 7.73571619,10.9842443 8.94435872,11.6996797 C10.2543614,12.4767182 11.8853377,12.7686327 13.4287758,12.5033195 C14.2020305,12.371013 14.9461059,12.0993995 15.6095539,11.7094802 C16.8235716,10.9947448 17.7496344,9.88798994 18.1704325,8.6076265 C18.5866232,7.34126375 18.4952456,5.94749469 17.9001388,4.72803427 C17.4317323,3.76898675 16.6569417,2.92964516 15.6940207,2.34231606 C14.811727,1.80398939 13.7727858,1.47917329 12.7085047,1.41337003 C12.5641433,1.40426958 12.419014,1.40006937 12.2746527,1.40006937 L12.2746527,1.40006937 Z M15.6180006,4.32341422 C15.6425727,4.32691439 15.6671449,4.3290145 15.6924849,4.33391474 C15.9873507,4.38711738 16.2353758,4.60972841 16.2952704,4.884142 C16.3398074,5.08575199 16.2806807,5.30416281 16.1355515,5.46447076 C16.1201939,5.48197163 16.1025326,5.49877246 16.0856393,5.51557329 L11.7417442,9.47566951 C11.7225472,9.49107027 11.704886,9.50717107 11.685689,9.5218718 C11.4537894,9.6954804 11.1067078,9.7297821 10.8364141,9.59747554 C10.7918771,9.5764745 10.7504116,9.55057322 10.7112498,9.5218718 C10.6920528,9.50717107 10.6743915,9.49107027 10.6559624,9.47566951 L8.48363095,7.49527138 C8.43909393,7.45046916 8.4252721,7.43996864 8.38841387,7.38956614 C8.23483795,7.18025577 8.2179446,6.89534166 8.34925201,6.67063052 C8.49130974,6.42911856 8.79692584,6.27651099 9.10177405,6.30381235 C9.25227846,6.31711301 9.39740771,6.37171571 9.51412541,6.45922005 C9.5333224,6.47392077 9.55098363,6.49002157 9.56941274,6.50542234 L11.1988533,7.9901959 L14.9990896,4.52572424 L15.0551448,4.47952195 C15.0751097,4.46552126 15.0950746,4.45082053 15.1158073,4.43821991 C15.1995062,4.38711738 15.2939554,4.35141561 15.392244,4.33391474 C15.4582816,4.32201415 15.475175,4.32341422 15.5419805,4.32061408 C15.5673205,4.32131412 15.5926606,4.32271419 15.6180006,4.32341422 L15.6180006,4.32341422 Z" id="icons/deliver--path-3"></path>
    </defs>
    <g id="icons/deliver--Guidelines" stroke="none" stroke-width="1" fill="none" fill-rule="evenodd">
        <g id="icons/deliver--Artboard" transform="translate(-65.000000, -454.000000)">
            <g id="icons/deliver--icons/bg-filled/oval/deliver" transform="translate(65.000000, 454.000000)">
                <mask id="icons/deliver--mask-2" fill="white">
                    <use xlink:href="#icons/deliver--path-1"></use>
                </mask>
                <use id="icons/deliver--Oval" fill="#D8D8D8" fill-rule="evenodd" xlink:href="#icons/deliver--path-1"></use>
                <g id="icons/deliver--color/turteal/base-017FA3" mask="url(#icons/deliver--mask-2)" fill="#017FA3" fill-rule="evenodd" stroke="#017FA3" stroke-width="1">
                    <rect id="icons/deliver--turteal-017FA3" x="0.5" y="0.5" width="63" height="63"></rect>
                </g>
                <g id="icons/deliver--icons/deliver" mask="url(#icons/deliver--mask-2)">
                    <g transform="translate(10.666667, 16.000000)">
                        <mask id="icons/deliver--mask-4" fill="white">
                            <use xlink:href="#icons/deliver--path-3"></use>
                        </mask>
                        <use id="icons/deliver--truck" stroke="none" fill="#1A1A1A" fill-rule="evenodd" xlink:href="#icons/deliver--path-3"></use>
                        <g id="icons/deliver--color/black-tint/95-F2F2F2" stroke="none" fill="none" mask="url(#icons/deliver--mask-4)" fill-rule="evenodd">
                            <rect id="icons/deliver--gray-5-F2F2F2" fill="#F2F2F2" x="0" y="0" width="43" height="30"></rect>
                        </g>
                    </g>
                </g>
            </g>
        </g>
    </g>
</svg>