<?xml version="1.0" encoding="UTF-8"?>
<svg width="24px" height="24px" viewBox="0 0 24 24" version="1.1" xmlns="http://www.w3.org/2000/svg" xmlns:xlink="http://www.w3.org/1999/xlink">
    <!-- Generator: Sketch 53.2 (72643) - https://sketchapp.com -->
    <title>icons/deliver</title>
    <desc>Created with Sketch.</desc>
    <defs>
        <circle id="path-1" cx="12" cy="12" r="12"></circle>
        <path d="M6.57079986,9.90049056 C6.57051414,10.091625 6.5182269,10.2824845 6.41936686,10.4480427 C6.29222028,10.6609032 6.08964292,10.8303116 5.85363601,10.9216162 C5.58562816,11.0252963 5.27761914,11.0261213 5.00903984,10.9240913 C4.7284602,10.817661 4.49588196,10.6009503 4.37673561,10.3317119 C4.31644813,10.1958552 4.28587581,10.0484479 4.28616153,9.90049056 L3.42813641,9.90049056 L3.41527889,9.89994053 C3.39984986,9.8993905 3.39184963,9.89911549 3.37242049,9.8952653 C3.33384793,9.88783993 3.29727543,9.87243917 3.2652745,9.85071309 C3.23984518,9.83393726 3.21698737,9.81331124 3.19841539,9.78883502 C3.18927227,9.77728445 3.18127204,9.76490884 3.17441469,9.7519832 C3.1707003,9.74510786 3.16727163,9.7379575 3.16412868,9.73080715 C3.16098573,9.72310677 3.15784278,9.71540639 3.155557,9.70770601 C3.14812821,9.68515489 3.14384237,9.66205374 3.14269948,9.63867758 C3.14155659,9.61447639 3.1429852,9.60842609 3.1455567,9.58477491 L3.79786152,5.39824248 C3.78643261,5.39521733 3.77528943,5.39191716 3.76386052,5.38889201 C3.43785098,5.29648743 3.12955624,5.14632999 2.85754827,4.95024528 L0.285187227,4.95024528 C0.260329357,4.94914522 0.253757736,4.94969525 0.22947131,4.94502002 C0.128896936,4.92576907 0.0420372499,4.85096536 0.0117506487,4.7549856 C-0.0208217337,4.65185549 0.0157507659,4.53222457 0.103753343,4.46264612 C0.147183186,4.42826942 0.201184767,4.40681835 0.257186407,4.40159309 C0.266329532,4.40076805 0.27575838,4.40076805 0.285187227,4.40021803 L2.28610296,4.40021803 C2.08523994,4.14280527 1.93123543,3.85184085 1.83466117,3.54327557 C1.66522764,3.00232376 1.67437076,2.40994441 1.86266199,1.87256778 C2.01095205,1.44877178 2.26953105,1.06127759 2.60611234,0.754087364 C3.00955272,0.386394145 3.52613928,0.13420665 4.07444105,0.0415270576 C4.23673151,0.014025695 4.40045059,0.000550027253 4.56645546,0 C4.56931268,0 4.57245563,0 4.57559858,0 C4.97361024,0.00082504088 5.36876466,0.0814040335 5.73077527,0.236511719 C6.32136399,0.489524255 6.81709279,0.93807148 7.11538724,1.49827424 C7.38139503,1.997974 7.48082651,2.57550261 7.40110989,3.12993008 C7.36539456,3.37799238 7.29310673,3.62082941 7.18881796,3.85019077 L11.4283707,3.85019077 L11.4357995,3.85046579 C11.4380853,3.85046579 11.440371,3.85046579 11.4429425,3.85046579 C11.445514,3.8507408 11.4483713,3.85101581 11.4512285,3.85129083 L11.4563715,3.85156584 C11.4575144,3.85156584 11.4586573,3.85184085 11.4598002,3.85211587 C11.4635146,3.85239088 11.4669432,3.85266589 11.4706576,3.85321592 C11.474372,3.85376595 11.4778007,3.85431598 11.4815151,3.85514102 C11.4823723,3.85514102 11.4832294,3.85541603 11.4840866,3.85541603 C11.5040872,3.85926622 11.5235163,3.86531652 11.542374,3.87329192 C11.6046616,3.89996824 11.6575203,3.94809562 11.6869497,4.00804859 C11.6943785,4.02344936 11.7003786,4.03940015 11.7046645,4.05562595 C11.7060931,4.06085121 11.7075217,4.06635148 11.7086646,4.07157674 C11.7098075,4.07707701 11.7106647,4.0828523 11.7115218,4.08835257 C11.7138076,4.1051284 11.7146648,4.12217925 11.7138076,4.13923009 C11.7132362,4.14803053 11.7118076,4.15710598 11.7109504,4.16590642 L11.5886611,4.95024528 L14.8570425,4.95024528 C14.8658999,4.95079531 14.8747573,4.95107032 14.883329,4.95134533 C14.9067583,4.9546455 14.9127584,4.9546455 14.9353305,4.96097081 C14.9779032,4.97252138 15.0176186,4.99369743 15.0499053,5.02257386 C15.0673344,5.03797463 15.0704773,5.04292487 15.0856206,5.06025073 L15.9427886,6.16030524 C15.9565033,6.1798312 15.9605034,6.18423142 15.9713609,6.20540747 C15.9873613,6.23703404 15.9967902,6.27168575 15.9993617,6.3068875 C16.0007903,6.33026366 15.9996474,6.33603894 15.9976473,6.3594151 L15.5690634,9.65957862 C15.5676348,9.66837906 15.5664919,9.67717949 15.5644918,9.68570492 C15.5422054,9.78058462 15.4650603,9.86116361 15.3670575,9.889215 C15.3493426,9.89416524 15.3313421,9.89746541 15.3130559,9.89911549 C15.3039127,9.90021554 15.2947696,9.90021554 15.2856265,9.90049056 L13.7138662,9.90049056 C13.7135805,10.0899749 13.6624361,10.2797343 13.5641475,10.4452926 C13.4375724,10.6587031 13.2344236,10.8297616 12.9967023,10.9216162 C12.7286945,11.0252963 12.4206855,11.0261213 12.1521062,10.9240913 C11.8335254,10.8030853 11.5772322,10.5387972 11.4766578,10.2178563 C11.4443712,10.1147262 11.4286564,10.0074709 11.4289421,9.90049056 L6.57079986,9.90049056 L6.57079986,9.90049056 Z M5.42733781,9.3504633 C5.2796192,9.35073832 5.1333292,9.40849118 5.02789754,9.50832113 C4.89075067,9.63785254 4.82674879,9.83586236 4.8710358,10.0231466 C4.91075125,10.191455 5.03846928,10.3385873 5.20447414,10.4067906 C5.37076472,10.474994 5.56991341,10.4617934 5.72563226,10.3702138 C5.89278001,10.271759 6.00135462,10.0880499 5.99964028,9.8952653 C5.99792595,9.7217317 5.9064947,9.55204829 5.75563314,9.45001824 C5.66191611,9.38649009 5.54791277,9.35128835 5.43305226,9.3504633 C5.4310522,9.3504633 5.42905214,9.3504633 5.42733781,9.3504633 L5.42733781,9.3504633 Z M12.5704041,9.3504633 C12.4023992,9.35073832 12.2366801,9.42581704 12.1292484,9.55232331 C12.0226738,9.67717949 11.9778153,9.84823797 12.0106735,10.0082959 C12.0455316,10.1774293 12.1692495,10.3281367 12.3332543,10.4007403 C12.5018307,10.475269 12.7078367,10.4648185 12.8686986,10.3702138 C13.0327034,10.273684 13.141278,10.0949252 13.1427066,9.90406573 C13.143278,9.81908652 13.1232775,9.73410731 13.0841335,9.65792854 C12.9964166,9.48659505 12.8118398,9.36421399 12.6089767,9.35156336 C12.5961192,9.35073832 12.5832616,9.3504633 12.5704041,9.3504633 L12.5704041,9.3504633 Z M10.4966291,8.2504088 L3.931294,8.2504088 L3.75986041,9.3504633 L4.43845171,9.3504633 C4.57731292,9.12055191 4.8041767,8.940693 5.06847016,8.85626382 C5.18218777,8.81996202 5.30247701,8.80126109 5.42248052,8.80043605 C5.42505203,8.80043605 5.42762353,8.80043605 5.42990931,8.80043605 C5.66248755,8.80098608 5.8939229,8.87111455 6.08421419,8.99982093 C6.21993245,9.09167548 6.33365006,9.21213145 6.41679535,9.3504633 L10.3251955,9.3504633 L10.4966291,8.2504088 Z M14.7141812,5.50027253 L11.5029443,5.50027253 L10.9029267,9.3504633 L11.581518,9.3504633 C11.7203792,9.12055191 11.947243,8.940693 12.2115365,8.85626382 C12.3252541,8.81996202 12.4455433,8.80126109 12.5655468,8.80043605 C12.5681183,8.80043605 12.5706898,8.80043605 12.5729756,8.80043605 C12.8089825,8.80098608 13.0438466,8.87331466 13.2358522,9.00559622 C13.3678561,9.09662573 13.4784307,9.21543161 13.5598617,9.3504633 L15.0333334,9.3504633 L15.4162017,6.40149219 L14.7141812,5.50027253 L14.7141812,5.50027253 Z M13.9998746,8.2504088 L12.2855386,8.2504088 C12.2763955,8.25013378 12.2675381,8.25013378 12.258395,8.24930874 C12.1426773,8.23858321 12.0375314,8.15470406 12.0083877,8.0424985 C12.001816,8.01719724 11.9989588,7.99107095 12.0001017,7.96494465 C12.0003874,7.95641923 12.0015303,7.94761879 12.0023875,7.93909337 L12.2309656,6.28901161 C12.2323942,6.28021118 12.2338228,6.27168575 12.2358229,6.26316033 C12.2626808,6.15232984 12.3661124,6.0626754 12.4866874,6.05167485 C12.4958305,6.05084981 12.5049736,6.05084981 12.5141168,6.05029979 L13.5712906,6.05029979 C13.5807194,6.05084981 13.5898626,6.05112483 13.5992914,6.05167485 C13.6238635,6.05525003 13.6301494,6.05525003 13.6541501,6.06212537 C13.6898655,6.07257589 13.7235808,6.08990175 13.7524387,6.11272788 C13.7598675,6.11850316 13.7664392,6.12482848 13.7732965,6.13087878 L14.3447418,6.68090603 C14.3601708,6.69740685 14.3647424,6.70098203 14.3778856,6.71940794 C14.4124581,6.76753532 14.4301729,6.82611323 14.4281728,6.88441611 C14.4278871,6.89294154 14.4270299,6.90119195 14.4261728,6.90944235 L14.2833114,8.00949686 C14.2818828,8.0182973 14.2807399,8.02709773 14.2787399,8.03562316 C14.2564535,8.13022784 14.1793084,8.21108185 14.0813055,8.23913324 C14.0635907,8.24408348 14.0455902,8.24738365 14.0273039,8.24903373 C14.0181608,8.25013378 14.0090177,8.25013378 13.9998746,8.2504088 L13.9998746,8.2504088 Z M10.9743574,5.18455689 L11.0966467,4.40021803 L6.85623679,4.40021803 C6.81452129,4.45357067 6.77109144,4.50554824 6.72537582,4.55587574 C6.37222262,4.94612007 5.90535181,5.23680948 5.39076531,5.38504182 C5.05818414,5.48102158 4.70760245,5.51732338 4.36102087,5.49284716 L4.01701079,7.70038154 L10.5823459,7.70038154 L10.6680627,7.14952925 L10.9743574,5.18455689 Z M13.4530014,6.60032704 L12.7641241,6.60032704 L12.6118339,7.70038154 L13.7475815,7.70038154 L13.8418699,6.97462058 L13.4530014,6.60032704 Z M2.8566911,7.15035429 L1.42807784,7.15035429 C1.40321997,7.14925424 1.39664835,7.14980426 1.37236192,7.14512903 C1.26264442,7.124228 1.17007028,7.03677366 1.14778392,6.92896832 C1.12778333,6.83216353 1.16635589,6.72628328 1.24664395,6.66275513 C1.2900738,6.62837843 1.34407538,6.60692737 1.40007702,6.60170211 C1.40922014,6.60087707 1.41864899,6.60087707 1.42807784,6.60032704 L2.8566911,6.60032704 C2.86611995,6.60087707 2.87526307,6.60115208 2.88469192,6.60170211 C2.89383505,6.60307717 2.90326389,6.60390222 2.91240702,6.6055523 C3.00412399,6.62315317 3.08469778,6.68695633 3.12069883,6.77001045 C3.16327151,6.86956538 3.13927081,6.99222146 3.05869702,7.0697753 C3.01898157,7.10800219 2.96755149,7.13467851 2.91240702,7.14512903 C2.88783487,7.14980426 2.88154897,7.14925424 2.8566911,7.15035429 Z M2.8566911,6.05029979 L0.856632533,6.05029979 C0.831774662,6.04919973 0.825203041,6.04974976 0.800916616,6.04507453 C0.691199117,6.02417349 0.598624977,5.93671916 0.576338611,5.82891382 C0.558052361,5.74063444 0.588338962,5.64437967 0.654626617,5.58085152 C0.700913687,5.53629932 0.763201225,5.5076979 0.828631713,5.5016476 C0.837774838,5.50082256 0.847203685,5.50082256 0.856632533,5.50027253 L2.8566911,5.50027253 C2.86611995,5.50082256 2.87526307,5.50109757 2.88469192,5.5016476 C2.89383505,5.50302267 2.90326389,5.50384771 2.91240702,5.50549779 C3.02212452,5.52667384 3.11469866,5.61385316 3.13698502,5.7216585 C3.15527127,5.80993788 3.12469895,5.90619264 3.05869702,5.96972079 C3.01898157,6.00794769 2.96755149,6.03462401 2.91240702,6.04507453 C2.88783487,6.04974976 2.88154897,6.04919973 2.8566911,6.05029979 L2.8566911,6.05029979 Z M4.56731262,0.550027253 C4.12358534,0.551127308 3.68671541,0.677358562 3.3195618,0.90919505 C2.89440649,1.17788336 2.56611116,1.58545356 2.40410642,2.04802648 C2.25410203,2.47677272 2.24610179,2.95117123 2.38182005,3.3845927 C2.53639601,3.87851718 2.87840602,4.31523881 3.32813348,4.59630274 C3.81557632,4.90156787 4.42245124,5.01624855 4.99675377,4.91201838 C5.28447648,4.86004081 5.56134173,4.75333552 5.8082061,4.60015293 C6.25993362,4.31936402 6.60451514,3.88456748 6.76109115,3.38156755 C6.91595283,2.8840679 6.88195183,2.33651577 6.66051678,1.85744203 C6.48622596,1.48067337 6.1979318,1.15093203 5.8396356,0.920195595 C5.51134027,0.708710116 5.12475752,0.581103793 4.72874592,0.555252512 C4.67503006,0.551677335 4.62102848,0.550027253 4.56731262,0.550027253 L4.56731262,0.550027253 Z M5.81134905,1.69848416 C5.82049218,1.69985923 5.8296353,1.70068427 5.83906415,1.70260936 C5.94878165,1.7235104 6.04107007,1.81096473 6.06335643,1.91877007 C6.07992835,1.997974 6.0579277,2.08377825 6.00392612,2.14675637 C5.99821167,2.15363171 5.99164005,2.16023204 5.98535415,2.16683236 L4.3690211,3.72258445 C4.36187804,3.72863475 4.35530642,3.73496006 4.34816335,3.74073535 C4.26187511,3.80893873 4.13272847,3.8224144 4.0321541,3.77043682 C4.01558218,3.76218641 4.00015316,3.75201091 3.9855813,3.74073535 C3.97843824,3.73496006 3.97186662,3.72863475 3.96500927,3.72258445 L3.15669989,2.9445709 C3.14012797,2.92697003 3.13498497,2.92284482 3.12127028,2.90304384 C3.06412575,2.82081477 3.05783985,2.70888422 3.10669842,2.62060485 C3.15955711,2.52572515 3.27327473,2.46577218 3.38670662,2.47649771 C3.44270826,2.48172297 3.49670984,2.50317403 3.54013969,2.53755073 C3.54728275,2.54332602 3.55385437,2.54965133 3.56071172,2.55570163 L4.16701519,3.13900553 L5.5810566,1.7779631 L5.60191435,1.7598122 C5.60934314,1.75431192 5.61677193,1.74853664 5.62448644,1.74358639 C5.65563021,1.7235104 5.69077409,1.7094847 5.72734659,1.70260936 C5.75191874,1.69793413 5.75820464,1.69848416 5.78306251,1.6973841 C5.79249136,1.69765912 5.80192021,1.69820914 5.81134905,1.69848416 L5.81134905,1.69848416 Z" id="path-3"></path>
    </defs>
    <g id="Guidelines" stroke="none" stroke-width="1" fill="none" fill-rule="evenodd">
        <g id="icons-badges-variations" transform="translate(-183.000000, -70.000000)">
            <g id="icons/bg-filled/oval/deliver" transform="translate(183.000000, 70.000000)">
                <mask id="mask-2" fill="white">
                    <use xlink:href="#path-1"></use>
                </mask>
                <use id="Oval" fill="#D8D8D8" fill-rule="evenodd" xlink:href="#path-1"></use>
                <g id="color/alexs-deep-blue/base-003595" mask="url(#mask-2)" fill="#003996" fill-rule="evenodd">
                    <rect id="alexs-deep-blue-003595" x="0" y="0" width="24" height="24"></rect>
                </g>
                <g id="icons/deliver" mask="url(#mask-2)">
                    <g transform="translate(4.000000, 6.000000)">
                        <mask id="mask-4" fill="white">
                            <use xlink:href="#path-3"></use>
                        </mask>
                        <use id="truck" stroke="none" fill="#1A1A1A" fill-rule="evenodd" xlink:href="#path-3"></use>
                        <g id="color/black-tint/95-F2F2F2" stroke="none" fill="none" mask="url(#mask-4)" fill-rule="evenodd">
                            <rect id="gray-5-F2F2F2" fill="#F2F2F2" x="0" y="0" width="16" height="12"></rect>
                        </g>
                    </g>
                </g>
            </g>
        </g>
    </g>
</svg>