<?xml version="1.0" encoding="UTF-8"?>
<svg width="24px" height="24px" viewBox="0 0 24 24" version="1.1" xmlns="http://www.w3.org/2000/svg" xmlns:xlink="http://www.w3.org/1999/xlink">
    <!-- Generator: Sketch 53.2 (72643) - https://sketchapp.com -->
    <title>icons/details</title>
    <desc>Created with Sketch.</desc>
    <defs>
        <circle id="path-1" cx="12" cy="12" r="12"></circle>
        <path d="M12,1.55294118 L12,9.44705882 C12,10.3047246 11.3141383,11 10.4680851,11 L1.53191489,11 C0.68586166,11 1.13384479e-16,10.3047246 0,9.44705882 L0,1.55294118 C1.13384479e-16,0.695275447 0.68586166,0 1.53191489,0 L10.4680851,0 C11.3141383,9.19525893e-16 12,0.695275447 12,1.55294118 Z M1.53191489,0.517647059 C0.967879404,0.517647059 0.510638298,0.981164024 0.510638298,1.55294118 L0.510638298,8.60588235 L11.4893617,8.60588235 L11.4893617,1.55294118 C11.4893617,0.981164024 11.0321206,0.517647059 10.4680851,0.517647059 L1.53191489,0.517647059 Z M10.4680851,10.4823529 C11.0321206,10.4823529 11.4893617,10.018836 11.4893617,9.44705882 L11.4893617,9.12352941 L0.510638298,9.12352941 L0.510638298,9.44705882 C0.510638298,10.018836 0.967879404,10.4823529 1.53191489,10.4823529 L10.4680851,10.4823529 Z M3.12686123,2.61904762 C2.98476056,2.61904762 2.86956522,2.50178886 2.86956522,2.35714286 C2.86956522,2.21249685 2.98476056,2.0952381 3.12686123,2.0952381 L4.96009529,2.0952381 C5.10219596,2.0952381 5.2173913,2.21249685 5.2173913,2.35714286 C5.2173913,2.50178886 5.10219596,2.61904762 4.96009529,2.61904762 L3.12686123,2.61904762 Z M2.08695652,2.88095238 C1.94288224,2.88095238 1.82608696,2.75156341 1.82608696,2.59195402 L1.82608696,2.12233169 C1.82608696,1.96272231 1.94288224,1.83333333 2.08695652,1.83333333 C2.2310308,1.83333333 2.34782609,1.96272231 2.34782609,2.12233169 L2.34782609,2.59195402 C2.34782609,2.75156341 2.2310308,2.88095238 2.08695652,2.88095238 Z M8.08338297,2.61904762 C7.9412823,2.61904762 7.82608696,2.50178886 7.82608696,2.35714286 C7.82608696,2.21249685 7.9412823,2.0952381 8.08338297,2.0952381 L9.91661703,2.0952381 C10.0587177,2.0952381 10.173913,2.21249685 10.173913,2.35714286 C10.173913,2.50178886 10.0587177,2.61904762 9.91661703,2.61904762 L8.08338297,2.61904762 Z M7.04347826,2.88095238 C6.89940398,2.88095238 6.7826087,2.75156341 6.7826087,2.59195402 L6.7826087,2.12233169 C6.7826087,1.96272231 6.89940398,1.83333333 7.04347826,1.83333333 C7.18755254,1.83333333 7.30434783,1.96272231 7.30434783,2.12233169 L7.30434783,2.59195402 C7.30434783,2.75156341 7.18755254,2.88095238 7.04347826,2.88095238 Z M3.12686123,4.97619048 C2.98476056,4.97619048 2.86956522,4.85893172 2.86956522,4.71428571 C2.86956522,4.56963971 2.98476056,4.45238095 3.12686123,4.45238095 L4.96009529,4.45238095 C5.10219596,4.45238095 5.2173913,4.56963971 5.2173913,4.71428571 C5.2173913,4.85893172 5.10219596,4.97619048 4.96009529,4.97619048 L3.12686123,4.97619048 Z M2.08695652,5.23809524 C1.94288224,5.23809524 1.82608696,5.10870627 1.82608696,4.94909688 L1.82608696,4.47947455 C1.82608696,4.31986516 1.94288224,4.19047619 2.08695652,4.19047619 C2.2310308,4.19047619 2.34782609,4.31986516 2.34782609,4.47947455 L2.34782609,4.94909688 C2.34782609,5.10870627 2.2310308,5.23809524 2.08695652,5.23809524 Z M8.08338297,4.97619048 C7.9412823,4.97619048 7.82608696,4.85893172 7.82608696,4.71428571 C7.82608696,4.56963971 7.9412823,4.45238095 8.08338297,4.45238095 L9.91661703,4.45238095 C10.0587177,4.45238095 10.173913,4.56963971 10.173913,4.71428571 C10.173913,4.85893172 10.0587177,4.97619048 9.91661703,4.97619048 L8.08338297,4.97619048 Z M7.04347826,5.23809524 C6.89940398,5.23809524 6.7826087,5.10870627 6.7826087,4.94909688 L6.7826087,4.47947455 C6.7826087,4.31986516 6.89940398,4.19047619 7.04347826,4.19047619 C7.18755254,4.19047619 7.30434783,4.31986516 7.30434783,4.47947455 L7.30434783,4.94909688 C7.30434783,5.10870627 7.18755254,5.23809524 7.04347826,5.23809524 Z M3.12686123,7.07142857 C2.98476056,7.07142857 2.86956522,6.95416982 2.86956522,6.80952381 C2.86956522,6.6648778 2.98476056,6.54761905 3.12686123,6.54761905 L4.96009529,6.54761905 C5.10219596,6.54761905 5.2173913,6.6648778 5.2173913,6.80952381 C5.2173913,6.95416982 5.10219596,7.07142857 4.96009529,7.07142857 L3.12686123,7.07142857 Z M2.08695652,7.33333333 C1.94288224,7.33333333 1.82608696,7.20394436 1.82608696,7.04433498 L1.82608696,6.57471264 C1.82608696,6.41510326 1.94288224,6.28571429 2.08695652,6.28571429 C2.2310308,6.28571429 2.34782609,6.41510326 2.34782609,6.57471264 L2.34782609,7.04433498 C2.34782609,7.20394436 2.2310308,7.33333333 2.08695652,7.33333333 Z M8.08338297,7.07142857 C7.9412823,7.07142857 7.82608696,6.95416982 7.82608696,6.80952381 C7.82608696,6.6648778 7.9412823,6.54761905 8.08338297,6.54761905 L9.91661703,6.54761905 C10.0587177,6.54761905 10.173913,6.6648778 10.173913,6.80952381 C10.173913,6.95416982 10.0587177,7.07142857 9.91661703,7.07142857 L8.08338297,7.07142857 Z M7.04347826,7.33333333 C6.89940398,7.33333333 6.7826087,7.20394436 6.7826087,7.04433498 L6.7826087,6.57471264 C6.7826087,6.41510326 6.89940398,6.28571429 7.04347826,6.28571429 C7.18755254,6.28571429 7.30434783,6.41510326 7.30434783,6.57471264 L7.30434783,7.04433498 C7.30434783,7.20394436 7.18755254,7.33333333 7.04347826,7.33333333 Z" id="path-3"></path>
    </defs>
    <g id="Guidelines" stroke="none" stroke-width="1" fill="none" fill-rule="evenodd">
        <g id="icons-badges-variations" transform="translate(-109.000000, -70.000000)">
            <g id="icons/bg-filled/oval/details" transform="translate(109.000000, 70.000000)">
                <mask id="mask-2" fill="white">
                    <use xlink:href="#path-1"></use>
                </mask>
                <use id="Oval" fill="#333333" fill-rule="evenodd" xlink:href="#path-1"></use>
                <g id="color/alexs-deep-blue/base-003595" mask="url(#mask-2)" fill="#003996" fill-rule="evenodd">
                    <rect id="alexs-deep-blue-003595" x="0" y="0" width="24" height="24"></rect>
                </g>
                <g id="icons/details" mask="url(#mask-2)">
                    <g transform="translate(6.000000, 6.500000)">
                        <mask id="mask-4" fill="white">
                            <use xlink:href="#path-3"></use>
                        </mask>
                        <use id="Combined-Shape" stroke="none" fill="#1A1A1A" fill-rule="nonzero" xlink:href="#path-3"></use>
                        <g id="color/white-FDFDFD" stroke="none" fill="none" mask="url(#mask-4)" fill-rule="evenodd">
                            <rect id="white-FDFDFD" fill="#FDFDFD" x="0" y="0" width="13" height="11"></rect>
                        </g>
                    </g>
                </g>
            </g>
        </g>
    </g>
</svg>