<?xml version="1.0" encoding="UTF-8"?>
<svg width="64px" height="64px" viewBox="0 0 64 64" version="1.1" xmlns="http://www.w3.org/2000/svg" xmlns:xlink="http://www.w3.org/1999/xlink">
    <!-- Generator: Sketch 53.2 (72643) - https://sketchapp.com -->
    <title>icons/details</title>
    <desc>Created with Sketch.</desc>
    <defs>
        <circle id="icons/details--path-1" cx="32" cy="32" r="32"></circle>
        <path d="M32,4.09411765 L32,24.9058824 C32,27.1670011 30.1710356,29 27.9148936,29 L4.08510638,29 C1.82896443,29 3.02358611e-16,27.1670011 0,24.9058824 L0,4.09411765 C3.02358611e-16,1.83299891 1.82896443,0 4.08510638,0 L27.9148936,0 C30.1710356,2.42420463e-15 32,1.83299891 32,4.09411765 Z M4.08510638,1.36470588 C2.58101175,1.36470588 1.36170213,2.58670515 1.36170213,4.09411765 L1.36170213,22.6882353 L30.6382979,22.6882353 L30.6382979,4.09411765 C30.6382979,2.58670515 29.4189883,1.36470588 27.9148936,1.36470588 L4.08510638,1.36470588 Z M27.9148936,27.6352941 C29.4189883,27.6352941 30.6382979,26.4132948 30.6382979,24.9058824 L30.6382979,24.0529412 L1.36170213,24.0529412 L1.36170213,24.9058824 C1.36170213,26.4132948 2.58101175,27.6352941 4.08510638,27.6352941 L27.9148936,27.6352941 Z M8.33829661,6.9047619 C7.95936151,6.9047619 7.65217391,6.59562518 7.65217391,6.21428571 C7.65217391,5.83294624 7.95936151,5.52380952 8.33829661,5.52380952 L13.2269208,5.52380952 C13.6058559,5.52380952 13.9130435,5.83294624 13.9130435,6.21428571 C13.9130435,6.59562518 13.6058559,6.9047619 13.2269208,6.9047619 L8.33829661,6.9047619 Z M5.56521739,7.5952381 C5.1810193,7.5952381 4.86956522,7.25412171 4.86956522,6.83333333 L4.86956522,5.5952381 C4.86956522,5.17444971 5.1810193,4.83333333 5.56521739,4.83333333 C5.94941548,4.83333333 6.26086957,5.17444971 6.26086957,5.5952381 L6.26086957,6.83333333 C6.26086957,7.25412171 5.94941548,7.5952381 5.56521739,7.5952381 Z M21.5556879,6.9047619 C21.1767528,6.9047619 20.8695652,6.59562518 20.8695652,6.21428571 C20.8695652,5.83294624 21.1767528,5.52380952 21.5556879,5.52380952 L26.4443121,5.52380952 C26.8232472,5.52380952 27.1304348,5.83294624 27.1304348,6.21428571 C27.1304348,6.59562518 26.8232472,6.9047619 26.4443121,6.9047619 L21.5556879,6.9047619 Z M18.7826087,7.5952381 C18.3984106,7.5952381 18.0869565,7.25412171 18.0869565,6.83333333 L18.0869565,5.5952381 C18.0869565,5.17444971 18.3984106,4.83333333 18.7826087,4.83333333 C19.1668068,4.83333333 19.4782609,5.17444971 19.4782609,5.5952381 L19.4782609,6.83333333 C19.4782609,7.25412171 19.1668068,7.5952381 18.7826087,7.5952381 Z M8.33829661,13.1190476 C7.95936151,13.1190476 7.65217391,12.8099109 7.65217391,12.4285714 C7.65217391,12.047232 7.95936151,11.7380952 8.33829661,11.7380952 L13.2269208,11.7380952 C13.6058559,11.7380952 13.9130435,12.047232 13.9130435,12.4285714 C13.9130435,12.8099109 13.6058559,13.1190476 13.2269208,13.1190476 L8.33829661,13.1190476 Z M5.56521739,13.8095238 C5.1810193,13.8095238 4.86956522,13.4684074 4.86956522,13.047619 L4.86956522,11.8095238 C4.86956522,11.3887354 5.1810193,11.047619 5.56521739,11.047619 C5.94941548,11.047619 6.26086957,11.3887354 6.26086957,11.8095238 L6.26086957,13.047619 C6.26086957,13.4684074 5.94941548,13.8095238 5.56521739,13.8095238 Z M21.5556879,13.1190476 C21.1767528,13.1190476 20.8695652,12.8099109 20.8695652,12.4285714 C20.8695652,12.047232 21.1767528,11.7380952 21.5556879,11.7380952 L26.4443121,11.7380952 C26.8232472,11.7380952 27.1304348,12.047232 27.1304348,12.4285714 C27.1304348,12.8099109 26.8232472,13.1190476 26.4443121,13.1190476 L21.5556879,13.1190476 Z M18.7826087,13.8095238 C18.3984106,13.8095238 18.0869565,13.4684074 18.0869565,13.047619 L18.0869565,11.8095238 C18.0869565,11.3887354 18.3984106,11.047619 18.7826087,11.047619 C19.1668068,11.047619 19.4782609,11.3887354 19.4782609,11.8095238 L19.4782609,13.047619 C19.4782609,13.4684074 19.1668068,13.8095238 18.7826087,13.8095238 Z M8.33829661,18.6428571 C7.95936151,18.6428571 7.65217391,18.3337204 7.65217391,17.952381 C7.65217391,17.5710415 7.95936151,17.2619048 8.33829661,17.2619048 L13.2269208,17.2619048 C13.6058559,17.2619048 13.9130435,17.5710415 13.9130435,17.952381 C13.9130435,18.3337204 13.6058559,18.6428571 13.2269208,18.6428571 L8.33829661,18.6428571 Z M5.56521739,19.3333333 C5.1810193,19.3333333 4.86956522,18.992217 4.86956522,18.5714286 L4.86956522,17.3333333 C4.86956522,16.912545 5.1810193,16.5714286 5.56521739,16.5714286 C5.94941548,16.5714286 6.26086957,16.912545 6.26086957,17.3333333 L6.26086957,18.5714286 C6.26086957,18.992217 5.94941548,19.3333333 5.56521739,19.3333333 Z M21.5556879,18.6428571 C21.1767528,18.6428571 20.8695652,18.3337204 20.8695652,17.952381 C20.8695652,17.5710415 21.1767528,17.2619048 21.5556879,17.2619048 L26.4443121,17.2619048 C26.8232472,17.2619048 27.1304348,17.5710415 27.1304348,17.952381 C27.1304348,18.3337204 26.8232472,18.6428571 26.4443121,18.6428571 L21.5556879,18.6428571 Z M18.7826087,19.3333333 C18.3984106,19.3333333 18.0869565,18.992217 18.0869565,18.5714286 L18.0869565,17.3333333 C18.0869565,16.912545 18.3984106,16.5714286 18.7826087,16.5714286 C19.1668068,16.5714286 19.4782609,16.912545 19.4782609,17.3333333 L19.4782609,18.5714286 C19.4782609,18.992217 19.1668068,19.3333333 18.7826087,19.3333333 Z" id="icons/details--path-3"></path>
    </defs>
    <g id="icons/details--Guidelines" stroke="none" stroke-width="1" fill="none" fill-rule="evenodd">
        <g id="icons/details--Artboard" transform="translate(-65.000000, -210.000000)">
            <g id="icons/details--icons/bg-filled/oval/details" transform="translate(65.000000, 210.000000)">
                <mask id="icons/details--mask-2" fill="white">
                    <use xlink:href="#icons/details--path-1"></use>
                </mask>
                <use id="icons/details--Oval" fill="#333333" fill-rule="evenodd" xlink:href="#icons/details--path-1"></use>
                <g id="icons/details--color/turteal/base-017FA3" mask="url(#icons/details--mask-2)" fill="#017FA3" fill-rule="evenodd" stroke="#017FA3" stroke-width="1">
                    <rect id="icons/details--turteal-017FA3" x="0.5" y="0.5" width="63" height="63"></rect>
                </g>
                <g id="icons/details--icons/details" mask="url(#icons/details--mask-2)">
                    <g transform="translate(16.000000, 17.333333)">
                        <mask id="icons/details--mask-4" fill="white">
                            <use xlink:href="#icons/details--path-3"></use>
                        </mask>
                        <use id="icons/details--Combined-Shape" stroke="none" fill="#1A1A1A" fill-rule="nonzero" xlink:href="#icons/details--path-3"></use>
                        <g id="icons/details--color/white-FDFDFD" stroke="none" fill="none" mask="url(#icons/details--mask-4)" fill-rule="evenodd">
                            <rect id="icons/details--white-FDFDFD" fill="#FDFDFD" x="0" y="0" width="33" height="29"></rect>
                        </g>
                    </g>
                </g>
            </g>
        </g>
    </g>
</svg>