<?xml version="1.0" encoding="UTF-8"?>
<svg width="207px" height="197px" viewBox="0 0 207 197" version="1.1" xmlns="http://www.w3.org/2000/svg" xmlns:xlink="http://www.w3.org/1999/xlink">
    <!-- Generator: Sketch 53.2 (72643) - https://sketchapp.com -->
    <title>empty-teams</title>
    <desc>Created with Sketch.</desc>
    <defs>
        <linearGradient x1="50%" y1="100%" x2="50%" y2="0.0043144361%" id="empty-teams--linearGradient-1">
            <stop stop-color="#808080" stop-opacity="0.25" offset="0%"></stop>
            <stop stop-color="#808080" stop-opacity="0.12" offset="54%"></stop>
            <stop stop-color="#808080" stop-opacity="0.1" offset="100%"></stop>
        </linearGradient>
        <linearGradient x1="50%" y1="100%" x2="50%" y2="0.0043144361%" id="empty-teams--linearGradient-2">
            <stop stop-color="#808080" stop-opacity="0.25" offset="0%"></stop>
            <stop stop-color="#808080" stop-opacity="0.12" offset="54%"></stop>
            <stop stop-color="#808080" stop-opacity="0.1" offset="100%"></stop>
        </linearGradient>
        <linearGradient x1="50%" y1="100%" x2="50%" y2="-2.2033937e-15%" id="empty-teams--linearGradient-3">
            <stop stop-color="#808080" stop-opacity="0.25" offset="0%"></stop>
            <stop stop-color="#808080" stop-opacity="0.12" offset="54%"></stop>
            <stop stop-color="#808080" stop-opacity="0.1" offset="100%"></stop>
        </linearGradient>
        <linearGradient x1="50%" y1="99.9956856%" x2="50%" y2="0%" id="empty-teams--linearGradient-4">
            <stop stop-color="#808080" stop-opacity="0.25" offset="0%"></stop>
            <stop stop-color="#808080" stop-opacity="0.12" offset="54%"></stop>
            <stop stop-color="#808080" stop-opacity="0.1" offset="100%"></stop>
        </linearGradient>
        <linearGradient x1="50%" y1="100%" x2="50%" y2="0.0043144361%" id="empty-teams--linearGradient-5">
            <stop stop-color="#808080" stop-opacity="0.25" offset="0%"></stop>
            <stop stop-color="#808080" stop-opacity="0.12" offset="54%"></stop>
            <stop stop-color="#808080" stop-opacity="0.1" offset="100%"></stop>
        </linearGradient>
    </defs>
    <g id="empty-teams--Guidelines" stroke="none" stroke-width="1" fill="none" fill-rule="evenodd">
        <g id="empty-teams--illustrations" transform="translate(-66.000000, -53.000000)">
            <g id="empty-teams--empty-teams" transform="translate(66.000000, 53.000000)">
                <g id="empty-teams--Group" opacity="0.5" transform="translate(0.000000, 2.000000)" fill="url(#empty-teams--linearGradient-1)" fill-rule="nonzero">
                    <ellipse id="empty-teams--Oval" cx="30.5575966" cy="30.0232759" rx="30.3403004" ry="29.9715517"></ellipse>
                </g>
                <ellipse id="empty-teams--Oval" fill="#F5F5F5" fill-rule="nonzero" cx="31" cy="31.5" rx="30" ry="29.5"></ellipse>
                <path d="M30.3706667,60.9999607 C36.2820637,61.0093324 42.0655476,59.3418079 47,56.2053037 C45.8853333,50.3366024 41.6426667,50 41.6426667,50 L18.2533333,50 C18.2533333,50 14.2533333,50.3160465 13,55.7171017 C18.0853505,59.1637814 24.1532789,61.0091919 30.3706667,60.9999607 L30.3706667,60.9999607 Z" id="empty-teams--Path" fill="#017FA3" fill-rule="nonzero"></path>
                <circle id="empty-teams--Oval" fill="#333333" fill-rule="nonzero" cx="30" cy="31" r="13"></circle>
                <path d="M25,43 L34,43 L34,50.3852225 C34,52.9338938 31.9858555,55 29.5012824,55 L29.5012824,55 C27.0167093,55 25.0025648,52.9338938 25.0025648,50.3852225 L25.0025648,43 L25,43 Z" id="empty-teams--Path" fill="#000000" fill-rule="nonzero" opacity="0.1"></path>
                <path d="M25.8568985,43 L33.1405359,43 C33.6152048,43 34,43.3946098 34,43.8813857 L34,50.3852225 C34,52.9338938 31.9852814,55 29.5,55 L29.5,55 C27.0147186,55 25,52.9338938 25,50.3852225 L25,43.8813857 C24.9999979,43.3956354 25.3832318,43.00145 25.8568985,43 Z" id="empty-teams--Path" fill="#BE7C5E" fill-rule="nonzero"></path>
                <path d="M25,46.1369175 C27.9004908,47.2783292 31.0933776,47.2879097 34,46.1639227 L34,45 L25,45 L25,46.1369175 Z" id="empty-teams--Path" fill="#000000" fill-rule="nonzero" opacity="0.1"></path>
                <circle id="empty-teams--Oval" fill="#BE7C5E" fill-rule="nonzero" cx="30" cy="33" r="13"></circle>
                <path d="M22.1103065,28.4128898 C22.264106,27.8463016 22.4570071,27.2222714 22.9653274,26.9272278 C23.3667702,26.6922373 23.8646635,26.7287914 24.3286688,26.7522904 C27.9520807,26.9507268 31.5442113,26.1230382 35.0685659,25.2587954 C37.0836,24.7653155 39.2393997,24.1647843 40.5427853,22.538128 C41.8461709,20.9114717 40.1465561,15.7991235 38.1628032,15.1959813 C36.8594177,14.7964975 35.3474904,15.540634 34.1118809,14.9557688 C33.5618522,14.6946683 33.1578026,14.2064103 32.6833703,13.8252036 C31.7110447,13.041902 30.4624013,12.7259704 29.2528595,12.4283158 C27.8399895,12.0784411 26.3124216,11.7363994 24.9699345,12.2977655 C23.927226,12.7311924 23.1660488,13.6476552 22.1780826,14.1907443 C20.2986006,15.2351464 18.0072487,14.7494994 15.8540557,14.7442774 C15.1267666,14.7442774 14.2587118,14.8904937 13.9693602,15.558911 C13.7738524,16.0132259 13.9302586,16.530205 13.9511128,17.023685 C14.0136753,18.5902881 12.7233236,19.8096275 11.6415136,20.9401928 C10.5597035,22.0707581 9.53784924,23.6843593 10.2208233,25.0890801 C10.4815004,25.6243362 10.9585395,26.029042 11.2296437,26.559076 C11.6962558,27.4781499 11.4616464,28.5878271 11.6310865,29.6035081 C11.800737,30.3742044 12.0882677,31.1140149 12.4835006,31.7967525 C13.2863862,33.3633557 17.3190611,41.7969026 19.1724754,39.6532673 C20.0692047,38.6088652 20.2151839,35.5905431 20.5775251,34.2328204 C21.0780251,32.2815292 21.5889523,30.3415523 22.1103065,28.4128898 Z" id="empty-teams--Path" fill="#333333" fill-rule="nonzero"></path>
                <ellipse id="empty-teams--Oval" fill="#BE7C5E" fill-rule="nonzero" cx="20.5" cy="32.5" rx="1.5" ry="2.5"></ellipse>
                <g id="empty-teams--Group" opacity="0.5" transform="translate(70.000000, 67.000000)" fill="url(#empty-teams--linearGradient-2)" fill-rule="nonzero">
                    <ellipse id="empty-teams--Oval" cx="30.5210345" cy="29.9536481" rx="30.4710776" ry="29.8429185"></ellipse>
                </g>
                <ellipse id="empty-teams--Oval" fill="#F5F5F5" fill-rule="nonzero" cx="101" cy="97.5" rx="30" ry="29.5"></ellipse>
                <path d="M101.377422,126.999961 C107.286578,127.007315 113.067418,125.339876 118,122.205304 C116.885071,116.336602 112.641406,116 112.641406,116 L89.2545697,116 C89.2545697,116 85.2536283,116.316047 84,121.717102 C89.0872915,125.164288 95.1576611,127.009723 101.377422,126.999961 Z" id="empty-teams--Path" fill="#017FA3" fill-rule="nonzero"></path>
                <circle id="empty-teams--Oval" fill="#F55F44" fill-rule="nonzero" cx="100.5" cy="96.5" r="14.5"></circle>
                <path d="M96,109 L105,109 L105,116.385223 C105,118.933894 102.985856,121 100.501282,121 L100.501282,121 C98.0167093,121 96.0025648,118.933894 96.0025648,116.385223 L96.0025648,109 L96,109 Z" id="empty-teams--Path" fill="#000000" fill-rule="nonzero" opacity="0.1"></path>
                <path d="M96.8568985,108 L104.140536,108 C104.36848,108 104.587088,108.09286 104.748269,108.258152 C104.90945,108.423444 105,108.647628 105,108.881386 L105,115.385223 C105,116.609138 104.525894,117.782924 103.681981,118.648363 C102.838067,119.513802 101.693474,120 100.5,120 L100.5,120 C99.3065258,120 98.1619332,119.513802 97.3180195,118.648363 C96.4741058,117.782924 96,116.609138 96,115.385223 L96,108.881386 C96,108.39461 96.3847952,108 96.8594641,108 L96.8568985,108 Z" id="empty-teams--Path" fill="#FDA57D" fill-rule="nonzero"></path>
                <g id="empty-teams--aperson" transform="translate(146.000000, 137.000000)" fill-rule="nonzero">
                    <g id="empty-teams--Group" opacity="0.5" fill="url(#empty-teams--linearGradient-3)">
                        <ellipse id="empty-teams--Oval" cx="30.4921121" cy="29.9742489" rx="30.4710776" ry="29.8429185"></ellipse>
                    </g>
                    <ellipse id="empty-teams--Oval" fill="#F5F5F5" cx="31" cy="29.5" rx="30" ry="29.5"></ellipse>
                    <path d="M19.302165,31 C19.302165,31 15.8722937,47.2383732 14,46.3388043 C14,46.3388043 32.0561657,61.3264947 48,46.3388043 C48,46.3388043 45.1915595,34.8955693 41.1375902,31 L19.302165,31 Z" id="empty-teams--Path" fill="#333333"></path>
                    <path d="M31.3719708,58.9999607 C37.2829043,59.0093324 43.0659346,57.3418079 48,54.2053037 C46.8854208,48.3366024 42.6430868,48 42.6430868,48 L19.2529213,48 C19.2529213,48 15.253235,48.3160465 14,53.7171017 C19.0856956,57.1642875 25.1541609,59.0097226 31.3719708,58.9999607 Z" id="empty-teams--Path" fill="#017FA3"></path>
                    <circle id="empty-teams--Oval" fill="#333333" cx="31" cy="30" r="13"></circle>
                    <path d="M26,41 L35,41 L35,48.3852225 C35.0000036,50.9308145 32.9905446,52.9956461 30.5089769,53 L30.5089769,53 C28.0244038,53 26.0102593,50.9338938 26.0102593,48.3852225 L26.0102593,41 L26,41 Z" id="empty-teams--Path" fill="#000000" opacity="0.1"></path>
                    <path d="M26.8499287,41 L34.1398003,41 C34.6148755,41 35,41.3946098 35,41.8813857 L35,48.3852225 C35.0000036,50.9308145 32.9882514,52.9956461 30.5038516,53 L30.5038516,53 C28.0164431,53 26,50.9338938 26,48.3852225 L26,41.8787547 C26.0013698,41.3970845 26.3798679,41.0057493 26.8499287,41 Z" id="empty-teams--Path" fill="#BE7C5E"></path>
                    <path d="M26,45.1369175 C28.9004908,46.2783292 32.0933776,46.2879097 35,45.1639227 L35,44 L26,44 L26,45.1369175 Z" id="empty-teams--Path" fill="#000000" opacity="0.1"></path>
                    <circle id="empty-teams--Oval" fill="#BE7C5E" cx="31" cy="33" r="13"></circle>
                    <path d="M18,27 L43,27 C43,27 40.8649635,17.4167221 31.4150156,18.0280521 C21.9650678,18.639382 18,27 18,27 Z" id="empty-teams--Path" fill="#333333"></path>
                    <ellipse id="empty-teams--Oval" fill="#BE7C5E" cx="17.5" cy="32.5" rx="1.5" ry="2.5"></ellipse>
                    <ellipse id="empty-teams--Oval" fill="#BE7C5E" cx="43.5" cy="32.5" rx="1.5" ry="2.5"></ellipse>
                    <path d="M18,28 L43,28 C43,28 40.8649635,18.4167221 31.4150156,19.0280521 C21.9650678,19.639382 18,28 18,28 Z" id="empty-teams--Path" fill="#000000" opacity="0.1"></path>
                </g>
                <path d="M96,112.136918 C98.9004908,113.278329 102.093378,113.28791 105,112.163923 L105,111 L96,111 L96,112.136918 Z" id="empty-teams--Path" fill="#000000" fill-rule="nonzero" opacity="0.1"></path>
                <circle id="empty-teams--Oval" fill="#FDA57D" fill-rule="nonzero" cx="101" cy="99" r="13"></circle>
                <circle id="empty-teams--Oval" fill="#F55F44" fill-rule="nonzero" cx="100" cy="82" r="5"></circle>
                <circle id="empty-teams--Oval" fill="#F55F44" fill-rule="nonzero" cx="100.5" cy="76.5" r="3.5"></circle>
                <path d="M98.2579715,84.1643512 C95.7341102,83.110446 94.545517,80.3961438 95.5586015,78 C95.5227804,78.0666931 95.4869594,78.1357682 95.453697,78.2048432 C94.6963522,79.7765849 94.8972722,81.6050626 95.9807725,83.0015062 C97.0642728,84.3979499 98.865744,85.1502066 100.706589,84.9749084 C102.547434,84.7996103 104.147985,83.7233894 104.90533,82.1516476 C104.938593,82.0825726 104.969296,82.0134976 105,81.9420406 C103.751225,84.2405121 100.782183,85.2191693 98.2579715,84.1643512 Z" id="empty-teams--Path" fill="#F55F44" fill-rule="nonzero"></path>
                <path d="M91,88.2959442 C91,88.2959442 96.4937037,99.464234 112,92.9710423 L108.391111,87.3011872 L101.995185,85 L91,88.2959442 Z" id="empty-teams--Path" fill="#000000" fill-rule="nonzero" opacity="0.1"></path>
                <path d="M91,87.2959442 C91,87.2959442 96.4937037,98.464234 112,91.9710423 L108.391111,86.3011872 L101.995185,84 L91,87.2959442 Z" id="empty-teams--Path" fill="#F55F44" fill-rule="nonzero"></path>
                <path d="M95,83.3914932 C98.3281945,82.8695023 101.671806,82.8695023 105,83.3914932 C105,83.3914932 97.6135784,84.7606335 95,83.3914932 Z" id="empty-teams--Path" fill="#333333" fill-rule="nonzero"></path>
                <path d="M100.927612,73.0023589 C100.616714,72.9926412 100.305526,73.0129694 100,73.0629547 L100.238087,73.0629547 C102.333838,73.120077 104.042421,74.5134318 104.201236,76.2949156 C104.360051,78.0763995 102.918075,79.6736631 100.856495,79.9998541 C103.124303,80.0173146 104.979337,78.4650266 104.999829,76.5327217 C105.020321,74.6004168 103.198512,73.0198196 100.930704,73.0023589 L100.927612,73.0023589 Z" id="empty-teams--Path" fill="#F55F44" fill-rule="nonzero"></path>
                <ellipse id="empty-teams--Oval" fill="#FDA57D" fill-rule="nonzero" cx="87.5" cy="98.5" rx="1.5" ry="2.5"></ellipse>
                <ellipse id="empty-teams--Oval" fill="#FDA57D" fill-rule="nonzero" cx="113.5" cy="98.5" rx="1.5" ry="2.5"></ellipse>
                <polygon id="empty-teams--Path" fill="#F55F44" fill-rule="nonzero" points="90 87.2442623 92.4484193 86 93 87.9942623 91.5 89"></polygon>
                <g id="empty-teams--Group" opacity="0.5" transform="translate(70.000000, 0.000000)" fill="url(#empty-teams--linearGradient-3)" fill-rule="nonzero">
                    <ellipse id="empty-teams--Oval" cx="30.4921121" cy="29.9742489" rx="30.4710776" ry="29.8429185"></ellipse>
                </g>
                <ellipse id="empty-teams--Oval" fill="#F5F5F5" fill-rule="nonzero" cx="101" cy="29.5" rx="30" ry="29.5"></ellipse>
                <path d="M89.302165,31 C89.302165,31 85.8722937,47.2383732 84,46.3388043 C84,46.3388043 102.056166,61.3264947 118,46.3388043 C118,46.3388043 115.191559,34.8955693 111.13759,31 L89.302165,31 Z" id="empty-teams--Path" fill="#333333" fill-rule="nonzero"></path>
                <path d="M101.371971,58.9999607 C107.282904,59.0093324 113.065935,57.3418079 118,54.2053037 C116.885421,48.3366024 112.643087,48 112.643087,48 L89.2529213,48 C89.2529213,48 85.253235,48.3160465 84,53.7171017 C89.0856956,57.1642875 95.1541609,59.0097226 101.371971,58.9999607 Z" id="empty-teams--Path" fill="#017FA3" fill-rule="nonzero"></path>
                <circle id="empty-teams--Oval" fill="#333333" fill-rule="nonzero" cx="101" cy="30" r="13"></circle>
                <path d="M96,41 L105,41 L105,48.3852225 C105.000004,50.9308145 102.990545,52.9956461 100.508977,53 L100.508977,53 C98.0244038,53 96.0102593,50.9338938 96.0102593,48.3852225 L96.0102593,41 L96,41 Z" id="empty-teams--Path" fill="#000000" fill-rule="nonzero" opacity="0.1"></path>
                <path d="M96.8499287,41 L104.1398,41 C104.614875,41 105,41.3946098 105,41.8813857 L105,48.3852225 C105.000004,50.9308145 102.988251,52.9956461 100.503852,53 L100.503852,53 C98.0164431,53 96,50.9338938 96,48.3852225 L96,41.8787547 C96.0013698,41.3970845 96.3798679,41.0057493 96.8499287,41 Z" id="empty-teams--Path" fill="#BE7C5E" fill-rule="nonzero"></path>
                <path d="M96,45.1369175 C98.9004908,46.2783292 102.093378,46.2879097 105,45.1639227 L105,44 L96,44 L96,45.1369175 Z" id="empty-teams--Path" fill="#000000" fill-rule="nonzero" opacity="0.1"></path>
                <circle id="empty-teams--Oval" fill="#BE7C5E" fill-rule="nonzero" cx="101" cy="33" r="13"></circle>
                <path d="M88,27 L113,27 C113,27 110.864964,17.4167221 101.415016,18.0280521 C91.9650678,18.639382 88,27 88,27 Z" id="empty-teams--Path" fill="#333333" fill-rule="nonzero"></path>
                <ellipse id="empty-teams--Oval" fill="#BE7C5E" fill-rule="nonzero" cx="87.5" cy="32.5" rx="1.5" ry="2.5"></ellipse>
                <ellipse id="empty-teams--Oval" fill="#BE7C5E" fill-rule="nonzero" cx="113.5" cy="32.5" rx="1.5" ry="2.5"></ellipse>
                <path d="M88,28 L113,28 C113,28 110.864964,18.4167221 101.415016,19.0280521 C91.9650678,19.639382 88,28 88,28 Z" id="empty-teams--Path" fill="#000000" fill-rule="nonzero" opacity="0.1"></path>
                <g id="empty-teams--Group" opacity="0.5" transform="translate(142.000000, 0.000000)" fill="url(#empty-teams--linearGradient-4)" fill-rule="nonzero">
                    <ellipse id="empty-teams--Oval" cx="30.4293133" cy="29.9715517" rx="30.3403004" ry="29.9715517"></ellipse>
                </g>
                <ellipse id="empty-teams--Oval" fill="#F5F5F5" fill-rule="nonzero" cx="172" cy="29.5" rx="30" ry="29.5"></ellipse>
                <path d="M172.370667,58.9999607 C178.282064,59.0093303 184.065548,57.3421951 189,54.2064234 C187.882667,48.3365238 183.642667,48 183.642667,48 L160.253333,48 C160.253333,48 156.253333,48.3159727 155,53.7157666 C160.085036,57.1625531 166.15299,59.0084378 172.370667,58.9999607 Z" id="empty-teams--Path" fill="#017FA3" fill-rule="nonzero"></path>
                <circle id="empty-teams--Oval" fill="#72351C" fill-rule="nonzero" cx="171.5" cy="29.5" r="14.5"></circle>
                <path d="M168,41 L177,41 L176.999993,48.3803681 C177.002036,49.6048448 176.528968,50.7798873 175.685074,51.6464639 C174.84118,52.5130404 173.695747,53.0000018 172.501279,53 L172.501279,53 C170.016708,53 168.002565,50.9352518 168.002565,48.3882559 L168.002565,41 L168,41 Z" id="empty-teams--Path" fill="#000000" fill-rule="nonzero" opacity="0.1"></path>
                <path d="M168.856899,41 L176.140536,41 C176.615205,41 177,41.3946098 177,41.8813857 L177,48.3852225 C177,50.9338938 174.985281,53 172.5,53 L172.5,53 C170.014719,53 168,50.9338938 168,48.3852225 L168,41.8813857 C168,41.3946098 168.384795,41 168.859464,41 L168.856899,41 Z" id="empty-teams--Path" fill="#FDA57D" fill-rule="nonzero"></path>
                <path d="M168,45.1369175 C170.900491,46.2783292 174.093378,46.2879097 177,45.1639227 L177,44 L168,44 L168,45.1369175 Z" id="empty-teams--Path" fill="#000000" fill-rule="nonzero" opacity="0.1"></path>
                <circle id="empty-teams--Oval" fill="#FDA57D" fill-rule="nonzero" cx="172" cy="33" r="13"></circle>
                <path d="M163,20.2959442 C163,20.2959442 168.493704,31.464234 184,24.9710423 L180.391111,19.3011872 L173.995185,17 L163,20.2959442 Z" id="empty-teams--Path" fill="#000000" fill-rule="nonzero" opacity="0.1"></path>
                <path d="M163,20.2959442 C163,20.2959442 168.493704,31.464234 184,24.9710423 L180.391111,19.3011872 L173.995185,17 L163,20.2959442 Z" id="empty-teams--Path" fill="#72351C" fill-rule="nonzero"></path>
                <path d="M162.283698,19.3511074 C162.670017,18.1594843 163.337707,17.0776128 164.230691,16.1963547 C166.905103,13.5615569 171.291247,13.0065791 173.541106,10 C173.788309,10.4302985 173.841157,10.9447326 173.686571,11.4159994 C173.531986,11.8872661 173.184411,12.2713315 172.729859,12.4731537 C174.893185,12.4596834 177.383714,12.2710987 178.600585,10.5037906 C179.2153,11.9292566 178.951081,13.5799636 177.921841,14.7442524 C179.830977,14.8304626 181.869912,16.1209208 181.994303,18.0229323 C182.075427,19.2891439 181.280405,20.4880038 180.233896,21.215402 C179.187387,21.9428001 177.92725,22.2687823 176.683337,22.538189 C173.054358,23.3464092 159.914856,26.6897466 162.283698,19.3511074 Z" id="empty-teams--Path" fill="#72351C" fill-rule="nonzero"></path>
                <path d="M184.997414,33 L184.65354,33 L177.946698,38.9861825 C171.482896,35.9555319 166.74105,38.9861825 166.74105,38.9861825 L159.708433,33.2512591 L159,33.3393293 C159.199571,40.4533622 165.06111,46.0901952 172.164239,45.9989067 C179.267367,45.9076182 184.982648,40.1220014 185,33.0051806 L184.997414,33 Z M171.97673,41.2760074 C169.448091,41.2760074 167.397772,40.7579475 167.397772,40.1285047 C167.397772,39.4990619 169.448091,38.9810019 171.97673,38.9810019 C174.50537,38.9810019 176.555688,39.4990619 176.555688,40.1285047 C176.555688,40.7579475 174.50537,41.2760074 171.974145,41.2760074 L171.97673,41.2760074 Z" id="empty-teams--Shape" fill="#72351C" fill-rule="nonzero"></path>
                <ellipse id="empty-teams--Oval" fill="#FDA57D" fill-rule="nonzero" cx="158.5" cy="32.5" rx="1.5" ry="2.5"></ellipse>
                <ellipse id="empty-teams--Oval" fill="#FDA57D" fill-rule="nonzero" cx="185.5" cy="32.5" rx="1.5" ry="2.5"></ellipse>
                <g id="empty-teams--Group" opacity="0.5" transform="translate(0.000000, 65.000000)" fill="url(#empty-teams--linearGradient-2)" fill-rule="nonzero">
                    <ellipse id="empty-teams--Oval" cx="30.4710776" cy="30.0592275" rx="30.4710776" ry="29.8429185"></ellipse>
                </g>
                <ellipse id="empty-teams--Oval" fill="#F5F5F5" fill-rule="nonzero" cx="31" cy="94.5" rx="30" ry="29.5"></ellipse>
                <path d="M30.3785479,123.999943 C36.2871835,124.00881 42.0678525,122.34131 47,119.205294 C45.8856829,113.336602 41.6443469,113 41.6443469,113 L18.2516857,113 C18.2516857,113 14.2529403,113.316046 13,118.717093 C18.0874741,122.166298 24.1585627,124.011829 30.3785479,123.999943 L30.3785479,123.999943 Z" id="empty-teams--Path" fill="#017FA3" fill-rule="nonzero"></path>
                <circle id="empty-teams--Oval" fill="#333333" fill-rule="nonzero" cx="30.5" cy="94.5" r="14.5"></circle>
                <path d="M25,106 L34,106 L34,113.385223 C34,115.933894 31.9858555,118 29.5012824,118 L29.5012824,118 C28.3081483,118 27.1638819,117.513802 26.3202087,116.648363 C25.4765355,115.782924 25.0025648,114.609138 25.0025648,113.385223 L25.0025648,106 L25,106 Z" id="empty-teams--Path" fill="#000000" fill-rule="nonzero" opacity="0.1"></path>
                <path d="M25.8592192,106.002629 L33.1407808,106.002629 C33.6153145,106.002629 34,106.39698 34,106.883436 L34,113.388255 C34,115.935251 31.9858555,117.999999 29.5012824,117.999999 L29.5012824,117.999999 C28.307704,118.000697 27.1627786,117.515126 26.3185505,116.650181 C25.4743225,115.785235 24.9999998,114.611822 25,113.388255 L25,106.880806 C25,106.39435 25.3846855,106 25.8592192,106 L25.8592192,106.002629 Z" id="empty-teams--Path" fill="#FDB797" fill-rule="nonzero"></path>
                <path d="M25,110.1404 C27.9004908,111.277206 31.0933776,111.286748 34,110.167296 L34,109 L25,109 L25,110.1404 Z" id="empty-teams--Path" fill="#000000" fill-rule="nonzero" opacity="0.1"></path>
                <circle id="empty-teams--Oval" fill="#FDB797" fill-rule="nonzero" cx="30" cy="98" r="13"></circle>
                <path d="M21,85.2959442 C21,85.2959442 26.4937037,96.464234 42,89.9710423 L38.3911111,84.3011872 L31.9951852,82 L21,85.2959442 Z" id="empty-teams--Path" fill="#000000" fill-rule="nonzero" opacity="0.1"></path>
                <path d="M21,85.2959442 C21,85.2959442 26.4937037,96.464234 42,89.9710423 L38.3911111,84.3011872 L31.9951852,82 L21,85.2959442 Z" id="empty-teams--Path" fill="#333333" fill-rule="nonzero"></path>
                <path d="M20.2837482,84.3475347 C20.6700666,83.1563668 21.3377549,82.0749087 22.2307367,81.1939873 C24.9051418,78.5601962 29.2912742,78.0054303 31.5411276,75 C31.7883303,75.4301341 31.841178,75.9443716 31.6865928,76.4154583 C31.5320076,76.8865451 31.1844337,77.2704636 30.7298824,77.4722088 C32.893203,77.4587436 35.3837258,77.270231 36.6005936,75.5035981 C37.2153067,76.9285195 36.9510893,78.5785958 35.9218518,79.7424398 C37.8309822,79.828617 39.8699118,81.1185822 39.9943028,83.019867 C40.0754273,84.2855948 39.280407,85.4839967 38.2339007,86.2111169 C37.1873943,86.9382372 35.924556,87.2694808 34.6806466,87.5441707 C31.0516764,88.346696 17.9149122,91.6887561 20.2837482,84.3475347 Z" id="empty-teams--Path" fill="#333333" fill-rule="nonzero"></path>
                <ellipse id="empty-teams--Oval" fill="#FDB797" fill-rule="nonzero" cx="17.5" cy="97.5" rx="1.5" ry="2.5"></ellipse>
                <ellipse id="empty-teams--Oval" fill="#FDB797" fill-rule="nonzero" cx="43.5" cy="97.5" rx="1.5" ry="2.5"></ellipse>
                <g id="empty-teams--Group" opacity="0.5" transform="translate(143.000000, 69.000000)" fill="url(#empty-teams--linearGradient-5)" fill-rule="nonzero">
                    <ellipse id="empty-teams--Oval" cx="30.5130901" cy="30.0206009" rx="30.3403004" ry="29.8429185"></ellipse>
                </g>
                <ellipse id="empty-teams--Oval" fill="#F5F5F5" fill-rule="nonzero" cx="173" cy="98.5" rx="30" ry="29.5"></ellipse>
                <path d="M173.371971,127.999961 C179.282904,128.009332 185.065935,126.341808 190,123.205304 C188.885421,117.336602 184.643087,117 184.643087,117 L161.252921,117 C161.252921,117 157.253235,117.316047 156,122.717102 C161.085696,126.164287 167.154161,128.009723 173.371971,127.999961 Z" id="empty-teams--Path" fill="#017FA3" fill-rule="nonzero"></path>
                <path d="M169,110 L178,110 L178,117.385222 C178,119.933893 175.985856,121.999999 173.501282,121.999999 L173.501282,121.999999 C172.307704,122.000697 171.162779,121.514807 170.318551,120.649293 C169.474323,119.783779 169,118.609593 169,117.385222 L169,110 Z" id="empty-teams--Path" fill="#000000" fill-rule="nonzero" opacity="0.1"></path>
                <path d="M169.859219,110 L177.140781,110 C177.615314,110 178,110.39461 178,110.881386 L178,117.385222 C178,119.933893 175.985856,121.999999 173.501282,121.999999 L173.501282,121.999999 C172.307704,122.000697 171.162779,121.514807 170.318551,120.649293 C169.474323,119.783779 169,118.609593 169,117.385222 L169,110.881386 C169,110.39461 169.384686,110 169.859219,110 L169.859219,110 Z" id="empty-teams--Path" fill="#FDB797" fill-rule="nonzero"></path>
                <path d="M169,113.136918 C171.900491,114.278329 175.093378,114.28791 178,113.163923 L178,112 L169,112 L169,113.136918 Z" id="empty-teams--Path" fill="#000000" fill-rule="nonzero" opacity="0.1"></path>
                <circle id="empty-teams--Oval" fill="#FDB797" fill-rule="nonzero" cx="173" cy="100" r="13"></circle>
                <ellipse id="empty-teams--Oval" fill="#FDB797" fill-rule="nonzero" cx="160.5" cy="99.5" rx="1.5" ry="2.5"></ellipse>
                <ellipse id="empty-teams--Oval" fill="#FDB797" fill-rule="nonzero" cx="185.5" cy="99.5" rx="1.5" ry="2.5"></ellipse>
                <rect id="empty-teams--Rectangle" stroke="#333333" stroke-width="2" x="166" y="101" width="6" height="3" rx="1.5"></rect>
                <rect id="empty-teams--Rectangle" stroke="#333333" stroke-width="2" transform="translate(179.000000, 102.500000) rotate(180.000000) translate(-179.000000, -102.500000) " x="176" y="101" width="6" height="3" rx="1.5"></rect>
                <path d="M171,101.213973 C171,101.213973 172.748718,100.251093 176,101.213973" id="empty-teams--Path" stroke="#333333" stroke-width="2"></path>
                <path d="M182,91 L185.743647,98 C185.743647,98 190.321575,93.3561214 182,91 Z" id="empty-teams--Path" fill="#858585" fill-rule="nonzero"></path>
                <path d="M181,102 L186,97" id="empty-teams--Path" stroke="#333333" stroke-width="2" stroke-linecap="round" stroke-linejoin="round"></path>
                <path d="M165,91 L161.256353,98 C161.256353,98 156.678425,93.3561214 165,91 Z" id="empty-teams--Path" fill="#858585" fill-rule="nonzero"></path>
                <path d="M165,102 L160,97" id="empty-teams--Path" stroke="#333333" stroke-width="2" stroke-linecap="round" stroke-linejoin="round"></path>
                <g id="empty-teams--Group" opacity="0.5" transform="translate(0.000000, 133.000000)" fill="url(#empty-teams--linearGradient-5)" fill-rule="nonzero">
                    <ellipse id="empty-teams--Oval" cx="30.5575966" cy="29.9381974" rx="30.3403004" ry="29.8429185"></ellipse>
                </g>
                <ellipse id="empty-teams--Oval" fill="#F5F5F5" fill-rule="nonzero" cx="31" cy="162.5" rx="30" ry="29.5"></ellipse>
                <path d="M47,166.240333 C47,177.01051 39.835154,189 30.9960575,189 C22.156961,189 15,177.01051 15,166.240333 C15,155.470157 22.164846,150 31.0039425,150 C39.843039,150 47,155.472734 47,166.240333 Z" id="empty-teams--Path" fill="#FDD835" fill-rule="nonzero"></path>
                <path d="M30.3706667,191.999961 C36.2820637,192.009332 42.0655476,190.341808 47,187.205304 C45.8853333,181.336602 41.6426667,181 41.6426667,181 L18.2533333,181 C18.2533333,181 14.2533333,181.316047 13,186.717102 C18.0853505,190.163781 24.1532789,192.009192 30.3706667,191.999961 L30.3706667,191.999961 Z" id="empty-teams--Path" fill="#017FA3" fill-rule="nonzero"></path>
                <path d="M25,174 L34,174 L34,181.385223 C34,183.933894 31.9858555,186 29.5012824,186 L29.5012824,186 C27.0167093,186 25.0025648,183.933894 25.0025648,181.385223 L25.0025648,174 L25,174 Z" id="empty-teams--Path" fill="#000000" fill-rule="nonzero" opacity="0.1"></path>
                <path d="M25.8568985,174 L33.1405359,174 C33.6152048,174 34,174.39461 34,174.881386 L34,181.385223 C34,183.933894 31.9852814,186 29.5,186 L29.5,186 C27.0147186,186 25,183.933894 25,181.385223 L25,174.881386 C24.9999979,174.395635 25.3832318,174.00145 25.8568985,174 Z" id="empty-teams--Path" fill="#FDB797" fill-rule="nonzero"></path>
                <path d="M25,177.136918 C27.9004908,178.278329 31.0933776,178.28791 34,177.163923 L34,176 L25,176 L25,177.136918 Z" id="empty-teams--Path" fill="#000000" fill-rule="nonzero" opacity="0.1"></path>
                <circle id="empty-teams--Oval" fill="#FDB797" fill-rule="nonzero" cx="30" cy="165" r="13"></circle>
                <ellipse id="empty-teams--Oval" fill="#FDB797" fill-rule="nonzero" cx="17.5" cy="164.5" rx="1.5" ry="2.5"></ellipse>
                <ellipse id="empty-teams--Oval" fill="#FDB797" fill-rule="nonzero" cx="43.5" cy="164.5" rx="1.5" ry="2.5"></ellipse>
                <path d="M19,157.477442 C19,157.477442 26.4728389,167.788784 43.6106897,164.266868 C43.6106897,164.266868 45.5242412,161.918925 40.8665308,154.710791 C36.2088204,147.502657 23.2397781,148.676629 19,157.477442 Z" id="empty-teams--Path" fill="#000000" fill-rule="nonzero" opacity="0.1"></path>
                <path d="M19,157.477442 C19,157.477442 26.4728389,167.788784 43.6106897,164.266868 C43.6106897,164.266868 45.5242412,161.918925 40.8665308,154.710791 C36.2088204,147.502657 23.2397781,148.676629 19,157.477442 Z" id="empty-teams--Path" fill="#FDD835" fill-rule="nonzero"></path>
                <g id="empty-teams--Group" opacity="0.5" transform="translate(72.000000, 137.000000)" fill="url(#empty-teams--linearGradient-2)" fill-rule="nonzero">
                    <ellipse id="empty-teams--Oval" cx="30.5078879" cy="30.0128755" rx="30.4710776" ry="29.8429185"></ellipse>
                </g>
                <ellipse id="empty-teams--Oval" fill="#F5F5F5" fill-rule="nonzero" cx="102" cy="166.5" rx="30" ry="29.5"></ellipse>
                <path d="M119,169.091223 C119,179.08336 111.769532,184 102.378726,184 C92.9879197,184 85,179.08336 85,169.091223 C85,159.099085 92.6118607,151 102,151 C111.388139,151 119,159.091142 119,169.091223 Z" id="empty-teams--Path" fill="#333333" fill-rule="nonzero"></path>
                <path d="M102.369304,195.999956 C108.281145,196.009833 114.065177,194.342288 119,191.205301 C117.885421,185.336602 113.643087,185 113.643087,185 L90.2529213,185 C90.2529213,185 86.253235,185.316046 85,190.717099 C90.0849517,194.163778 96.1524042,196.009188 102.369304,195.999956 L102.369304,195.999956 Z" id="empty-teams--Path" fill="#017FA3" fill-rule="nonzero"></path>
                <path d="M98.0076879,178 L107,178 L106.999993,185.380361 C107.002041,186.606661 106.527971,187.783301 105.682578,188.65018 C104.837186,189.51706 103.690094,190.002786 102.494871,189.999988 L102.494871,189.999988 C101.302757,189.999988 100.159469,189.51411 99.3165174,188.649241 C98.4735655,187.784372 98,186.611358 98,185.388249 L98,178 L98.0076879,178 Z" id="empty-teams--Path" fill="#000000" fill-rule="nonzero" opacity="0.1"></path>
                <path d="M98.8638565,178.00263 L106.14127,178.00263 C106.615534,178.00263 107,178.397154 107,178.883822 L107,185.38623 C107.000002,186.611245 106.525246,187.785971 105.680389,188.651446 C104.835532,189.516922 103.689941,190.002088 102.496155,189.999993 L102.496155,189.999993 C101.303701,189.999993 100.160086,189.513902 99.3168933,188.648653 C98.4737007,187.783405 98,186.609876 98,185.38623 L98,178.881192 C98,178.647485 98.090473,178.423351 98.2515161,178.258095 C98.4125592,178.09284 98.6309804,178 98.8587297,178 L98.8638565,178.00263 Z" id="empty-teams--Path" fill="#FDA57D" fill-rule="nonzero"></path>
                <path d="M98,181.136918 C100.900491,182.278329 104.093378,182.28791 107,181.163923 L107,180 L98,180 L98,181.136918 Z" id="empty-teams--Path" fill="#000000" fill-rule="nonzero" opacity="0.1"></path>
                <circle id="empty-teams--Oval" fill="#FDA57D" fill-rule="nonzero" cx="102" cy="169" r="13"></circle>
                <path d="M87,169 C87,169 95.2593323,168.018725 101.503936,160.178852 C101.503936,160.178852 109.763268,169.082634 115.517375,168.101358 C115.517375,168.101358 118.853281,164.669477 115.517375,161.240179 C112.18147,157.81088 109.594495,153.480357 105.17475,154.051046 C100.755006,154.621735 95.3305335,154.867054 92.9967183,156.909656 C90.6629031,158.952258 87,169 87,169 Z" id="empty-teams--Path" fill="#000000" fill-rule="nonzero" opacity="0.1"></path>
                <path d="M87,169 C87,169 95.2593323,168.018725 101.503936,160.178852 C101.503936,160.178852 109.763268,169.082634 115.517375,168.101358 C115.517375,168.101358 118.853281,164.669477 115.517375,161.240179 C112.18147,157.81088 109.594495,153.480357 105.17475,154.051046 C100.755006,154.621735 95.3410818,154.856725 93.0072666,156.922567 C90.6734514,158.98841 87,169 87,169 Z" id="empty-teams--Path" fill="#333333" fill-rule="nonzero"></path>
                <ellipse id="empty-teams--Oval" fill="#FDA57D" fill-rule="nonzero" cx="88.5" cy="168.5" rx="1.5" ry="2.5"></ellipse>
                <ellipse id="empty-teams--Oval" fill="#FDA57D" fill-rule="nonzero" cx="115.5" cy="168.5" rx="1.5" ry="2.5"></ellipse>
            </g>
        </g>
    </g>
</svg>