<?xml version="1.0" encoding="UTF-8"?>
<svg width="283px" height="336px" viewBox="0 0 283 336" version="1.1" xmlns="http://www.w3.org/2000/svg" xmlns:xlink="http://www.w3.org/1999/xlink">
    <!-- Generator: Sketch 53.2 (72643) - https://sketchapp.com -->
    <title>empty-requests</title>
    <desc>Created with Sketch.</desc>
    <g id="empty-requests--Guidelines" stroke="none" stroke-width="1" fill="none" fill-rule="evenodd">
        <g id="empty-requests--illustrations" transform="translate(-51.000000, -383.000000)" fill-rule="nonzero">
            <g id="empty-requests--empty-requests" transform="translate(51.000000, 383.000000)">
                <path d="M95,229 C95.5924441,230.63084 96.2764689,232.229001 97.0490047,233.787311 L97.0490047,233.791178 C97.674874,235.059545 98.3552326,236.295687 99.0900803,237.499605 L184.806277,237.499605 L184.806277,237.665884 C185.58363,236.409118 186.29853,235.114972 186.950975,233.783444 C187.725191,232.227182 188.409263,230.630217 189,229 L95,229 Z M97.1606446,233.737041 L97.1606446,232.963646 L186.851315,232.963646 L186.851315,233.737041 L97.1606446,233.737041 Z M103.8419,243.999985 L180.1581,243.999985 C181.723377,242.194579 183.150344,240.280472 184.427566,238.272999 L99.5724343,238.272999 C100.849666,240.280471 102.276632,242.194583 103.8419,244 L103.8419,243.999985 Z" id="empty-requests--Shape" fill="#3F3D56"></path>
                <path d="M189,224 C188.6952,225.357918 188.338941,226.689805 187.939139,228 L94.060861,228 C93.6610589,226.689805 93.3047996,225.357918 93,224 L189,224 Z" id="empty-requests--Path" fill="#3F3D56"></path>
                <path d="M189.16297,224 L189.16297,223.469426 L92.8370304,223.469426 L92.8370304,224 C92.4998222,222.690499 92.2208121,221.357165 92,220 L190,220 C189.781817,221.354669 189.502807,222.688003 189.16297,224 Z" id="empty-requests--Path" fill="#3F3D56"></path>
                <path d="M92.4039846,213.73384 L92.4039846,214.494297 L190.900984,214.494297 C190.825732,215.676806 190.706913,216.844106 190.536606,218 L92.4633941,218 C92.2970475,216.851711 92.1742679,215.688213 92.1029765,214.509506 C92.0316851,213.513308 92,212.509506 92,211.494297 C92,210.809886 92.0158425,210.129278 92.043567,209.452471 L92.043567,209.444867 C92.1109136,208.003802 92.2402943,206.581749 92.4317091,205.178707 L92.4317091,205.174905 C92.5980557,204 92.8053209,202.839037 93.0535048,201.692015 L189.788046,201.692015 L189.788046,201 C190.112797,202.376426 190.371558,203.775665 190.56433,205.197719 L92.605977,205.197719 L92.605977,205.958175 L190.663346,205.958175 C190.794047,207.019011 190.886462,208.08872 190.94059,209.1673 L190.952472,209.463878 L92.5069611,209.463878 L92.5069611,210.224335 L190.980197,210.224335 C190.996039,210.646407 191,211.068441 191,211.494297 C191,212.247148 190.980197,212.992395 190.944551,213.73384 L92.4039846,213.73384 Z" id="empty-requests--Path" fill="#3F3D56"></path>
                <path d="M190,201 L93,201 C93.282532,199.662359 93.610163,198.344746 93.982893,197.04716 L189.00119,197.04716 L189.00119,197 C189.383205,198.311889 189.713489,199.645218 190,201 Z" id="empty-requests--Path" fill="#3F3D56"></path>
                <path d="M189,197 L94,197 C94.4959165,195.294434 95.0624877,193.627768 95.6997137,192 L95.6997137,192.857271 L187.300286,192.857271 L187.300286,192.004488 C187.936179,193.629258 188.50275,195.294428 189,197 Z" id="empty-requests--Path" fill="#3F3D56"></path>
                <path d="M187,192 L96,192 C96.548504,190.707819 97.1486788,189.443073 97.8005241,188.205761 L185.096135,188.205761 L185.096135,188 C185.787727,189.300417 186.422348,190.63375 187,192 Z" id="empty-requests--Path" fill="#3F3D56"></path>
                <path d="M185,187 L98,187 C106.860765,171.552706 123.482473,162 141.5,162 C159.517527,162 176.139235,171.552706 185,187 L185,187 Z" id="empty-requests--Path" fill="#3F3D56"></path>
                <path d="M92.9702314,223.883113 C92.9858566,223.962049 93.0057312,224.040086 93.0297686,224.116887 L92.9702314,224.116887 L92.9702314,223.883113 Z" id="empty-requests--Path" fill="#000000" opacity="0.5"></path>
                <path d="M190.029769,223.883113 L190.029769,224.116887 L189.970231,224.116887 C189.994259,224.040084 190.014134,223.962047 190.029769,223.883113 L190.029769,223.883113 Z" id="empty-requests--Path" fill="#000000" opacity="0.5"></path>
                <path d="M191.049614,214 L191.049614,215 L190.950386,215 C190.958324,214.875 190.966262,214.75 190.970231,214.625 C190.97817,214.415 190.986108,214.21 190.994046,214 L191.049614,214 Z" id="empty-requests--Path" fill="#000000" opacity="0.5"></path>
                <path d="M191.023803,210 L191.023803,211 L191.003957,211 C190.999988,210.665 190.988081,210.335025 190.976197,210 L191.023803,210 Z" id="empty-requests--Path" fill="#000000" opacity="0.5"></path>
                <path d="M190.007938,200.96434 L190.007938,201.03566 C190.003969,201.011887 189.996031,200.988113 189.992062,200.96434 L190.007938,200.96434 Z" id="empty-requests--Path" fill="#000000" opacity="0.5"></path>
                <path d="M95.9920617,191.98217 L96.0079383,191.98217 C96.0043233,191.994732 95.9989802,192.006733 95.9920617,192.01783 L95.9920617,191.98217 Z" id="empty-requests--Path" fill="#000000" opacity="0.5"></path>
                <path d="M187.009923,191.980189 L187.009923,192.019811 C187.004105,192.00622 186.997478,191.992989 186.990077,191.980189 L187.009923,191.980189 Z" id="empty-requests--Path" fill="#000000" opacity="0.5"></path>
                <rect id="empty-requests--Rectangle" fill="#000000" opacity="0.5" x="101" y="183" width="81" height="1"></rect>
                <rect id="empty-requests--Rectangle" fill="#000000" opacity="0.5" x="105" y="179" width="74" height="1"></rect>
                <rect id="empty-requests--Rectangle" fill="#000000" opacity="0.5" x="109" y="174" width="65" height="1"></rect>
                <polygon id="empty-requests--Rectangle" fill="#000000" opacity="0.5" transform="translate(140.985750, 170.304909) rotate(-0.111910) translate(-140.985750, -170.304909) " points="113.955303 169.908591 168.016193 169.908774 168.016196 170.701227 113.955306 170.701044"></polygon>
                <rect id="empty-requests--Rectangle" fill="#E6E6E6" x="110" y="186" width="24" height="52"></rect>
                <path d="M121.504694,190 L122.495306,190 C125.535464,190 128,192.594426 128,195.794813 L128,204 L116,204 L116,195.794813 C116,192.594426 118.464536,190 121.504694,190 L121.504694,190 Z" id="empty-requests--Path" fill="#3F3D56"></path>
                <path d="M165,186 L165,186 C168.313708,186 171,188.72029 171,192.075939 L171,202 L159,202 L159,192.075939 C159,188.72029 161.686292,186 165,186 L165,186 Z" id="empty-requests--Path" fill="#E6E6E6"></path>
                <path d="M187.999999,205.923082 C188.000153,206.282894 187.973991,206.642429 187.921638,207 L142,207 L142,205 L187.94174,205 C187.979905,205.306158 187.999325,205.613852 187.999999,205.923082 Z" id="empty-requests--Path" fill="#E6E6E6"></path>
                <path d="M147.357142,196.578922 L147.703059,195.889583 C147.600476,195.524182 147.481992,195.166532 147.348171,194.818338 L147.124489,195.051301 L147.301599,194.698369 C147.132813,194.269936 146.999998,194 146.999998,194 C146.573847,194.897848 146.26142,195.877555 146.074476,196.902242 L146.518368,197.786843 L146.026961,197.27504 C146.009458,197.448906 146.000453,197.624019 146,197.799343 C146,199.567017 146.447715,201 146.999998,201 C147.552282,201 148,199.567025 148,197.799343 C147.989641,197.236948 147.912489,196.679924 147.771231,196.147676 L147.357142,196.578922 Z" id="empty-requests--Path" fill="#017FA3"></path>
                <path d="M152.247034,198.51511 L153.18656,198.313783 C153.379464,197.901962 153.548986,197.479588 153.694319,197.048674 L153.262887,197.002773 L153.743927,196.899699 C153.918346,196.365078 154,196 154,196 C152.802335,196.288243 151.658278,196.76557 150.610895,197.41401 L150.352542,198.619639 L150.251706,197.671792 C150.089161,197.796987 149.93465,197.932281 149.789089,198.076873 C148.32637,199.539598 147.61832,201.203084 148.207618,201.792382 C148.796916,202.38168 150.4604,201.67363 151.923124,200.21091 C152.377442,199.734485 152.756047,199.191235 153.045749,198.600085 L152.247034,198.51511 Z" id="empty-requests--Path" fill="#017FA3"></path>
                <path d="M152,204.948498 C150.153141,205.06777 148.140797,204.941563 146,204.948498 L146,200 C147.990285,200.281465 150.009715,200.281465 152,200 L152,204.948498 Z" id="empty-requests--Path" fill="#E6E6E6"></path>
                <path d="M178.357142,196.578922 L178.703059,195.889583 C178.600476,195.524182 178.481992,195.166532 178.348171,194.818338 L178.124489,195.051301 L178.301599,194.698369 C178.132813,194.269936 177.999998,194 177.999998,194 C177.573847,194.897848 177.26142,195.877555 177.074476,196.902242 L177.518368,197.786843 L177.026961,197.27504 C177.009458,197.448906 177.000453,197.624019 177,197.799343 C177,199.567017 177.447715,201 177.999998,201 C178.552282,201 179,199.567025 179,197.799343 C178.989641,197.236948 178.912489,196.679924 178.771231,196.147676 L178.357142,196.578922 Z" id="empty-requests--Path" fill="#017FA3"></path>
                <path d="M182.247034,198.51511 L183.18656,198.313783 C183.379464,197.901962 183.548986,197.479588 183.694319,197.048674 L183.262887,197.002773 L183.743927,196.899699 C183.918346,196.365078 184,196 184,196 C182.802335,196.288243 181.658278,196.76557 180.610895,197.41401 L180.352542,198.619639 L180.251706,197.671792 C180.089161,197.796987 179.93465,197.932281 179.789089,198.076873 C178.32637,199.539598 177.61832,201.203084 178.207618,201.792382 C178.796916,202.38168 180.460405,201.67363 181.923124,200.21091 C182.377442,199.734485 182.756047,199.191235 183.045749,198.600085 L182.247034,198.51511 Z" id="empty-requests--Path" fill="#017FA3"></path>
                <path d="M182,204.948498 C180.153141,205.06777 178.140797,204.941563 176,204.948498 L176,200 C177.990285,200.281465 180.009715,200.281465 182,200 L182,204.948498 Z" id="empty-requests--Path" fill="#E6E6E6"></path>
                <ellipse id="empty-requests--Oval" fill="#3F3D56" cx="113.5" cy="214" rx="2.5" ry="2"></ellipse>
                <path d="M257,274.734739 C231.622747,311.172901 189.554629,335 141.951962,335 C93.7783956,335 51.2741736,310.598946 26,273.419425 C47.7655236,231.827626 91.9586551,242.130913 141.951962,242.130913 C192.468592,242.130917 235.464422,232.429474 257,274.734739 Z" id="empty-requests--Path" fill="#017FA3"></path>
                <path d="M141.951974,252.410784 C190.005418,252.410784 231.252128,243.69964 253.696798,279 C254.826258,277.519019 255.927326,276.01586 257,274.490525 C235.464443,232.491526 192.468586,242.122726 141.951974,242.122726 C91.9586619,242.122726 47.7654981,231.894027 26,273.184733 C27.0759861,274.756109 28.1837153,276.303553 29.3231874,277.827063 C52.0655057,243.153071 94.382279,252.410784 141.951974,252.410784 Z" id="empty-requests--Path" fill="#3F3D56"></path>
                <path d="M141.384317,335.999991 C69.9179538,335.944916 9.71385862,282.788995 1.05285513,212.097322 C-7.60814837,141.405649 37.9936969,75.3770567 107.347511,58.1893722 C176.701326,41.0016878 248.028395,78.0522447 273.605834,144.551584 C299.183272,211.050923 270.979169,286.116702 207.864075,319.524572 C187.389648,330.351308 164.562843,336.008386 141.384317,335.999991 Z M141.384317,54.8461178 C82.9483155,54.8725074 30.6319318,90.9461145 10.0109641,145.431712 C-10.6100036,199.91731 4.77187039,261.433634 48.6368823,299.907332 C92.5018943,338.381031 155.687269,345.775496 207.303709,318.475812 C226.908521,308.040035 243.774302,293.15406 256.537769,275.021142 C284.184288,235.548212 289.575762,184.701387 270.818245,140.342405 L270.818245,140.342405 C248.863707,88.4898409 197.860707,54.8003196 141.384317,54.8461178 Z" id="empty-requests--Shape" fill="#3F3D56"></path>
                <path d="M141.499834,334.999996 C104.234349,335.008522 68.4927134,320.208614 42.1420356,293.857887 C15.7913577,267.507159 0.991477525,231.765456 1.00000368,194.499901 C1.00000368,117.027994 64.0278828,54 141.499834,54 C218.971591,54 281.999665,117.027998 281.999665,194.499901 C282.062775,223.300581 273.216476,251.415868 256.673482,274.991522 L256.673482,274.991522 C230.357782,312.570905 187.377057,334.964984 141.499834,334.999996 Z M141.499834,55.1889994 C64.6835355,55.1889994 2.18900084,117.683648 2.18900084,194.499901 C2.19359156,255.324706 41.6562922,309.116163 99.6738399,327.381113 C157.691388,345.646063 220.851989,324.162237 255.699682,274.309547 L255.699682,274.309547 C272.102217,250.93353 280.873338,223.056484 280.810668,194.499901 C280.810668,117.683648 218.315939,55.1889994 141.499834,55.1889994 Z" id="empty-requests--Shape" fill="#3F3D56"></path>
                <ellipse id="empty-requests--Oval" fill="#FF6584" cx="52" cy="80.5" rx="38" ry="37.5"></ellipse>
                <ellipse id="empty-requests--Oval" fill="#017FA3" cx="213" cy="64.5" rx="65" ry="64.5"></ellipse>
                <path d="M261.499541,21 C274.044222,50.22513 263.47484,84.1981909 236.536283,101.239155 C209.597727,118.280119 174.22867,113.367089 153,89.6353321 C163.138764,113.258716 186.323051,128.69487 212.116937,128.995531 C237.910823,129.296192 261.451505,114.404677 272.142634,91.0240923 C282.833763,67.6435078 278.659789,40.1816878 261.499541,21 L261.499541,21 Z" id="empty-requests--Path" fill="#000000" opacity="0.2"></path>
                <polygon id="empty-requests--Path" fill="#3F3D56" points="212.5 65 212.684146 65 216 248 209 248"></polygon>
                <polygon id="empty-requests--Rectangle" fill="#3F3D56" transform="translate(218.387724, 166.228955) rotate(62.234130) translate(-218.387724, -166.228955) " points="216.789675 160.170713 219.994436 160.16842 219.985773 172.287198 216.781012 172.289491"></polygon>
                <path d="M202,241 C202,241 202.279068,235.40193 208,236.052629" id="empty-requests--Path" fill="#3F3D56"></path>
                <circle id="empty-requests--Oval" fill="#017FA3" cx="201" cy="232" r="3"></circle>
                <rect id="empty-requests--Rectangle" fill="#3F3D56" x="200" y="236" width="1" height="6"></rect>
                <path d="M239,251 C239,251 239.279068,245.40193 245,246.052629" id="empty-requests--Path" fill="#3F3D56"></path>
                <circle id="empty-requests--Oval" fill="#017FA3" cx="237" cy="243" r="3"></circle>
                <rect id="empty-requests--Rectangle" fill="#3F3D56" x="237" y="248" width="1" height="6"></rect>
                <path d="M42,254 C42,254 42.2790683,248.40193 48,249.052629" id="empty-requests--Path" fill="#3F3D56"></path>
                <circle id="empty-requests--Oval" fill="#017FA3" cx="40" cy="245" r="3"></circle>
                <rect id="empty-requests--Rectangle" fill="#3F3D56" x="40" y="250" width="1" height="6"></rect>
                <path d="M224,245 C224,245 224.279068,239.40193 230,240.052629" id="empty-requests--Path" fill="#3F3D56"></path>
                <circle id="empty-requests--Oval" fill="#017FA3" cx="223" cy="236" r="3"></circle>
                <rect id="empty-requests--Rectangle" fill="#3F3D56" x="222" y="240" width="1" height="6"></rect>
                <path d="M72.3917603,83.2676768 L76,80.04513 C73.1969195,79.6998003 72.0451836,81.406871 71.5738272,82.7580289 C69.3839603,81.7426373 67,83.0733599 67,83.0733599 L74.2194191,86 C73.8552108,84.9137251 73.2212135,83.9659084 72.3917603,83.2676768 L72.3917603,83.2676768 Z" id="empty-requests--Path" fill="#3F3D56"></path>
                <path d="M127.39176,112.267677 L131,109.04513 C128.196919,108.6998 127.045184,110.406871 126.573827,111.758029 C124.38396,110.742637 122,112.07336 122,112.07336 L129.219419,115 C128.855211,113.913725 128.221213,112.965908 127.39176,112.267677 L127.39176,112.267677 Z" id="empty-requests--Path" fill="#3F3D56"></path>
                <path d="M68.3917603,138.267677 L72,135.04513 C69.1969195,134.6998 68.0451836,136.406871 67.5738272,137.758029 C65.3839603,136.742637 63,138.07336 63,138.07336 L70.2194191,141 C69.8552108,139.913725 69.2212135,138.965908 68.3917603,138.267677 Z" id="empty-requests--Path" fill="#3F3D56"></path>
                <path d="M190.999958,212.762036 C191.008538,219.038329 189.699666,225.248257 187.155927,231 L105.230254,190.459035 L99,187.404439 L107.442647,186.947983 L180.613567,183 C187.578652,190.989613 190.999958,201.390117 190.999958,212.762036 Z" id="empty-requests--Path" fill="#000000" opacity="0.2"></path>
                <polygon id="empty-requests--Path" fill="#3F3D56" points="201 187 83 187 83 177.511628 141.604027 153 201 177.511628"></polygon>
            </g>
        </g>
    </g>
</svg>