<?xml version="1.0" encoding="UTF-8"?>
<svg width="414px" height="353px" viewBox="0 0 414 353" version="1.1" xmlns="http://www.w3.org/2000/svg" xmlns:xlink="http://www.w3.org/1999/xlink">
    <!-- Generator: Sketch 53.2 (72643) - https://sketchapp.com -->
    <title>empty-search</title>
    <desc>Created with Sketch.</desc>
    <g id="empty-search--Guidelines" stroke="none" stroke-width="1" fill="none" fill-rule="evenodd">
        <g id="empty-search--illustrations" transform="translate(-51.000000, -1112.000000)">
            <g id="empty-search--empty-search" transform="translate(51.000000, 1112.000000)">
                <ellipse id="empty-search--Oval" fill="#3F3D56" fill-rule="nonzero" cx="138" cy="326.5" rx="134" ry="26.5"></ellipse>
                <path d="M30.6223784,320.459485 C30.6223784,320.459485 5.75994235,313.628871 1.06919068,314.133377 C-3.62156098,314.637883 8.17551002,290.708476 16.032156,293.626696 C23.888802,296.544916 34.3643299,304.22132 40.3524205,293.379389 C46.3405112,282.537459 49.7000382,276.701018 56.9951494,277.284662 C64.2902606,277.868306 74.3930456,272.620456 81.683316,277.284662 C88.9735864,281.948869 94.0951708,287.701225 104.16407,287.453918 C114.232969,287.206611 123.779061,263.865795 131.621184,273.2041 C139.463308,282.542405 148.869015,291.084382 156.241579,287.978209 C163.614144,284.872035 172.027483,289.541188 178.76106,294.793984 C185.494636,300.046781 197.282026,297.712205 201.769463,293.626696 C206.2569,289.541188 209.63095,286.622967 219.167359,287.196719 C228.703769,287.770471 259.012124,294.784092 270.237979,303.518968 C281.463833,312.253845 255.647756,323.362867 243.298832,323.362867 C230.949908,323.362867 228.70861,326.864731 218.04429,332.117528 C207.37997,337.370324 189.967551,329.199307 177.63799,337.953968 C165.308429,346.708629 149.561252,333.284816 128.261657,337.953968 C106.962062,342.623121 111.425296,349.038259 99.0763714,344.383945 C86.7274473,339.729631 91.2197255,337.953968 73.2602944,336.796572 C55.3008634,335.639177 35.6616689,339.714793 33.9770646,332.12742 C32.2924603,324.540047 21.0811281,322.789115 14.3427109,320.454539 C7.60429362,318.119962 30.6223784,320.459485 30.6223784,320.459485 Z" id="empty-search--Path" fill="#3F3D56" fill-rule="nonzero"></path>
                <path d="M341.384884,257.400255 L342.363282,256.780741 L342.651909,256.596822 C338.239397,255.855728 334.936481,252.186133 334.701863,247.764187 C334.467244,243.34224 337.363676,239.350681 341.673511,238.156591 L341.624591,242.057596 L343.791742,237.812954 L343.791742,237.812954 C346.326973,237.69599 348.805317,238.5803 350.681487,240.271316 C352.557658,241.962332 353.677945,244.321514 353.795861,246.829792 C353.795861,247.01371 353.795861,247.187949 353.795861,247.367027 C354.55989,246.54501 355.19627,245.615274 355.684169,244.608252 C356.603863,242.580311 356.618539,240.291012 356.550051,237.503197 C356.403291,231.985648 356.163584,226.424539 355.850496,220.87795 C351.176222,220.366304 347.572486,216.566901 347.353111,211.919192 C347.338404,211.63382 347.338404,211.347891 347.353111,211.062519 C347.353111,210.98992 347.353111,210.917321 347.353111,210.849561 C347.353111,210.573684 347.397139,210.302646 347.441167,210.031609 C347.438843,209.98808 347.438843,209.944459 347.441167,209.90093 C347.475411,209.673452 347.52433,209.450814 347.578142,209.228176 C347.578142,209.145897 347.62217,209.063618 347.641738,208.981339 C347.710226,208.739341 347.783606,208.497343 347.871662,208.265025 C347.901014,208.187586 347.930366,208.114986 347.964609,208.037547 C348.033097,207.863309 348.106477,207.69391 348.184749,207.524512 C348.223885,207.437393 348.263021,207.345433 348.307049,207.258314 L348.341293,207.190555 L348.341293,207.190555 C350.429859,203.114085 355.162731,201.094489 359.592868,202.389319 L359.529272,207.466432 L361.671964,203.275031 C364.493191,204.882841 366.292644,207.801387 366.446546,211.01896 C366.486075,211.839306 366.415338,212.661213 366.23619,213.463137 L366.23619,213.463137 C366.23619,213.530897 366.197054,213.593816 366.182378,213.661576 C366.167702,213.729335 366.118782,213.913253 366.084538,214.034252 C366.050294,214.155251 365.99159,214.348849 365.937779,214.518248 C365.883967,214.687646 365.859507,214.750566 365.815479,214.866725 C365.771451,214.982884 365.673611,215.195842 365.600231,215.35072 C365.556203,215.442679 365.517068,215.539478 365.47304,215.636278 C365.35074,215.878275 365.218656,216.120273 365.076788,216.352591 C365.027869,216.43487 364.969165,216.51231 364.920245,216.589749 C364.817513,216.744627 364.714781,216.904346 364.602265,217.073744 C364.48975,217.243143 364.460398,217.257663 364.387018,217.344782 C364.313638,217.431901 364.176662,217.60614 364.064147,217.731978 C363.951631,217.857817 363.902711,217.906217 363.819547,217.993336 C363.736383,218.080455 363.584732,218.235334 363.45754,218.351493 L363.208049,218.583811 L362.772661,218.941967 L362.54763,219.116206 C362.317706,219.280764 362.087783,219.435643 361.843183,219.600201 L361.706208,219.677641 C361.505025,219.799402 361.297658,219.910868 361.084925,220.011597 L360.810974,220.132596 C360.639754,220.210036 360.463642,220.287475 360.282639,220.350394 L359.969552,220.461713 C359.79344,220.524633 359.617328,220.577872 359.436325,220.626272 L359.113453,220.708551 C358.917774,220.756951 358.717202,220.79567 358.516631,220.82955 L358.477495,220.82955 C358.607948,223.172089 358.725356,225.513014 358.829718,227.852326 C359.981443,225.509687 362.058873,223.740815 364.571855,222.963059 C367.084837,222.185304 369.810801,222.46755 372.106577,223.743203 L370.418841,228.331481 L373.897045,225.025792 C375.761991,226.712425 376.873993,229.062481 376.988783,231.559732 C377.032114,232.436374 376.949764,233.31467 376.744183,234.168468 C375.857896,237.958785 372.71699,240.826101 368.827144,241.395889 C364.937298,241.965677 361.091374,240.121797 359.133021,236.748164 C359.133021,236.985322 359.133021,237.23216 359.133021,237.459638 C359.196617,239.918335 359.274889,242.977187 358.037216,245.687562 C357.151981,247.448483 355.959622,249.041045 354.514983,250.391999 C353.644209,251.268031 352.744083,252.115024 351.824389,252.937816 C350.914539,254.141846 349.729286,255.115457 348.365753,255.77887 C346.849236,256.934006 345.280538,258.016543 343.659659,259.02648 L342.813345,259.636315 C341.903435,260.19775 340.969065,260.768864 340.054263,261.364179 L340.543461,261.325459 C344.703158,261.133096 348.511006,263.624437 349.960541,267.486723 L343.98253,272.326678 L350.562256,270.816612 C350.550051,274.062803 348.8601,277.077172 346.083084,278.806121 C343.306068,280.535069 339.82805,280.738238 336.864685,279.344614 C337.016337,279.523693 337.163097,279.707611 337.309856,279.891529 L338.180631,280.965999 C342.094222,285.844675 343.155784,290.471672 341.22834,294 L338.885077,292.746451 C340.758709,289.310083 337.940923,284.915403 336.091751,282.582545 C335.812908,282.229228 335.52428,281.875911 335.235653,281.522594 C332.750522,278.468582 329.932736,275.003174 330.001224,270.753693 C330.050144,264.345592 336.336351,260.492987 341.384884,257.400255 Z" id="empty-search--Path" fill="#F1F1F1" fill-rule="nonzero"></path>
                <path d="M293.933208,252.54867 L292.444057,251.62397 C292.298537,251.53728 292.157868,251.445773 292.017199,251.354266 C298.561639,250.240536 303.456392,244.774713 303.80501,238.191173 C304.153628,231.607633 299.863129,225.662319 293.472396,223.873345 L293.545155,229.686432 L290.329171,223.362834 L290.290365,223.362834 C286.52609,223.188913 282.846422,224.506934 280.060952,227.026911 C277.275483,229.546887 275.612417,233.062365 275.437658,236.799877 C275.437658,237.069581 275.437658,237.334469 275.437658,237.599357 C274.301579,236.372177 273.355104,234.984477 272.629128,233.481554 C271.266094,230.466647 271.24184,227.052001 271.348555,222.886036 C271.561984,214.660061 271.920932,206.371476 272.386595,198.111788 C279.322594,197.345383 284.66917,191.687708 284.9983,184.766252 C284.9983,184.332799 284.9983,183.908978 284.9983,183.485157 L284.9983,183.167292 C284.969196,182.75792 284.930391,182.353363 284.867332,181.953623 C284.867332,181.886197 284.867332,181.823588 284.833378,181.756162 C284.77517,181.419031 284.70241,181.086717 284.619949,180.754403 C284.590845,180.629184 284.561741,180.50878 284.527786,180.38356 C284.425923,180.022349 284.319208,179.670771 284.188241,179.319192 C284.149435,179.203605 284.100929,179.092834 284.052422,178.977246 C283.950558,178.717174 283.843844,178.466735 283.727428,178.216295 C283.66437,178.081443 283.606162,177.951407 283.543103,177.821371 C283.524972,177.788621 283.508776,177.754851 283.494597,177.720232 L283.494597,177.720232 C281.182123,173.192746 276.596519,170.249406 271.489224,170.014401 C269.910204,169.94389 268.33029,170.132652 266.813192,170.573074 L266.905354,178.139237 L263.728175,171.878249 C258.356112,174.921368 255.603891,181.081521 256.937257,187.078001 L256.937257,187.078001 C256.937257,187.174324 256.990614,187.270647 257.014867,187.371786 C257.058523,187.559616 257.10703,187.742629 257.155536,187.925643 C257.204043,188.108656 257.301056,188.407257 257.378666,188.623984 C257.456277,188.84071 257.495082,188.970746 257.562991,189.139311 C257.655154,189.389751 257.766719,189.620926 257.878284,189.876181 C257.941342,190.020666 257.99955,190.16515 258.067459,190.304818 C258.246934,190.666029 258.44096,191.022424 258.654389,191.369186 C258.727149,191.494406 258.80961,191.609993 258.88722,191.725581 C259.042441,191.961572 259.192812,192.207195 259.372286,192.419106 C259.47415,192.558774 259.585715,192.68881 259.692429,192.823662 C259.799144,192.958514 260.007722,193.213769 260.177495,193.401599 L260.536443,193.791707 C260.711067,193.97472 260.890541,194.152918 261.074866,194.326299 L261.448366,194.668245 C261.656945,194.851259 261.875224,195.029456 262.098354,195.198021 C262.209919,195.284712 262.316634,195.376218 262.43305,195.462909 C262.767745,195.708532 263.112141,195.944523 263.47109,196.156434 C263.538999,196.199779 263.611759,196.233492 263.679668,196.272021 C263.980409,196.445402 264.286,196.613967 264.596442,196.753636 L265.008748,196.936649 C265.265833,197.052237 265.522917,197.163008 265.789703,197.259331 C265.944924,197.321941 266.100145,197.374918 266.274769,197.427896 C266.536704,197.514586 266.80349,197.596461 267.070276,197.668703 L267.555342,197.793923 C267.851232,197.861349 268.147122,197.919143 268.443012,197.97212 L268.50122,197.97212 C268.300726,201.459009 268.126103,204.945897 267.977349,208.432786 C266.265097,204.94295 263.179209,202.30862 259.447375,201.151004 C255.715541,199.993388 251.668081,200.414951 248.259434,202.316283 L250.772073,209.145575 L245.606125,204.223476 C242.834819,206.735762 241.183873,210.239422 241.017405,213.96172 C240.951634,215.267592 241.072483,216.576131 241.376353,217.848349 C242.698778,223.48256 247.353974,227.7426 253.11736,228.592721 C258.880746,229.442843 264.582187,226.710447 267.497134,221.701264 C267.497134,222.057659 267.497134,222.414054 267.46318,222.765632 C267.371017,226.430718 267.249751,230.986791 269.088149,235.056433 C270.334768,237.816084 272.342939,240.050775 274.322007,242.059107 C275.615515,243.369098 276.947828,244.634139 278.318947,245.854229 C279.66524,247.650736 281.42267,249.103465 283.44609,250.092436 C285.70973,251.810194 288.041278,253.415576 290.440736,254.908581 L291.944439,255.833281 C293.292921,256.666474 294.680209,257.523747 296.038393,258.409918 C295.80071,258.409918 295.553327,258.361756 295.320495,258.352124 C289.143356,258.062857 283.487677,261.775319 281.336055,267.531696 L290.207904,274.702935 L280.443534,272.458611 C280.452912,277.306559 282.966377,281.810812 287.101133,284.389356 C291.235889,286.967899 296.413816,287.260202 300.816288,285.163601 C300.593158,285.433305 300.374879,285.703009 300.156599,285.977529 C299.72004,286.516937 299.283481,287.051529 298.861474,287.581305 C293.084343,294.848867 291.478776,301.74077 294.335812,307 L297.818583,305.136152 C295.034307,300.01659 299.220423,293.466634 301.965894,290.018274 C302.3782,289.493315 302.805057,288.968355 303.236766,288.438579 C306.928115,283.887322 311.10938,278.724415 310.997815,272.396002 C310.760133,262.903381 301.432322,257.176985 293.933208,252.54867 Z" id="empty-search--Path" fill="#F1F1F1" fill-rule="nonzero"></path>
                <path d="M222.638145,325.31339 C222.638145,325.31339 205.876874,320.843339 202.719304,321.170297 C199.561734,321.497255 207.50893,305.876476 212.802218,307.779664 C218.095506,309.682852 225.161295,314.699459 229.195429,307.618625 C233.229564,300.537791 235.491197,296.726536 240.416425,297.107173 C245.341652,297.487811 252.141082,294.057193 257.056624,297.107173 C261.972165,300.157153 265.420309,303.909849 272.210052,303.74881 C278.999796,303.587771 285.426322,288.34275 290.71961,294.437831 C296.012898,300.532911 302.342566,306.120475 307.31138,304.090408 C312.280194,302.060341 317.965756,305.110321 322.493866,308.540939 C327.021976,311.971557 334.974015,310.449007 337.991141,307.779664 C341.008267,305.110321 343.289272,303.207134 349.720641,303.587771 C356.15201,303.968409 376.574512,308.540939 384.139119,314.260262 C391.703727,319.979585 374.303193,327.216578 365.983093,327.216578 C357.662994,327.216578 356.147167,329.505283 348.960306,332.935901 C341.773445,336.366518 330.048788,331.027833 321.728688,336.747156 C313.408589,342.466479 302.81717,333.697176 288.443448,336.747156 C274.069725,339.797136 277.096537,343.989029 268.771595,340.939049 C260.446652,337.889068 263.478307,336.747156 251.375904,335.985881 C239.273501,335.224606 226.033017,337.889068 224.894935,332.935901 C223.756854,327.982733 216.177718,326.83594 211.659294,325.31339 C207.14087,323.79084 222.638145,325.31339 222.638145,325.31339 Z" id="empty-search--Path" fill="#3F3D56" fill-rule="nonzero"></path>
                <polygon id="empty-search--Path" fill="#F8CE6D" fill-rule="nonzero" points="363 273.993774 356.486681 293.99774 356.204761 294.869596 345.302243 328.360532 326.637209 341 236 302.808838 244.588832 268.002812 245.045736 266.171429 249.643945 247.540999 249.653667 247.497163 277.554003 244"></polygon>
                <polygon id="empty-search--Path" fill="#000000" fill-rule="nonzero" opacity="0.1" points="362 273.993774 344.357832 328.360532 325.751426 341 342.831525 281.669997 249 247.540999 249.009691 247.497163 276.822392 244"></polygon>
                <polygon id="empty-search--Path" fill="#000000" fill-rule="nonzero" opacity="0.1" points="268.472327 250.518822 267 249.595745 281.761393 248 345 271.037643 343.21796 272 280.832254 249.330606"></polygon>
                <polyline id="empty-search--Path" fill="#000000" fill-rule="nonzero" opacity="0.1" points="355 292.818298 336.142783 301.695028 243.457322 265 243 266.830856 335.768168 303 354.717823 293.689903"></polyline>
                <ellipse id="empty-search--Oval" fill="#3F3D56" fill-rule="nonzero" transform="translate(251.340659, 258.727791) rotate(-72.750000) translate(-251.340659, -258.727791) " cx="251.340659" cy="258.727791" rx="3.24194729" ry="3.48759393"></ellipse>
                <ellipse id="empty-search--Oval" fill="#3F3D56" fill-rule="nonzero" transform="translate(332.644767, 290.339371) rotate(-72.750000) translate(-332.644767, -290.339371) " cx="332.644767" cy="290.339371" rx="3.24194729" ry="3.48759393"></ellipse>
                <ellipse id="empty-search--Oval" fill="#3F3D56" fill-rule="nonzero" transform="translate(319.795869, 329.599427) rotate(-72.750000) translate(-319.795869, -329.599427) " cx="319.795869" cy="329.599427" rx="3.24194729" ry="3.48759393"></ellipse>
                <ellipse id="empty-search--Oval" fill="#3F3D56" fill-rule="nonzero" transform="translate(241.393390, 296.659165) rotate(-72.750000) translate(-241.393390, -296.659165) " cx="241.39339" cy="296.659165" rx="3.24194729" ry="3.48759393"></ellipse>
                <path d="M260.976515,248.701569 C260.757741,249.421372 259.002076,248.701569 256.770578,247.992839 C254.539079,247.284109 252.799823,246.508936 253.018597,245.778058 C253.237371,245.047181 255.337605,244.670668 257.569104,245.373861 C259.800603,246.077054 261.200759,247.981765 260.976515,248.701569 Z" id="empty-search--Path" fill="#3F3D56" fill-rule="nonzero"></path>
                <ellipse id="empty-search--Oval" fill="#3F3D56" fill-rule="nonzero" transform="translate(265.806278, 245.355928) rotate(-72.750000) translate(-265.806278, -245.355928) " cx="265.806278" cy="245.355928" rx="1.19568659" ry="3.40040231"></ellipse>
                <path d="M301.980737,263.83833 C301.765847,264.211981 299.611579,263.867072 297.521778,263.519289 C295.431977,263.171505 293.804189,262.783482 294.019078,262.40983 C294.233968,262.036178 296.216324,261.834981 298.316869,262.171268 C300.417415,262.507555 302.206371,263.458929 301.980737,263.83833 Z" id="empty-search--Path" fill="#3F3D56" fill-rule="nonzero"></path>
                <path d="M339.979536,278.658499 C339.751869,279.423089 337.596627,278.758 335.507154,278.087675 C333.417682,277.41735 331.793661,276.647524 332.021328,275.882935 C332.248994,275.118345 334.2474,274.65226 336.336872,275.322585 C338.426345,275.99291 340.212262,277.89391 339.979536,278.658499 Z" id="empty-search--Path" fill="#3F3D56" fill-rule="nonzero"></path>
                <path d="M352.980324,276.658499 C352.7476,277.423089 350.597432,276.758 348.507975,276.087675 C346.418517,275.41735 344.789449,274.647524 345.022173,273.882935 C345.254897,273.118345 347.248229,272.65226 349.337687,273.322585 C351.427144,273.99291 353.207989,275.89391 352.980324,276.658499 Z" id="empty-search--Path" fill="#3F3D56" fill-rule="nonzero"></path>
                <path d="M358.974306,271.796029 C358.727757,272.209254 356.830401,271.914902 355.018801,271.614889 C353.207201,271.314877 351.802943,270.952598 352.022693,270.539373 C352.242444,270.126149 354.070123,269.820476 355.897802,270.120488 C357.725481,270.420501 359.215496,271.382804 358.974306,271.796029 Z" id="empty-search--Path" fill="#3F3D56" fill-rule="nonzero"></path>
                <path d="M318.985433,257.839859 C318.797107,258.210068 316.892924,257.868582 315.082903,257.520713 C313.272883,257.172844 311.82382,256.783486 312.017377,256.413277 C312.210934,256.043068 313.937255,255.82924 315.7682,256.173918 C317.599146,256.518595 319.168528,257.466458 318.985433,257.839859 Z" id="empty-search--Path" fill="#3F3D56" fill-rule="nonzero"></path>
                <ellipse id="empty-search--Oval" fill="#3F3D56" fill-rule="nonzero" transform="translate(279.338955, 244.926219) rotate(-72.750000) translate(-279.338955, -244.926219) " cx="279.338955" cy="244.926219" rx="1.19568484" ry="2.93539012"></ellipse>
                <path d="M300.861381,282.031033 C301.289046,280.714167 300.701824,279.290204 299.448952,278.606018 C299.738774,278.291286 299.956146,277.921879 300.08698,277.52174 C300.408435,276.533608 300.162756,275.45677 299.440038,274.68612 C298.717321,273.915469 297.623911,273.564405 296.560779,273.761669 C296.985086,272.365808 296.27852,270.883141 294.898,270.272473 C293.51748,269.661805 291.877118,270.106317 291.037696,271.318554 C290.234278,270.763444 289.200196,270.612081 288.259698,270.911928 C287.3192,271.211774 286.587445,271.926114 286.293883,272.830958 C286.293883,272.896108 286.25979,272.956604 286.245179,273.0171 L286.138029,273.06829 C285.202266,272.263106 283.847564,272.083739 282.717906,272.615454 C281.588249,273.147169 280.911496,274.282716 281.009355,275.48229 C281.107214,276.681864 281.959946,277.703503 283.162188,278.061552 C283.320958,278.109692 283.483976,278.143959 283.649232,278.16393 L283.688196,279.243555 L298.426159,285 L298.32875,284.069289 C299.515098,283.916369 300.502048,283.122074 300.861381,282.031033 L300.861381,282.031033 Z" id="empty-search--Path" fill="#000000" fill-rule="nonzero" opacity="0.1"></path>
                <path d="M294.58266,292.354997 C293.950168,293.580346 292.53119,294.213209 291.168063,293.877903 C291.152414,294.293809 291.043977,294.701373 290.850316,295.072158 C290.493448,295.766107 289.868574,296.293117 289.113349,296.537092 C288.358124,296.781067 287.534507,296.721991 286.823937,296.372878 C286.384408,296.155915 286.005263,295.838265 285.718935,295.447099 C285.025824,296.719949 283.48608,297.31032 282.090686,296.838248 C280.695292,296.366176 279.860163,294.972367 280.12279,293.553881 C279.792663,293.509525 279.472236,293.412572 279.174291,293.266889 C277.696412,292.54157 277.099979,290.784775 277.84165,289.341586 L277.936499,289.170317 L277.89856,289.063852 C277.464546,289.050893 277.038749,288.945018 276.651283,288.753717 C275.167502,288.02001 274.574043,286.251194 275.325756,284.802955 C276.077468,283.354716 277.889694,282.775472 279.373476,283.509178 C279.513728,283.57788 279.64848,283.656795 279.776588,283.745252 L280.563842,283 L295,288.633365 L294.274398,289.235122 C294.987414,290.129091 295.107505,291.344509 294.58266,292.354997 Z" id="empty-search--Path" fill="#000000" fill-rule="nonzero" opacity="0.1"></path>
                <path d="M286.256706,276.486081 L282.179564,288.37071 C281.554937,290.179761 282.608831,292.11282 284.581472,292.776306 L284.581472,292.776306 C285.602718,293.117875 286.735217,293.066519 287.713091,292.634296 C288.690964,292.202074 289.428085,291.427052 289.751398,290.491184 L293.82854,278.601565 C294.143765,277.669542 294.020874,276.662066 293.488477,275.813687 C292.95608,274.965308 292.060631,274.35005 291.010597,274.111151 L291.010597,274.111151 C288.976644,273.644679 286.891304,274.686464 286.256706,276.486081 L286.256706,276.486081 Z" id="empty-search--Path" fill="#000000" fill-rule="nonzero" opacity="0.1"></path>
                <path d="M287.221815,277.243767 L284.135199,287.86716 C283.66546,289.484414 284.456754,291.213711 285.935339,291.801197 L285.935339,291.801197 C286.699068,292.105491 287.545619,292.058874 288.27641,291.672282 C289.007201,291.285689 289.557925,290.593139 289.799394,289.757089 L292.867499,279.128723 C293.108116,278.292068 293.018446,277.385922 292.619476,276.622374 C292.220506,275.858826 291.547258,275.304899 290.757309,275.090243 L290.757309,275.090243 C289.234852,274.694111 287.68778,275.636457 287.221815,277.243767 L287.221815,277.243767 Z" id="empty-search--Path" fill="#3F3D56" fill-rule="nonzero"></path>
                <path d="M243.638648,332.311482 C243.638648,332.311482 226.876968,327.841304 223.719321,328.173152 C220.561675,328.504999 228.509065,312.874016 233.802482,314.782138 C239.095899,316.69026 246.16186,321.69725 250.196093,314.616215 C254.230325,307.535179 256.492014,303.728696 261.417362,304.109344 C266.34271,304.489993 273.142305,301.059277 278.057967,304.109344 C282.973628,307.159411 286.421856,310.907333 293.211765,310.74629 C300.001674,310.585246 306.428357,295.339792 311.726617,301.439926 C317.024877,307.540059 323.349857,313.118022 328.318792,311.092777 C333.287727,309.067533 338.973428,312.11272 343.496806,315.543435 C348.020183,318.97415 355.982102,317.446677 358.994458,314.782138 C362.006815,312.1176 364.287875,310.204598 370.719401,310.585246 C377.150927,310.965895 397.573928,315.543435 405.13872,321.25804 C412.703511,326.972645 395.307396,334.219604 386.982251,334.219604 C378.657105,334.219604 377.150927,336.503494 369.963891,339.934209 C362.776854,343.364925 351.047068,338.030968 342.726766,343.745573 C334.406464,349.460178 323.814787,340.700386 309.440714,343.745573 C295.066641,346.79076 298.093526,350.987652 289.773224,347.942465 C281.452921,344.897278 284.474963,343.745573 272.372265,342.984276 C260.269567,342.22298 247.02876,344.892398 245.895494,339.934209 C244.762228,334.976021 237.202279,333.838956 232.65953,332.311482 C228.11678,330.784009 243.638648,332.311482 243.638648,332.311482 Z" id="empty-search--Path" fill="#3F3D56" fill-rule="nonzero"></path>
                <path d="M388.212405,318 C389.66826,315.320613 388.018291,312.03338 386.135384,309.645759 C384.252478,307.258139 381.952227,304.782989 382.000755,301.724306 C382.073548,297.347812 386.708021,294.76568 390.410746,292.441276 C393.160155,290.721513 395.695068,288.679316 397.961783,286.357949 C398.913205,285.466732 399.698682,284.412897 400.281446,283.245776 C401.048197,281.534081 401.028785,279.588972 400.980257,277.716805 C400.82173,271.473008 400.512765,265.234072 400.053362,259" id="empty-search--Path" stroke="#3F3D56" stroke-width="4"></path>
                <path d="M405.989011,258.214691 C405.888688,255.996449 404.663175,253.982872 402.739074,252.874885 L401.281245,255.763024 L401.327673,252.266611 C400.630382,252.06196 399.904041,251.974099 399.178071,252.006586 C395.597566,252.184167 392.836825,255.227484 393.007506,258.808743 C393.178187,262.390001 396.21584,265.156906 399.797001,264.993085 C403.378163,264.829265 406.150575,261.796579 405.993654,258.214691 L405.989011,258.214691 Z" id="empty-search--Path" fill="#57B793" fill-rule="nonzero"></path>
                <path d="M394.275763,304.479904 C392.867184,307.209949 389.739473,308.580979 386.777242,307.766877 C383.815011,306.952775 381.827317,304.175892 382.011851,301.109446 C382.196385,298.043001 384.502746,295.524514 387.54123,295.071508 C390.579714,294.618502 393.520436,296.354704 394.591456,299.233959 L390.519944,302.562581 L395,301.527319 C394.995404,302.554928 394.747203,303.566802 394.275763,304.479904 L394.275763,304.479904 Z" id="empty-search--Path" fill="#57B793" fill-rule="nonzero"></path>
                <path d="M390.866005,290.984139 C387.553236,291.21698 384.611361,288.861439 384.08262,285.552726 C383.55388,282.244013 385.612837,279.074494 388.83017,278.244441 L388.798073,280.919176 L390.251586,278.008435 L390.251586,278.008435 C391.959186,277.920451 393.631006,278.523638 394.89633,279.684241 C396.161653,280.844845 396.915911,282.466951 396.99185,284.190867 C397.02952,284.940296 396.9364,285.690576 396.716737,286.407473 C395.922154,289.028533 393.579179,290.861297 390.866005,290.984139 L390.866005,290.984139 Z" id="empty-search--Path" fill="#57B793" fill-rule="nonzero"></path>
                <path d="M407.764913,280.995583 C405.012416,281.096363 402.492835,279.46453 401.468396,276.917577 C400.443958,274.370624 401.135325,271.457164 403.196147,269.636743 C405.256968,267.816322 408.243344,267.481059 410.659198,268.798908 L409.503348,271.956022 L411.880298,269.681043 C413.154084,270.843181 413.91333,272.461035 413.991588,274.179931 C414.022619,274.783521 413.967699,275.388449 413.828464,275.9767 C413.16493,278.814378 410.686856,280.865513 407.764913,280.995583 L407.764913,280.995583 Z" id="empty-search--Path" fill="#57B793" fill-rule="nonzero"></path>
                <path d="M404.308968,261.181066 C402.900828,261.373161 401.531803,261.927491 400.119317,262.037259 C398.706831,262.147028 397.155269,261.72442 396.264316,260.33585 C395.781898,259.589425 395.538516,258.645417 395.134328,257.827643 C394.748303,257.067926 394.219856,256.440172 393.595804,256 C392.591759,258.650429 392.872456,261.791875 394.318947,264.093113 C395.765438,266.394351 398.124458,267.45246 400.396344,266.819051 C402.668229,266.185643 404.455198,263.971622 405,261.115205 C404.771105,261.126182 404.540761,261.148136 404.308968,261.181066 Z" id="empty-search--Path" fill="#000000" fill-rule="nonzero" opacity="0.1"></path>
                <path d="M407.363899,280.992241 C405.233759,281.113192 403.2088,279.813313 402.025004,277.565053 C400.841207,275.316793 400.670929,272.447487 401.576056,270 C402.060751,270.40553 402.478879,270.926264 402.807328,271.533418 C403.240874,272.363332 403.505337,273.325153 404.016922,274.083618 C404.962052,275.496121 406.57918,275.957795 408.048902,275.875353 C409.518624,275.792911 410.93632,275.259787 412.384364,275.089408 C412.588131,275.089408 412.817911,275.050935 413,275.045439 C412.384879,278.404937 410.081578,280.835212 407.363899,280.992241 L407.363899,280.992241 Z" id="empty-search--Path" fill="#000000" fill-rule="nonzero" opacity="0.1"></path>
                <path d="M391.419012,292.990578 C389.289249,293.123832 387.258591,291.836357 386.059362,289.592459 C384.860134,287.348562 384.665331,284.47194 385.545207,282 C386.055063,282.421384 386.499526,282.958753 386.856324,283.585179 C387.332697,284.441733 387.629883,285.431775 388.167441,286.221583 C389.203224,287.684398 390.942639,288.201667 392.511609,288.157171 C394.080579,288.112675 395.492215,287.639902 397,287.489727 C396.242107,290.641924 394.006704,292.845229 391.419012,292.990578 L391.419012,292.990578 Z" id="empty-search--Path" fill="#000000" fill-rule="nonzero" opacity="0.1"></path>
                <path d="M394,306.38002 C392.584589,310.315975 388.873771,312.078481 385.711655,310.316687 C382.54954,308.554893 381.133557,303.935955 382.548968,300 C383.065294,300.423582 383.528413,300.939949 383.923271,301.532319 C384.52313,302.434994 384.917067,303.465827 385.606456,304.318354 C386.891228,305.889678 388.963874,306.547182 390.812692,306.597331 C391.877649,306.603609 392.941965,306.531044 394,306.38002 L394,306.38002 Z" id="empty-search--Path" fill="#000000" fill-rule="nonzero" opacity="0.1"></path>
                <path d="M377,315.145833 C377,315.145833 382.374897,314.967106 383.995128,313.716017 C385.615359,312.464928 392.241811,310.977288 392.663847,312.980082 C393.085884,314.982876 400.735895,322.967768 394.672157,322.999308 C388.60842,323.030848 380.57518,321.979512 378.9598,320.896637 C377.34442,319.813762 377,315.145833 377,315.145833 Z" id="empty-search--Path" fill="#656380" fill-rule="nonzero"></path>
                <path d="M394.799011,321.279138 C388.72355,321.332465 380.686071,320.212598 379.068862,319.146057 C377.835315,318.319488 377.34481,315.365172 377.17969,314 L377,314 C377,314 377.339954,318.767435 378.942593,319.865972 C380.545233,320.964508 388.597282,322.036381 394.672742,321.999053 C396.425933,321.999053 397.028137,321.300469 396.998998,320.287255 C396.741604,320.884518 396.090835,321.26314 394.799011,321.279138 Z" id="empty-search--Path" fill="#000000" fill-rule="nonzero" opacity="0.2"></path>
                <path d="M99.1874151,85.9736119 C99.1527898,85.6044837 99.204146,85.232047 99.3370554,84.8884141 C99.7280512,84.1581876 100.751398,84.3559573 101.523735,84.563869 C104.632393,85.3853739 107.905172,84.6399343 111.100717,84.8326329 C114.296263,85.0253316 117.902112,86.7038385 118.544118,90 C120.866111,88.271947 122.867009,86.1115092 124.447671,83.6257307 C125.335859,82.2312008 126.108196,80.6338303 125.987518,78.9603944 C125.813742,76.54659 123.887726,74.7413077 122.101696,73.2098603 L116.791878,68.6459444 C116.093637,67.970207 115.286084,67.4309672 114.407286,67.0536448 C113.181201,66.6124663 111.839265,66.820378 110.5456,66.820378 C106.683914,66.820378 102.547082,64.9745275 99.1005271,66.820378 C97.6523948,67.5962437 96.5807768,68.9248503 95.5381215,70.2230309 L90.7882473,76.1307665 C90.4294662,76.5064937 90.1685175,76.9726965 90.0303914,77.4847283 C89.8952324,78.2048128 90.2476112,78.9147553 90.3682889,79.6399108 C90.595163,80.9583754 90.0496998,82.3630473 90.4696582,83.6308017 C91.1599346,85.7352741 93.5879699,86.0344641 95.0747192,87.2362953 C95.6298366,87.6876159 96.498716,89.2089212 97.1552027,89.1937082 C98.333017,89.1784951 99.1536253,86.9421763 99.1874151,85.9736119 Z" id="empty-search--Path" fill="#3F3D56" fill-rule="nonzero"></path>
                <path d="M101.154661,101.336688 C101.101184,102.921273 100.18236,104.329794 99.2975671,105.64539 C98.1162223,107.396259 96.8668165,109.215598 95,110.193737 C104.382271,115.177318 115.311335,116.336682 125.520505,113.431377 C127.158831,112.942307 129.093708,111.925043 128.996478,110.208409 C127.051878,109.675323 125.039216,109.122675 123.386306,107.944017 C121.412536,106.535497 120.109654,104.344466 119.268614,102.075183 C118.427575,99.8059006 117.999762,97.3801159 117.411521,95.0179102 C117.373035,94.7756801 117.268721,94.5488722 117.110108,94.3625571 C116.84245,94.1698283 116.51371,94.0827983 116.186423,94.1180224 L109.710903,94.0006457 C107.051662,94.0006457 104.16393,93.9370667 101.694287,95.0717079 C98.6218184,96.4900094 101.242168,98.7054943 101.154661,101.336688 Z" id="empty-search--Path" fill="#FFC0C6" fill-rule="nonzero"></path>
                <path d="M101.154661,101.336688 C101.101184,102.921273 100.18236,104.329794 99.2975671,105.64539 C98.1162223,107.396259 96.8668165,109.215598 95,110.193737 C104.382271,115.177318 115.311335,116.336682 125.520505,113.431377 C127.158831,112.942307 129.093708,111.925043 128.996478,110.208409 C127.051878,109.675323 125.039216,109.122675 123.386306,107.944017 C121.412536,106.535497 120.109654,104.344466 119.268614,102.075183 C118.427575,99.8059006 117.999762,97.3801159 117.411521,95.0179102 C117.373035,94.7756801 117.268721,94.5488722 117.110108,94.3625571 C116.84245,94.1698283 116.51371,94.0827983 116.186423,94.1180224 L109.710903,94.0006457 C107.051662,94.0006457 104.16393,93.9370667 101.694287,95.0717079 C98.6218184,96.4900094 101.242168,98.7054943 101.154661,101.336688 Z" id="empty-search--Path" fill="#000000" fill-rule="nonzero" opacity="0.1"></path>
                <path d="M95.0647775,322.834047 C93.3981804,325.289499 91.2183933,327.366812 89.3892013,329.709314 C87.5600093,332.051816 86.0306016,334.782279 86.0102773,337.71409 C85.9611425,338.09128 86.0898442,338.469862 86.3608724,338.74538 C86.5689347,338.875206 86.8094778,338.948176 87.0569816,338.956549 L94.119695,339.83069 C95.1933426,340.01125 96.28765,340.047607 97.3715918,339.93873 C98.538632,339.715965 99.6629926,339.320047 100.704786,338.765023 C101.500845,338.463377 102.194119,337.953184 102.706735,337.291752 C103.047168,336.751552 103.138628,336.08858 103.463817,335.538559 C104.444467,333.873762 106.913877,333.947425 108.875177,334.237169 C109.439178,329.174025 107.991067,324.125615 106.553119,319.224532 C106.491125,318.923774 106.357134,318.641223 106.161875,318.3995 C105.905152,318.160722 105.587994,317.991366 105.242198,317.908409 C103.550196,317.37312 99.4599193,315.276164 98.0372144,316.258345 C96.9955912,316.985159 95.9082382,321.532657 95.0647775,322.834047 Z" id="empty-search--Path" fill="#575A88" fill-rule="nonzero"></path>
                <path d="M127.333903,333.204208 C128.680159,332.565059 130.117174,331.741835 131.569316,332.079306 C133.616433,332.544606 134.529063,334.998938 136.268608,336.169859 C137.337546,336.901046 138.658592,337.1158 139.934258,337.284535 C143.862921,337.799769 147.822167,338.037253 151.783331,337.995269 C153.048913,337.995269 154.642235,337.688477 154.949807,336.461311 C155.257378,335.234145 154.09264,334.257525 153.058997,333.618376 C150.815376,332.22266 148.476626,330.990676 146.060481,329.931765 C144.87288,329.487248 143.750056,328.881807 142.722572,328.131921 C140.993111,326.715567 140.151071,324.496442 139.37962,322.384693 C138.759435,320.687114 138.189671,317.020955 136.919047,315.737544 C135.527411,314.351868 133.65677,315.272243 131.912183,315.660846 C129.199502,316.264202 126.022942,316.683484 124.278355,319.153156 C121.727022,322.768183 119.765622,336.757876 127.333903,333.204208 Z" id="empty-search--Path" fill="#575A88" fill-rule="nonzero"></path>
                <path d="M88.5941313,178.604574 C86.3917556,184.094942 85.1803521,189.941273 85.0175735,195.865333 C84.90251,200.289799 85.3723527,204.699695 85.8469897,209.099877 C86.6044912,216.223056 87.3651889,223.346236 88.1290829,230.469415 C88.3730618,233.431605 88.8329722,236.37146 89.5050508,239.264923 C90.3344671,242.494638 91.6816691,245.57865 92.6453261,248.754941 C95.6273891,258.652923 94.7787956,269.327978 92.8083328,279.483366 C92.5461396,280.597471 92.4078421,281.7378 92.3960218,282.883065 C92.4535536,284.597485 93.1055802,286.229341 93.5274798,287.890337 C96.1068204,298.016584 90.1714604,309.259875 94.0452657,318.973302 C94.1436236,319.320142 94.3591275,319.620961 94.6541435,319.823227 C95.04728,319.972599 95.4835176,319.953309 95.8623104,319.769803 C96.9659081,319.380576 98.0251158,318.872573 99.021763,318.254508 C101.108703,320.812893 103.804852,322.790285 106.855671,324 C109.128176,323.431765 109.55487,320.634298 110.297988,318.385639 C110.864532,316.788139 111.3258,315.154312 111.67875,313.494929 C112.00738,311.458915 112.175712,309.399658 112.182153,307.336617 L114.147822,237.22996 L114.003992,258.623782 C113.935356,260.356129 114.042997,262.091031 114.325211,263.801039 C114.61287,265.224056 115.140245,266.588792 115.442286,268.011809 C115.86898,270.046772 115.816243,272.154586 115.797066,274.238116 C115.677537,286.595133 116.793917,298.932638 119.129113,311.061716 C119.896204,315.034507 120.816712,319.046152 122.777586,322.56727 C122.908055,322.893943 123.166876,323.150853 123.491939,323.27635 C123.909044,323.368627 124.292589,323.033514 124.609014,322.737255 C128.490608,319.261205 134.114039,318.642303 138.641969,321.19282 C138.22007,319.133573 140.156972,316.739214 138.771416,315.175352 C138.373488,314.723678 137.778993,314.505126 137.333122,314.111732 C136.450968,313.349228 136.240018,312.067055 136.115366,310.896588 C135.571208,305.686924 135.571208,300.433637 136.115366,295.223974 C136.791364,288.711121 138.311161,282.144845 137.189292,275.699986 C136.374259,271.022971 134.178463,266.472231 134.614746,261.766076 C134.902405,258.609212 136.350287,255.700041 137.347504,252.693735 C141.700741,239.551469 137.347504,224.903622 140.497368,211.411672 C141.22131,208.313089 142.314413,204.961957 141.000771,202.072213 L143,201.45541 L138.848125,191.853688 C137.965971,189.809012 137.045463,187.706055 135.492105,186.13248 C132.883999,183.504998 128.986222,182.800774 125.347338,182.247109 L95.7472469,177.570094 C93.1247575,177.137847 89.5865542,176.137364 88.5941313,178.604574 Z" id="empty-search--Path" fill="#3C354C" fill-rule="nonzero"></path>
                <circle id="empty-search--Oval" fill="#FFC0C6" fill-rule="nonzero" cx="108" cy="88" r="13"></circle>
                <path d="M100.618069,104.581969 C99.9967775,104.221021 99.2630501,104.09417 98.5535813,104.225049 C98.2047854,104.346946 97.8777019,104.521996 97.5843383,104.743772 L91.5265697,108.912595 C90.6581333,109.442113 89.883811,110.107643 89.2343101,110.882792 C88.1972201,112.267641 88.0324488,114.109347 88.1681428,115.822562 C88.4686082,119.686813 90.0581666,123.332154 90.9207929,127.110744 C91.7834191,130.889335 91.7834191,135.200926 89.3021571,138.227605 C88.8753901,138.661755 88.5190759,139.157709 88.2456823,139.698115 C88.0978199,140.159574 88.0306377,140.642297 88.0469875,141.125794 C87.9572328,142.934643 87.9960969,144.747437 88.1632966,146.550974 C88.4346847,148.878091 89.1325396,151.138583 89.5105444,153.446664 C90.1744758,157.377541 89.9951658,161.408355 90.5088646,165.34399 C90.4626222,165.876245 90.6462521,166.403088 91.0149209,166.795889 C91.3835897,167.18869 91.9033677,167.411299 92.4473506,167.409366 C95.4427302,167.839808 98.4682369,168.035541 101.495234,167.994714 C104.999047,167.994714 108.498014,167.804357 111.996981,167.623518 L127.921643,166.800223 C128.380728,166.858142 128.842449,166.714206 129.183453,166.406866 C129.524457,166.099527 129.71,165.6601 129.690512,165.205981 C131.086222,158.629139 132.491624,151.933325 131.832539,145.251786 C131.406072,140.935437 130.126671,136.752337 128.92481,132.583514 C127.955567,129.204674 127.025094,125.659271 127.752026,122.218564 C128.236647,119.948554 129.414278,117.849866 129.719589,115.556062 C130.077275,113.136514 129.267572,110.691345 127.5291,108.941149 C125.745693,107.261246 123.143275,106.62355 121.364715,104.938888 C120.876314,104.394084 120.344804,103.88806 119.775156,103.425549 C119.182204,102.961321 118.37187,102.869007 117.686438,103.187602 C117.358572,103.415933 117.08699,103.713521 116.891658,104.058486 C115.34087,106.371326 113.014686,110.18323 109.743491,109.583604 C106.205755,108.960184 103.734185,106.057237 100.618069,104.581969 Z" id="empty-search--Path" fill="#017FA3" fill-rule="nonzero"></path>
                <path d="M132.528477,189.95095 C131.45373,190.745414 130.654559,192.157289 131.150596,193.387572 C132.610678,193.645096 134.115768,193.438474 135.449583,192.797399 C136.308462,192.384278 137.378616,191.803185 138.122671,192.402438 C138.363671,192.631591 138.550327,192.910662 138.669231,193.2196 C139.474063,194.906172 140.449684,196.507816 141.581151,198 C142.398694,197.618658 143.257572,197.200997 143.749017,196.451931 C144.045592,195.94162 144.237557,195.378559 144.313947,194.794907 C144.602136,193.334112 144.815216,191.859814 144.952365,190.377691 C145.048817,189.30176 145.067189,188.107795 144.323133,187.308792 C141.131044,183.903949 135.1786,187.9943 132.528477,189.95095 Z" id="empty-search--Path" fill="#FFC0C6" fill-rule="nonzero"></path>
                <path d="M98.1861695,81.9676889 C98.1517577,81.6001439 98.2031133,81.2293233 98.3357899,80.8873339 C98.7267334,80.156953 99.7499436,80.3801249 100.522178,80.5576481 C103.63042,81.3843986 106.902762,80.6388015 110.097881,80.8315409 C113.292999,81.0242803 116.898367,82.7031419 117.540287,86 C119.862567,84.2706645 121.864638,82.1099809 123.447878,79.6243836 C124.335947,78.229559 125.108181,76.6318508 124.98752,74.9580613 C124.813767,72.5437468 122.888008,70.7380829 121.102217,69.2063119 L115.793107,64.6414315 C115.094767,63.9670993 114.287298,63.4294477 113.408835,63.0538675 C112.182913,62.6125957 110.841156,62.8205514 109.547664,62.8205514 C105.686493,62.8205514 101.550214,60.9743108 98.1041197,62.8205514 C96.6561807,63.6016531 95.5847058,64.9305406 94.5373633,66.2289954 L89.79295,72.1379796 C89.4345168,72.5128944 89.1721818,72.9770234 89.0303688,73.4871554 C88.8952278,74.2073921 89.2475596,74.9225567 89.3730477,75.6427934 C89.595065,76.9615367 89.0545011,78.3715775 89.4695769,79.6395999 C90.1597612,81.744517 92.5922986,82.0386982 94.0788493,83.2458554 C94.6338926,83.6972714 95.4978295,85.2188982 96.159055,85.1986099 C97.3318855,85.1783215 98.1523843,82.9415301 98.1861695,81.9676889 Z" id="empty-search--Path" fill="#3F3D56" fill-rule="nonzero"></path>
                <path d="M131.163777,109.267478 C133.826944,108.62365 136.63181,109.154079 138.894525,110.729441 C142.493321,113.253765 143.973778,117.863824 145.225741,122.142504 L148.029565,131.737859 C149.257726,135.943441 150.495407,140.188009 150.781026,144.569026 C151.042843,148.550441 150.509688,152.536728 149.976533,156.488903 C149.238684,161.96152 150.976198,167.960445 151,173.481794 C151,179.81697 150.961917,186.537129 147.81059,192 C147.545158,191.030105 146.83456,190.253551 145.906465,189.919138 C144.994431,189.600399 144.037787,189.435806 143.074079,189.431817 L134.695929,188.881144 C135.409823,187.646159 136.024345,186.35374 136.53341,185.016687 C139.746621,176.566537 138.5137,167.122252 137.233176,158.155542 C137.132252,157.300548 136.973188,156.453802 136.757144,155.621471 C135.912576,152.422692 135.719755,149.08026 136.190667,145.801949 C136.382418,144.319255 136.431844,142.820899 136.338237,141.32834 C136.323689,140.698142 136.192862,140.076444 135.952652,139.496013 C135.70615,139.018503 135.395272,138.578857 135.029151,138.189992 L133.33448,136.240707 C133.19643,130.34412 132.291971,124.403675 131.397032,118.575313 C130.962673,115.492829 130.884382,112.368707 131.163777,109.267478 L131.163777,109.267478 Z" id="empty-search--Path" fill="#017FA3" fill-rule="nonzero"></path>
                <path d="M112.834385,134.727308 C104.57744,128.371972 99.0769384,119.130428 97.4556255,108.88903 C97.1754848,107.073212 96.4461529,104.701629 94.5962581,104.763913 C94.0359042,104.822854 93.4969439,105.009805 93.021674,105.310095 L86.3176166,108.874657 C85.8382627,109.067789 85.4302541,109.402268 85.1487536,109.832872 C84.7092224,110.685684 85.3322941,111.667854 85.8684255,112.463173 C89.4764448,117.87709 89.7324355,124.752286 89.8773359,131.239404 C89.920806,133.155834 89.935296,135.172878 89.0031036,136.849755 C88.2447916,138.205629 86.9261982,139.202173 86.2306764,140.596377 C85.5786247,141.904341 85.5496446,143.418321 85.5303246,144.8796 C85.3950842,155.304983 85.2598439,165.74474 85.8104653,176.160541 C85.8925755,177.732014 86.0181558,179.380144 86.863408,180.712064 C87.6507001,181.943371 88.9499735,182.738689 90.2057767,183.490888 L100.372953,189.585138 C102.304958,190.74937 104.314243,191.932766 106.550539,192.30647 C108.786835,192.680174 111.341912,192.047752 112.626695,190.193605 C113.249767,189.292883 113.525077,188.195726 114.123999,187.28063 C114.72292,186.365535 115.867633,185.622918 116.886766,186.030159 C117.611268,186.317624 118.007329,187.069823 118.33577,187.764529 C118.982991,189.091657 119.659193,190.452323 120.716966,191.491987 C121.774739,192.531651 123.305853,193.231148 124.759686,192.92931 C126.01549,192.656219 126.995982,191.712376 127.899195,190.811654 C130.690942,188.03762 133.511669,185.225258 135.564425,181.866713 C135.859823,181.476569 136.013072,180.998569 135.999126,180.510839 C135.867315,180.036272 135.608643,179.605868 135.250474,179.265159 C133.96569,177.703267 133.458539,175.657478 133.076968,173.673972 C129.256428,153.743092 134.651552,133.026475 131.681094,112.951863 C131.342994,110.652146 130.599172,108.539281 128.860367,106.982181 C127.121563,105.425081 124.957717,104.433328 122.827681,103.465531 C122.12733,103.14932 121.325548,102.823527 120.610706,103.110991 C119.427353,103.590099 119.422523,105.204692 119.509463,106.464745 C119.610014,109.047006 119.480712,111.633033 119.123062,114.192752 L118.084609,123.674293 C117.985375,125.122513 117.712984,126.553903 117.273167,127.938352 C116.359911,130.519774 114.838065,132.847382 112.834385,134.727308 Z" id="empty-search--Path" fill="#575A88" fill-rule="nonzero"></path>
                <path d="M54.2813527,58.430466 C54.2813527,58.430466 50.6448332,61.4729526 46.3505946,53.493786 C42.056356,45.5146193 21.3191392,26.3371387 21.3191392,26.3371387 C21.3191392,26.3371387 18.6358358,23.8099119 28.8304823,19.5995029 C39.0251287,15.3890939 52.9468501,0 52.9468501,0 C52.9468501,0 76.176727,21.2630561 78.4501475,31.7939858 C80.7235679,42.3249155 75.7477798,44.1111496 67.2069633,49.7053993 C58.6661469,55.299649 54.2813527,58.430466 54.2813527,58.430466 Z" id="empty-search--Path" fill="#3F3D56" fill-rule="nonzero"></path>
                <path d="M121.730189,158.803776 L63,51.7530302 L67.9849038,50 L125.721932,156.587134 C126.015458,157.132833 126.079633,157.775006 125.90001,158.369074 C125.720387,158.963142 125.312063,159.459172 124.766969,159.745486 L124.766969,159.745486 C123.669585,160.31504 122.323338,159.897567 121.730189,158.803776 L121.730189,158.803776 Z" id="empty-search--Path" fill="#656380" fill-rule="nonzero"></path>
                <path d="M97.7408858,131.881309 C99.1986229,128.510923 97.7046687,124.622017 96.7086992,121.060855 C95.9152138,118.230651 95.4424466,115.306876 95.3007606,112.353618 C95.205853,111.424475 95.3016882,110.484149 95.5814429,109.599588 C95.8836229,108.703939 96.6398778,108.079616 97.5190562,108 C98.8191268,110.101339 99.338052,112.655122 98.9722662,115.151674 C99.8158283,114.916715 100.671416,114.735411 101.534624,114.608695 C103.845124,114.273182 106.044071,115.782198 106.745355,118.184532 C108.180457,123.154505 108.669387,128.457115 106.668394,133.104235 C106.030491,134.479522 105.290128,135.796471 104.454626,137.042059 L100.090468,143.929581 C99.7916775,144.418752 99.4249796,144.907922 98.8998321,144.991081 C98.3746846,145.07424 97.8269013,144.560611 97.442095,144.086116 C96.1156447,142.466961 93.761535,140.109159 94.0195817,137.878541 C94.2776283,135.647923 96.8716761,133.86245 97.7408858,131.881309 Z" id="empty-search--Path" fill="#FFC0C6" fill-rule="nonzero"></path>
                <path d="M87.6050534,110.117661 C82.7690628,109.572436 77.2316313,110.874098 74.7024922,115.029591 C73.432983,117.126986 73.1168406,119.641894 72.894553,122.078212 C72.5833503,125.492004 72.4005805,128.91562 72.2276901,132.334324 L71.2940821,150.331638 C71.1804685,152.483064 71.0717945,154.639402 71.0322767,156.790827 C70.919758,158.472788 71.1019432,160.1614 71.5707067,161.781349 C72.1684134,163.525084 73.3539474,164.998664 74.5345416,166.432947 C75.7151358,167.867231 77.1921135,169.345722 78.9259569,168.928208 C79.6355404,168.69528 80.2801927,168.299897 80.8079921,167.773905 L84.7597719,164.374848 C87.4469822,162.080977 90.1638309,159.752721 92.2088769,156.87433 C93.1968219,155.489166 94.0069367,153.991027 95.0047612,152.615686 C97.9389577,148.568255 102.453866,145.498298 104,140.753373 C102.518083,140.674782 100.364363,140.188501 99.6826805,138.881927 C99.3220806,138.189345 99.2726834,137.364141 98.8725657,136.70103 C98.2649795,135.689172 96.8966757,135.139036 96.694147,133.979821 C92.8115233,137.089073 89.5611844,140.699342 86.4590373,144.574855 L87.7186671,139.707132 C87.8068732,139.249951 87.9976732,138.818449 88.276856,138.444766 C88.7187701,138.059896 89.2188651,137.746609 89.7587734,137.516411 C91.2950278,136.592968 91.8779154,134.682227 92.189118,132.923755 C93.5778343,125.019245 91.9426534,116.884087 87.6050534,110.117661 L87.6050534,110.117661 Z" id="empty-search--Path" fill="#017FA3" fill-rule="nonzero"></path>
            </g>
        </g>
    </g>
</svg>