<?xml version="1.0" encoding="UTF-8"?>
<svg width="323px" height="234px" viewBox="0 0 323 234" version="1.1" xmlns="http://www.w3.org/2000/svg" xmlns:xlink="http://www.w3.org/1999/xlink">
    <!-- Generator: Sketch 53.2 (72643) - https://sketchapp.com -->
    <title>empty-manage-resources</title>
    <desc>Created with Sketch.</desc>
    <g id="Guidelines" stroke="none" stroke-width="1" fill="none" fill-rule="evenodd">
        <g id="illustrations" transform="translate(-366.000000, -35.000000)" fill-rule="nonzero">
            <g id="empty-manage-resources" transform="translate(366.000000, 35.000000)">
                <path d="M115.968674,64.9995234 C109.897928,71.2661062 101.46686,74.7229501 92.7168053,74.5330823 C83.9667503,74.3432146 75.6954808,70.5239461 69.9056407,64 L0,129.772088 L98.3010882,233 L192,144.841519 L115.968674,64.9995234 Z" id="Path" fill="#F2F2F2"></path>
                <path d="M93.9124121,66.9999803 C101.492874,67.0089277 108.7485,63.9737305 114,58.5968748 L94.1780401,38 L73,57.7165417 C78.2885959,63.6256133 85.9084462,67.0082174 93.9124121,66.9999803 Z" id="Path" fill="#F2F2F2"></path>
                <path d="M245.999975,98.0001799 C246.013161,110.999772 240.855215,123.470724 231.663616,132.662828 C222.472016,141.854933 210.001748,147.013161 197.002871,146.999975 C196.723736,146.999975 196.444601,146.997005 196.165466,146.991066 C194.989535,146.973248 193.828452,146.913854 192.673308,146.812885 C166.277915,144.472502 146.525565,121.570312 148.086471,95.1159363 C149.647376,68.6615605 171.955905,48.2413898 198.443352,49.021632 C224.930799,49.8018742 245.998789,71.4997896 245.999975,98.0001799 L245.999975,98.0001799 Z" id="Path" fill="#003595"></path>
                <path d="M227.062491,78.7546445 C230.150538,73.2535412 232.166076,67.2054615 233,60.9377999 C219.639986,47.9269588 200.175233,43.6050425 182.645594,49.7572047 C165.115955,55.9093668 152.496634,71.4914371 150,90.0672911 C158.09047,97.9679025 168.623033,102.819768 179.832997,103.809976 C180.994367,103.912513 182.161631,103.972829 183.34386,103.990924 C183.624508,103.996956 183.905144,103.999972 184.185769,103.999972 C201.941011,104.019085 218.328348,94.3704065 227.062485,78.7546475 L227.062491,78.7546445 Z" id="Path" fill="#000000" opacity="0.1"></path>
                <rect id="Rectangle" fill="#2F2E41" x="140" y="145" width="80" height="88"></rect>
                <path d="M245,115.983746 C238.821492,130.549402 226.048411,141.245257 210.669956,144.730858 L221.579789,144.730858 L221.579789,233 L149,233 L189.732222,162.149103 L199.065266,145.914738 L199.745275,144.730858 L230.636673,91 L245,115.983746 Z" id="Path" fill="#000000" opacity="0.1"></path>
                <polygon id="Path" fill="#3F3D56" points="241 92 282 163 323 234 241 234 159 234 200 163"></polygon>
                <rect id="Rectangle" fill="#2F2E41" x="12" y="233" width="311" height="1"></rect>
                <polygon id="Path" fill="#9F616A" points="51 219.612371 50.4643381 223.693949 47.4285295 225 44.0355151 224.02026 41.714118 225 41 221.245002 45.1071324 217"></polygon>
                <path d="M49.5014602,223.019512 C49.5014602,223.019512 52.3997248,219.660174 52.4460907,221.339843 C52.4924565,223.019512 58.8483255,228.781198 58.8483255,228.781198 C58.8483255,228.781198 68.7559902,231.75497 61.091572,233.613578 C53.4271538,235.472187 36.602787,230.082224 36.0419754,228.96706 C35.4811637,227.851895 40.7154065,219.302296 41.2762181,220.04574 C41.8370297,220.789183 44.641097,223.391235 49.5014602,223.019512 Z" id="Path" fill="#2F2E41"></path>
                <path d="M56.3950972,169 C56.3950972,169 57.4707097,177.487207 56.3950972,178.751259 C55.3194848,180.015312 55.857291,182.543416 56.3950972,182.904573 C56.9329035,183.265729 55.6780213,184.71037 54.7816756,185.432678 C53.8853299,186.154985 52.6304506,189.405414 52.6304506,189.405414 C52.6304506,189.405414 47.7901915,202.226512 47.7901915,203.490576 C47.7901915,204.75464 45.6389666,207.463313 45.8182333,208.366205 C45.9975001,209.269098 44.5633511,212.158363 44.7426209,212.700099 C44.9218906,213.241835 42.4121262,218.117465 43.1292022,218.839781 C43.8462781,219.562097 53.7060631,222.090199 53.1682569,220.46499 C52.6304506,218.839781 52.2719082,216.853412 52.6304506,216.853412 C52.988993,216.853412 54.6024088,214.867044 54.2438693,214.144731 C53.8853299,213.422418 65,194.461633 65,194.461633 L56.3950972,169 Z" id="Path" fill="#2F2E41"></path>
                <path d="M49.5014602,223.019512 C49.5014602,223.019512 52.3997248,219.660174 52.4460907,221.339843 C52.4924565,223.019512 58.8483255,228.781198 58.8483255,228.781198 C58.8483255,228.781198 68.7559902,231.75497 61.091572,233.613578 C53.4271538,235.472187 36.602787,230.082224 36.0419754,228.96706 C35.4811637,227.851895 40.7154065,219.302296 41.2762181,220.04574 C41.8370297,220.789183 44.641097,223.391235 49.5014602,223.019512 Z" id="Path" fill="#000000" opacity="0.1"></path>
                <path d="M56.3950972,169 C56.3950972,169 57.4707097,177.487207 56.3950972,178.751259 C55.3194848,180.015312 55.857291,182.543416 56.3950972,182.904573 C56.9329035,183.265729 55.6780213,184.71037 54.7816756,185.432678 C53.8853299,186.154985 52.6304506,189.405414 52.6304506,189.405414 C52.6304506,189.405414 47.7901915,202.226512 47.7901915,203.490576 C47.7901915,204.75464 45.6389666,207.463313 45.8182333,208.366205 C45.9975001,209.269098 44.5633511,212.158363 44.7426209,212.700099 C44.9218906,213.241835 42.4121262,218.117465 43.1292022,218.839781 C43.8462781,219.562097 53.7060631,222.090199 53.1682569,220.46499 C52.6304506,218.839781 52.2719082,216.853412 52.6304506,216.853412 C52.988993,216.853412 54.6024088,214.867044 54.2438693,214.144731 C53.8853299,213.422418 65,194.461633 65,194.461633 L56.3950972,169 Z" id="Path" fill="#000000" opacity="0.1"></path>
                <polygon id="Path" fill="#9F616A" points="74.0001195 218 76 223.014965 75.0909091 230 69.2726675 229.64202 66 226.776115 66 220.68662"></polygon>
                <path d="M73.64503,222.983866 C73.64503,222.983866 75.6651189,216.519464 76.7669935,218.315119 C77.4649966,219.468385 78.0786796,220.668493 78.6034462,221.906454 C78.6034462,221.906454 87.6020191,227.652592 89.9893956,227.652592 C92.376772,227.652592 94.5805062,230.525659 91.4585517,231.603059 C88.3365972,232.680459 64.4628299,234.116994 64.0955423,231.603059 C63.7282548,229.089124 64.4628299,221.008622 65.5646954,221.906454 C66.666561,222.804287 72.3595191,224.779533 73.64503,222.983866 Z" id="Path" fill="#2F2E41"></path>
                <path d="M77.5239344,144 C77.5239344,144 85.832282,148.884392 86.2092755,149.536671 C86.5862691,150.188951 91.4070263,152.194475 87.4485806,153.82518 C83.4901349,155.455886 73,145.141486 73,145.141486 L77.5239344,144 Z" id="Path" fill="#9F616A"></path>
                <path d="M73.8742929,133 C73.8742929,133 80.0061199,144.128206 78.8564027,144.487179 C77.7066856,144.846152 73.1078137,147 73.1078137,147 L71,135.692312 L73.8742929,133 Z" id="Path" fill="#575A88"></path>
                <path d="M73.8742929,133 C73.8742929,133 80.0061199,144.128206 78.8564027,144.487179 C77.7066856,144.846152 73.1078137,147 73.1078137,147 L71,135.692312 L73.8742929,133 Z" id="Path" fill="#000000" opacity="0.1"></path>
                <path d="M72.9911963,143.088293 C72.9911963,143.088293 74.2902152,152.575959 73.7334902,154.582963 C73.1767652,156.589967 74.1046402,186.695065 73.3623433,188.337163 C72.6200464,189.979262 72.0633244,200.561654 72.0633244,201.83884 C72.0633244,203.116026 73.5479183,213.515969 73.9190744,214.428246 C74.2902305,215.340523 75.4036682,218.442258 74.8469494,219.9019 C74.2902305,221.361542 66.6816892,225.010642 65.5682453,223.733456 C64.4548014,222.456269 65.3826703,218.442258 64.4547984,218.259802 C63.5269265,218.077346 62.4134856,209.501957 62.4134856,209.501957 L56.2895413,175.930228 C56.2895413,175.930228 44.7839464,147.832138 47.3819842,145.09531 C49.9800219,142.358481 72.9911963,143.088293 72.9911963,143.088293 Z" id="Path" fill="#2F2E41"></path>
                <circle id="Oval" fill="#9F616A" cx="67.5" cy="68.5" r="9.5"></circle>
                <path d="M71,76.3781189 C71,76.3781189 67.8577271,84.009542 68.2505132,85.6448464 C68.6432994,87.2801507 59.0200844,82.7376377 59.0200844,82.7376377 C59.0200844,82.7376377 59.6092603,73.8343102 59.0200844,71.4722029 C58.4309084,69.1100957 71,76.3781189 71,76.3781189 Z" id="Path" fill="#9F616A"></path>
                <path d="M45.3986858,125.943113 C45.4386179,127.466076 45.4640813,128.373682 45.4640813,128.373682 C45.4640813,128.373682 44.9189121,136.723644 45.8275295,139.446459 C46.736147,142.169274 46.73615,144.166002 47.2813133,145.981211 C47.441209,146.509432 49.6164857,146.792602 52.6712068,146.917853 C55.4734077,147.032211 59.0151905,147.015882 62.4152261,146.937816 C68.045005,146.807135 73.2931961,146.505807 74.1763441,146.344251 C76.1753001,145.981211 73.8128989,142.895355 74.5397923,141.261668 C75.2666856,139.62798 73.2677296,118.753075 73.2677296,118.753075 C73.2677296,118.753075 73.4494507,106.954214 72.5408362,102.416193 C71.6322218,97.8781719 68.179482,90.6173446 67.4525886,89.7097356 C66.7256952,88.8021266 67.2708675,88.2575671 68.9063754,87.1684423 C70.5418832,86.0793174 68.9063754,81.9043339 68.9063754,81.9043339 C65.8170808,79.3630436 58.0029838,79 58.0029838,79 C58.0029838,79 46.0092536,91.3434228 45.2823602,93.8847161 C44.8426023,95.4203715 45.0006939,107.687561 45.1933172,117.15932 C45.267808,120.722571 45.3459816,123.891929 45.3986858,125.943113 Z" id="Path" fill="#575A88"></path>
                <path d="M61.5446927,148 C61.5446927,148 68.2662698,162.056375 62.9597624,162.957414 C57.6532551,163.858453 55,150.162517 55,150.162517 L61.5446927,148 Z" id="Path" fill="#9F616A"></path>
                <path d="M74.9480716,65.0257005 C75.2623731,63.5156738 74.0973909,62.1041076 72.8704272,61.155499 C70.1983346,59.1025965 66.9108978,57.9920834 63.5293721,58.0000425 C61.1507288,58.0128421 58.6958385,58.6361556 56.8980019,60.1790584 C54.8010148,61.9786865 53.8444588,64.8646595 54.020523,67.6075359 C54.1965872,70.3504122 55.4007886,72.9519167 57.0250862,75.1801141 C57.8046657,76.2495396 59.0566962,77.3565754 60.3024212,76.8904872 C60.7898638,76.6644172 61.2081345,76.314441 61.5146542,75.8761853 C62.3136875,74.8940626 63.0099389,73.8340726 63.5926862,72.7125392 C64.0385231,71.8543078 64.4247099,70.9497389 65.0565834,70.2150296 C65.6884569,69.4803203 66.6381052,68.9277474 67.603307,69.0596806 C68.4005954,69.1686577 69.1826822,69.7246446 69.9431068,69.4634333 C70.7891009,69.1728278 70.9936038,68.1011814 71.060883,67.2166832 C71.1346286,66.2471888 71.0823991,65.1241638 71.3541543,64.2075572 C71.6513879,64.3647618 74.8019994,65.7492285 74.9480716,65.0257005 Z" id="Path" fill="#2F2E41"></path>
                <path d="M45.9638836,125.973918 C48.0519503,133.294826 52.8414801,145.63288 53.1155274,146.163954 C53.184531,146.299897 53.2926331,146.566338 53.4249958,146.917973 C56.2998659,147.032164 59.9334973,147.015859 63.4217056,146.937907 C62.8810115,145.564 62.2508805,144.23721 62.2508805,143.807632 C62.2508805,142.901351 57.7764238,119.519414 57.7764238,119.519414 C57.7764238,119.519414 61.3187031,109.187862 64.4881119,100.487603 C67.6575208,91.7873451 55.073119,93.5092706 55.073119,93.5092706 C48.3614309,91.8779733 47.1495984,94.6874302 47.1495984,94.6874302 C47.1495984,94.6874302 46.5586118,109.967257 45.7531954,117.202966 C45.5462304,119.057217 45.326251,120.382193 45.0988037,120.788202 C44.8004805,121.319282 45.2032132,123.316718 45.9638836,125.973918 Z" id="Path" fill="#000000" opacity="0.1"></path>
                <path d="M56.9481846,87.2218896 C56.9481846,87.2218896 65.4431778,90.6951207 62.3037233,99.4696028 C59.1642687,108.244085 55.6554678,118.663781 55.6554678,118.663781 C55.6554678,118.663781 60.0876361,142.245198 60.0876361,143.159208 C60.0876361,144.073218 62.8577564,149.00886 61.7497022,149.922867 C60.641648,150.836874 53.254709,152.664906 53.0700343,151.750893 C52.8853596,150.83688 51.4079712,146.266843 51.0386218,145.535638 C50.6692725,144.804434 41.9896076,121.954219 43.0976497,119.943402 C43.9130443,118.463663 44.6284341,104.906811 44.9494414,97.8489726 C45.1003511,93.7524189 47.4235635,90.0386216 51.0610718,88.0791568 C52.7828658,87.1758555 54.7874998,86.6871951 56.9481846,87.2218896 Z" id="Path" fill="#575A88"></path>
                <rect id="Rectangle" fill="#003595" x="80" y="142" width="12" height="10"></rect>
                <circle id="Oval" fill="#3F3D56" cx="85" cy="137" r="3"></circle>
                <circle id="Oval" fill="#FEAEBB" cx="213" cy="17" r="16"></circle>
                <path d="M212,27.6073171 C212,39.7575835 204.836557,44 196,44 C187.163443,44 180,39.7575835 180,27.6073171 C180,15.4570506 196,0 196,0 C196,0 212,15.4570447 212,27.6073171 Z" id="Path" fill="#F2F2F2"></path>
                <polygon id="Path" fill="#3F3D56" points="195.71153 42.844009 195.882464 32.5058026 203 19.7160512 195.90947 30.8840995 195.98619 26.2357197 200.891714 16.9823662 196.006751 25.0055765 196.006751 25.0055765 196.144849 16.6450641 201.397764 9.27807084 196.166637 15.3302185 196.252872 0 195.709996 20.2944989 195.754801 19.4571213 190.414117 11.4278824 195.66918 21.0643557 195.171416 30.4018086 195.156686 30.1537302 189 21.703994 195.137966 31.0293896 195.075669 32.1971364 195.064621 32.2146194 195.069838 32.3104748 193.807321 56 195.49395 56 195.696493 43.7639789 201.819421 34.4614921"></polygon>
                <path d="M252.10888,45.3605356 C248.101885,56.905407 239.58288,58.640225 230.800026,55.8076814 C222.017171,52.9751378 216.296347,46.647892 220.303329,35.1030206 C224.310312,23.5581492 245.31062,14 245.31062,14 C245.31062,14 256.115871,33.8156612 252.10888,45.3605356 Z" id="Path" fill="#F2F2F2"></path>
                <polygon id="Path" fill="#3F3D56" points="230.976816 53.7958004 234.432725 44.2055793 245.172093 34.4576361 234.974888 42.7009926 236.528987 38.3888322 244.0702 31.2616863 236.940001 37.247718 236.940001 37.247718 239.735018 29.4920552 247 24.2308933 240.174503 28.2723764 245.142714 14 238.164563 32.7627154 238.473202 31.9954503 236.034377 22.8695018 237.880457 33.4683147 234.437874 42.0250403 234.503297 41.7893465 231.434474 32.0209468 234.206471 42.6001927 233.776072 43.670154 233.760019 43.6831987 233.734274 43.7742151 225 65.4829558 226.578936 66 230.669388 54.6490419 239.366104 47.8491992"></polygon>
                <path d="M171.362433,36.1636742 C175.886616,47.6178258 170.488185,54.241682 161.880227,57.4791556 C153.27227,60.7166292 144.714487,59.3417611 140.190304,47.8876095 C135.666121,36.433458 145.496706,16 145.496706,16 C145.496706,16 166.83825,24.7095197 171.362433,36.1636742 Z" id="Path" fill="#F2F2F2"></path>
                <polygon id="Path" fill="#3F3D56" points="161.399126 55.3240114 157.783607 45.8211513 159.736568 31.676783 157.216568 44.3306397 155.590732 40.0577019 156.776525 29.9085895 155.160787 38.9269079 155.160787 38.9269079 152.236852 31.242112 154.434623 22.6962364 151.777224 30.0337086 146.260459 16 153.164678 34.7262678 152.90059 33.9460435 145 28.4582104 153.40765 35.4436374 156.353617 44.1450266 156.249574 43.9237073 147.436153 38.3343624 156.551913 44.7298997 156.92035 45.8182004 156.916372 45.8379716 156.956153 45.9238435 164.43047 68 166 67.4168974 161.720743 56.1694511 164.021639 45.5546829"></polygon>
                <path d="M136.439969,132.744216 C135.292923,134.272356 133.804679,134.236417 132.462887,133.53389 C131.121095,132.831363 130.433867,131.728269 131.580913,130.200141 C132.727959,128.672012 136.616712,128 136.616712,128 C136.616712,128 137.587015,131.216081 136.439969,132.744216 Z" id="Path" fill="#003595"></path>
                <path d="M255.978823,86.1265736 C256.163596,88.0539722 255.115981,88.8401211 253.744098,88.9797224 C252.372214,89.1193238 251.195565,88.559521 251.010793,86.6321224 C250.82602,84.7047238 253.074975,82 253.074975,82 C253.074975,82 255.794033,84.199175 255.978823,86.1265736 Z" id="Path" fill="#003595"></path>
                <path d="M130.439969,99.7442161 C129.292922,101.272355 127.804678,101.236416 126.462889,100.53389 C125.121101,99.8313632 124.433865,98.7282846 125.580911,97.2001423 C126.727958,95.6720001 130.616711,95 130.616711,95 C130.616711,95 131.587015,98.2160682 130.439969,99.7442161 Z" id="Path" fill="#003595"></path>
            </g>
        </g>
    </g>
</svg>