<?xml version="1.0" encoding="UTF-8"?>
<svg width="578px" height="622px" viewBox="0 0 578 622" version="1.1" xmlns="http://www.w3.org/2000/svg" xmlns:xlink="http://www.w3.org/1999/xlink">
    <!-- Generator: Sketch 53.2 (72643) - https://sketchapp.com -->
    <title>empty-search</title>
    <desc>Created with Sketch.</desc>
    <g id="Guidelines" stroke="none" stroke-width="1" fill="none" fill-rule="evenodd">
        <g id="illustrations" transform="translate(-916.000000, -551.000000)" fill-rule="nonzero">
            <g id="empty-search" transform="translate(915.000000, 551.000000)">
                <path d="M367.6,352.9 L117.8,417.2 C100.2,421.7 82.2,411.1 77.6,393.5 L2,100 C-2.5,82.4 8.1,64.4 25.7,59.8 L258.2,0 L317.7,26.6 L391.4,312.6 C395.9,330.3 385.3,348.3 367.6,352.9 Z" id="Path" fill="#F2F2F2"></path>
                <path d="M28.1,69.1 C15.6,72.3 8,85.1 11.2,97.7 L86.8,391.1 C90,403.7 102.9,411.2 115.4,408 L365.2,343.7 C377.8,340.5 385.3,327.6 382.1,315.1 L309.7,33.4 L257.4,10 L28.1,69.1 Z" id="Path" fill="#FFFFFF"></path>
                <path d="M317.1,28.1 L278.4,38.1 C272.5,39.6 266.5,36.1 265,30.2 L257.6,1.6 C257.5,1.2 257.7,0.9 258.1,0.8 C258.2,0.8 258.4,0.8 258.6,0.8 L317.2,26.8 C317.5,27 317.7,27.4 317.5,27.7 C317.4,28 317.3,28.1 317.1,28.1 Z" id="Path" fill="#F2F2F2"></path>
                <path d="M296.7,278.7 L183,308 C180.1,308.8 177.1,307 176.3,304 C175.5,301.1 177.3,298.1 180.3,297.3 L180.3,297.3 L294,268.1 C296.9,267.3 299.9,269.1 300.7,272.1 C301.4,275 299.7,278 296.7,278.7 Z" id="Path" fill="#CCCCCC"></path>
                <path d="M323.3,291 L187.6,326 C184.7,326.8 181.7,325 180.9,322 C180.1,319.1 181.9,316.1 184.8,315.3 L320.5,280.4 C323.4,279.6 326.4,281.4 327.2,284.4 C328,287.4 326.3,290.3 323.3,291 Z" id="Path" fill="#CCCCCC"></path>
                <circle id="a597741b-ffcf-4aba-98b0-6652ef5d57c9" fill="#E6E6E6" transform="translate(136.585504, 323.832160) rotate(-85.935012) translate(-136.585504, -323.832160) " cx="136.585504" cy="323.83216" r="19.4003056"></circle>
                <path d="M284.6,227.9 L133.5,266.8 C124.4,269.1 115.1,263.7 112.8,254.6 L81.1,131.6 C78.8,122.5 84.2,113.2 93.3,110.9 L244.5,72 C253.6,69.7 262.9,75.1 265.2,84.2 L296.9,207.2 C299.2,216.3 293.7,225.5 284.6,227.9 Z" id="Path" fill="#FFFFFF"></path>
                <path d="M284.6,227.9 L133.5,266.8 C124.4,269.1 115.1,263.7 112.8,254.6 L81.1,131.6 C78.8,122.5 84.2,113.2 93.3,110.9 L244.5,72 C253.6,69.7 262.9,75.1 265.2,84.2 L296.9,207.2 C299.2,216.3 293.7,225.5 284.6,227.9 Z M93.9,112.8 C85.9,114.9 81.1,123 83.1,131.1 L114.8,254.1 C116.9,262.1 125,266.9 133.1,264.9 L284.1,226 C292.1,223.9 296.9,215.8 294.9,207.7 L263.2,84.7 C261.1,76.7 253,71.9 244.9,73.9 L93.9,112.8 Z" id="Shape" fill="#E6E6E6"></path>
                <path d="M236.8,113.3 L160.6,133 C159.2,133.4 157.8,132.6 157.3,131.3 C156.9,129.9 157.6,128.4 159,128 C159,128 159.1,128 159.1,128 L236.7,108 C239.9,109.5 239.1,112.8 236.8,113.3 L236.8,113.3 Z" id="b056fd3f-f1a0-44f0-b006-deff0bee637d" fill="#F2F2F2"></path>
                <path d="M240.3,126.7 L164,146.3 C162.6,146.7 161.2,145.9 160.7,144.6 C160.3,143.2 161,141.7 162.4,141.3 C162.4,141.3 162.5,141.3 162.5,141.3 L240.1,121.3 C243.3,122.9 242.5,126.1 240.3,126.7 L240.3,126.7 Z" id="f1ea6668-a825-428d-96fe-a2c4e1b5a672" fill="#F2F2F2"></path>
                <path d="M149.5,158.2 L126.2,164.2 C124.6,164.6 123,163.7 122.6,162.1 L115.5,134.6 C115.1,133 116,131.4 117.6,131 L140.9,125 C142.5,124.6 144.1,125.5 144.5,127.1 L151.6,154.6 C152,156.2 151.1,157.8 149.5,158.2 L149.5,158.2 Z" id="ee9aa382-a9c9-40d0-8ed3-22ec2dd616d6" fill="#E6E6E6"></path>
                <path d="M247.1,154.1 L130.7,184.1 C129.3,184.5 127.9,183.7 127.4,182.4 C127,181 127.7,179.5 129.1,179.1 C129.1,179.1 129.2,179.1 129.2,179.1 L247,148.7 C250.2,150.3 249.3,153.6 247.1,154.1 L247.1,154.1 Z" id="be954d2b-d8b8-4d26-80a0-a319e99a4b10" fill="#F2F2F2"></path>
                <path d="M250.6,167.5 L134.2,197.5 C132.8,197.9 131.4,197.1 130.9,195.8 C130.5,194.4 131.2,192.9 132.6,192.5 C132.6,192.5 132.7,192.5 132.7,192.5 L250.4,162.2 C253.6,163.7 252.8,167 250.6,167.5 L250.6,167.5 Z" id="baaae9e4-1b4d-40c2-8a9d-f2abb078b489" fill="#F2F2F2"></path>
                <path d="M254,180.9 L137.6,210.9 C136.2,211.3 134.8,210.5 134.3,209.2 C133.9,207.8 134.6,206.3 136,205.9 C136,205.9 136.1,205.9 136.1,205.9 L253.8,175.6 C257,177.1 256.2,180.3 254,180.9 L254,180.9 Z" id="a91bf4c9-37f6-4391-92ed-1882bd0ce21c" fill="#F2F2F2"></path>
                <path d="M257.4,194.3 L141,224.3 C139.6,224.7 138.2,223.9 137.7,222.6 C137.3,221.2 138,219.7 139.4,219.3 C139.4,219.3 139.5,219.3 139.5,219.3 L257.2,189 C260.5,190.5 259.7,193.7 257.4,194.3 Z" id="efb98e07-468b-4c85-9a64-ee4cc5493d6f" fill="#F2F2F2"></path>
                <path d="M260.9,207.6 L144.5,237.6 C143.1,238 141.7,237.2 141.2,235.9 C140.8,234.5 141.5,233 142.9,232.6 C142.9,232.6 143,232.6 143,232.6 L260.7,202.3 C263.9,203.8 263.1,207.1 260.9,207.6 Z" id="aeb1db98-32e5-40b8-ab89-fdad6a3263dc" fill="#F2F2F2"></path>
                <path d="M138,330.7 C137.6,330.8 137.1,330.8 136.7,330.6 L136.7,330.6 L131.4,328.4 C130.4,328 129.9,326.8 130.3,325.7 C130.7,324.7 131.9,324.2 133,324.6 C133,324.6 133,324.6 133,324.6 L136.4,326.1 L140.9,315.5 C141.3,314.5 142.5,314 143.6,314.4 C143.6,314.4 143.6,314.4 143.6,314.4 L143.6,314.4 L143.6,314.5 L143.6,314.4 C144.6,314.8 145.1,316 144.7,317.1 L139.4,329.5 C139.1,330.1 138.6,330.5 138,330.7 L138,330.7 Z" id="be265de5-288f-49a7-867d-c42e7cdbf4db" fill="#FFFFFF"></path>
                <path d="M463.5,464.7 L205.5,464.7 C187.3,464.7 172.5,449.9 172.5,431.7 L172.5,128.7 C172.5,110.5 187.3,95.7 205.5,95.7 L445.5,95.7 L496.5,136.3 L496.5,431.7 C496.5,449.9 481.7,464.7 463.5,464.7 Z" id="Path" fill="#E6E6E6"></path>
                <path d="M205.5,105.2 C192.5,105.2 182,115.7 182,128.7 L182,431.7 C182,444.7 192.5,455.2 205.5,455.2 L463.5,455.2 C476.5,455.2 487,444.7 487,431.7 L487,140.9 L442.2,105.2 L205.5,105.2 Z" id="Path" fill="#FFFFFF"></path>
                <path d="M413.3,193.3 L295.8,193.3 C292.8,193.3 290.3,190.8 290.3,187.8 C290.3,184.8 292.8,182.3 295.8,182.3 L413.3,182.3 C416.3,182.3 418.8,184.8 418.8,187.8 C418.8,190.8 416.3,193.3 413.3,193.3 C413.3,193.3 413.3,193.3 413.3,193.3 Z" id="Path" fill="#FFDD00"></path>
                <path d="M436,211.8 L295.8,211.8 C292.8,211.8 290.3,209.3 290.3,206.3 C290.3,203.3 292.8,200.8 295.8,200.8 L436,200.8 C439,200.8 441.5,203.3 441.5,206.3 C441.5,209.3 439,211.8 436,211.8 Z" id="Path" fill="#FFDD00"></path>
                <path d="M413.3,265.4 L295.8,265.4 C292.8,265.4 290.3,267.9 290.3,270.9 C290.3,273.9 292.8,276.4 295.8,276.4 C295.8,276.4 295.8,276.4 295.8,276.4 L413.3,276.4 C416.3,276.4 418.8,273.9 418.8,270.9 C418.8,267.9 416.3,265.4 413.3,265.4 Z" id="Path" fill="#CCCCCC"></path>
                <path d="M436,284 L295.8,284 C292.8,284 290.3,286.5 290.3,289.5 C290.3,292.5 292.8,295 295.8,295 C295.8,295 295.8,295 295.8,295 L436,295 C439,295 441.5,292.5 441.5,289.5 C441.4,286.4 439,284 436,284 Z" id="Path" fill="#CCCCCC"></path>
                <path d="M413.3,359.5 L295.8,359.5 C292.8,359.5 290.3,357 290.3,354 C290.3,351 292.8,348.5 295.8,348.5 L413.3,348.5 C416.3,348.5 418.8,351 418.8,354 C418.8,357.1 416.3,359.5 413.3,359.5 C413.3,359.5 413.3,359.5 413.3,359.5 Z" id="Path" fill="#CCCCCC"></path>
                <path d="M436,378.1 L295.8,378.1 C292.8,378.1 290.3,375.6 290.3,372.6 C290.3,369.6 292.8,367.1 295.8,367.1 L436,367.1 C439,367.1 441.5,369.6 441.5,372.6 C441.5,375.6 439,378.1 436,378.1 Z" id="Path" fill="#CCCCCC"></path>
                <circle id="abdb8e2f-a218-463c-85f4-c869fef49971" fill="#FFDD00" cx="246.9" cy="197.1" r="19.4"></circle>
                <path d="M245,204.5 C244.6,204.5 244.1,204.4 243.8,204.1 L243.8,204.1 L239.2,200.6 C238.3,199.9 238.1,198.6 238.8,197.8 C239.5,196.9 240.8,196.7 241.6,197.4 C241.6,197.4 241.6,197.4 241.6,197.4 L244.6,199.7 L251.6,190.6 C252.3,189.7 253.6,189.5 254.4,190.2 L254.4,190.2 L254.4,190.2 L254.4,190.3 L254.4,190.2 C255.3,190.9 255.5,192.2 254.8,193 L246.6,203.7 C246.2,204.2 245.6,204.5 245,204.5 L245,204.5 Z" id="ba7dbbd6-0052-44b1-a552-47a8298b8d3e" fill="#FFFFFF"></path>
                <path d="M268.3,280.2 C268.3,290.9 259.6,299.6 248.9,299.6 C248.9,299.6 248.9,299.6 248.9,299.6 C248.7,299.6 248.6,299.6 248.4,299.6 C237.7,299.3 229.2,290.4 229.5,279.7 C229.8,269 238.7,260.5 249.4,260.8 C259.9,261 268.3,269.6 268.3,280.2 Z" id="Path" fill="#CCCCCC"></path>
                <circle id="e4a71040-498e-4958-ad41-c2d79154b8f7" fill="#CCCCCC" cx="246.9" cy="363.3" r="19.4"></circle>
                <path d="M495.5,137.6 L455.6,137.6 C449.5,137.6 444.6,132.7 444.6,126.6 L444.6,126.6 L444.6,97.1 C444.6,96.7 444.9,96.4 445.3,96.4 C445.5,96.4 445.6,96.5 445.7,96.5 L495.9,136.3 C496.2,136.5 496.2,137 496,137.3 C495.9,137.5 495.7,137.6 495.5,137.6 Z" id="Path" fill="#CCCCCC"></path>
                <path d="M268.3,280.2 C268.3,290.9 259.6,299.6 248.9,299.6 C248.9,299.6 248.9,299.6 248.9,299.6 C248.7,299.6 248.6,299.6 248.4,299.6 C243.3,286.9 244.7,272.5 252.2,261 C261.5,262.6 268.3,270.7 268.3,280.2 Z" id="Path" fill="#FFDD00"></path>
                <path d="M290.3,270.9 C290.3,267.9 292.8,265.4 295.8,265.4 L325.1,265.4 C326.8,268.9 328,272.6 328.7,276.4 L295.8,276.4 C292.8,276.4 290.3,273.9 290.3,270.9 Z" id="Path" fill="#FFDD00"></path>
                <path d="M329.4,284 C329.4,287.7 328.9,291.4 327.9,295 L295.8,295 C292.8,295 290.3,292.5 290.3,289.5 C290.3,286.5 292.8,284 295.8,284 C295.8,284 295.8,284 295.8,284 L329.4,284 Z" id="Path" fill="#FFDD00"></path>
                <path d="M401.8,351.7 C400.1,354.5 396.4,355.4 393.6,353.7 L323.6,311 C320.8,309.3 319.9,305.6 321.6,302.8 C323.3,300 327,299.1 329.8,300.8 L399.8,343.5 C402.6,345.2 403.5,348.9 401.8,351.7 Z" id="Path" fill="#003595"></path>
                <path d="M331.8,309 C318,331.6 288.5,338.8 265.8,325 C243.1,311.2 236,281.7 249.8,259 C263.6,236.4 293.1,229.2 315.8,243 L315.8,243 C338.4,256.9 345.6,286.4 331.8,309 Z M260.1,265.3 C249.7,282.3 255.1,304.4 272.1,314.8 C289.1,325.2 311.2,319.8 321.6,302.8 C332,285.8 326.6,263.7 309.6,253.3 C292.6,243 270.5,248.3 260.1,265.3 Z" id="Shape" fill="#003595"></path>
                <circle id="Oval" fill="#A0616A" cx="485.6" cy="267.2" r="24.6"></circle>
                <path d="M484,404.9 C482.1,399.1 485.3,392.9 491.1,391.1 C491.5,391 491.9,390.9 492.3,390.8 C492.8,390.7 493.3,390.6 493.8,390.6 L519.7,349.1 L496,326.5 C492.2,322.9 492.1,316.9 495.7,313.2 C499.3,309.5 505.3,309.3 509,312.9 C509,312.9 509.1,313 509.1,313 L541.7,345.2 L541.8,345.3 C543.9,348.5 543.6,352.6 541.2,355.5 L505,398.3 C505.1,398.6 505.2,399 505.3,399.3 C506.5,405.3 502.6,411.1 496.7,412.2 C496.3,412.3 495.9,412.3 495.5,412.4 C495.2,412.4 494.9,412.4 494.6,412.4 C489.7,412.5 485.5,409.4 484,404.9 Z" id="Path" fill="#A0616A"></path>
                <polygon id="Path" fill="#A0616A" points="445.2 609 432.9 609 427.1 561.7 445.2 561.7"></polygon>
                <path d="M448.3,620.9 L408.8,620.9 L408.8,620.4 C408.8,611.9 415.7,605 424.2,605 C424.2,605 424.2,605 424.2,605 L424.2,605 L448.3,605 L448.3,620.9 Z" id="Path" fill="#003595"></path>
                <polygon id="Path" fill="#A0616A" points="567 592 556.5 598.3 527.3 560.7 542.8 551.4"></polygon>
                <path d="M575.8,600.7 L541.8,620.9 L541.5,620.5 C537.2,613.2 539.5,603.8 546.8,599.4 C546.8,599.4 546.8,599.4 546.8,599.4 L546.8,599.4 L567.5,587 L575.8,600.7 Z" id="Path" fill="#003595"></path>
                <path d="M425.5,588.2 C417.3,491.5 412.4,401.7 442.4,365 L442.6,364.7 L493.1,384.9 L493.2,385.1 C493.4,385.5 510.2,422.4 506.3,447.3 L518.8,504.6 L559.4,572.6 C560.7,574.7 560,577.5 557.8,578.8 C557.6,578.9 557.5,579 557.3,579.1 L539.6,586.9 C537.5,587.8 535.1,587 534,585.1 L489.9,513 L464.9,457.7 C464.6,456.9 463.7,456.6 462.9,457 C462.4,457.2 462.1,457.7 462,458.2 L448.2,588.3 C448,590.6 446,592.3 443.7,592.3 L430,592.3 C427.7,592.3 425.7,590.5 425.5,588.2 Z" id="Path" fill="#437ED6"></path>
                <path d="M442.6,365.7 L442.4,365.6 L442.4,365.3 C440.5,352.1 442.7,337.4 449,321.7 C455.4,305.8 472.5,297 489.2,301 L489.2,301 C498.6,303.3 506.6,309.5 511.3,318 C515.9,326.4 516.8,336.4 513.7,345.4 C505.8,368.6 495.5,390.3 495.4,390.5 L495.2,391 L442.6,365.7 Z" id="Path" fill="#C9ECFA"></path>
                <path d="M387.5,332.8 C392.3,329 399.2,329.8 403,334.6 C403.3,334.9 403.5,335.3 403.7,335.6 C404,336 404.2,336.5 404.4,336.9 L452.4,346.6 L465.2,316.6 C467.2,311.8 472.8,309.6 477.6,311.6 C482.4,313.6 484.6,319.2 482.6,324 C482.6,324.1 482.6,324.1 482.5,324.2 L463.8,366 L463.7,366.1 C461.5,369.1 457.5,370.4 454,369.1 L401,350.2 C400.7,350.4 400.4,350.6 400.1,350.8 C394.9,354 388.2,352.4 385,347.2 C384.8,346.8 384.6,346.5 384.4,346.1 C384.3,345.8 384.1,345.5 384,345.2 C382.3,340.8 383.7,335.8 387.5,332.8 Z" id="Path" fill="#A0616A"></path>
                <path d="M574.3,293.5 C571.9,289.3 568.5,285.5 563.9,283.9 C558,281.9 551.6,284 545.6,285.5 C540.9,286.6 536.1,287.3 531.4,286.3 C526.7,285.4 522.2,282.6 520,278.4 C516.9,272.1 519.5,264.6 519.3,257.5 C518.9,243.5 507.3,232.5 493.3,232.8 C491.3,232.9 489.3,233.1 487.4,233.7 C481.6,232 476.4,231.9 472.8,236.3 C463.4,236.3 455.8,243.9 455.8,253.3 L472.1,253.3 C471.3,257.4 472.2,261.7 474.6,265.2 C477.5,269.4 482.5,272.5 483.4,277.5 C484.3,282.4 481,287 477.6,290.5 C474.1,294 470.1,297.5 469,302.3 C468.3,306 469.1,309.7 471.1,312.9 C473.1,316 475.6,318.7 478.5,321 C491.5,332.1 506.9,340 523.5,344 C535.2,346.8 548,347.5 558.9,342.4 C576.4,334 583.8,313.1 575.5,295.6 C575.1,294.9 574.7,294.2 574.3,293.5 Z" id="Path" fill="#54565A"></path>
                <path d="M578,621.9 L388,621.9 C387.4,621.9 387,621.5 387,620.9 C387,620.3 387.4,619.9 388,619.9 L578,619.9 C578.6,619.9 579,620.3 579,620.9 C579,621.5 578.6,621.9 578,621.9 Z" id="Path" fill="#CCCCCC"></path>
            </g>
        </g>
    </g>
</svg>