<?xml version="1.0" encoding="UTF-8"?>
<svg width="29px" height="29px" viewBox="0 0 29 29" version="1.1" xmlns="http://www.w3.org/2000/svg" xmlns:xlink="http://www.w3.org/1999/xlink">
    <!-- Generator: Sketch 53.2 (72643) - https://sketchapp.com -->
    <title>[Logo] Facebook</title>
    <desc>Created with Sketch.</desc>
    <g id="[Logo] Facebook--Guidelines" stroke="none" stroke-width="1" fill="none" fill-rule="evenodd">
        <g id="[Logo] Facebook--icons-badges-variations" transform="translate(-719.000000, -470.000000)" fill-rule="nonzero">
            <g id="[Logo] Facebook--[Logo]-Facebook" transform="translate(719.000000, 470.000000)">
                <g id="[Logo] Facebook--Group">
                    <path d="M27.2928366,28.8872724 C28.1732179,28.8872724 28.8871595,28.1734436 28.8871595,27.2929494 L28.8871595,1.59432296 C28.8871595,0.713715953 28.1732179,0 27.2928366,0 L1.59432296,0 C0.713603113,0 0,0.713715953 0,1.59432296 L0,27.2929494 C0,28.1734436 0.713603113,28.8872724 1.59432296,28.8872724 L27.2928366,28.8872724" id="[Logo] Facebook--Path" fill="#000000"></path>
                    <path d="M19.9315759,28.8872724 L19.9315759,17.700607 L23.6865681,17.700607 L24.2487393,13.3410156 L19.9315759,13.3410156 L19.9315759,10.5574669 C19.9315759,9.29523346 20.2821712,8.43505058 22.0922451,8.43505058 L24.4008482,8.43403502 L24.4008482,4.53483268 C24.001393,4.48168482 22.6310584,4.36297665 21.0368482,4.36297665 C17.7082802,4.36297665 15.4295798,6.39466926 15.4295798,10.1258521 L15.4295798,13.3410156 L11.6649961,13.3410156 L11.6649961,17.700607 L15.4295798,17.700607 L15.4295798,28.8872724 L19.9315759,28.8872724" id="[Logo] Facebook--Path" fill="#FFFFFF"></path>
                </g>
            </g>
        </g>
    </g>
</svg>