<?xml version="1.0" encoding="UTF-8"?>
<svg width="22px" height="24px" viewBox="0 0 22 24" version="1.1" xmlns="http://www.w3.org/2000/svg" xmlns:xlink="http://www.w3.org/1999/xlink">
    <!-- Generator: Sketch 53.2 (72643) - https://sketchapp.com -->
    <title>icons/file-pdf</title>
    <desc>Created with Sketch.</desc>
    <defs>
        <path d="M5.32894737,14.612 C5.75210526,14.612 6.08605263,14.9538947 6.08684211,15.3657895 C6.08684211,15.7312632 5.75210526,16.0790526 5.32894737,16.0790526 L4.275,16.0790526 L4.275,14.612 L5.32894737,14.612 Z M9.57078947,14.6414737 C11.3502632,14.6414737 11.2752632,17.2808421 9.57078947,17.2808421 L8.52315789,17.2808421 L8.52315789,14.6414737 L9.57078947,14.6414737 Z M18.1578947,11.3684211 C18.5928947,11.3684211 18.9473684,11.7 18.9473684,12.1052632 L18.9473684,19.4736842 C18.9473684,19.8789474 18.5928947,20.2105263 18.1578947,20.2105263 L0.789473684,20.2105263 C0.355263158,20.2105263 7.531753e-13,19.8789474 7.531753e-13,19.4736842 L7.531753e-13,12.1052632 C7.531753e-13,11.7 0.355263158,11.3684211 0.789473684,11.3684211 L18.1578947,11.3684211 Z M5.32894737,16.8158947 C6.15,16.8158947 6.88815789,16.2971579 6.88894737,15.3657895 C6.88894737,14.3821053 6.15,13.8692632 5.32894737,13.8692632 L3.87078947,13.8692632 C3.60631579,13.8692632 3.44210526,14.0822105 3.44210526,14.2767368 L3.44210526,17.5932632 C3.44210526,17.8533684 3.66236842,18 3.87078947,18 C4.09815789,18 4.275,17.8533684 4.275,17.594 L4.275,16.8158947 L5.32894737,16.8158947 Z M9.62763158,18 C12.3923684,18 12.4555263,13.9230526 9.57078947,13.9230526 L8.12526316,13.9230526 C7.91684211,13.9230526 7.68947368,14.0763158 7.68947368,14.2885263 L7.68947368,17.6345263 C7.68947368,17.8931579 7.91684211,18 8.12526316,18 L9.62763158,18 Z M15.2526316,14.6886316 C15.5305263,14.6886316 15.6939474,14.4771579 15.6939474,14.2877895 C15.6939474,14.0755789 15.5305263,13.9223158 15.2526316,13.9223158 L13.0365789,13.9223158 C12.7594737,13.9223158 12.5881579,14.0755789 12.5881579,14.2877895 L12.5881579,17.6337895 C12.5881579,17.8401053 12.7586842,17.9992632 13.0365789,17.9992632 C13.2576316,17.9992632 13.4147368,17.8401053 13.4147368,17.6337895 L13.4147368,16.3966316 L15.0244737,16.3966316 C15.2526316,16.3966316 15.4792105,16.2382105 15.4792105,16.0436842 C15.4792105,15.8373684 15.2526316,15.6251579 15.0244737,15.6251579 L13.4147368,15.6251579 L13.4147368,14.6886316 L15.2526316,14.6886316 Z M20.6842105,5.6895 C21.1421053,6.12375 21.4736842,6.88575 21.4736842,7.5 L21.4736842,21.75 C21.4736842,22.9905 20.4110526,24 19.1052632,24 L4.89473684,24 C3.58894737,24 2.52631579,22.9905 2.52631579,21.75 C2.52631579,21.33525 2.87921053,21 3.31578947,21 C3.75236842,21 4.10526316,21.33525 4.10526316,21.75 C4.10526316,22.16325 4.45894737,22.5 4.89473684,22.5 L19.1052632,22.5 C19.5418421,22.5 19.8947368,22.16325 19.8947368,21.75 L19.8947368,9 C19.8947368,8.172 19.1881579,7.5 18.3157895,7.5 L15.3552632,7.5 C14.3794737,7.5 13.5789474,6.741 13.5789474,5.8125 L13.5789474,3 C13.5789474,2.172 12.8723684,1.5 12,1.5 L4.89473684,1.5 C4.45894737,1.5 4.10526316,1.83675 4.10526316,2.25 L4.10526316,9.75 C4.10526316,10.16475 3.75236842,10.5 3.31578947,10.5 C2.87921053,10.5 2.52631579,10.16475 2.52631579,9.75 L2.52631579,2.25 C2.52631579,1.0095 3.58894737,0 4.89473684,0 L13.5789474,0 C14.2263158,0 15.0284211,0.315 15.4847368,0.75 L20.6842105,5.6895 Z" id="icons/file-pdf--path-1"></path>
    </defs>
    <g id="icons/file-pdf--Guidelines" stroke="none" stroke-width="1" fill="none" fill-rule="evenodd">
        <g id="icons/file-pdf--Artboard" transform="translate(-233.000000, -112.000000)">
            <g id="icons/file-pdf--icons/file-pdf" transform="translate(233.000000, 112.000000)">
                <mask id="icons/file-pdf--mask-2" fill="white">
                    <use xlink:href="#icons/file-pdf--path-1"></use>
                </mask>
                <use id="icons/file-pdf--Combined-Shape" fill="#1A1A1A" fill-rule="nonzero" xlink:href="#icons/file-pdf--path-1"></use>
                <g id="icons/file-pdf--color/black-tint/40-666666" mask="url(#icons/file-pdf--mask-2)" fill="#666666" fill-rule="evenodd">
                    <rect id="icons/file-pdf--gray-60-666666" x="0" y="0" width="22" height="25"></rect>
                </g>
            </g>
        </g>
    </g>
</svg>