<?xml version="1.0" encoding="UTF-8"?>
<svg width="24px" height="24px" viewBox="0 0 24 24" version="1.1" xmlns="http://www.w3.org/2000/svg" xmlns:xlink="http://www.w3.org/1999/xlink">
    <!-- Generator: Sketch 53.2 (72643) - https://sketchapp.com -->
    <title>file</title>
    <desc>Created with Sketch.</desc>
    <defs>
        <path d="M4.88486842,13.3943333 C5.27276316,13.3943333 5.57888158,13.7077368 5.57960526,14.085307 C5.57960526,14.4203246 5.27276316,14.7391316 4.88486842,14.7391316 L3.91875,14.7391316 L3.91875,13.3943333 L4.88486842,13.3943333 Z M8.77322368,13.4213509 C10.4044079,13.4213509 10.3356579,15.8407719 8.77322368,15.8407719 L7.81289474,15.8407719 L7.81289474,13.4213509 L8.77322368,13.4213509 Z M16.6447368,10.4210526 C17.0434868,10.4210526 17.3684211,10.725 17.3684211,11.0964912 L17.3684211,17.8508772 C17.3684211,18.2223684 17.0434868,18.5263158 16.6447368,18.5263158 L0.723684211,18.5263158 C0.325657895,18.5263158 7.531753e-13,18.2223684 7.531753e-13,17.8508772 L7.531753e-13,11.0964912 C7.531753e-13,10.725 0.325657895,10.4210526 0.723684211,10.4210526 L16.6447368,10.4210526 Z M4.88486842,15.4145702 C5.6375,15.4145702 6.31414474,14.9390614 6.31486842,14.085307 C6.31486842,13.1835965 5.6375,12.7134912 4.88486842,12.7134912 L3.54822368,12.7134912 C3.30578947,12.7134912 3.15526316,12.908693 3.15526316,13.0870088 L3.15526316,16.1271579 C3.15526316,16.3655877 3.35717105,16.5 3.54822368,16.5 C3.75664474,16.5 3.91875,16.3655877 3.91875,16.1278333 L3.91875,15.4145702 L4.88486842,15.4145702 Z M8.82532895,16.5 C11.3596711,16.5 11.4175658,12.7627982 8.77322368,12.7627982 L7.44815789,12.7627982 C7.25710526,12.7627982 7.04868421,12.9032895 7.04868421,13.0978158 L7.04868421,16.1649825 C7.04868421,16.4020614 7.25710526,16.5 7.44815789,16.5 L8.82532895,16.5 Z M13.9815789,13.4645789 C14.2363158,13.4645789 14.3861184,13.2707281 14.3861184,13.0971404 C14.3861184,12.902614 14.2363158,12.7621228 13.9815789,12.7621228 L11.9501974,12.7621228 C11.6961842,12.7621228 11.5391447,12.902614 11.5391447,13.0971404 L11.5391447,16.164307 C11.5391447,16.3534298 11.6954605,16.4993246 11.9501974,16.4993246 C12.1528289,16.4993246 12.2968421,16.3534298 12.2968421,16.164307 L12.2968421,15.0302456 L13.7724342,15.0302456 C13.9815789,15.0302456 14.1892763,14.8850263 14.1892763,14.7067105 C14.1892763,14.5175877 13.9815789,14.3230614 13.7724342,14.3230614 L12.2968421,14.3230614 L12.2968421,13.4645789 L13.9815789,13.4645789 Z M18.9605263,5.215375 C19.3802632,5.6134375 19.6842105,6.3119375 19.6842105,6.875 L19.6842105,19.9375 C19.6842105,21.074625 18.7101316,22 17.5131579,22 L4.48684211,22 C3.28986842,22 2.31578947,21.074625 2.31578947,19.9375 C2.31578947,19.5573125 2.63927632,19.25 3.03947368,19.25 C3.43967105,19.25 3.76315789,19.5573125 3.76315789,19.9375 C3.76315789,20.3163125 4.08736842,20.625 4.48684211,20.625 L17.5131579,20.625 C17.9133553,20.625 18.2368421,20.3163125 18.2368421,19.9375 L18.2368421,8.25 C18.2368421,7.491 17.5891447,6.875 16.7894737,6.875 L14.0756579,6.875 C13.1811842,6.875 12.4473684,6.17925 12.4473684,5.328125 L12.4473684,2.75 C12.4473684,1.991 11.7996711,1.375 11,1.375 L4.48684211,1.375 C4.08736842,1.375 3.76315789,1.6836875 3.76315789,2.0625 L3.76315789,8.9375 C3.76315789,9.3176875 3.43967105,9.625 3.03947368,9.625 C2.63927632,9.625 2.31578947,9.3176875 2.31578947,8.9375 L2.31578947,2.0625 C2.31578947,0.925375 3.28986842,0 4.48684211,0 L12.4473684,0 C13.0407895,0 13.7760526,0.28875 14.1943421,0.6875 L18.9605263,5.215375 Z" id="path-1"></path>
    </defs>
    <g id="file" stroke="none" stroke-width="1" fill="none" fill-rule="evenodd">
        <g id="icons/file-pdf" transform="translate(2.000000, 1.000000)">
            <mask id="mask-2" fill="white">
                <use xlink:href="#path-1"></use>
            </mask>
            <use id="Combined-Shape" fill="#1A1A1A" fill-rule="nonzero" xlink:href="#path-1"></use>
            <g id="color/black-tint/0-000000" mask="url(#mask-2)" fill="#000000">
                <g transform="translate(-0.916667, 0.000000)" id="gray-70-4A4A4A">
                    <rect x="0" y="0" width="22" height="22"></rect>
                </g>
            </g>
        </g>
    </g>
</svg>