<?xml version="1.0" encoding="UTF-8"?>
<svg width="24px" height="26px" viewBox="0 0 24 26" version="1.1" xmlns="http://www.w3.org/2000/svg" xmlns:xlink="http://www.w3.org/1999/xlink">
    <!-- Generator: Sketch 53.2 (72643) - https://sketchapp.com -->
    <title>icons/file-pdf</title>
    <desc>Created with Sketch.</desc>
    <defs>
        <path d="M5.81339713,15.8296667 C6.27502392,15.8296667 6.63933014,16.2000526 6.64019139,16.6462719 C6.64019139,17.0422018 6.27502392,17.4189737 5.81339713,17.4189737 L4.66363636,17.4189737 L4.66363636,15.8296667 L5.81339713,15.8296667 Z M10.4408612,15.8615965 C12.3821053,15.8615965 12.3002871,18.7209123 10.4408612,18.7209123 L9.29799043,18.7209123 L9.29799043,15.8615965 L10.4408612,15.8615965 Z M19.8086124,12.3157895 C20.2831579,12.3157895 20.6698565,12.675 20.6698565,13.1140351 L20.6698565,21.0964912 C20.6698565,21.5355263 20.2831579,21.8947368 19.8086124,21.8947368 L0.861244019,21.8947368 C0.387559809,21.8947368 7.531753e-13,21.5355263 7.531753e-13,21.0964912 L7.531753e-13,13.1140351 C7.531753e-13,12.675 0.387559809,12.3157895 0.861244019,12.3157895 L19.8086124,12.3157895 Z M5.81339713,18.2172193 C6.70909091,18.2172193 7.51435407,17.6552544 7.51521531,16.6462719 C7.51521531,15.580614 6.70909091,15.0250351 5.81339713,15.0250351 L4.22267943,15.0250351 C3.93416268,15.0250351 3.75502392,15.2557281 3.75502392,15.4664649 L3.75502392,19.0593684 C3.75502392,19.3411491 3.995311,19.5 4.22267943,19.5 C4.4707177,19.5 4.66363636,19.3411491 4.66363636,19.0601667 L4.66363636,18.2172193 L5.81339713,18.2172193 Z M10.5028708,19.5 C13.5189474,19.5 13.5878469,15.083307 10.4408612,15.083307 L8.86392344,15.083307 C8.63655502,15.083307 8.38851675,15.2493421 8.38851675,15.4792368 L8.38851675,19.1040702 C8.38851675,19.3842544 8.63655502,19.5 8.86392344,19.5 L10.5028708,19.5 Z M16.6392344,15.9126842 C16.9423923,15.9126842 17.1206699,15.6835877 17.1206699,15.4784386 C17.1206699,15.2485439 16.9423923,15.0825088 16.6392344,15.0825088 L14.2217225,15.0825088 C13.9194258,15.0825088 13.7325359,15.2485439 13.7325359,15.4784386 L13.7325359,19.1032719 C13.7325359,19.3267807 13.9185646,19.4992018 14.2217225,19.4992018 C14.4628708,19.4992018 14.6342584,19.3267807 14.6342584,19.1032719 L14.6342584,17.7630175 L16.3903349,17.7630175 C16.6392344,17.7630175 16.8864115,17.5913947 16.8864115,17.3806579 C16.8864115,17.1571491 16.6392344,16.9272544 16.3903349,16.9272544 L14.6342584,16.9272544 L14.6342584,15.9126842 L16.6392344,15.9126842 Z M22.5645933,6.163625 C23.0641148,6.6340625 23.4258373,7.4595625 23.4258373,8.125 L23.4258373,23.5625 C23.4258373,24.906375 22.2666029,26 20.8421053,26 L5.33971292,26 C3.91521531,26 2.75598086,24.906375 2.75598086,23.5625 C2.75598086,23.1131875 3.14095694,22.75 3.61722488,22.75 C4.09349282,22.75 4.4784689,23.1131875 4.4784689,23.5625 C4.4784689,24.0101875 4.86430622,24.375 5.33971292,24.375 L20.8421053,24.375 C21.3183732,24.375 21.7033493,24.0101875 21.7033493,23.5625 L21.7033493,9.75 C21.7033493,8.853 20.9325359,8.125 19.9808612,8.125 L16.7511962,8.125 C15.6866986,8.125 14.8133971,7.30275 14.8133971,6.296875 L14.8133971,3.25 C14.8133971,2.353 14.0425837,1.625 13.0909091,1.625 L5.33971292,1.625 C4.86430622,1.625 4.4784689,1.9898125 4.4784689,2.4375 L4.4784689,10.5625 C4.4784689,11.0118125 4.09349282,11.375 3.61722488,11.375 C3.14095694,11.375 2.75598086,11.0118125 2.75598086,10.5625 L2.75598086,2.4375 C2.75598086,1.093625 3.91521531,0 5.33971292,0 L14.8133971,0 C15.5196172,0 16.3946411,0.34125 16.8924402,0.8125 L22.5645933,6.163625 Z" id="path-1"></path>
    </defs>
    <g id="Guidelines" stroke="none" stroke-width="1" fill="none" fill-rule="evenodd">
        <g id="icons-badges-variations" transform="translate(-569.000000, -237.000000)">
            <g id="icons/file-pdf" transform="translate(569.000000, 237.000000)">
                <mask id="mask-2" fill="white">
                    <use xlink:href="#path-1"></use>
                </mask>
                <use id="Combined-Shape" fill="#1A1A1A" fill-rule="nonzero" xlink:href="#path-1"></use>
                <g id="color/black-tint/0-000000" mask="url(#mask-2)" fill="#000000" fill-rule="evenodd">
                    <rect id="gray-70-4A4A4A" x="0" y="0" width="24" height="27"></rect>
                </g>
            </g>
        </g>
    </g>
</svg>