<?xml version="1.0" encoding="UTF-8"?>
<svg width="147px" height="156px" viewBox="0 0 147 156" version="1.1" xmlns="http://www.w3.org/2000/svg" xmlns:xlink="http://www.w3.org/1999/xlink">
    <!-- Generator: Sketch 53.2 (72643) - https://sketchapp.com -->
    <title>footer-lemon</title>
    <desc>Created with Sketch.</desc>
    <g id="footer-lemon--Guidelines" stroke="none" stroke-width="1" fill="none" fill-rule="evenodd">
        <g id="footer-lemon--illustrations" transform="translate(-439.000000, -848.000000)" fill="#017FA3" fill-rule="nonzero">
            <g id="footer-lemon--footer-lemon" transform="translate(421.000000, 815.000000)">
                <path d="M155.832169,54.8964084 C156.803022,53.9977503 156.803022,52.4250986 155.832169,51.5264405 C126.221166,24.1173677 83.3501123,18.9932547 49.6455992,50.4232217 C15.941086,81.8531887 18.6992453,123.643755 48.3102483,151.052828 C48.7956746,151.502157 49.523814,151.726821 50.2519534,151.726821 C50.9800928,151.726821 51.7082323,151.502157 52.1936585,151.052828 L155.832169,54.8964084 Z M53.1645111,131.731678 C48.7956746,125.665736 45.8831169,119.150464 44.4268381,112.185864 C43.4559855,107.692573 46.8539695,103.648612 51.7082323,103.648612 L84.2317929,103.648612 C84.7172192,106.344586 85.6880718,109.04056 87.6297769,111.287206 L64.5720286,132.630336 C61.1740447,135.77564 55.5916425,135.101646 53.1645111,131.731678 Z M44.1841249,90.1687398 C45.6404038,83.2041394 48.5529614,76.4642034 52.921798,70.6229256 C55.5916425,67.0282931 61.1740447,66.5789641 64.3293155,69.7242675 L87.3870637,91.067398 C85.4453586,93.3140433 84.4745061,96.0100176 83.9890798,98.705992 L51.4655191,98.705992 C46.8539695,98.705992 43.2132724,94.6620305 44.1841249,90.1687398 Z M69.1835783,55.7950666 C75.4941199,51.751105 82.7755141,49.0551306 90.2996214,47.4824789 C95.1538842,46.5838208 99.5227207,49.9537888 99.5227207,54.2224149 L99.5227207,84.327462 C96.610163,84.7767911 93.6976054,85.6754492 91.270474,87.4727655 L68.2127257,66.129635 C65.0574549,63.2089961 65.3001681,58.0417119 69.1835783,55.7950666 Z M136.172405,66.3542995 L113.114657,87.69743 C110.687525,85.9001137 107.774967,85.0014556 104.86241,84.5521266 L104.86241,54.2224149 C104.86241,49.7291242 109.231246,46.5838208 114.085509,47.4824789 C121.609616,48.8304661 128.891011,51.751105 135.201552,55.7950666 C138.842249,58.0417119 139.570389,63.2089961 136.172405,66.3542995 Z M92.9694659,92.6400497 C97.3383024,88.5960881 104.376983,87.9220945 109.473959,91.067398 L91.270474,107.917238 C87.87249,103.199283 88.6006294,96.6840112 92.9694659,92.6400497 Z M50.4946666,145.660879 C24.7670738,120.049122 20.5463166,84.4080323 52.1936585,54.8964084 C83.8410005,25.3847846 122.580469,29.5093164 150.249767,53.3237567 L143.453799,59.6143636 C142.968373,56.4690602 141.026668,53.5484213 138.11411,51.751105 C131.075429,47.4824789 123.308608,44.3371755 115.056362,42.7645238 C110.202099,41.8658656 105.105123,43.6631819 102.192565,47.2578144 C99.2800076,43.6631819 94.1830316,41.8658656 89.3287688,42.7645238 C81.0765221,44.3371755 73.3097017,47.2578144 66.2710206,51.751105 C62.3876104,54.2224149 60.2031921,58.4910409 60.9313316,62.9843316 C56.0770688,62.310338 51.4655191,64.3323188 48.7956746,67.9269513 C43.9414118,74.4422227 40.786141,81.6314877 39.087149,89.2700817 C38.1162965,93.7633723 39.8152884,98.256663 43.6986987,101.177302 C39.8152884,103.873276 37.8735833,108.591231 39.087149,113.084522 C40.786141,120.723116 43.9414118,127.912381 48.7956746,134.427652 C50.7373797,137.123627 53.8926505,138.920943 57.2906345,139.370272 L50.4946666,145.660879 Z" id="footer-lemon--Shape" transform="translate(90.895959, 90.287743) rotate(43.000000) translate(-90.895959, -90.287743) "></path>
                <path d="M93.7659574,114 C92.8297872,114 91.893617,114.450704 91.6595745,115.352113 C90.2553191,117.830986 83,130.450704 83,135.408451 C83,141.267606 87.9148936,146 94,146 C100.085106,146 105,141.267606 105,135.408451 C105,130.450704 97.7446809,117.830986 96.3404255,115.352113 C95.4042553,114.450704 94.7021277,114 93.7659574,114 Z M93.7659574,141.042254 C90.4893617,141.042254 87.9148936,138.56338 87.9148936,135.408451 C87.9148936,133.380282 90.9574468,127.070423 93.7659574,121.661972 C96.5744681,127.070423 99.6170213,133.380282 99.6170213,135.408451 C99.6170213,138.338028 97.0425532,141.042254 93.7659574,141.042254 Z" id="footer-lemon--Shape"></path>
                <path d="M69.7659574,134 C68.8297872,134 67.893617,134.450704 67.6595745,135.352113 C66.2553191,137.830986 59,150.450704 59,155.408451 C59,161.267606 63.9148936,166 70,166 C76.0851064,166 81,161.267606 81,155.408451 C81,150.450704 73.7446809,137.830986 72.3404255,135.352113 C71.6382979,134.450704 70.7021277,134 69.7659574,134 Z M69.7659574,161.042254 C66.4893617,161.042254 63.9148936,158.56338 63.9148936,155.408451 C63.9148936,153.380282 66.9574468,147.070423 69.7659574,141.661972 C72.5744681,147.070423 75.6170213,153.380282 75.6170213,155.408451 C75.6170213,158.338028 73.0425532,161.042254 69.7659574,161.042254 Z" id="footer-lemon--Shape"></path>
                <path d="M95.7659574,157 C94.8297872,157 93.893617,157.450704 93.6595745,158.352113 C92.2553191,160.830986 85,173.450704 85,178.408451 C85,184.267606 89.9148936,189 96,189 C102.085106,189 107,184.267606 107,178.408451 C107,173.450704 99.7446809,160.830986 98.3404255,158.352113 C97.4042553,157.450704 96.7021277,157 95.7659574,157 Z M95.7659574,183.816901 C92.4893617,183.816901 89.9148936,181.338028 89.9148936,178.183099 C89.9148936,176.15493 92.9574468,169.84507 95.7659574,164.43662 C98.5744681,169.84507 101.617021,176.15493 101.617021,178.183099 C101.617021,181.338028 99.0425532,183.816901 95.7659574,183.816901 Z" id="footer-lemon--Shape"></path>
            </g>
        </g>
    </g>
</svg>