<?xml version="1.0" encoding="UTF-8"?>
<svg width="24px" height="24px" viewBox="0 0 24 24" version="1.1" xmlns="http://www.w3.org/2000/svg" xmlns:xlink="http://www.w3.org/1999/xlink">
    <!-- Generator: Sketch 53.2 (72643) - https://sketchapp.com -->
    <title>badges/grant</title>
    <desc>Created with Sketch.</desc>
    <defs>
        <circle id="path-1" cx="12" cy="12" r="12"></circle>
        <path d="M9,14.4764474 L8.58612494,19.6181085 L8.24360764,19.955592 C8.12943521,20.0747039 7.98671967,19.93574 8.00099123,19.7570723 L8.45768095,14 C8.6289396,14.1786678 8.8144698,14.3374835 9,14.4764474 Z M15,14.4771174 C15.1855302,14.3379582 15.3710604,14.1590391 15.542319,14 L15.9990088,19.7651688 C16.0132803,19.9440878 15.8705648,20.0633672 15.7563924,19.9639677 L15.4138751,19.6260095 L15,14.4771174 Z M14.4747475,14 L15,19 L12.1313131,16.9752066 C12.0505051,16.9132231 11.9494949,16.9132231 11.8686869,16.9752066 L9,19 L9.54545455,14 C10.2929293,14.3512397 11.1212121,14.5578512 12.010101,14.5578512 C12.8989899,14.5578512 13.7272727,14.3512397 14.4747475,14 Z M12,4 C14.7615063,4 17,6.23849372 17,9 C17,11.7615063 14.7615063,14 12,14 C9.23849372,14 7,11.7615063 7,9 C7,6.23849372 9.23849372,4 12,4 Z M12,12.4728033 C13.9246862,12.4728033 15.4728033,10.9246862 15.4728033,9 C15.4728033,7.07531381 13.9246862,5.52719665 12,5.52719665 C10.0753138,5.52719665 8.52719665,7.07531381 8.52719665,9 C8.52719665,10.9246862 10.0753138,12.4728033 12,12.4728033 Z M12,7 L12.6168224,8.31372549 L14,8.52941176 L13.0093458,9.54901961 L13.2336449,11 L12,10.3137255 L10.7663551,11 L10.9906542,9.54901961 L10,8.52941176 L11.3831776,8.31372549 L12,7 Z" id="path-3"></path>
    </defs>
    <g id="Guidelines" stroke="none" stroke-width="1" fill="none" fill-rule="evenodd">
        <g id="icons-badges-variations" transform="translate(-279.000000, -70.000000)">
            <g id="badges/grant" transform="translate(279.000000, 70.000000)">
                <g id="oval" stroke-width="1" fill-rule="evenodd">
                    <mask id="mask-2" fill="white">
                        <use xlink:href="#path-1"></use>
                    </mask>
                    <use id="Mask" fill="#D8D8D8" xlink:href="#path-1"></use>
                    <g id="color/alexs-deep-blue/base-003595" mask="url(#mask-2)" fill="#003996">
                        <rect id="alexs-deep-blue-003595" x="0" y="0" width="24" height="24"></rect>
                    </g>
                </g>
                <mask id="mask-4" fill="white">
                    <use xlink:href="#path-3"></use>
                </mask>
                <use id="Combined-Shape" fill="#1A1A1A" fill-rule="nonzero" xlink:href="#path-3"></use>
                <g id="color/black-tint/95-F2F2F2" mask="url(#mask-4)" fill="#F2F2F2" fill-rule="evenodd">
                    <g transform="translate(-1.000000, 0.000000)" id="gray-5-F2F2F2">
                        <rect x="0" y="0" width="24" height="24"></rect>
                    </g>
                </g>
            </g>
        </g>
    </g>
</svg>
