<?xml version="1.0" encoding="UTF-8"?>
<svg width="72px" height="72px" viewBox="0 0 72 72" version="1.1" xmlns="http://www.w3.org/2000/svg" xmlns:xlink="http://www.w3.org/1999/xlink">
    <!-- Generator: Sketch 53.2 (72643) - https://sketchapp.com -->
    <title>illucons/impact</title>
    <desc>Created with Sketch.</desc>
    <g id="illucons/impact--Guidelines" stroke="none" stroke-width="1" fill="none" fill-rule="evenodd">
        <g id="illucons/impact--icons-badges-variations" transform="translate(-232.000000, -927.000000)">
            <g id="illucons/impact--illucons/impact" transform="translate(232.000000, 927.000000)">
                <rect id="illucons/impact--Rectangle" x="0" y="0" width="72" height="72"></rect>
                <g id="illucons/impact--icon" fill-rule="nonzero">
                    <g id="illucons/impact--noun_impact_3031185-copy">
                        <path d="M59.8460075,14.4205719 C55.1832155,9.79891235 49.3523244,6.54174279 42.9812025,5 L42.4109589,7.31142457 C48.3546982,8.74967073 53.7954226,11.7903301 58.1472818,16.1026894 C68.4452813,26.3131665 71.7935118,41.4879126 66.8413961,55.0102817 L63.945759,53.8623019 L65.5568473,61 L72,57.0552322 L69.0707486,55.8941666 C74.3818176,41.486723 70.8234974,25.3031822 59.8460075,14.4205719 Z" id="illucons/impact--Path" fill="#999999"></path>
                        <path d="M47.1816193,46 C46.9615725,46.696859 46.6834422,47.3805698 46.3561644,48.0325055 L48.3611598,49 C48.7398191,48.2461651 49.060395,47.4550767 49.3150685,46.6497443 L47.1816193,46 Z" id="illucons/impact--Path" fill="#999999"></path>
                        <path d="M33.8270305,16 C27.5102872,16 21.5731161,18.4892344 17.106935,23.0083732 C8.76344176,31.4521531 8.76344176,45.1901914 17.106935,53.6351675 C20.766673,57.3385167 25.6325283,59.3779904 30.8081901,59.3779904 C35.9838519,59.3779904 40.8497072,57.3385167 44.5094452,53.6351675 L42.8374356,51.9437799 C39.623488,55.1949761 35.3524141,56.9856459 30.8081901,56.9856459 C26.2639661,56.9856459 21.9928922,55.1949761 18.7789445,51.9437799 C11.3577762,44.4330144 11.3577762,32.2117225 18.7789445,24.7009569 C22.7981528,20.6327751 28.1417251,18.3935407 33.8270305,18.3935407 C39.5111536,18.3935407 44.8535433,20.6339713 48.8739341,24.7009569 C58.1444821,34.0825359 58.1444821,49.3492823 48.8739341,58.7308612 C42.7452032,64.9342105 34.1758586,67.673445 25.6928341,66.2248804 L26.4614382,63.3971292 L19.3666311,65.8732057 L24.1236993,72 L25.0637612,68.541866 C26.76415,68.84689 28.4669037,69.0023923 30.1578328,69.0023923 C37.7327219,69.0023923 45.0439207,65.9916268 50.5471261,60.4210526 C60.7399991,50.1064593 60.7399991,33.3229665 50.5471261,23.0083732 C46.080945,18.4892344 40.1425914,16 33.8270305,16 Z" id="illucons/impact--Path" fill="#999999"></path>
                        <path d="M8.21833628,54.5804109 C-0.561844678,42.5127 0.712832978,26.0695267 11.2504877,15.4827602 C14.4120238,12.3079333 18.081514,9.85854046 22.1631182,8.17187606 L23.3275793,11.6438543 L27.6164384,5.38081943 L20.4284065,3 L21.3975928,5.88850301 C16.9649731,7.69787765 12.9816054,10.3421632 9.55650822,13.7816593 C-1.82214627,25.2129611 -3.19865438,42.9686528 6.28235969,56 L8.21833628,54.5804109 Z" id="illucons/impact--Path" fill="#999999"></path>
                        <ellipse id="illucons/impact--Oval" fill="#98BF61" cx="35.5068493" cy="5" rx="4.93150685" ry="5"></ellipse>
                        <ellipse id="illucons/impact--Oval" fill="#98BF61" cx="60.1643836" cy="67" rx="4.93150685" ry="5"></ellipse>
                        <ellipse id="illucons/impact--Oval" fill="#98BF61" cx="11.8356164" cy="61" rx="4.93150685" ry="5"></ellipse>
                    </g>
                    <g id="illucons/impact--test-tube-copy" transform="translate(14.794521, 18.000000)" fill="#017FA3">
                        <path d="M22.7351498,15.8278336 L22.7351498,11.2252953 L24.3698192,11.2252953 L24.3698192,6 L13.1100448,6 L13.1100448,11.2252953 L13.899778,11.2252953 L14.7443023,11.2252953 L14.7443023,15.8278336 C11.2129549,17.3367911 8.87671233,20.7564082 8.87671233,24.5004769 C8.87671233,28.0476561 10.9118099,31.2719683 14.188976,32.9140342 L14.3603527,33 L23.1190994,33 L23.290888,32.9140342 C26.5676422,31.2715722 28.6027397,28.0476561 28.6027397,24.5004769 C28.6027397,20.7564082 26.2664972,17.336395 22.7351498,15.8278336 Z M22.7277345,31.479554 L14.7521295,31.479554 C12.0978515,30.0759739 10.4570026,27.4181645 10.4570026,24.5000807 C10.4570026,21.2068374 12.6099216,18.2115032 15.8133464,17.0479935 L16.3241806,16.8621965 L16.3241806,11.2248991 L18.73952,11.2248991 L18.73952,9.7052454 L16.3241806,9.7052454 L14.6899231,9.7052454 L14.6899231,7.51965373 L22.789117,7.51965373 L22.789117,9.7052454 L21.1548595,9.7052454 L21.1548595,16.8621965 L21.6656937,17.0479935 C24.8695304,18.2118993 27.0224494,21.2068374 27.0224494,24.5000807 C27.0228614,27.4181645 25.3816005,30.0759739 22.7277345,31.479554 Z" id="illucons/impact--Shape"></path>
                        <path d="M25.2881268,20.3493671 C24.2514334,21.3113052 21.1441197,23.7853197 18.7399236,21.4330985 C16.649937,19.3888079 13.6781879,19.9826082 12.1474545,20.4895444 C11.9447005,21.2437443 11.8356164,22.0471211 11.8356164,22.8794526 C11.8356164,25.976222 13.3454025,28.6611918 15.5547492,30 L21.9250981,30 C24.1340495,28.6611918 25.6438356,25.976222 25.6438356,22.8794526 C25.6438356,21.9942674 25.5153852,21.1453904 25.2881268,20.3493671 Z M15.0614997,25.000496 C14.5283318,25.000496 14.0967385,24.4976961 14.0967385,23.878618 C14.0967385,23.2595399 14.5287271,22.75674 15.0614997,22.75674 C15.5942724,22.75674 16.026261,23.2595399 16.026261,23.878618 C16.026261,24.4976961 15.5938772,25.000496 15.0614997,25.000496 Z M16.896957,27.4947328 C16.5831428,27.4947328 16.3286134,27.1982923 16.3286134,26.8338313 C16.3286134,26.4679915 16.583538,26.1720106 16.896957,26.1720106 C17.2111664,26.1720106 17.4656958,26.4684511 17.4656958,26.8338313 C17.466091,27.1987519 17.2111664,27.4947328 16.896957,27.4947328 Z M19.8335305,25.5111091 C19.3102434,25.5111091 18.8857642,25.0175011 18.8857642,24.4094534 C18.8857642,23.8014056 19.3102434,23.3077976 19.8335305,23.3077976 C20.3568176,23.3077976 20.7809015,23.8014056 20.7809015,24.4094534 C20.7809015,25.0175011 20.3568176,25.5111091 19.8335305,25.5111091 Z M21.964226,28.0457905 C21.6761019,28.0457905 21.4429151,27.7741683 21.4429151,27.4400407 C21.4429151,27.1045344 21.6761019,26.8342909 21.964226,26.8342909 C22.2519549,26.8342909 22.4851417,27.1045344 22.4851417,27.4400407 C22.485537,27.7746279 22.2519549,28.0457905 21.964226,28.0457905 Z" id="illucons/impact--Shape"></path>
                        <path d="M20.2191781,13 C20.4917918,13 20.7123288,12.85341 20.7123288,12.6733734 L20.7123288,12.3266266 C20.7123288,12.1463287 20.4917918,12 20.2191781,12 C19.9469589,12 19.7260274,12.1463287 19.7260274,12.3266266 L19.7260274,12.6733734 C19.7260274,12.8536713 19.9469589,13 20.2191781,13 Z" id="illucons/impact--Path"></path>
                        <path d="M20.2191781,20 C20.4917918,20 20.7123288,19.8538562 20.7123288,19.6732026 L20.7123288,19.3267974 C20.7123288,19.1461438 20.4917918,19 20.2191781,19 C19.9469589,19 19.7260274,19.1461438 19.7260274,19.3267974 L19.7260274,19.6732026 C19.7260274,19.8538562 19.9469589,20 20.2191781,20 Z" id="illucons/impact--Path"></path>
                        <path d="M20.2191781,13 C20.4917918,13 20.7123288,12.853633 20.7123288,12.673288 L20.7123288,12.326712 C20.7123288,12.146367 20.4917918,12 20.2191781,12 C19.9469589,12 19.7260274,12.146367 19.7260274,12.326712 L19.7260274,12.673288 C19.7260274,12.853633 19.9469589,13 20.2191781,13 Z" id="illucons/impact--Path"></path>
                        <path d="M20.2191781,17 C20.4917918,17 20.7123288,16.853633 20.7123288,16.673288 L20.7123288,16.326712 C20.7123288,16.146367 20.4917918,16 20.2191781,16 C19.9469589,16 19.7260274,16.146367 19.7260274,16.326712 L19.7260274,16.673288 C19.7260274,16.8538944 19.9469589,17 20.2191781,17 Z" id="illucons/impact--Path"></path>
                    </g>
                </g>
            </g>
        </g>
    </g>
</svg>