<?xml version="1.0" encoding="UTF-8"?>
<svg width="16px" height="16px" viewBox="0 0 16 16" version="1.1" xmlns="http://www.w3.org/2000/svg" xmlns:xlink="http://www.w3.org/1999/xlink">
    <!-- Generator: Sketch 53.2 (72643) - https://sketchapp.com -->
    <title>icons/info copy</title>
    <desc>Created with Sketch.</desc>
    <defs>
        <path d="M8,16 C3.581722,16 0,12.418278 0,8 C0,3.581722 3.581722,0 8,0 C12.418278,0 16,3.581722 16,8 C16,12.418278 12.418278,16 8,16 Z M8.05104415,4.8852459 C8.09744809,4.96174902 8.16283448,5 8.24720529,5 L9.42417209,5 C9.50854289,5 9.58658471,4.96174902 9.65829989,4.8852459 C9.73001507,4.80874279 9.77430908,4.71584754 9.79118324,4.60655738 L9.99367215,3.40983607 C10.0105463,3.28961689 9.9936724,3.19125721 9.94304992,3.1147541 C9.89242744,3.03825098 9.82493181,3 9.74056101,3 L8.57624977,3 C8.48344189,3 8.40118159,3.0409832 8.32946641,3.12295082 C8.25775122,3.20491844 8.21767569,3.3005459 8.20923861,3.40983607 L8.0067497,4.60655738 C7.98987554,4.71584754 8.00464021,4.80874279 8.05104415,4.8852459 Z M6.05168633,12.9057692 C6.09867408,12.9685901 6.16915463,13 6.26313012,13 L7.352386,13 C7.43781826,13 7.51470614,12.9685901 7.58305195,12.9057692 C7.65139775,12.8429484 7.69411324,12.7666671 7.7111997,12.6769231 L8.9926772,6.32307692 C9.00976365,6.23333288 8.996949,6.1570516 8.95423287,6.09423077 C8.91151674,6.03140994 8.84744351,6 8.76201125,6 L7.67275537,6 C7.58732311,6 7.50829945,6.02916638 7.43568203,6.0875 C7.36306461,6.14583362 7.31821335,6.22435848 7.3011269,6.32307692 L6.00683462,12.6769231 C5.98974817,12.7666671 6.00469859,12.8429484 6.05168633,12.9057692 Z" id="path-info"></path>
    </defs>
    <g id="Request-Forms" stroke="none" stroke-width="1" fill="none" fill-rule="evenodd">
        <g id="request-resource-saved-addresses" transform="translate(-406.000000, -760.000000)">
            <g id="resource-details" transform="translate(358.000000, 221.000000)">
                <g id="field-mta" transform="translate(48.000000, 489.000000)">
                    <g id="icons/info" transform="translate(0.000000, 50.000000)">
                        <g id="color/gray/70-4A4A4A">
                            <mask id="mask-2" fill="white">
                                <use xlink:href="#path-info"></use>
                            </mask>
                            <use id="Combined-Shape" fill="#002F6C" xlink:href="#path-info"></use>
                            <g id="color/info/blue-002f6c" mask="url(#mask-2)" fill="#002F6C">
                                <g transform="translate(0.000000, 0.000000)" id="info-002f6c">
                                    <rect x="0" y="0" width="16" height="16"></rect>
                                </g>
                            </g>
                        </g>
                    </g>
                </g>
            </g>
        </g>
    </g>
</svg>
