<?xml version="1.0" encoding="UTF-8"?>
<svg width="28px" height="28px" viewBox="0 0 28 28" version="1.1" xmlns="http://www.w3.org/2000/svg" xmlns:xlink="http://www.w3.org/1999/xlink">
    <!-- Generator: Sketch 53.2 (72643) - https://sketchapp.com -->
    <title>[Logo] Instagram</title>
    <desc>Created with Sketch.</desc>
    <g id="[Logo] Instagram--Guidelines" stroke="none" stroke-width="1" fill="none" fill-rule="evenodd">
        <g id="[Logo] Instagram--icons-badges-variations" transform="translate(-675.000000, -470.000000)" fill="#000000" fill-rule="nonzero">
            <g id="[Logo] Instagram--[Logo]-Instagram" transform="translate(675.000000, 470.000000)">
                <path d="M13.9999722,2.52257359 C17.7381515,2.52257359 18.1809024,2.5368003 19.6571458,2.60415489 C21.022132,2.66645232 21.7634214,2.89452426 22.2567992,3.08619584 C22.9102276,3.34016485 23.3766526,3.64359391 23.8665293,4.13347068 C24.356406,4.62334744 24.6598352,5.08977237 24.9137486,5.74320073 C25.1054757,6.2365786 25.3335476,6.97786801 25.3958451,8.34279862 C25.4631997,9.8190977 25.4774264,10.2618485 25.4774264,14.0000278 C25.4774264,17.738207 25.4631997,18.1809579 25.3958451,19.6572014 C25.3335476,21.0221876 25.1054757,21.763477 24.9137486,22.2568548 C24.6598352,22.9102832 24.356406,23.3767081 23.8665293,23.8665849 C23.3766526,24.3564616 22.9102276,24.6598907 22.2567992,24.9138041 C21.7634214,25.1055313 21.022132,25.3336033 19.6571458,25.3959007 C18.1811246,25.4632552 17.7383738,25.477482 13.9999722,25.477482 C10.2615706,25.477482 9.81881983,25.4632552 8.34279862,25.3959007 C6.97781245,25.3336033 6.23652303,25.1055313 5.74320073,24.9138041 C5.0897168,24.6598907 4.62329187,24.3564616 4.1334151,23.8665849 C3.64353834,23.3767081 3.34010928,22.9102832 3.08619584,22.2568548 C2.8944687,21.763477 2.66639674,21.0221876 2.60409931,19.6572569 C2.53674472,18.1809579 2.52251802,17.738207 2.52251802,14.0000278 C2.52251802,10.2618485 2.53674472,9.8190977 2.60409931,8.3428542 C2.66639674,6.97786801 2.8944687,6.2365786 3.08619584,5.74320073 C3.34010928,5.08977237 3.64353834,4.62334744 4.1334151,4.13347068 C4.62329187,3.64359391 5.0897168,3.34016485 5.74320073,3.08619584 C6.23652303,2.89452426 6.97781245,2.66645232 8.34274305,2.60415489 C9.81904212,2.5368003 10.2617929,2.52257359 13.9999722,2.52257359 L13.9999722,2.52257359 Z M13.9999722,0 C10.1977727,0 9.72106676,0.0161161954 8.2278179,0.0842488007 C6.73762556,0.15227026 5.71997118,0.388900467 4.82941245,0.735009656 C3.90878869,1.09278919 3.12804238,1.57149577 2.34974129,2.34979686 C1.57144019,3.12809795 1.09273362,3.90884425 0.734954083,4.82946802 C0.388844893,5.72002676 0.152214687,6.73768114 0.0841932277,8.22787348 C0.0160606223,9.72106676 0,10.1978283 0,14.0000278 C0,17.8022273 0.0160606223,18.2789888 0.0841932277,19.7721821 C0.152214687,21.2623744 0.388844893,22.2800289 0.734954083,23.1705876 C1.09273362,24.0911557 1.57144019,24.8719576 2.34974129,25.6502587 C3.12804238,26.4285598 3.90878869,26.9072664 4.82941245,27.2650459 C5.71997118,27.6111551 6.73762556,27.8477853 8.2278179,27.9158067 C9.72106676,27.9839394 10.1977727,28 13.9999722,28 C17.8021717,28 18.2789332,27.9839394 19.7721265,27.9158067 C21.2623189,27.8477853 22.2799733,27.6111551 23.170532,27.2650459 C24.0911557,26.9072664 24.871902,26.4285598 25.6502031,25.6502587 C26.4285043,24.8719576 26.9072109,24.0912113 27.2649904,23.1705876 C27.6110996,22.2800289 27.8477298,21.2623744 27.9157512,19.7721821 C27.9838838,18.2789888 28,17.8022273 28,14.0000278 C28,10.1978283 27.9838838,9.72106676 27.9157512,8.22787348 C27.8477298,6.73768114 27.6110996,5.72002676 27.2649904,4.82946802 C26.9072109,3.90884425 26.4285043,3.12809795 25.6502031,2.34979686 C24.871902,1.57149577 24.0911557,1.09278919 23.170532,0.735009656 C22.2799733,0.388900467 21.2623189,0.15227026 19.7721265,0.0842488007 C18.2789332,0.0161161954 17.8021717,0 13.9999722,0 Z M13.9999722,6.81081532 C10.0294974,6.81081532 6.81075975,10.029553 6.81075975,14.0000278 C6.81075975,17.9705026 10.0294974,21.1892403 13.9999722,21.1892403 C17.970447,21.1892403 21.1891847,17.9705026 21.1891847,14.0000278 C21.1891847,10.029553 17.970447,6.81081532 13.9999722,6.81081532 Z M13.9999722,18.6667223 C11.4226592,18.6667223 9.33327776,16.5773408 9.33327776,14.0000278 C9.33327776,11.4227147 11.4226592,9.33333333 13.9999722,9.33333333 C16.5772853,9.33333333 18.6666667,11.4227147 18.6666667,14.0000278 C18.6666667,16.5773408 16.5772853,18.6667223 13.9999722,18.6667223 Z M23.1531932,6.52678126 C23.1531932,7.45462954 22.401067,8.20681128 21.4732187,8.20681128 C20.5453705,8.20681128 19.7931887,7.45462954 19.7931887,6.52678126 C19.7931887,5.59893299 20.5453705,4.84680682 21.4732187,4.84680682 C22.401067,4.84680682 23.1531932,5.59893299 23.1531932,6.52678126 Z" id="[Logo] Instagram--Shape"></path>
            </g>
        </g>
    </g>
</svg>