<?xml version="1.0" encoding="UTF-8"?>
<svg width="212px" height="166px" viewBox="0 0 212 166" version="1.1" xmlns="http://www.w3.org/2000/svg" xmlns:xlink="http://www.w3.org/1999/xlink">
    <!-- Generator: Sketch 53.2 (72643) - https://sketchapp.com -->
    <title>join-by-invite-next-steps</title>
    <desc>Created with Sketch.</desc>
    <g id="join-by-invite-next-steps--Guidelines" stroke="none" stroke-width="1" fill="none" fill-rule="evenodd">
        <g id="join-by-invite-next-steps--illustrations" transform="translate(-51.000000, -838.000000)" fill-rule="nonzero">
            <g id="join-by-invite-next-steps--join-by-invite-next-steps" transform="translate(51.000000, 838.000000)">
                <polygon id="join-by-invite-next-steps--Rectangle" fill="#D0CDE1" transform="translate(71.463985, 83.706808) rotate(-22.244650) translate(-71.463985, -83.706808) " points="61.8117191 3.33057123 81.4900852 3.28460427 81.1162518 164.083044 61.4378857 164.129011"></polygon>
                <polygon id="join-by-invite-next-steps--Rectangle" fill="#D0CDE1" transform="translate(38.640666, 84.635873) rotate(-22.244650) translate(-38.640666, -84.635873) " points="28.980494 7.66020397 48.6588601 7.61423701 48.3008384 161.611542 28.6224723 161.657509"></polygon>
                <polygon id="join-by-invite-next-steps--Rectangle" fill="#D0CDE1" transform="translate(106.770960, 79.062037) rotate(-22.244650) translate(-106.770960, -79.062037) " points="97.1186939 -1.31419979 116.79706 -1.36016675 116.423227 159.438273 96.7448606 159.48424"></polygon>
                <ellipse id="join-by-invite-next-steps--Oval" fill="#3F3D56" cx="98" cy="156" rx="58" ry="10"></ellipse>
                <path d="M194,126 L193.561713,125.865323 L30,75.655405 L30.449943,75.4293357 L142.73163,19 L142.819993,19.1843639 L194,126 Z M31.0791535,75.5645032 L193.240592,125.34456 L142.547074,19.5442217 L31.0791535,75.5645032 Z" id="join-by-invite-next-steps--Shape" fill="#3F3D56"></path>
                <rect id="join-by-invite-next-steps--Rectangle" fill="#017FA3" x="172" y="104" width="40" height="39"></rect>
                <rect id="join-by-invite-next-steps--Rectangle" fill="#017FA3" x="128" y="0" width="40" height="39"></rect>
                <rect id="join-by-invite-next-steps--Rectangle" fill="#017FA3" x="13" y="57" width="40" height="39"></rect>
                <path d="M90.7041907,50 L89.4276155,50 L84.002171,68.6005435 C84.002171,68.6005435 83.8957898,80.9673913 85.1723649,87 C85.1723649,87 87.2999902,84.3858696 88.7893279,84.3858696 C90.2786656,84.3858696 91.661622,71.2146739 91.661622,71.2146739 C91.661622,71.2146739 97.5125916,52.4130435 90.7041907,50 Z" id="join-by-invite-next-steps--Path" fill="#3F3D56"></path>
                <path d="M117.402524,86 C117.402524,86 114.376962,95.3422146 117.213426,95.9650289 C120.04989,96.5878433 121.56267,88.698862 120.80628,87.6608382 C120.04989,86.6228143 117.402524,86 117.402524,86 Z" id="join-by-invite-next-steps--Path" fill="#A0616A"></path>
                <path d="M85,84.3011926 C85,84.3011926 85.8161334,93.6738119 88.5132725,92.961346 C91.2104115,92.2488801 89.6147371,84.7929441 88.5736971,84.2324546 C87.5326571,83.671965 85,84.3011926 85,84.3011926 Z" id="join-by-invite-next-steps--Path" fill="#A0616A"></path>
                <path d="M93.0366418,140.8 C93.0366418,140.8 94.5432231,147.6 91.9605123,149.4 C89.3778015,151.2 92.8214159,155 92.8214159,155 L101,147 C101,147 97.5563856,142 97.7716115,139 L93.0366418,140.8 Z" id="join-by-invite-next-steps--Path" fill="#A0616A"></path>
                <polygon id="join-by-invite-next-steps--Path" fill="#A0616A" points="105 146 104.2 151.869565 104 156 108.4 155.565217 109 147.086957"></polygon>
                <path d="M87.3420539,85 C87.3420539,85 84.80624,85.9031831 85.0118616,88.4942415 C85.2174832,91.0852998 85.834348,99.2570992 85.834348,99.2570992 C85.834348,99.2570992 83.9837537,116.796571 85.834348,122.775936 C87.6849423,128.755302 91.1805093,140.714033 91.1805093,140.714033 C91.1805093,140.714033 96.5266707,141.710593 97.7604002,137.923662 C97.7604002,137.923662 97.5547787,124.96837 95.2929412,122.178 C93.0311037,119.387629 94.6760764,118.590381 94.881698,118.191756 C95.0873196,117.793132 95.7041843,117.195195 95.7041843,116.597259 C95.7041843,115.999322 95.9098059,113.806888 95.9098059,113.00964 C95.9098059,112.212391 95.7041843,112.411703 96.1154275,111.21583 C96.5266707,110.019957 96.9379139,109.621333 96.9379139,109.42202 C96.9379139,109.222708 100.433481,98.6591626 100.433481,98.6591626 L104.957156,123.174561 C104.957156,123.174561 103.929048,147.291334 104.340291,147.291334 C104.751534,147.291334 109.275209,148.885832 110.920182,147.291334 C110.920182,147.291334 115.032614,126.562868 114.210128,125.366995 C113.387641,124.171122 113.18202,123.971809 113.387641,122.775936 C113.593263,121.580063 114.004506,120.982127 113.593263,120.38419 C113.18202,119.786254 112.565155,117.793132 113.18202,117.195195 C113.798884,116.597259 114.004506,113.806888 114.004506,113.806888 C114.004506,113.806888 117.500073,94.2742947 115.238235,91.4839242 C112.976398,88.6935537 87.3420539,85 87.3420539,85 Z" id="join-by-invite-next-steps--Path" fill="#2F2E41"></path>
                <path d="M94.4910884,148.550658 C94.4910884,148.550658 91.9166044,145.418372 91.0584431,146.880106 C90.2002818,148.341839 88.9130398,150.638848 88.9130398,150.638848 C88.9130398,150.638848 79.2587248,158.782792 84.6222331,158.991611 C89.9857414,159.20043 93.4183867,155.441687 93.4183867,155.441687 C93.4183867,155.441687 94.2765481,151.265306 96.851032,151.265306 L97.2801127,152.309401 L102,149.385934 C102,149.385934 101.335303,143.841506 99.4149778,144.003481 L94.4910884,148.550658 Z" id="join-by-invite-next-steps--Path" fill="#2F2E41"></path>
                <path d="M103.278351,154.925283 C103.278351,154.925283 108.706186,152.843396 109.332474,154.925283 C109.958763,157.007171 109.958763,158.048115 109.958763,158.048115 C109.958763,158.048115 114.551546,165.54291 109.958763,165.959288 C105.365979,166.375665 103.278351,163.461022 103.278351,163.461022 C103.278351,163.461022 103.904639,159.921814 103.278351,159.505436 C102.652062,159.089059 103.278351,154.925283 103.278351,154.925283 Z" id="join-by-invite-next-steps--Path" fill="#2F2E41"></path>
                <circle id="join-by-invite-next-steps--Oval" fill="#A0616A" cx="107" cy="37" r="7"></circle>
                <path d="M100.395664,38 L99,46.4117647 L108.769645,49 C108.769645,49 106.476769,42.8529412 108.969025,40.1568627 C109.599522,39.4748024 100.395664,38 100.395664,38 Z" id="join-by-invite-next-steps--Path" fill="#A0616A"></path>
                <path d="M99.4057761,43 C98.9261244,43.0906224 98.5406125,43.4488555 98.4138931,43.9216977 C98.2401418,44.495511 97.9708958,45.0357104 97.6175469,45.5194401 C97.6175469,45.5194401 88.2604789,49.9132319 88.2604789,50.5123853 C88.2604789,51.1115387 92.0431234,63.8934784 92.0431234,63.8934784 C92.0431234,63.8934784 92.24221,71.8821906 90.6495176,73.6796509 C89.0568251,75.4771112 87.4641327,82.0677988 87.8623058,82.6669522 C88.2604789,83.2661056 85.0750941,84.6641303 86.2696134,85.6627193 C87.4641327,86.6613083 104.187403,96.2477631 114.141731,91.8539713 C114.141731,91.8539713 114.340817,90.0565111 114.141731,88.8582042 C113.942644,87.6598974 115.33625,83.6655412 114.938077,82.2675166 C114.539904,80.8694919 114.938077,66.4898099 114.938077,66.4898099 L116.989813,49.4625427 C117.070755,48.7949285 116.662137,48.1654003 116.020769,47.9696042 C113.726165,47.2700047 108.404912,44.4057038 107.671418,45.0201456 C106.721671,45.8157355 100.795832,45.2737972 99.4057761,43 Z" id="join-by-invite-next-steps--Path" fill="#3F3D56"></path>
                <path d="M116.441272,48.1082022 L116.454243,48.1029418 C117.052757,47.8595645 117.737894,48.0584765 118.118536,48.5861261 C119.37916,50.3346886 122.032178,54.2647012 122.341013,56.769046 C122.747892,60.0684151 123.968528,68.9354694 123.765088,70.1727328 C123.561649,71.4099962 123.35821,71.6162068 123.765088,72.2348385 C124.171967,72.8534702 123.968528,72.6472596 123.765088,73.2658913 C123.561649,73.884523 121.120377,91 121.120377,91 C121.120377,91 119.492862,87.2882098 116.441272,88.5254732 C116.441272,88.5254732 116.848151,85.2261041 116.441272,84.1950513 C116.034393,83.1639985 115.627515,82.5453668 116.034393,81.7205245 C116.441272,80.8956823 116.034393,72.8534702 115.830954,72.0286279 C115.627515,71.2037856 115.830954,66.8733637 115.830954,66.8733637 L114,58.4187305 L116.441272,48.1082022 Z" id="join-by-invite-next-steps--Path" fill="#3F3D56"></path>
                <path d="M105.698282,37.630469 L105.932179,35.8979396 C105.986697,35.4941215 106.209111,34.9631617 106.578868,35.0729826 C106.893358,35.1663868 107.578539,35.4524438 107.693252,35.3661032 C108.122853,35.0427308 108.772965,35.6081616 109.224723,35.3209043 C109.413993,35.2005509 109.537467,34.9427044 109.757444,34.9254952 C109.905038,34.9355103 110.044109,35.0024555 110.148522,35.11375 C110.441777,35.3847261 110.787317,35.5841825 111.160867,35.6981055 C111.542513,35.8085239 111.950497,35.6903609 112.226623,35.3894343 C112.274507,35.3107164 112.339045,35.2449802 112.415085,35.1974711 C112.504334,35.1701388 112.599571,35.1747932 112.686083,35.2107154 L113.840337,35.5446455 C114.183865,34.2211708 113.96718,32.8043179 113.246935,31.6645234 C112.778674,30.9891512 112.210999,30.3984161 111.565762,29.9150581 C110.850941,29.3372301 110.113246,28.7937422 109.352678,28.2845943 C108.520242,27.7258298 107.637441,27.1987424 106.663973,27.0416728 C105.690589,26.8846158 104.600699,27.1656084 103.98844,27.9848599 C103.700448,27.7633912 103.483987,27.4526795 103.368741,27.0953355 C103.229762,27.2296869 103.154008,27.4226072 103.161907,27.6220754 C103.169806,27.8215435 103.260543,28.0070202 103.409653,28.1284917 L102.433473,27.4661101 C102.159044,27.7722733 102.69521,28.3274534 102.461395,28.6695676 C102.390679,28.7541799 102.299935,28.8171344 102.198586,28.851894 C101.668535,29.0714132 101.182736,29.3963074 100.767213,29.8091726 C100.206148,30.406989 99.9014434,31.2184579 99.6399159,32.01569 C99.0582145,33.7889406 98.6354337,35.8225204 99.4619186,37.4824098 C99.5556162,37.6705868 100.792423,40.7765639 100.957198,40.8976804 C101.51421,41.3071011 101.151619,40.3162575 101.550747,40.8976804 C101.863733,41.3536161 101.805146,39.6085845 102.270302,39.9916216 C102.642866,40.2748763 103.137452,40.2985097 103.53244,40.0519318 C103.725288,39.9098178 103.663149,39.1206836 103.559094,38.3960052 C103.518681,38.1157201 103.611871,37.8324037 103.8078,37.6398891 C104.003729,37.4473744 104.276828,37.370785 104.536647,37.435487 C105.115979,37.5802814 105.688351,37.7040235 105.698282,37.630469 Z" id="join-by-invite-next-steps--Path" fill="#2F2E41"></path>
                <path d="M115.489272,54 L117,74 C117,74 113.807771,57.2258803 115.489272,54 Z" id="join-by-invite-next-steps--Path" fill="#000000" opacity="0.1"></path>
                <polygon id="join-by-invite-next-steps--Path" fill="#3F3D56" points="145 15 155 19.6 145 24"></polygon>
                <path d="M48,92 L17,92 L17,60 L48,60 L48,92 Z M17.4305558,91.5555553 L47.5694442,91.5555553 L47.5694442,60.4444447 L17.4305558,60.4444447 L17.4305558,91.5555553 Z" id="join-by-invite-next-steps--Shape" fill="#D0CDE1"></path>
                <rect id="join-by-invite-next-steps--Rectangle" fill="#3F3D56" x="24" y="70" width="19" height="2"></rect>
                <rect id="join-by-invite-next-steps--Rectangle" fill="#3F3D56" x="24" y="74" width="19" height="2"></rect>
                <rect id="join-by-invite-next-steps--Rectangle" fill="#3F3D56" x="24" y="80" width="19" height="2"></rect>
                <path d="M207,131 L176,131 L176,116 L207,116 L207,131 Z M176.413333,130.589041 L206.586667,130.589041 L206.586667,116.410959 L176.413333,116.410959 L176.413333,130.589041 Z" id="join-by-invite-next-steps--Shape" fill="#D0CDE1"></path>
                <circle id="join-by-invite-next-steps--Oval" fill="#3F3D56" cx="185" cy="123" r="2"></circle>
                <circle id="join-by-invite-next-steps--Oval" fill="#3F3D56" cx="191" cy="123" r="2"></circle>
                <circle id="join-by-invite-next-steps--Oval" fill="#3F3D56" cx="198" cy="123" r="2"></circle>
                <path d="M164,27 L133,27 L133,12 L164,12 L164,27 Z M133.413333,26.5890411 L163.586667,26.5890411 L163.586667,12.4109589 L133.413333,12.4109589 L133.413333,26.5890411 Z" id="join-by-invite-next-steps--Shape" fill="#D0CDE1"></path>
            </g>
        </g>
    </g>
</svg>