<?xml version="1.0" encoding="UTF-8"?>
<svg width="24px" height="24px" viewBox="0 0 24 24" version="1.1" xmlns="http://www.w3.org/2000/svg" xmlns:xlink="http://www.w3.org/1999/xlink">
    <!-- Generator: Sketch 53.2 (72643) - https://sketchapp.com -->
    <title>icons/later</title>
    <desc>Created with Sketch.</desc>
    <defs>
        <circle id="path-1" cx="12" cy="12" r="12"></circle>
    </defs>
    <g id="Guidelines" stroke="none" stroke-width="1" fill="none" fill-rule="evenodd">
        <g id="icons-badges-variations" transform="translate(-147.000000, -116.000000)">
            <g id="icons/later" transform="translate(147.000000, 116.000000)">
                <g id="Group-2">
                    <g id="color/alexs-deep-blue/base-003595">
                        <mask id="mask-2" fill="white">
                            <use xlink:href="#path-1"></use>
                        </mask>
                        <use id="Mask" fill="#003595" xlink:href="#path-1"></use>
                        <g mask="url(#mask-2)" fill="#003996" id="alexs-deep-blue-003595">
                            <rect x="0" y="0" width="24" height="24"></rect>
                        </g>
                    </g>
                    <g id="noun_Future_2630749" transform="translate(5.400000, 4.800000)" fill="#FDFDFD" fill-rule="nonzero">
                        <g id="Group">
                            <path d="M6.86093023,7.845 L5.95534884,5.475 C5.8172093,5.1 5.38744186,4.92 5.00372093,5.055 C4.62,5.19 4.43581395,5.61 4.57395349,5.985 L5.64837209,8.82 C5.75581395,9.105 6.03209302,9.285 6.33906977,9.285 L9.13255814,9.285 C9.53162791,9.285 9.86930233,8.97 9.86930233,8.565 C9.86930233,8.175 9.54697674,7.845 9.13255814,7.845 L6.86093023,7.845 L6.86093023,7.845 Z" id="Path"></path>
                            <path d="M12.8316279,5.79 C12.7548837,5.58 12.5860465,5.415 12.3865116,5.34 C12.1716279,5.265 11.9413953,5.28 11.7572093,5.4 C11.4502326,5.58 11.3274419,5.94 11.4348837,6.255 C11.695814,6.975 11.7725581,7.74 11.6804651,8.52 C11.3734884,10.785 9.47023256,12.6 7.1372093,12.84 C5.63302326,12.99 4.14418605,12.495 3.06976744,11.475 C1.98,10.455 1.41209302,9.03 1.51953488,7.56 C1.68837209,5.07 3.7144186,3.075 6.26232558,2.91 C6.3544186,2.91 6.46186047,2.91 6.55395349,2.91 L6.55395349,3.825 C6.55395349,4.185 6.95302326,4.395 7.26,4.2 L9.96139535,2.55 C10.2530233,2.37 10.2530233,1.965 9.96139535,1.785 L7.24465116,0.15 C6.93767442,-0.03 6.53860465,0.18 6.53860465,0.525 L6.53860465,1.455 C4.80418605,1.47 3.16186047,2.13 1.93395349,3.345 C0.690697674,4.56 0.0153488372,6.18 0.0153488372,7.905 C0.0153488372,9.69 0.752093023,11.34 2.07209302,12.57 C3.39209302,13.8 5.12651163,14.415 6.95302326,14.325 C10.3144186,14.145 13.0465116,11.43 13.1693023,8.13 C13.2153488,7.32 13.0925581,6.54 12.8316279,5.79 Z" id="Path"></path>
                        </g>
                    </g>
                </g>
            </g>
        </g>
    </g>
</svg>