<?xml version="1.0" encoding="UTF-8"?>
<svg width="23px" height="24px" viewBox="0 0 23 24" version="1.1" xmlns="http://www.w3.org/2000/svg" xmlns:xlink="http://www.w3.org/1999/xlink">
    <!-- Generator: Sketch 53.2 (72643) - https://sketchapp.com -->
    <title>icons/leave-team</title>
    <desc>Created with Sketch.</desc>
    <defs>
        <path d="M6.00158701,11 C7.65295216,11 9,12.3477608 9,14 C9,15.6522554 7.65295216,17 6.00158701,17 C4.35020566,17 3,15.6522554 3,14 C3,12.3477608 4.35020566,11 6.00158701,11 Z M5.50000799,17 C8.53976545,17 10.9999968,19.5435943 10.9999968,22.6858876 L10.9999968,23.5608748 C11.0004325,23.6774747 10.9558204,23.7894289 10.8760667,23.8718781 C10.7963129,23.9543273 10.6880187,24.0004471 10.5752307,23.9999967 L0.421635124,23.9999967 C0.309390223,23.9995855 0.201902614,23.9530855 0.122827434,23.8707301 C0.0437522536,23.7883748 -0.000430302795,23.6769131 3.15955975e-06,23.5608748 L3.15955975e-06,22.6858876 C3.15955975e-06,19.5435943 2.46021855,17 5.50000799,17 Z M5.41337357,3.14921697e-05 C5.30361204,-0.000391314808 5.19822554,0.0435383731 5.12061254,0.122067051 C5.04299954,0.200595729 4.99958319,0.307224474 5.00000302,0.418279 L5.00000302,9.19160387 C5.13493832,9.17585779 5.27139706,9.16719744 5.41016173,9.16719744 C5.55003821,9.16719744 5.68752643,9.17664509 5.82353213,9.19239118 L5.82353213,0.834054373 L18.1764689,0.834054373 L18.1764689,3.65109195 L18.9999969,4.48350873 L18.9999969,0.418247508 C19.0008669,0.188163377 18.8172441,0.000918990622 18.589839,0 L5.41337357,3.14921697e-05 Z M18.9999999,15.5189477 L18.9999969,19.5817682 C19.0008583,19.8118462 18.817238,19.999081 18.589839,20 L11.2279419,20 C11.1267712,19.7123663 11.0100767,19.4326213 10.8700773,19.1659614 L18.1764689,19.1659614 L18.1764689,16.3521832 L18.9999999,15.5189477 Z M16.7578537,4.00000995 L16.7578537,4.0000424 C16.8695367,3.99840694 16.9770645,4.04414151 17.0557705,4.12675473 L22.8802231,10.1982223 C23.0399256,10.3656304 23.0399256,10.6360643 22.8802231,10.8034724 L17.0557705,16.8749237 C16.9378725,16.9973043 16.7609001,17.0336855 16.6072569,16.9671272 C16.4536136,16.9005688 16.3535028,16.7441552 16.3535391,16.5707168 L16.3535391,13.075517 L9.41040026,13.075517 C9.18404871,13.0747632 9.00073167,12.8836795 9,12.647729 L9,8.35396568 C9.00073167,8.11801522 9.18404871,7.92693146 9.41040026,7.92617772 L16.3535391,7.92617772 L16.3535391,4.43096167 C16.3525717,4.19622476 16.5327006,4.0042286 16.7578537,4.00000995 Z" id="path-1"></path>
    </defs>
    <g id="Guidelines" stroke="none" stroke-width="1" fill="none" fill-rule="evenodd">
        <g id="icons-badges-variations" transform="translate(-216.000000, -237.000000)">
            <g id="icons/leave-team" transform="translate(216.000000, 237.000000)">
                <mask id="mask-2" fill="white">
                    <use xlink:href="#path-1"></use>
                </mask>
                <use id="Shape" fill="#1A1A1A" fill-rule="nonzero" xlink:href="#path-1"></use>
                <g id="color/black-tint/0-000000" mask="url(#mask-2)" fill="#000000" fill-rule="evenodd">
                    <rect id="gray-70-4A4A4A" x="0" y="0" width="24" height="24"></rect>
                </g>
            </g>
        </g>
    </g>
</svg>