<?xml version="1.0" encoding="UTF-8"?>
<svg width="214px" height="162px" viewBox="0 0 214 162" version="1.1" xmlns="http://www.w3.org/2000/svg" xmlns:xlink="http://www.w3.org/1999/xlink">
    <!-- Generator: Sketch 53.2 (72643) - https://sketchapp.com -->
    <title>list-resources</title>
    <desc>Created with Sketch.</desc>
    <g id="list-resources--Guidelines" stroke="none" stroke-width="1" fill="none" fill-rule="evenodd">
        <g id="list-resources--illustrations" transform="translate(-421.000000, -442.000000)" fill-rule="nonzero">
            <g id="list-resources--list-resources" transform="translate(421.000000, 442.000000)">
                <ellipse id="list-resources--Ellipse_218" fill="#E6E6E6" cx="191" cy="157" rx="20" ry="5"></ellipse>
                <polygon id="list-resources--Path_1092" fill="#A0616A" points="191 37.8666667 191 44 194.096774 52 199 42.9333333 199 36"></polygon>
                <path d="M176.238514,86 L175.548142,91.7391304 C175.548142,91.7391304 173.937275,98 176.238514,98 C178.539752,98 178.539752,91.2173913 178.539752,91.2173913 L179,87.3043478 L176.238514,86 Z" id="list-resources--Path_1093" fill="#A0616A"></path>
                <path d="M208.238514,85 L207.548142,90.7391304 C207.548142,90.7391304 205.937275,97 208.238514,97 C210.539752,97 210.539752,90.2173913 210.539752,90.2173913 L211,86.3043478 L208.238514,85 Z" id="list-resources--Path_1094" fill="#A0616A"></path>
                <path d="M183.599065,79.0458807 L182.344341,79.3910481 C182.344341,79.3910481 179.066489,100.552462 178.799866,111.704023 C178.533244,122.855584 178,151 178,151 L186.531909,151 L192.130974,103.207596 L194.797196,151 L203.862349,151 C203.862349,151 207.595059,88.3388481 205.195459,83.2940944 C202.79586,78.2493406 183.599065,79.0458807 183.599065,79.0458807 Z" id="list-resources--Path_1095" fill="#2F2E41"></path>
                <path d="M178.662877,150 L176.242422,153.702113 C176.242422,153.702113 169.518936,159.255284 175.435604,158.990847 C181.352272,158.72641 183.772727,156.082044 183.772727,156.082044 L183.772727,156.875354 L187,155.817607 L186.462121,150 L178.662877,150 Z" id="list-resources--Path_1096" fill="#2F2E41"></path>
                <path d="M203.337123,150 L205.757578,153.702113 C205.757578,153.702113 212.481064,159.255284 206.564396,158.990847 C200.647728,158.72641 198.227273,156.082044 198.227273,156.082044 L198.227273,156.875354 L195,155.817607 L195.537879,150 L203.337123,150 Z" id="list-resources--Path_1097" fill="#2F2E41"></path>
                <circle id="list-resources--Ellipse_219" fill="#A0616A" cx="194" cy="33" r="6"></circle>
                <polygon id="list-resources--Path_1098" fill="#575A89" points="193.695652 48.1831162 190.826087 42.3430311 189.521739 45.3310057 189 71 201 44.2938747 198.913043 42"></polygon>
                <path d="M209,49.34138 L199.473369,43 C199.473369,43 198.810811,49.0752709 192.801802,48.5430527 C186.792793,48.0108344 189.601351,43.3959703 189.601351,43.3959703 L180,48.8091618 L183.657658,69.5656719 L182.09009,81.5405816 C182.09009,81.5405816 196.198198,79.943927 199.333333,82.338909 C201.164259,83.759894 203.323769,84.676386 205.603604,85 L205.081081,64.5095989 L209,49.34138 Z" id="list-resources--Path_1099" fill="#D1D1D1"></path>
                <path d="M206.836066,49.8040551 L208.650623,48 L209.983607,48.9923927 C209.983607,48.9923927 211.295082,50.6157176 212.344262,55.4856925 C213.393443,60.3556673 212.868852,82 212.868852,82 L207.098361,81.1883375 L207.360656,72.2600503 L205,60.3556673 L206.836066,49.8040551 Z" id="list-resources--Path_1100" fill="#D1D1D1"></path>
                <path d="M182.617647,48.2090154 L181.617588,48 L180.764706,48.4756168 C180.764706,48.4756168 178.382353,51.6748328 178.382353,54.6074475 C178.382353,57.5400623 176,82.600588 176,82.600588 L181.294118,85 L185,66.071305 L182.617647,48.2090154 Z" id="list-resources--Path_1101" fill="#D1D1D1"></path>
                <path d="M213.655675,82.862069 C213.655675,82.862069 208.435403,79.5517241 206.608308,81.7586207 C204.781212,83.9655172 207.652362,86.1724138 207.652362,86.1724138 C207.652362,86.1724138 215.743784,89.4827586 213.655675,82.862069 Z" id="list-resources--Path_1102" fill="#575A89"></path>
                <path d="M180.655675,83.862069 C180.655675,83.862069 175.435403,80.5517241 173.608308,82.7586207 C171.781212,84.9655172 174.652362,87.1724138 174.652362,87.1724138 C174.652362,87.1724138 182.743784,90.4827586 180.655675,83.862069 Z" id="list-resources--Path_1103" fill="#575A89"></path>
                <path d="M199.187549,29.096473 C199.187549,29.096473 200.736681,26.0589212 197.328536,25.7827801 C197.328536,25.7827801 194.230271,23.8497925 191.751498,26.0589212 C191.751498,26.0589212 189.582605,25.506639 188.962845,27.1634855 C188.962845,27.1634855 188.652964,26.3350622 189.582067,25.7827801 C189.582067,25.7827801 187.413174,25.2304979 187.413174,27.9919087 C187.413174,27.9919087 186.483533,30.7533195 187.413174,33.2385892 C188.342815,35.7238589 188.651618,36 188.651618,36 C188.651618,36 187.124024,30.789494 190.842318,30.5133529 C194.560613,30.2372118 198.721517,27.8538382 199.031397,30.89139 C199.341277,33.9289419 199.961038,34.7573651 199.961038,34.7573651 C199.961038,34.7573651 202.750769,30.3391079 199.187549,29.096473 Z" id="list-resources--Path_1104" fill="#2F2E41"></path>
                <path d="M71.0363597,139 L71.0001322,139 C69.6480785,139 68.2793654,138.95951 66.9326003,138.879329 L66.9526973,138.536763 C68.293116,138.616678 69.6549538,138.656901 71.0003967,138.656901 L71.0366242,138.656901 L71.0363597,139 Z M75.1414414,138.874801 L75.1210799,138.532235 C76.475778,138.450456 77.8447555,138.326056 79.189934,138.162498 L79.2309213,138.503199 C77.8788676,138.667823 76.5030147,138.792756 75.1427635,138.875067 L75.1414414,138.874801 Z M62.8425915,138.51199 C61.4886867,138.348965 60.1223535,138.142253 58.7819348,137.897449 L58.8427548,137.559412 C60.1762981,137.802884 61.535756,138.008796 62.8830499,138.172088 L62.8425915,138.51199 Z M83.2907847,137.883864 L83.2294358,137.545826 C84.5637725,137.300756 85.9078932,137.010667 87.2242483,136.68435 L87.3056941,137.017593 C85.9835215,137.345508 84.6317321,137.636929 83.2905202,137.883597 L83.2907847,137.883864 Z M54.7657032,137.034641 C53.4416795,136.708058 52.1102517,136.335924 50.808705,135.928894 L50.9099834,135.600979 C52.2057126,136.006144 53.5297362,136.376147 54.8471491,136.701399 L54.7657032,137.034641 Z M91.2616346,135.906784 L91.1600918,135.578869 C92.4531766,135.172905 93.7515502,134.720856 95.0208359,134.234977 L95.1419469,134.556233 C93.8668436,135.044775 92.5610659,135.499488 91.2616346,135.907583 L91.2616346,135.906784 Z M46.9183442,134.579941 C45.6432409,134.093529 44.3646999,133.560234 43.1181556,132.99524 L43.2580414,132.681976 C44.4982394,133.244306 45.7701695,133.774138 47.0394552,134.258685 L46.9183442,134.579941 Z M98.9294426,132.973131 L98.7892923,132.659866 C100.023673,132.100466 101.257524,131.492585 102.45647,130.857266 L102.615131,131.160941 C101.410103,131.800521 100.170169,132.410268 98.9294426,132.97393 L98.9294426,132.973131 Z M39.4216253,131.180653 C38.2126306,130.541339 37.0083958,129.856207 35.8419751,129.144703 L36.0183529,128.851684 C37.1789561,129.559458 38.3771089,130.241127 39.5800216,130.877778 L39.4216253,131.180653 Z M106.187377,129.128188 L106.010999,128.835169 C107.17028,128.127661 108.323479,127.375134 109.437806,126.5989 L109.631637,126.881264 C108.510699,127.660695 107.350889,128.41695 106.187377,129.128188 Z M32.39322,126.895915 C31.270431,126.114353 30.1571616,125.288306 29.0843507,124.441481 L29.2958983,124.171104 C30.3631561,125.0142 31.4708723,125.835719 32.5881082,126.613551 L32.39322,126.895915 Z M112.935746,124.427629 L112.724199,124.157252 C113.794101,123.311493 114.849459,122.425776 115.861185,121.520081 L116.087541,121.776872 C115.070526,122.685231 114.009879,123.576542 112.934689,124.426563 L112.935746,124.427629 Z M25.9288535,121.790457 C24.9078718,120.879434 23.901434,119.925791 22.9375701,118.955098 L23.17847,118.712425 C24.137574,119.67779 25.1389876,120.627172 26.1546806,121.533666 L25.9288535,121.790457 Z M119.078032,118.940181 L118.837132,118.697508 C119.797558,117.730012 120.74106,116.72176 121.640138,115.700456 L121.895053,115.928478 C120.991744,116.954844 120.044011,117.968157 119.078825,118.940181 L119.078032,118.940181 Z M20.1213424,115.943928 C19.2159186,114.915964 18.3305918,113.847776 17.4899544,112.769199 L17.7578266,112.556095 C18.5944974,113.629077 19.476651,114.691937 20.3757284,115.71484 L20.1213424,115.943928 Z M124.525647,112.754016 L124.257246,112.540911 C125.096826,111.462867 125.912871,110.347264 126.683169,109.2258 L126.963469,109.421057 C126.189734,110.549447 125.369458,111.670644 124.525647,112.754016 Z M15.0518681,109.444498 C14.2757527,108.315043 13.5242298,107.148294 12.8189829,105.976751 L13.1098609,105.798276 C13.8119346,106.964492 14.559491,108.12538 15.3311109,109.249241 L15.0518681,109.444498 Z M129.198734,105.947982 L128.907856,105.770306 C129.611781,104.600094 130.288998,103.393388 130.920732,102.183486 L131.222187,102.343315 C130.586751,103.558545 129.907154,104.771377 129.198734,105.947982 Z M10.7979098,102.380075 C10.1632669,101.166177 9.55744743,99.9171166 8.9973751,98.6680563 L9.30782123,98.526608 C9.86524922,99.7695416 10.4678955,101.012209 11.0993652,102.219714 L10.7979098,102.380075 Z M133.024573,98.6201077 L132.713598,98.4791921 C133.273141,97.2272016 133.800424,95.9469746 134.280637,94.6699443 L134.599545,94.7919467 C134.116423,96.0743047 133.586496,97.3622567 133.024309,98.6193085 L133.024573,98.6201077 Z M7.42372522,94.8545463 C6.9387523,93.57059 6.48683369,92.2554671 6.08066225,90.9454055 L6.40591672,90.8428488 C6.81023712,92.1462509 7.25977581,93.4549806 7.74210439,94.732011 L7.42372522,94.8545463 Z M135.94155,90.8748146 L135.616031,90.7727906 C136.01903,89.4675239 136.387387,88.1337544 136.710526,86.8074435 L137.041333,86.8892225 C136.716343,88.2221928 136.3464,89.5631547 135.94155,90.8745482 L135.94155,90.8748146 Z M4.97638366,86.9608789 C4.65007146,85.6289741 4.36025121,84.2685665 4.11459154,82.9164167 L4.44989452,82.8546163 C4.69449646,84.1998402 4.98299453,85.5535883 5.30745569,86.8783008 L4.97638366,86.9608789 Z M137.899159,82.8436946 L137.563592,82.7818943 C137.805814,81.438535 138.011015,80.0696032 138.171791,78.7126585 L138.510003,78.7536812 C138.348698,80.117019 138.142703,81.4942086 137.899159,82.8434283 L137.899159,82.8436946 Z M3.49766578,78.8272024 C3.33398081,77.4654628 3.20916771,76.079749 3.12745744,74.707887 L3.46752025,74.6871093 C3.54949495,76.051779 3.67377918,77.4308333 3.83772859,78.7856469 L3.49766578,78.8272024 Z M138.878096,74.6338331 L138.538033,74.6135882 C138.617363,73.2513159 138.659144,71.8674667 138.659144,70.4996004 L138.659144,70.3544228 L139,70.3544228 L139,70.4996004 C139,71.8741262 138.959013,73.2649013 138.878096,74.6338331 Z M3.34085611,70.5725888 L3,70.5725888 L3,70.4998668 C3,69.1490489 3.03940074,67.7827809 3.11740893,66.4386225 L3.45747173,66.4588675 C3.37999242,67.7963663 3.34059167,69.1559748 3.34059167,70.5001332 L3.34085611,70.5725888 Z M138.529042,66.2404351 C138.445481,64.8741671 138.31961,63.4951128 138.155661,62.1421638 L138.493872,62.1006084 C138.658879,63.4604833 138.78475,64.8461971 138.869369,66.219391 L138.529042,66.2404351 Z M3.81842486,62.3592643 L3.47994867,62.3187744 C3.64125373,60.9549038 3.84566162,59.5785134 4.08814808,58.2279618 L4.4237155,58.2889631 C4.18228678,59.6328551 3.97867219,61.0023197 3.81842486,62.3592643 L3.81842486,62.3592643 Z M137.537148,58.0739936 C137.290431,56.7269051 137.000611,55.373157 136.675092,54.051641 L137.005899,53.9690629 C137.333005,55.2983039 137.624412,56.6595107 137.872451,58.0124596 L137.537148,58.0739936 Z M5.27281477,54.2623483 L4.94174274,54.1808357 C5.26514617,52.8489309 5.6337679,51.5063708 6.03755942,50.1941781 L6.36307833,50.2956693 C5.96140228,51.600936 5.59463159,52.9357711 5.2730792,54.2623483 L5.27281477,54.2623483 Z M135.5724,50.0878921 C135.167022,48.7842236 134.715896,47.4760267 134.232245,46.1987299 L134.549567,46.0764611 C135.035862,47.3590854 135.489367,48.6739419 135.898183,49.9842699 L135.5724,50.0878921 Z M7.69371287,46.3961182 L7.37480483,46.2746485 C7.85739785,44.9896267 8.38600247,43.7014083 8.9460748,42.445422 L9.25704981,42.5863376 C8.69962182,43.8359307 8.17366154,45.1177559 7.69371287,46.3961182 Z M132.662827,42.4067968 C132.104341,41.1643959 131.499315,39.9225279 130.867052,38.7155557 L131.168507,38.5557271 C131.804736,39.7685597 132.411349,41.0168209 132.973008,42.2656149 L132.662827,42.4067968 Z M11.0464783,38.8807119 L10.744494,38.7208833 C11.3770214,37.5059197 12.0563537,36.292288 12.7637161,35.1138186 L13.0545941,35.2914947 C12.3519915,36.4643701 11.6760969,37.671875 11.0464783,38.8807119 Z M128.852061,35.1393911 C128.148665,33.9747735 127.399786,32.814418 126.626315,31.6910895 L126.906616,31.4952994 C127.684053,32.6244884 128.436369,33.7904379 129.143203,34.9611823 L128.852061,35.1393911 Z M15.2747864,31.8322714 L14.9942213,31.6370141 C15.7679568,30.5078252 16.5871749,29.3860949 17.42887,28.3027235 L17.6972711,28.51423 C16.8613935,29.5925402 16.0453486,30.7086764 15.2747864,31.8322714 Z M124.198013,28.3826378 C123.358169,27.3085897 122.476015,26.2467952 121.576145,25.226556 L121.831059,24.9985339 C122.735425,26.0233015 123.62181,27.0904237 124.465621,28.1703322 L124.198013,28.3826378 Z M20.3138507,25.3506896 L20.0586714,25.1229338 C20.9619798,24.0947033 21.9097131,23.0803246 22.8714615,22.1085668 L23.1128902,22.3509735 C22.154315,23.3182028 21.2126637,24.3272539 20.3138507,25.3506896 Z M118.771816,22.2340322 C117.808746,21.267602 116.806539,20.3192858 115.792433,19.4159879 L116.017995,19.1589303 C117.037126,20.0667566 118.044886,21.0196014 119.012187,21.9910928 L118.771816,22.2340322 Z M26.0846054,19.5260033 L25.8582495,19.269212 C26.8755291,18.3587218 27.9353827,17.4663456 29.0081936,16.6165903 L29.2197412,16.8864342 C28.1527479,17.7319274 27.0971252,18.6200416 26.0846054,19.5260033 Z M112.650157,16.7822792 C111.582106,15.9405154 110.473596,15.120062 109.355038,14.3435615 L109.548869,14.0609312 C110.672716,14.8411611 111.786778,15.6658766 112.859854,16.5116362 L112.650157,16.7822792 Z M32.504018,14.4413233 L32.3099231,14.1589594 C33.4300678,13.3771313 34.5877621,12.6195438 35.7518029,11.9077739 L35.9287096,12.2007929 C34.7707508,12.9090999 33.6186096,13.6629581 32.504018,14.4410569 L32.504018,14.4413233 Z M105.919769,12.1091579 C104.756257,11.40165 103.557311,10.7215794 102.35625,10.0873263 L102.51491,9.78311922 C103.722318,10.4205689 104.927347,11.1041025 106.096676,11.8150733 L105.919769,12.1091579 Z M39.4798009,10.1741665 L39.3211402,9.87049218 C40.5256395,9.23117785 41.7650441,8.61850162 43.0049776,8.0545731 L43.1453923,8.36730436 C41.9115408,8.92936821 40.6784826,9.53724959 39.4803298,10.1741665 L39.4798009,10.1741665 Z M98.6774365,8.28712369 C97.4369742,7.72772365 96.1653085,7.19735913 94.8947006,6.71547596 L95.0152828,6.39422051 C96.2914438,6.87956664 97.5702492,7.41126305 98.817058,7.97492519 L98.6774365,8.28712369 Z M46.9117333,6.7889971 L46.7903579,6.46933994 C48.0654612,5.97999809 49.3709744,5.52422025 50.6706701,5.11452632 L50.7724774,5.44217491 C49.4783348,5.84840589 48.1794324,6.30205269 46.91094,6.7889971 L46.9117333,6.7889971 Z M91.0223214,5.37717796 C89.7265922,4.9733444 88.4012463,4.60467314 87.084098,4.28102026 L87.1650149,3.94751128 C88.4871876,4.27249607 89.820202,4.64329838 91.1230709,5.04926298 L91.0223214,5.37717796 Z M54.7067343,4.33296455 L54.6247596,3.99972195 C55.9485189,3.66994231 57.2992504,3.37718962 58.6391402,3.12945532 L58.7007534,3.46722639 C57.367739,3.71362879 56.0238827,4.00504957 54.7077921,4.33323093 L54.7067343,4.33296455 Z M83.0874345,3.42726925 C81.7552133,3.18512894 80.3957554,2.98054836 79.0466105,2.81965425 L79.0865401,2.47868661 C80.4425603,2.64037986 81.8088936,2.84575958 83.14799,3.08923179 L83.0874345,3.42726925 Z M62.739462,2.84575958 L62.6982102,2.50479194 C64.0492062,2.33910298 65.4247946,2.21177287 66.7871613,2.12866201 L66.8077872,2.47122794 C65.4522958,2.55460518 64.0841116,2.680337 62.739462,2.8441613 L62.739462,2.84575958 Z M74.9761698,2.45897441 C73.6598147,2.38225669 72.3223049,2.34336507 71.0001322,2.34336507 L70.8917141,2.34336507 L70.8917141,2 L71.0001322,2 C72.3286513,2 73.6733009,2.039158 74.9957379,2.11640848 L74.9761698,2.45897441 Z" id="list-resources--Path_1105" fill="#3F3B56"></path>
                <rect id="list-resources--Rectangle_316" fill="#01B4E7" x="100" y="114" width="40" height="30"></rect>
                <rect id="list-resources--Rectangle_317" fill="#FFFFFF" x="104" y="122" width="31" height="2"></rect>
                <rect id="list-resources--Rectangle_318" fill="#FFFFFF" x="104" y="128" width="31" height="2"></rect>
                <rect id="list-resources--Rectangle_319" fill="#FFFFFF" x="104" y="135" width="31" height="2"></rect>
                <rect id="list-resources--Rectangle_320" fill="#E6E6E6" x="2" y="0" width="29" height="21"></rect>
                <rect id="list-resources--Rectangle_321" fill="#FFFFFF" x="6" y="6" width="21" height="1"></rect>
                <rect id="list-resources--Rectangle_322" fill="#FFFFFF" x="6" y="10" width="21" height="1"></rect>
                <rect id="list-resources--Rectangle_323" fill="#FFFFFF" x="6" y="15" width="21" height="1"></rect>
                <rect id="list-resources--Rectangle_324" fill="#01B4E7" x="14" y="11" width="29" height="21"></rect>
                <rect id="list-resources--Rectangle_325" fill="#FFFFFF" x="18" y="17" width="21" height="1"></rect>
                <rect id="list-resources--Rectangle_326" fill="#FFFFFF" x="18" y="21" width="21" height="1"></rect>
                <rect id="list-resources--Rectangle_327" fill="#FFFFFF" x="18" y="26" width="21" height="1"></rect>
                <path d="M110,100 L32,100 L32,42 L110,42 L110,100 Z M32.8041237,42.7981651 L32.8041237,99.2018349 L109.195876,99.2018349 L109.195876,42.7981651 L32.8041237,42.7981651 Z" id="list-resources--Subtraction_1" fill="#E6E6E6"></path>
                <g id="list-resources--Group_41" transform="translate(57.000000, 56.000000)">
                    <circle id="list-resources--Ellipse_220" fill="#01B4E7" cx="14.4075625" cy="14.4681518" r="14.3469732"></circle>
                    <path d="M20.36525,13.2633571 L15.4872946,13.2633571 L15.4872946,8.38540179 C15.4872946,7.75147258 14.9733935,7.23757143 14.3394643,7.23757143 L14.3394643,7.23757143 C13.7055351,7.23757143 13.1916339,7.75147258 13.1916339,8.38540179 L13.1916339,13.2633571 L8.31367857,13.2633571 C7.67974937,13.2633571 7.16584821,13.7772583 7.16584821,14.4111875 L7.16584821,14.4111875 C7.16584821,15.0451167 7.67974937,15.5590179 8.31367857,15.5590179 L13.1916339,15.5590179 L13.1916339,20.4369732 C13.1916339,21.0709024 13.7055351,21.5848036 14.3394643,21.5848036 L14.3394643,21.5848036 C14.9733935,21.5848036 15.4872946,21.0709024 15.4872946,20.4369732 L15.4872946,15.5590179 L20.36525,15.5590179 C20.9991792,15.5590179 21.5130804,15.0451167 21.5130804,14.4111875 L21.5130804,14.4111875 C21.5130804,13.7772583 20.9991792,13.2633571 20.36525,13.2633571 L20.36525,13.2633571 Z" id="list-resources--Path_1106" fill="#FFFFFF"></path>
                </g>
                <rect id="list-resources--Rectangle_341" fill="#E6E6E6" x="0" y="109" width="29" height="21"></rect>
                <rect id="list-resources--Rectangle_342" fill="#FFFFFF" x="4" y="114" width="21" height="1"></rect>
                <rect id="list-resources--Rectangle_343" fill="#FFFFFF" x="4" y="119" width="21" height="1"></rect>
                <rect id="list-resources--Rectangle_344" fill="#FFFFFF" x="4" y="123" width="21" height="1"></rect>
            </g>
        </g>
    </g>
</svg>