<?xml version="1.0" encoding="UTF-8"?>
<svg width="24px" height="24px" viewBox="0 0 24 24" version="1.1" xmlns="http://www.w3.org/2000/svg" xmlns:xlink="http://www.w3.org/1999/xlink">
    <!-- Generator: Sketch 53.2 (72643) - https://sketchapp.com -->
    <title>icons/list</title>
    <desc>Created with Sketch.</desc>
    <g id="icons/list--Guidelines" stroke="none" stroke-width="1" fill="none" fill-rule="evenodd">
        <g id="icons/list--icons-badges-variations" transform="translate(-152.000000, -275.000000)">
            <g id="icons/list--icons/list" transform="translate(152.000000, 275.000000)">
                <g id="icons/list--Group-3">
                    <circle id="icons/list--Oval" fill="#017FA3" cx="12" cy="12" r="12"></circle>
                    <g id="icons/list--noun_bullet-list_818022" transform="translate(6.000000, 5.000000)" fill="#FDFDFD" fill-rule="nonzero">
                        <path d="M1.7664982,3.45466942 C1.76649392,3.81941688 1.55082958,4.14816359 1.22025576,4.28733096 C0.889681939,4.42649834 0.509449459,4.34861663 0.257189191,4.09006935 C0.00492892238,3.83152206 -0.0695663596,3.44334296 0.0685048481,3.10687528 C0.206576056,2.77040759 0.529960359,2.55206552 0.887584299,2.55385058 C1.37369341,2.55627697 1.76650403,2.9588775 1.7664982,3.45466942 Z M0.887584299,5.71626844 C0.529437384,5.71448852 0.205691666,5.93347101 0.0679629788,6.27066254 C-0.0697657081,6.60785407 0.00579179903,6.99649346 0.259250586,7.25457402 C0.512709373,7.51265458 0.893886656,7.58907846 1.22427039,7.448055 C1.55465411,7.30703154 1.76883099,6.97648224 1.7664982,6.61120918 C1.76334653,6.11771202 1.37145378,5.71867318 0.887584299,5.71626844 Z M0.887584299,8.8786863 C0.399786286,8.8786863 0.00434786573,9.28199663 0.00434786573,9.77950514 C0.00434786573,10.2770136 0.399786286,10.680324 0.887584299,10.680324 C1.37538231,10.680324 1.77082073,10.2770136 1.77082073,9.77950514 C1.77120328,9.54033862 1.67831718,9.31083411 1.51263674,9.14157985 C1.3469563,8.97232558 1.12208302,8.87721645 0.887584299,8.87721677 L0.887584299,8.8786863 Z M3.30531796,4.02925371 L6.77342578,4.02925371 L7.02125069,2.87861561 L3.30243628,2.87861561 C2.99089807,2.87861561 2.73834645,3.13619473 2.73834645,3.45393466 C2.73834645,3.7716746 2.99089807,4.02925371 3.30243628,4.02925371 L3.30531796,4.02925371 Z M6.33829136,6.04103347 L3.30243628,6.04103347 C2.99089807,6.04103347 2.73834645,6.29861258 2.73834645,6.61635252 C2.73834645,6.93409246 2.99089807,7.19167157 3.30243628,7.19167157 L6.09046645,7.19167157 L6.33829136,6.04103347 Z M2.73618519,9.77803561 C2.73697707,10.0950346 2.98874286,10.3518123 3.29955459,10.3526199 L5.4031846,10.3526199 L5.6510095,9.2019818 L3.30243628,9.2019818 C2.99106302,9.20279194 2.73906586,9.46046288 2.73906687,9.77803561 L2.73618519,9.77803561 Z M6.36278568,11.4944408 C6.30613388,11.2996402 6.29869923,11.0933921 6.34117304,10.8948746 L8.51684517,0.828628202 C8.5757763,0.555161357 8.73886507,0.316797939 8.97019601,0.166030426 C9.20152695,0.0152629137 9.48212844,-0.0355441401 9.75020632,0.0247980128 L11.335133,0.380423069 C11.8936969,0.505668616 12.2475215,1.06833362 12.1261556,1.63833649 L9.95048343,11.7045829 C9.90524488,11.9037014 9.81103068,12.087789 9.67672336,12.23949 L7.96644335,14.2248183 C7.84487102,14.365806 7.65778644,14.4282832 7.47799775,14.3879356 L7.47799775,14.3879356 C7.29827857,14.3475529 7.15425228,14.21079 7.10193787,14.030841 L6.36278568,11.4944408 Z M7.19271094,11.3136893 L7.53707229,12.4893093 L8.20130067,12.6362618 L9.04851604,11.6560886 C9.08500447,11.6141654 9.11074528,11.5636784 9.12343985,11.5091361 L9.1623426,11.3283845 C8.49322116,11.271581 7.83462246,11.1233008 7.20423768,10.887527 L7.16101241,11.0844434 C7.14414557,11.1622577 7.15540229,11.2436671 7.19271094,11.3136893 Z" id="icons/list--Shape"></path>
                    </g>
                </g>
            </g>
        </g>
    </g>
</svg>