<?xml version="1.0" encoding="UTF-8"?>
<svg width="56px" height="56px" viewBox="0 0 56 56" version="1.1" xmlns="http://www.w3.org/2000/svg" xmlns:xlink="http://www.w3.org/1999/xlink">
    <!-- Generator: Sketch 53.2 (72643) - https://sketchapp.com -->
    <title>illucons/mta</title>
    <desc>Created with Sketch.</desc>
    <g id="illucons/mta--Guidelines" stroke="none" stroke-width="1" fill="none" fill-rule="evenodd">
        <g id="illucons/mta--icons-badges-variations" transform="translate(-483.000000, -822.000000)">
            <g id="illucons/mta--illucons/mta" transform="translate(475.000000, 814.000000)">
                <rect id="illucons/mta--Rectangle" x="0" y="0" width="72" height="72"></rect>
                <g id="illucons/mta--icons/mta" transform="translate(8.000000, 8.000000)" fill="#017FA3" fill-rule="nonzero">
                    <path d="M15.2852664,48.6268518 C14.9614616,48.9336594 14.4427677,48.9268465 14.1275884,48.6111821 C13.8126421,48.2957448 13.8196357,47.7904546 14.1436737,47.4834199 C14.3483538,47.2892522 14.5395129,47.1150691 14.7169178,46.9590537 C14.9143711,46.7857789 15.1097264,46.6218151 15.3008855,46.4673893 C15.6496342,46.1862436 16.1666962,46.2339339 16.4552998,46.5736706 C16.7439034,46.9134072 16.694948,47.4171077 16.3461993,47.6982534 C16.1671625,47.8426869 15.9890582,47.9923436 15.8137513,48.145861 C15.6256228,48.3109603 15.4479847,48.4719718 15.2850333,48.6266247 L15.2852664,48.6268518 Z" id="illucons/mta--Path"></path>
                    <path d="M53.8394881,11.0062411 L55.0167483,11.4797377 C55.4226116,11.6430202 55.7226382,11.9516446 55.8781297,12.3159077 C56.0336213,12.6801708 56.0469092,13.1041603 55.8797616,13.4981731 L50.9816599,25.0567133 C50.8098498,25.4638977 50.331719,25.6580654 49.9139665,25.4906951 C49.4959809,25.3233249 49.2966626,24.8575495 49.4684726,24.4505923 L54.3483909,12.9352004 L53.2154237,12.4796444 L52.401832,14.3995199 L40.7115219,41.9860903 C40.6821486,42.0555819 40.6439168,42.119169 40.5982251,42.175489 L35.7663298,48.148359 C35.733926,48.1885551 35.6982585,48.2246635 35.6602598,48.2571383 C32.3175402,51.4303604 30.5705328,49.7841365 28.3906199,47.7284572 C26.4790291,45.9259908 24.138496,43.7199736 19.2623077,45.881707 C18.8496838,46.0642927 18.3626944,45.8869302 18.1752653,45.484969 C17.9878361,45.0830079 18.1699035,44.6086029 18.5825274,44.4260172 C24.4725582,41.8150865 27.2574196,44.4400972 29.5324457,46.5850254 C31.0332776,48.000292 32.2441072,49.1416799 34.3419615,47.2765348 L35.2068398,40.0098949 C35.2177965,39.9163311 35.2450716,39.8286718 35.2851684,39.7485066 L43.6411513,20.0301552 C43.4926533,20.2354506 43.2471771,20.3696647 42.9697633,20.3696647 C42.5165764,20.3696647 42.1489449,20.0115333 42.1489449,19.5700573 L42.1489449,6.8483278 C42.1489449,5.40626381 41.5421314,4.09341785 40.5653551,3.14188271 C39.5885788,2.19034758 38.2413736,1.59921489 36.7605901,1.59921489 L7.1143814,1.59921489 C7.57735936,2.22668305 7.85104321,2.99540535 7.85104321,3.82385407 L7.85104321,17.8584295 L7.85104321,44.019287 L7.85104321,54.4007851 L39.1666301,54.4007851 L42.1489449,54.4007851 L42.1489449,44.019287 C42.1489449,43.577811 42.5165764,43.2196796 42.9697633,43.2196796 C43.4229502,43.2196796 43.7905817,43.577811 43.7905817,44.019287 L43.7905817,55.2003926 C43.7905817,55.6418685 43.4229502,56 42.9697633,56 L39.1666301,56 L7.02999166,56 C6.57680477,56 6.20917323,55.6418685 6.20917323,55.2003926 L6.20917323,44.019287 L6.20917323,17.8584295 L6.20917323,9.21240435 L0.820818432,9.21240435 C0.367631544,9.21240435 0,8.85427286 0,8.4127969 L0,3.82408117 C0,2.7719422 0.441530846,1.81541094 1.15254937,1.12276604 C1.86683158,0.430121132 2.84780402,0 3.92575473,0 L36.7608232,0 C38.6945605,0 40.4525246,0.770766167 41.7262968,2.01139539 C43.000069,3.2522517 43.791048,4.96524204 43.791048,6.84855489 L43.791048,19.5702844 C43.791048,19.616385 43.7870849,19.6613502 43.7793919,19.7051798 L48.0811706,9.55350357 L48.581681,8.37260078 C48.8917317,7.64044105 49.4794293,7.09926964 50.175295,6.81766974 C50.8711606,6.53584275 51.678458,6.5119976 52.4284077,6.81335491 C53.1797562,7.11539351 53.7355162,7.68790426 54.0245861,8.36578788 C54.313889,9.04344441 54.3383667,9.83010734 54.0287822,10.5606774 L53.8394881,11.0062411 Z" id="illucons/mta--Path"></path>
                    <path d="M6.20847386,3.82453536 C6.20847386,3.21364527 5.95110847,2.65725838 5.53708588,2.25393465 L5.50305024,2.21850757 C5.09205822,1.83584965 4.53513257,1.59989618 3.92458912,1.59989618 C3.29609537,1.59989618 2.72471623,1.84992964 2.31069364,2.25257207 C1.89806977,2.65725838 1.64070438,3.21364527 1.64070438,3.82453536 L1.64070438,7.61364364 L6.20824074,7.61364364 L6.20847386,3.82453536 Z" id="illucons/mta--Path"></path>
                    <path d="M12.5780342,34.1578403 C12.1248473,34.1578403 11.7572158,33.6353088 11.7572158,32.9911736 C11.7572158,32.3470385 12.1248473,31.824507 12.5780342,31.824507 L31.1738495,31.824507 C31.6270364,31.824507 31.9946679,32.3470385 31.9946679,32.9911736 C31.9946679,33.6353088 31.6270364,34.1578403 31.1738495,34.1578403 L12.5780342,34.1578403 Z" id="illucons/mta--Path"></path>
                    <path d="M12.5780342,27.0819616 C12.1248473,27.0819616 11.7572158,26.5594302 11.7572158,25.915295 C11.7572158,25.2711598 12.1248473,24.7486283 12.5780342,24.7486283 L37.4207883,24.7486283 C37.8739752,24.7486283 38.2416067,25.2711598 38.2416067,25.915295 C38.2416067,26.5594302 37.8739752,27.0819616 37.4207883,27.0819616 L12.5780342,27.0819616 Z" id="illucons/mta--Path"></path>
                    <path d="M12.5780342,20.0060829 C12.1248473,20.0060829 11.7572158,19.4835515 11.7572158,18.8394163 C11.7572158,18.1952811 12.1248473,17.6727496 12.5780342,17.6727496 L37.4207883,17.6727496 C37.8739752,17.6727496 38.2416067,18.1952811 38.2416067,18.8394163 C38.2416067,19.4835515 37.8739752,20.0060829 37.4207883,20.0060829 L12.5780342,20.0060829 Z" id="illucons/mta--Path"></path>
                    <path d="M12.5780342,12.9302043 C12.1248473,12.9302043 11.7572158,12.4076728 11.7572158,11.7635376 C11.7572158,11.1194024 12.1248473,10.5968709 12.5780342,10.5968709 L22.6022298,10.5968709 C23.0554167,10.5968709 23.4230482,11.1194024 23.4230482,11.7635376 C23.4230482,12.4076728 23.0554167,12.9302043 22.6022298,12.9302043 L12.5780342,12.9302043 Z" id="illucons/mta--Path"></path>
                    <path d="M49.9058073,9.42451265 L52.3267671,10.3983033 L52.5144293,9.95546472 C52.6512713,9.63230613 52.6393821,9.28235013 52.5102332,8.97917604 C52.3810842,8.67622906 52.1351417,8.42119948 51.8052758,8.28857501 C51.473778,8.15526925 51.1143056,8.16685118 50.8030893,8.29288985 C50.4921062,8.41870141 50.2303115,8.65828842 50.0941689,8.97963024 L49.9058073,9.42451265 L49.9058073,9.42451265 Z" id="illucons/mta--Path"></path>
                    <polygon id="illucons/mta--Path" points="51.7024695 11.8717066 49.2815097 10.897916 48.7782018 12.0854046 51.1991616 13.0591952"></polygon>
                    <polygon id="illucons/mta--Path" points="50.2687051 14.5325985 47.899327 13.5588079 36.8105185 40.2983077 36.2687051 44.9476583 39.1801248 41.271417 50.2687051 14.5323714"></polygon>
                </g>
            </g>
        </g>
    </g>
</svg>