<?xml version="1.0" encoding="UTF-8"?>
<svg width="64px" height="64px" viewBox="0 0 64 64" version="1.1" xmlns="http://www.w3.org/2000/svg" xmlns:xlink="http://www.w3.org/1999/xlink">
    <!-- Generator: Sketch 53.2 (72643) - https://sketchapp.com -->
    <title>icons/mta</title>
    <desc>Created with Sketch.</desc>
    <defs>
        <circle id="icons/mta--path-1" cx="32" cy="32" r="32"></circle>
        <path d="M8.73443793,27.7867724 C8.5494066,27.9620911 8.25301012,27.958198 8.07290763,27.7778183 C7.89293835,27.5975684 7.89693471,27.3088312 8.08209925,27.1333828 C8.1990593,27.0224299 8.30829306,26.9228966 8.40966732,26.8337449 C8.5224978,26.7347308 8.63412937,26.6410372 8.74336313,26.5527939 C8.94264814,26.3921392 9.23811213,26.4193908 9.40302847,26.613526 C9.5679448,26.8076613 9.5399703,27.0954901 9.3406853,27.2561448 C9.23837856,27.3386782 9.13660466,27.4241963 9.03642931,27.5119205 C8.92892731,27.606263 8.82741984,27.6982696 8.73430472,27.7866427 L8.73443793,27.7867724 Z M30.873057,6.03506211 L30.7654218,6.28928063 L31.4381419,6.55985012 C31.6700638,6.65315441 31.8415075,6.82951121 31.9303599,7.03766155 C32.0192122,7.24581189 32.0268053,7.48809162 31.9312923,7.71324176 L29.1323771,14.3181219 C29.0341999,14.5507987 28.7609823,14.6617516 28.5222666,14.5661115 C28.2834176,14.4704713 28.1695215,14.204314 28.2676986,13.971767 L31.0562234,7.39154308 L30.4088135,7.13122539 L29.943904,8.22829706 L29.9423054,8.23193061 L23.2637268,23.9920516 C23.2469421,24.0317611 23.2250953,24.0680966 23.1989858,24.1002794 L20.4379027,27.513348 C20.4193863,27.5363172 20.3990048,27.5569506 20.3772913,27.5755076 C18.4671659,29.3887774 17.4688759,28.448078 16.2232114,27.2734041 C15.1308738,26.2434233 13.7934263,24.982842 11.007033,26.2181183 C10.7712479,26.322453 10.4929682,26.221103 10.3858659,25.9914109 C10.2787635,25.7617188 10.382802,25.4906302 10.6185871,25.3862955 C13.984319,23.8943352 15.5756683,25.3943412 16.8756833,26.6200145 C17.7333015,27.4287383 18.4252041,28.08096 19.623978,27.0151628 L20.1181942,22.8627971 C20.1244551,22.8093321 20.1400409,22.759241 20.1629534,22.7134324 L24.9378007,11.445803 C24.8529448,11.5631146 24.7126726,11.6398084 24.5541505,11.6398084 C24.2951865,11.6398084 24.0851114,11.4351619 24.0851114,11.1828899 L24.0851114,3.91333017 C24.0851114,3.08929361 23.7383608,2.33909591 23.1802029,1.79536155 C22.6220451,1.25162719 21.8522135,0.913837082 21.0060515,0.913837082 L4.0653608,0.913837082 C4.32991963,1.27239031 4.48631041,1.7116602 4.48631041,2.18505947 L4.48631041,10.2048169 L4.48631041,25.1538783 L4.48631041,31.0861629 L22.3809315,31.0861629 L24.0851114,31.0861629 L24.0851114,25.1538783 C24.0851114,24.9016063 24.2951865,24.6969597 24.5541505,24.6969597 C24.8131144,24.6969597 25.0231896,24.9016063 25.0231896,25.1538783 L25.0231896,31.5430815 C25.0231896,31.7953534 24.8131144,32 24.5541505,32 L22.3809315,32 L4.01713809,32 C3.75817415,32 3.54809899,31.7953534 3.54809899,31.5430815 L3.54809899,25.1538783 L3.54809899,10.2048169 L3.54809899,5.26423105 L0.469039104,5.26423105 C0.210075168,5.26423105 0,5.05958449 0,4.80731251 L0,2.18518924 C0,1.58396697 0.252303341,1.03737768 0.658599639,0.641580593 L0.660331394,0.641580593 C1.0667609,0.245783504 1.62731658,0 2.24328842,0 L21.0061847,0 C22.1111774,0 23.1157284,0.44043781 23.8435982,1.14936879 C24.571468,1.85842955 25.023456,2.83728117 25.023456,3.91345994 L25.023456,11.1830197 C25.023456,11.2093629 25.0211914,11.2350572 25.0167954,11.2601028 L27.4749546,5.4591449 L27.475221,5.45862582 L27.7609606,4.78434331 C27.9381324,4.36596632 28.2739596,4.05672551 28.6715971,3.89581128 C29.0692346,3.73476729 29.5305475,3.72114149 29.9590901,3.89334566 C30.3884321,4.06593915 30.7060093,4.39308815 30.871192,4.78045022 C31.036508,5.16768252 31.0504952,5.6172042 30.8735898,6.0346728 L30.873057,6.03506211 Z M3.54769935,4.35065351 L3.54769935,2.18544878 C3.54769935,1.83636872 3.40063341,1.51843336 3.16404908,1.28796266 L3.14460014,1.26771861 C2.90974756,1.04905694 2.59150432,0.914226391 2.24262236,0.914226391 C1.88348307,0.914226391 1.5569807,1.05710265 1.32039636,1.28718404 C1.0846113,1.51843336 0.93754536,1.83636872 0.93754536,2.18544878 L0.93754536,4.35065351 L3.54756614,4.35065351 L3.54769935,4.35065351 Z M7.18744813,19.5187659 C6.92848419,19.5187659 6.71840902,19.2201765 6.71840902,18.8520992 C6.71840902,18.484022 6.92848419,18.1854326 7.18744813,18.1854326 L17.8136283,18.1854326 C18.0725922,18.1854326 18.2826674,18.484022 18.2826674,18.8520992 C18.2826674,19.2201765 18.0725922,19.5187659 17.8136283,19.5187659 L7.18744813,19.5187659 Z M7.18744813,15.4754066 C6.92848419,15.4754066 6.71840902,15.1768172 6.71840902,14.80874 C6.71840902,14.4406627 6.92848419,14.1420733 7.18744813,14.1420733 L21.3833076,14.1420733 C21.6422715,14.1420733 21.8523467,14.4406627 21.8523467,14.80874 C21.8523467,15.1768172 21.6422715,15.4754066 21.3833076,15.4754066 L7.18744813,15.4754066 Z M7.18744813,11.4320474 C6.92848419,11.4320474 6.71840902,11.133458 6.71840902,10.7653807 C6.71840902,10.3973035 6.92848419,10.0987141 7.18744813,10.0987141 L21.3833076,10.0987141 C21.6422715,10.0987141 21.8523467,10.3973035 21.8523467,10.7653807 C21.8523467,11.133458 21.6422715,11.4320474 21.3833076,11.4320474 L7.18744813,11.4320474 Z M7.18744813,7.38868815 C6.92848419,7.38868815 6.71840902,7.09009874 6.71840902,6.72202148 C6.71840902,6.35394423 6.92848419,6.05535482 7.18744813,6.05535482 L12.9155599,6.05535482 C13.1745238,6.05535482 13.384599,6.35394423 13.384599,6.72202148 C13.384599,7.09009874 13.1745238,7.38868815 12.9155599,7.38868815 L7.18744813,7.38868815 Z M28.5176042,5.3854358 L29.9010098,5.94188758 L30.0082453,5.68883698 C30.0864407,5.50417493 30.0796469,5.30420007 30.0058475,5.13095774 C29.9320481,4.95784518 29.7915096,4.81211399 29.6030147,4.73632858 C29.4135874,4.66015386 29.2081747,4.6667721 29.0303368,4.7387942 C28.8526321,4.81068652 28.7030351,4.94759338 28.6252394,5.13121728 L28.5176042,5.3854358 L28.5176042,5.3854358 Z M29.5442683,6.78383234 L28.1608627,6.22738056 L27.8732582,6.90594547 L29.2566638,7.46239725 L29.5442683,6.78383234 Z M28.7249744,8.30434201 L27.371044,7.74789023 L21.034582,23.0276044 L20.7249744,25.6843762 L22.3886427,23.5836669 L28.7249744,8.30421224 L28.7249744,8.30434201 Z" id="icons/mta--path-3"></path>
    </defs>
    <g id="icons/mta--Guidelines" stroke="none" stroke-width="1" fill="none" fill-rule="evenodd">
        <g id="icons/mta--Artboard" transform="translate(-66.000000, -330.000000)">
            <g id="icons/mta--icons/bg-filled/oval/mta" transform="translate(66.000000, 330.000000)">
                <mask id="icons/mta--mask-2" fill="white">
                    <use xlink:href="#icons/mta--path-1"></use>
                </mask>
                <use id="icons/mta--Oval" fill="#D8D8D8" fill-rule="evenodd" xlink:href="#icons/mta--path-1"></use>
                <g id="icons/mta--color/turteal/base-017FA3" mask="url(#icons/mta--mask-2)" fill="#017FA3" fill-rule="evenodd" stroke="#017FA3" stroke-width="1">
                    <g transform="translate(0.000000, -1.333333)" id="icons/mta--turteal-017FA3">
                        <rect x="0.5" y="0.5" width="63" height="64"></rect>
                    </g>
                </g>
                <g id="icons/mta--icons/mta" mask="url(#icons/mta--mask-2)">
                    <g transform="translate(16.000000, 16.000000)">
                        <mask id="icons/mta--mask-4" fill="white">
                            <use xlink:href="#icons/mta--path-3"></use>
                        </mask>
                        <use id="icons/mta--Shape" stroke="none" fill="#1A1A1A" fill-rule="nonzero" xlink:href="#icons/mta--path-3"></use>
                        <g id="icons/mta--color/white-FDFDFD" stroke="none" fill="none" mask="url(#icons/mta--mask-4)" fill-rule="evenodd">
                            <rect id="icons/mta--white-FDFDFD" fill="#FDFDFD" x="0" y="0" width="32" height="32"></rect>
                        </g>
                    </g>
                </g>
            </g>
        </g>
    </g>
</svg>