<?xml version="1.0" encoding="UTF-8"?>
<svg width="24px" height="24px" viewBox="0 0 24 24" version="1.1" xmlns="http://www.w3.org/2000/svg" xmlns:xlink="http://www.w3.org/1999/xlink">
    <!-- Generator: Sketch 53.2 (72643) - https://sketchapp.com -->
    <title>icons/mta</title>
    <desc>Created with Sketch.</desc>
    <defs>
        <circle id="path-1" cx="12" cy="12" r="12"></circle>
        <path d="M3.27541423,10.4200397 C3.20602748,10.4857842 3.0948788,10.4843242 3.02734036,10.4166819 C2.95985188,10.3490882 2.96135052,10.2408117 3.03078722,10.1750186 C3.07464724,10.1334112 3.1156099,10.0960862 3.15362524,10.0626544 C3.19593667,10.025524 3.23779851,9.99038894 3.27876117,9.95729771 C3.35349305,9.8970522 3.46429205,9.90727155 3.52613567,9.98007227 C3.5879793,10.052873 3.57748886,10.1608088 3.50275699,10.2210543 C3.46439196,10.2520043 3.42622675,10.2840736 3.38866099,10.3169702 C3.34834774,10.3523486 3.31028244,10.3868511 3.27536427,10.419991 L3.27541423,10.4200397 Z M11.5773964,2.26314829 L11.5370332,2.35848024 L11.7893032,2.45994379 C11.8762739,2.49493291 11.9405653,2.56106671 11.9738849,2.63912308 C12.0072046,2.71717946 12.010052,2.80803436 11.9742346,2.89246566 L10.9246414,5.36929572 C10.887825,5.45654951 10.7853684,5.49815687 10.69585,5.46229181 C10.6062816,5.42642676 10.5635705,5.32661776 10.600387,5.23941263 L11.6460838,2.77182866 L11.4033051,2.67420952 L11.228964,3.0856114 L11.2283645,3.08697398 L8.72389754,8.99701936 C8.71760328,9.01191041 8.70941075,9.02553621 8.69961967,9.03760478 L7.66421352,10.3175055 C7.65726985,10.326119 7.64962682,10.3338565 7.64148424,10.3408154 C6.9251872,11.0207915 6.55082845,10.6680292 6.08370427,10.2275266 C5.67407767,9.84128375 5.17253486,9.36856576 4.12763736,9.83179435 C4.03921796,9.87091986 3.93486309,9.83291361 3.8946997,9.74677908 C3.85453631,9.66064455 3.89355075,9.55898634 3.98197015,9.51986082 C5.24411961,8.96037568 5.84087562,9.52287796 6.32838123,9.98250544 C6.64998806,10.2857769 6.90945154,10.53036 7.35899175,10.130686 L7.54432281,8.57354891 C7.54667067,8.55349952 7.55251534,8.53471538 7.56110751,8.51753714 L9.35167528,4.29217611 C9.31985428,4.33616799 9.26725224,4.36492816 9.20780642,4.36492816 C9.11069495,4.36492816 9.03191676,4.2881857 9.03191676,4.19358371 L9.03191676,1.46749881 C9.03191676,1.1584851 8.90188529,0.877160967 8.69257609,0.673260581 C8.48326689,0.469360196 8.19458005,0.342688906 7.8772693,0.342688906 L1.5245103,0.342688906 C1.62371986,0.477146368 1.6823664,0.641872574 1.6823664,0.819397302 L1.6823664,3.82680633 L1.6823664,9.43270436 L1.6823664,11.6573111 L8.39284932,11.6573111 L9.03191676,11.6573111 L9.03191676,9.43270436 C9.03191676,9.33810236 9.11069495,9.2613599 9.20780642,9.2613599 C9.3049179,9.2613599 9.38369609,9.33810236 9.38369609,9.43270436 L9.38369609,11.8286555 C9.38369609,11.9232575 9.3049179,12 9.20780642,12 L8.39284932,12 L1.50642678,12 C1.40931531,12 1.33053712,11.9232575 1.33053712,11.8286555 L1.33053712,9.43270436 L1.33053712,3.82680633 L1.33053712,1.97408665 L0.175889664,1.97408665 C0.078778188,1.97408665 0,1.89734419 0,1.80274219 L0,0.819445965 C0,0.593987615 0.0946137528,0.389016631 0.246974865,0.240592722 L0.247624273,0.240592722 C0.400035339,0.0921688139 0.610243719,0 0.841233156,0 L7.87731926,0 C8.29169153,0 8.66839813,0.165164179 8.94134932,0.431013297 C9.2143005,0.696911079 9.383796,1.06398044 9.383796,1.46754748 L9.383796,4.19363237 C9.383796,4.20351108 9.38294677,4.21314647 9.38129827,4.22253854 L10.303108,2.04717934 L10.3032079,2.04698468 L10.4103602,1.79412874 C10.4767996,1.63723737 10.6027348,1.52127207 10.7518489,1.46092923 C10.900963,1.40053773 11.0739553,1.39542806 11.2346588,1.46000462 C11.395662,1.52472718 11.5147535,1.64740806 11.576697,1.79266883 C11.6386905,1.93788094 11.6439357,2.10645157 11.5775962,2.2630023 L11.5773964,2.26314829 Z M1.33038726,1.63149507 L1.33038726,0.819543292 C1.33038726,0.688638271 1.27523753,0.569412509 1.1865184,0.482985997 L1.17922505,0.475394479 C1.09115533,0.393396353 0.971814122,0.342834897 0.840983383,0.342834897 C0.706306151,0.342834897 0.583867763,0.396413494 0.495148637,0.482694016 C0.406729237,0.569412509 0.35157951,0.688638271 0.35157951,0.819543292 L0.35157951,1.63149507 L1.3303373,1.63149507 L1.33038726,1.63149507 Z M2.69529305,7.31953721 C2.59818157,7.31953721 2.51940338,7.20756618 2.51940338,7.06953721 C2.51940338,6.93150824 2.59818157,6.81953721 2.69529305,6.81953721 L6.6801106,6.81953721 C6.77722208,6.81953721 6.85600026,6.93150824 6.85600026,7.06953721 C6.85600026,7.20756618 6.77722208,7.31953721 6.6801106,7.31953721 L2.69529305,7.31953721 Z M2.69529305,5.80327749 C2.59818157,5.80327749 2.51940338,5.69130646 2.51940338,5.55327749 C2.51940338,5.41524852 2.59818157,5.30327749 2.69529305,5.30327749 L8.01874034,5.30327749 C8.11585182,5.30327749 8.19463001,5.41524852 8.19463001,5.55327749 C8.19463001,5.69130646 8.11585182,5.80327749 8.01874034,5.80327749 L2.69529305,5.80327749 Z M2.69529305,4.28701777 C2.59818157,4.28701777 2.51940338,4.17504674 2.51940338,4.03701777 C2.51940338,3.89898881 2.59818157,3.78701777 2.69529305,3.78701777 L8.01874034,3.78701777 C8.11585182,3.78701777 8.19463001,3.89898881 8.19463001,4.03701777 C8.19463001,4.17504674 8.11585182,4.28701777 8.01874034,4.28701777 L2.69529305,4.28701777 Z M2.69529305,2.77075806 C2.59818157,2.77075806 2.51940338,2.65878703 2.51940338,2.52075806 C2.51940338,2.38272909 2.59818157,2.27075806 2.69529305,2.27075806 L4.84333495,2.27075806 C4.94044643,2.27075806 5.01922462,2.38272909 5.01922462,2.52075806 C5.01922462,2.65878703 4.94044643,2.77075806 4.84333495,2.77075806 L2.69529305,2.77075806 Z M10.6941016,2.01953843 L11.2128787,2.22820784 L11.253092,2.13331387 C11.2824153,2.0640656 11.2798676,1.98907503 11.2521928,1.92410915 C11.224518,1.85919194 11.1718161,1.80454274 11.1011305,1.77612322 C11.0300953,1.7475577 10.9530655,1.75003954 10.8863763,1.77704782 C10.819737,1.80400745 10.7636382,1.85534752 10.7344648,1.92420648 L10.6941016,2.01953843 L10.6941016,2.01953843 Z M11.0791006,2.54393713 L10.5603235,2.33526771 L10.4524718,2.58972955 L10.9712489,2.79839897 L11.0791006,2.54393713 Z M10.7718654,3.11412825 L10.2641415,2.90545884 L7.88796824,8.63535166 L7.77186539,9.63164106 L8.39574102,8.84387508 L10.7718654,3.11407959 L10.7718654,3.11412825 Z" id="path-3"></path>
    </defs>
    <g id="Guidelines" stroke="none" stroke-width="1" fill="none" fill-rule="evenodd">
        <g id="icons-badges-variations" transform="translate(-147.000000, -70.000000)">
            <g id="icons/bg-filled/oval/mta" transform="translate(147.000000, 70.000000)">
                <mask id="mask-2" fill="white">
                    <use xlink:href="#path-1"></use>
                </mask>
                <use id="Oval" fill="#D8D8D8" fill-rule="evenodd" xlink:href="#path-1"></use>
                <g id="color/alexs-deep-blue/base-003595" mask="url(#mask-2)" fill="#003996" fill-rule="evenodd">
                    <g transform="translate(0.000000, -0.500000)" id="alexs-deep-blue-003595">
                        <rect x="0" y="0" width="24" height="25"></rect>
                    </g>
                </g>
                <g id="icons/mta" mask="url(#mask-2)">
                    <g transform="translate(6.000000, 6.000000)">
                        <mask id="mask-4" fill="white">
                            <use xlink:href="#path-3"></use>
                        </mask>
                        <use id="Shape" stroke="none" fill="#1A1A1A" fill-rule="nonzero" xlink:href="#path-3"></use>
                        <g id="color/white-FDFDFD" stroke="none" fill="none" mask="url(#mask-4)" fill-rule="evenodd">
                            <rect id="white-FDFDFD" fill="#FDFDFD" x="0" y="0" width="12" height="12"></rect>
                        </g>
                    </g>
                </g>
            </g>
        </g>
    </g>
</svg>