<?xml version="1.0" encoding="UTF-8"?>
<svg width="190px" height="176px" viewBox="0 0 190 176" version="1.1" xmlns="http://www.w3.org/2000/svg" xmlns:xlink="http://www.w3.org/1999/xlink">
    <!-- Generator: Sketch 53.2 (72643) - https://sketchapp.com -->
    <title>resource-added</title>
    <desc>Created with Sketch.</desc>
    <g id="Guidelines" stroke="none" stroke-width="1" fill="none" fill-rule="evenodd">
        <g id="illustrations" transform="translate(-757.000000, -442.000000)" fill-rule="nonzero">
            <g id="resource-added" transform="translate(757.000000, 442.000000)">
                <path d="M150.551137,5.49722747 C150.551137,5.49722747 156.090909,1.25024363 167.835229,7.06190683 C179.579548,12.87357 188,7.95600903 188,7.95600903 L186.670455,27.4027238 C186.670455,27.4027238 174.704541,32.0967598 163.624999,25.3909944 C152.545458,18.685229 149,25.3909944 149,25.3909944 L150.551137,5.49722747 Z" id="Path" fill="#145ECC"></path>
                <path d="M160.999999,94.5000088 C160.994658,121.273693 144.705273,145.352424 119.855726,155.318874 C117.639403,156.20984 115.375043,156.976315 113.073229,157.614718 C101.579659,160.793574 89.4390431,160.795121 77.944664,157.619193 C76.373119,157.183268 74.8261605,156.690715 73.3037886,156.141534 C69.8414984,154.89625 66.4917544,153.357867 63.2909923,151.54312 C43.4152167,140.300824 30.0000111,118.967503 30.0000111,94.5000088 C29.979856,59.500854 57.493048,30.6769044 92.4552679,29.0693173 C93.465715,29.0223672 94.4806277,28.9992673 95.5000061,29.0000177 C96.6199903,29.0000177 97.734015,29.0275882 98.8420804,29.0827291 C133.675368,30.857939 161.005823,59.621515 160.999999,94.5000088 L160.999999,94.5000088 Z" id="Path" fill="#C9ECFA"></path>
                <path d="M177.880857,29 C173.530327,29.0002122 168.34382,28.1330858 163.351132,25.1558839 C158.782722,22.4317445 154.995986,21.5318218 152.096002,22.4807777 C150.572518,22.9562905 149.307138,24.0236556 148.587412,25.4403208 L148,26.844187 L150.350757,3.72749465 L150.411683,3.67012551 C150.611462,3.48146291 155.448524,-0.87800556 168.105852,5.29326688 C180.502698,11.3371868 189.542828,6.30179474 189.632231,6.25012793 L190,6.03907624 L189.971081,6.46008245 L188.527826,27.2577316 L188.394052,27.3093963 C188.318561,27.3385743 183.900914,28.9997814 177.880857,29 Z M154.502167,21.6664089 C157.077209,21.6664089 160.118916,22.704554 163.583798,24.7706386 C174.654602,31.3721318 186.698911,27.4336802 188.096695,26.9391783 L189.492494,6.82558281 C187.657405,7.70488846 179.117935,11.1624436 167.906734,5.69672259 C156.273684,0.0247757459 151.369073,3.47344528 150.783205,3.94513149 L148.70595,24.3708055 C149.517427,23.278862 150.654006,22.4683154 151.954718,22.0539588 C152.777617,21.7904957 153.637649,21.6596568 154.502167,21.6664089 L154.502167,21.6664089 Z" id="Shape" fill="#3F3D56"></path>
                <path d="M93.9927728,159.999985 C87.6515038,160.004083 81.3389831,159.14814 75.2278597,157.455567 C73.5363019,156.986471 71.8672057,156.455151 70.2668125,155.876286 C66.566358,154.544457 62.9858957,152.900388 59.5641317,150.961853 C36.9649442,138.181747 23.289178,113.952776 24.0285347,88.0044347 C24.7678914,62.0560932 39.8010903,38.644832 63.0913329,27.1717817 C71.7148675,22.914066 81.1301194,20.496843 90.7385141,20.0737875 C92.9060477,19.9727827 95.2017748,19.9735393 97.5645705,20.08803 C130.403855,21.7773791 157.644399,46.0834466 163.044016,78.5137285 C168.443632,110.94401 150.547772,142.762436 120.02685,154.997253 C117.65738,155.948744 115.236877,156.76791 112.776527,157.450965 C106.659452,159.146367 100.340532,160.003866 93.9927728,159.999985 Z M93.9927728,20.448451 C92.8971721,20.448451 91.809243,20.4732078 90.7591144,20.5220688 C81.2124419,20.9422962 71.8576612,23.3439666 63.2895521,27.5743811 C38.2485553,39.9075918 23.0000222,66.0057851 24.553632,93.8717439 C26.1072417,121.737703 44.1623958,145.979813 70.4192247,155.454091 C72.0092096,156.02945 73.6672384,156.557262 75.3478389,157.023071 C87.5555989,160.395575 100.449737,160.393985 112.656664,157.01847 C115.100977,156.339956 117.505679,155.526128 119.859644,154.580753 C150.191853,142.429984 167.97984,110.812483 162.614382,78.5857588 C157.248924,46.3590349 130.175926,22.2076815 97.5424376,20.536201 C96.3391272,20.4780295 95.1446947,20.448451 93.9927728,20.448451 Z" id="Shape" fill="#3F3D56"></path>
                <rect id="Rectangle" fill="#3F3D56" x="0" y="175" width="102" height="1"></rect>
                <path d="M17.634583,175 L17.3924224,174.910222 C17.3392086,174.89039 12.0429835,172.883636 9.56200338,168.333406 C7.08091246,163.78296 8.29578884,158.304204 8.30834736,158.24951 L8.36552782,158 L8.60757762,158.089778 C8.66079144,158.10961 13.9569057,160.116364 16.4379966,164.666594 C18.9190875,169.21704 17.7042112,174.695796 17.6916526,174.75049 L17.634583,175 Z M9.95928681,168.121594 C12.0568656,171.96884 16.2421098,173.940947 17.302522,174.391154 C17.5041382,173.26716 18.1364206,168.721944 16.0407132,164.878406 C13.9452275,161.035302 9.7583314,159.060136 8.69747799,158.608846 C8.49577018,159.733493 7.8636988,164.278274 9.95929534,168.121594 L9.95928681,168.121594 Z" id="Shape" fill="#3F3D56"></path>
                <path d="M11.8801029,166.866084 C16.2983812,169.531851 18,174.8268 18,174.8268 C18,174.8268 12.5381754,175.799679 8.11989706,173.133918 C3.70161877,170.468157 2,165.173202 2,165.173202 C2,165.173202 7.46181831,164.200317 11.8801029,166.866084 Z" id="Path" fill="#145ECC"></path>
                <circle id="Oval" fill="#2F2E41" cx="77" cy="33" r="21"></circle>
                <circle id="Oval" fill="#A0616A" cx="80.5" cy="38.5" r="14.5"></circle>
                <path d="M69.2842673,42 C69.2842673,42 67.1301336,59.3417096 59.321401,62.8642502 C51.5126683,66.3867909 80.862734,64.4900342 80.862734,64.4900342 C80.862734,64.4900342 80.862734,48.7741065 81.9398008,48.2321778 C83.0168677,47.6902491 69.2842673,42 69.2842673,42 Z" id="Path" fill="#A0616A"></path>
                <path d="M65.7847709,158 L64.7158481,163.894821 C64.7158481,163.894821 49.7509326,173.158114 56.9661596,175.684464 C64.1813867,178.210815 73,164.736938 73,164.736938 L71.3966158,158 L65.7847709,158 Z" id="Path" fill="#A0616A"></path>
                <path d="M77,115.14151 L89.0000106,128 L122,105.018869 C122,105.018869 114.363637,99 111.909091,99 C109.454545,99 77,115.14151 77,115.14151 Z" id="Path" fill="#A0616A"></path>
                <path d="M142,46.3957145 C142,46.3957145 145.571547,21.1657184 151.890436,23.1064896 C158.209325,25.0472609 148.318891,50 148.318891,50 L142,46.3957145 Z" id="Path" fill="#A0616A"></path>
                <path d="M96.885832,59.8572913 C96.885832,59.8572913 85.0321195,57.9283859 80.6361411,59.8572913 C76.2401628,61.7861967 62.9611583,63.3209286 61.315227,61.1757731 C59.6692958,59.0306175 45,66.1951211 45,69.2262582 C45,72.2573952 76.7834679,118 76.7834679,118 C76.7834679,118 109.65355,108.631031 114,98.7109483 C114,98.7109483 110.196849,95.9553713 110.196849,93.7509017 C110.196849,91.546432 108.295274,89.3419751 108.295274,89.3419751 C108.295274,89.3419751 110.468522,83.8308275 106.66536,78.8707808 C102.862199,73.9107342 96.885832,59.8572913 96.885832,59.8572913 Z" id="Path" fill="#D0CDE1"></path>
                <path d="M94,60.71707 L97.5734581,59.8898557 C97.5734581,59.8898557 106.369668,62.0957605 112.41706,69.5406873 C118.464452,76.9856141 128.909964,79.467257 128.909964,79.467257 L141.554503,45 L152,48.5845954 C152,48.5845954 143.753555,92.4269459 134.407589,92.9784222 C125.061622,93.5298984 101.971571,83.3275905 101.971571,83.3275905 L94,60.71707 Z" id="Path" fill="#D0CDE1"></path>
                <path d="M49.6388814,67 C49.6388814,67 44,67.2748539 44,72.2222232 C44,77.1695925 44.805556,94.210527 49.6388917,101.631579 C54.4722274,109.052631 58.7685156,125.818713 59.0370321,126.093567 C59.3055487,126.368421 64.4074031,161 64.4074031,161 L73,160.175438 L71.3888881,117.023392 L63.0648119,95.0350885 L49.6388814,67 Z" id="Path" fill="#D0CDE1"></path>
                <path d="M146,135.472207 C138.93731,144.266185 129.739198,151.093843 119.287685,155.300468 L117.897323,152.266192 L112.494854,157.60534 C100.983775,160.796694 88.8246639,160.798247 77.3127739,157.609832 L75,156.126363 L87.3743929,141.79212 C87.3743929,141.79212 87.6497864,134.626121 87.3743929,133.524168 C87.0989994,132.422216 83.4899062,122.417207 83.4899062,122.417207 C96.0299887,121.620487 113.961332,105.674839 118.114502,101.830389 C118.685419,101.300742 118.99663,101 118.99663,101 C142.093118,104.305828 145.393259,131.318047 145.393259,131.318047 L146,135.472207 Z" id="Path" fill="#2F2E41"></path>
                <ellipse id="Oval" fill="#A0616A" cx="65.5" cy="39" rx="1.5" ry="3"></ellipse>
                <circle id="Oval" fill="#2F2E41" cx="57" cy="13" r="9"></circle>
                <path d="M48.0783856,9 C48.07903,4.4317967 51.4849564,0.588740271 56,0.0616942351 C52.5734732,-0.342987036 49.2203767,1.26668154 47.3801615,4.19968535 C45.5399462,7.13268917 45.5399462,10.8673108 47.3801615,13.8003146 C49.2203767,16.7333185 52.5734732,18.342987 56,17.9383058 C51.4849564,17.4112597 48.07903,13.5682033 48.0783856,9 L48.0783856,9 Z" id="Path" fill="#2F2E41"></path>
                <rect id="Rectangle" fill="#2F2E41" x="148" y="6" width="3" height="33"></rect>
                <path d="M64,25.206701 C64,25.206701 67.9999987,33.7646577 72.8888888,33.9898666 C77.7777789,34.2150756 96,30.6117262 96,30.6117262 L89.9999967,18 L73.9999936,20.0268847 L64,25.206701 Z" id="Path" fill="#2F2E41"></path>
            </g>
        </g>
    </g>
</svg>