<?xml version="1.0" encoding="UTF-8"?>
<svg width="24px" height="24px" viewBox="0 0 24 24" version="1.1" xmlns="http://www.w3.org/2000/svg" xmlns:xlink="http://www.w3.org/1999/xlink">
    <!-- Generator: Sketch 53.2 (72643) - https://sketchapp.com -->
    <title>badges/resource-type</title>
    <desc>Created with Sketch.</desc>
    <defs>
        <circle id="path-1" cx="12" cy="12" r="12"></circle>
    </defs>
    <g id="Guidelines" stroke="none" stroke-width="1" fill="none" fill-rule="evenodd">
        <g id="icons-badges-variations" transform="translate(-318.000000, -70.000000)">
            <g id="badges/resource-type" transform="translate(318.000000, 70.000000)">
                <mask id="mask-2" fill="white">
                    <use xlink:href="#path-1"></use>
                </mask>
                <use id="Oval" fill="#003595" fill-rule="evenodd" xlink:href="#path-1"></use>
                <g id="color/alexs-deep-blue/base-003595" mask="url(#mask-2)" fill="#003996" fill-rule="evenodd">
                    <rect id="alexs-deep-blue-003595" x="0" y="0" width="24" height="24"></rect>
                </g>
                <g id="test-tube" stroke-width="1" fill-rule="evenodd" mask="url(#mask-2)" fill="#FDFDFD">
                    <path d="M14.8003104,10.1878952 L14.8003104,7.29000073 L15.8383494,7.29000073 L15.8383494,4 L8.68822799,4 L8.68822799,7.29000073 L9.18972012,7.29000073 L9.72600538,7.29000073 L9.72600538,10.1878952 C7.48354817,11.1379796 6,13.2910718 6,15.6484484 C6,17.8818575 7.29231669,19.91198 9.37336512,20.9458734 L9.48219179,21 L15.044124,21 L15.1532123,20.9458734 C17.2339991,19.9117306 18.5263158,17.8818575 18.5263158,15.6484484 C18.5263158,13.2910718 17.0427676,11.1377302 14.8003104,10.1878952 Z M14.7956016,20.0426821 L9.73097583,20.0426821 C8.04547048,19.1589465 7.00350745,17.485511 7.00350745,15.648199 C7.00350745,13.5746754 8.37064248,11.6887242 10.404864,10.9561441 L10.7292512,10.8391607 L10.7292512,7.2897513 L12.2630271,7.2897513 L12.2630271,6.33293229 L10.7292512,6.33293229 L9.69147384,6.33293229 L9.69147384,4.95681902 L14.8345803,4.95681902 L14.8345803,6.33293229 L13.796803,6.33293229 L13.796803,10.8391607 L14.1211901,10.9561441 C16.1556733,11.6889737 17.5228083,13.5746754 17.5228083,15.648199 C17.5230699,17.485511 16.4808453,19.1589465 14.7956016,20.0426821 Z" id="Shape" fill-rule="nonzero"></path>
                    <path d="M16.506352,13.1661826 C15.8346015,13.7686595 13.8211427,15.3181739 12.2632859,13.8449407 C10.9090287,12.5645692 8.98341225,12.9364756 7.99153665,13.2539778 C7.86015731,13.7263451 7.78947368,14.2295127 7.78947368,14.750815 C7.78947368,16.6903706 8.76777598,18.3720096 10.1993754,19.2105263 L14.3271965,19.2105263 C15.7585398,18.3720096 16.7368421,16.6903706 16.7368421,14.750815 C16.7368421,14.1964096 16.6536096,13.6647445 16.506352,13.1661826 Z M9.87976252,16.079258 C9.53428351,16.079258 9.25462223,15.7643465 9.25462223,15.3766081 C9.25462223,14.9888697 9.53453961,14.6739582 9.87976252,14.6739582 C10.2249854,14.6739582 10.5049028,14.9888697 10.5049028,15.3766081 C10.5049028,15.7643465 10.2247293,16.079258 9.87976252,16.079258 Z M11.0690913,17.6414379 C10.8657478,17.6414379 10.7008194,17.4557726 10.7008194,17.2275049 C10.7008194,16.9983736 10.8660039,16.8129961 11.0690913,16.8129961 C11.2726908,16.8129961 11.4376193,16.9986615 11.4376193,17.2275049 C11.4378754,17.4560604 11.2726908,17.6414379 11.0690913,17.6414379 Z M12.9719149,16.3990631 C12.6328384,16.3990631 12.3577869,16.0899086 12.3577869,15.7090787 C12.3577869,15.3282488 12.6328384,15.0190943 12.9719149,15.0190943 C13.3109914,15.0190943 13.5857867,15.3282488 13.5857867,15.7090787 C13.5857867,16.0899086 13.3109914,16.3990631 12.9719149,16.3990631 Z M14.3525504,17.9865741 C14.1658534,17.9865741 14.0147544,17.8164527 14.0147544,17.6071834 C14.0147544,17.3970505 14.1658534,17.2277927 14.3525504,17.2277927 C14.5389912,17.2277927 14.6900903,17.3970505 14.6900903,17.6071834 C14.6903464,17.8167406 14.5389912,17.9865741 14.3525504,17.9865741 Z" id="Shape" fill-rule="nonzero"></path>
                    <path d="M12.7105263,8.47368421 C12.9578316,8.47368421 13.1578947,8.34252472 13.1578947,8.18143936 L13.1578947,7.87119222 C13.1578947,7.70987306 12.9578316,7.57894737 12.7105263,7.57894737 C12.4635789,7.57894737 12.2631579,7.70987306 12.2631579,7.87119222 L12.2631579,8.18143936 C12.2631579,8.34275852 12.4635789,8.47368421 12.7105263,8.47368421 Z" id="Path" fill-rule="nonzero"></path>
                    <path d="M12.7105263,12.9473684 C12.9578316,12.9473684 13.1578947,12.8166082 13.1578947,12.6549708 L13.1578947,12.3450292 C13.1578947,12.1833918 12.9578316,12.0526316 12.7105263,12.0526316 C12.4635789,12.0526316 12.2631579,12.1833918 12.2631579,12.3450292 L12.2631579,12.6549708 C12.2631579,12.8166082 12.4635789,12.9473684 12.7105263,12.9473684 Z" id="Path" fill-rule="nonzero"></path>
                    <path d="M12.7105263,8.47368421 C12.9578316,8.47368421 13.1578947,8.3427243 13.1578947,8.18136297 L13.1578947,7.87126861 C13.1578947,7.70990728 12.9578316,7.57894737 12.7105263,7.57894737 C12.4635789,7.57894737 12.2631579,7.70990728 12.2631579,7.87126861 L12.2631579,8.18136297 C12.2631579,8.3427243 12.4635789,8.47368421 12.7105263,8.47368421 Z" id="Path" fill-rule="nonzero"></path>
                    <path d="M12.7105263,11.1578947 C12.9578316,11.1578947 13.1578947,11.0269348 13.1578947,10.8655735 L13.1578947,10.5554791 C13.1578947,10.3941178 12.9578316,10.2631579 12.7105263,10.2631579 C12.4635789,10.2631579 12.2631579,10.3941178 12.2631579,10.5554791 L12.2631579,10.8655735 C12.2631579,11.0271687 12.4635789,11.1578947 12.7105263,11.1578947 Z" id="Path" fill-rule="nonzero"></path>
                </g>
            </g>
        </g>
    </g>
</svg>
