<?xml version="1.0" encoding="UTF-8"?>
<svg width="506px" height="396px" viewBox="0 0 506 396" version="1.1" xmlns="http://www.w3.org/2000/svg" xmlns:xlink="http://www.w3.org/1999/xlink">
    <!-- Generator: Sketch 53.2 (72643) - https://sketchapp.com -->
    <title>search-no-results</title>
    <desc>Created with Sketch.</desc>
    <defs>
        <linearGradient x1="0.0418254486%" y1="50.0117741%" x2="100%" y2="50.0117741%" id="search-no-results--linearGradient-1">
            <stop stop-color="#808080" stop-opacity="0.25" offset="0%"></stop>
            <stop stop-color="#808080" stop-opacity="0.12" offset="54%"></stop>
            <stop stop-color="#808080" stop-opacity="0.1" offset="100%"></stop>
        </linearGradient>
    </defs>
    <g id="search-no-results--Guidelines" stroke="none" stroke-width="1" fill="none" fill-rule="evenodd">
        <g id="search-no-results--illustrations" transform="translate(-544.000000, -1112.000000)" fill-rule="nonzero">
            <g id="search-no-results--search-no-results" transform="translate(544.000000, 1112.000000)">
                <ellipse id="search-no-results--Oval" fill="#017FA3" opacity="0.1" cx="177.5" cy="371.5" rx="88.5" ry="16.5"></ellipse>
                <path d="M293.99061,55.8863085 C261.551877,54.7625283 230.65689,44.2772575 201.155286,32.808679 C171.653682,21.3401004 142.432759,8.63737046 110.770911,2.56193364 C90.4064838,-1.34621275 67.1149521,-1.90308599 50.7101354,9.01363615 C34.9168029,19.5490757 29.8144187,37.6850824 27.0727643,54.5267351 C25.0077523,67.1993638 23.7948083,80.5392371 29.4485306,92.4041488 C33.3780681,100.641859 40.3449778,107.565148 45.1666807,115.456694 C61.9423976,142.909039 50.0836147,176.762918 31.9095037,203.568087 C23.3888229,216.140378 13.4897966,228.150779 6.90882373,241.520754 C0.327850826,254.890728 -2.71453345,270.262436 3.04444436,283.93844 C8.74828836,297.484005 22.3462925,307.638162 37.0770461,314.787211 C66.9946601,329.311067 102.235194,333.46504 136.623659,335.822972 C212.723363,341.030489 289.224041,338.777912 365.524231,336.5153 C393.76277,335.682499 422.121601,334.834647 449.89902,330.464948 C465.326465,328.03678 481.250114,324.183819 492.452303,314.882531 C506.666803,303.077822 510.190356,283.090588 500.662229,268.290804 C484.683447,243.457268 440.516247,237.291527 429.334107,210.646899 C423.189192,195.977553 429.499508,179.642605 438.436199,166.041854 C457.602718,136.858687 489.725685,111.257569 491.414785,77.9053772 C492.577607,54.9983214 477.135126,32.0561476 453.257171,21.2146785 C428.23143,9.85145444 393.522186,11.2812641 375.067394,30.0895322 C356.046227,49.434606 322.635134,56.8846668 293.99061,55.8863085 Z" id="search-no-results--Path" fill="#017FA3" opacity="0.1"></path>
                <path d="M268,181.117545 L252.59969,170.768849 L252.59969,170.768849 L260.367721,159.242457 L219.692401,156.010056 L205.076436,167.275851 L186.780084,157.052443 L171.520554,158.881631 L171.339552,154.872451 C171.15067,150.69287 170.72936,146.526948 170.077561,142.393879 C170.142923,141.14101 170.188174,139.702717 170.183146,138.139136 C170.183146,131.549047 169.288188,122.814046 165.356408,116.990713 L166.261422,108.882146 L158.920758,100.237352 C160.099611,97.8967909 161.443753,95.6426382 162.943039,93.4919072 C163.194432,93.131081 163.445825,92.7802777 163.717329,92.4394974 C173.245108,91.7529254 180.761746,83.9450476 180.761746,74.398188 C180.761746,73.9571782 180.761746,73.5161685 180.711467,73.0801701 C180.711467,72.9047685 180.676272,72.7243554 180.656161,72.5489538 C181.586313,73.0501013 182.526522,73.5512488 183.46673,74.0523963 C183.642705,74.30297 183.843819,74.5535438 184.065044,74.8492208 L184.065044,74.8492208 L184.110295,74.904347 L184.391855,75.2501388 L184.482356,75.3553797 C184.582913,75.4756551 184.688498,75.590919 184.794083,75.7111944 L184.864473,75.791378 C185.130949,76.0870551 185.412509,76.3877435 185.71418,76.6834206 C185.750093,76.7125493 185.783711,76.7443821 185.814737,76.7786386 L186.191826,77.1294418 L186.29741,77.2246598 C186.619193,77.5103139 186.961087,77.785945 187.302981,78.0465417 L187.413594,78.1267253 L187.845989,78.4224023 L187.986769,78.5126089 C188.152688,78.6128384 188.323635,78.7180793 188.489554,78.8132974 L188.549888,78.8483777 C188.745974,78.9536187 188.947088,79.0538482 189.148202,79.1490662 L189.248759,79.189158 C189.419706,79.2626596 189.587301,79.3328203 189.751545,79.3996399 L189.907408,79.4547661 C190.083383,79.5149038 190.25433,79.5700301 190.435332,79.6201448 L190.545945,79.6502137 C190.767171,79.7053399 190.988396,79.7504432 191.214649,79.7855235 L191.239789,79.7855235 C191.452833,79.8198745 191.66773,79.8416289 191.883354,79.8506727 L192.029161,79.8506727 C192.221764,79.8607215 192.414762,79.8607215 192.607364,79.8506727 L192.733061,79.8506727 C192.974233,79.8368289 193.214337,79.808378 193.452043,79.7654776 C194.576996,79.6180475 195.657139,79.2318301 196.61959,78.6328843 C196.86463,78.4695564 197.081894,78.2682266 197.263155,78.0365188 C198.268725,76.7235124 197.162598,75.2852191 197.162598,75.2852191 L197.162598,75.2852191 C196.770425,74.3530848 194.226333,73.6965816 194.226333,73.6965816 C194.226333,73.6965816 186.18177,70.3489164 186.18177,67.6828117 C186.18177,65.0167071 184.170629,51.1850366 163.41063,48.022796 C163.41063,48.022796 149.90582,47.2660633 146.109792,54.4725641 L146.029346,55.3144918 C144.913163,56.0110869 143.988039,57.4092883 142.886939,57.8202293 C142.411224,57.9220712 141.952451,58.0908087 141.524391,58.3213768 L141.524391,58.2261587 L141.524391,58.2261587 C141.397279,58.3369711 141.293097,58.4714561 141.217692,58.6220652 C140.981173,59.0911452 140.839386,59.6019601 140.800381,60.1255077 C140.687108,60.7650545 140.46431,61.3804149 140.141732,61.9446731 C140.051797,62.1050087 139.951006,62.2590506 139.840061,62.4057287 L139.840061,62.4057287 L139.754588,62.5410386 C140.338311,62.5863802 140.924447,62.4918729 141.464057,62.2654074 C141.379025,62.951526 141.210178,63.6247137 140.961272,64.2699974 C141.61399,64.291029 142.219068,63.9307314 142.50985,63.347886 L142.50985,63.3077942 L142.575212,63.2175877 C142.701646,62.9855944 142.806011,62.7423114 142.886939,62.4909238 L142.831633,62.5510615 C142.93219,62.2253157 143.022691,61.8945583 143.133304,61.5738239 C143.183982,61.3931613 143.267486,61.2232999 143.379669,61.0726764 C143.651815,60.7992174 144.038105,60.6708735 144.420434,60.7268847 L144.214292,65.0718334 L144.304793,65.0718334 C144.18369,65.3878893 144.035666,65.6930327 143.862342,65.9839218 C143.148387,67.136561 141.851202,67.9233625 141.373556,69.1862542 C141.16761,69.7953601 141.088902,70.4400313 141.142275,71.0805917 C141.142275,71.4564523 141.187525,71.8373244 141.217692,72.213185 L141.217692,72.1831162 C141.288082,73.1854111 141.308194,74.1375913 140.765186,74.9444388 C140.393125,75.495701 139.79481,75.9116534 139.588668,76.5380878 C139.531644,76.7126426 139.50611,76.8958896 139.513251,77.0793271 C139.55359,77.6285146 139.668607,78.1696925 139.855145,78.6880105 C139.857325,78.6781053 139.857325,78.6678468 139.855145,78.6579416 C139.980543,79.0392195 140.009897,79.4453941 139.940618,79.8406497 C139.714365,80.8429447 138.492597,81.679861 138.552931,82.6370527 C138.549481,82.7629407 138.5682,82.8884569 138.608237,83.0079018 C138.84331,83.4754361 139.250364,83.8344875 139.744532,84.0101968 C140.519713,84.44957 141.410004,84.6452151 142.298681,84.571482 C142.63176,84.5114995 142.953828,84.4016769 143.253972,84.2457361 C142.902023,85.0525835 142.540017,85.849408 142.172984,86.6061407 C142.117678,86.7264161 142.057344,86.8466915 141.997009,86.9669669 C141.997009,86.9669669 138.889797,84.8972278 137.125021,89.1168896 C136.609843,89.9937792 136.241341,90.9484255 136.033977,91.9433614 C135.945563,92.3413534 135.82103,92.7305091 135.661916,93.1060236 C134.878444,94.4280751 133.705867,95.4778574 132.303311,96.1129085 C128.70337,97.7566722 114.162823,115.833062 113.906402,120.513779 C113.780562,122.340935 113.470627,124.150838 112.981277,125.916149 C111.836656,130.073372 111.542562,134.417591 112.116487,138.690399 C112.296147,140.071297 112.593874,141.434366 113.006417,142.764728 C114.549967,147.440434 115.580677,156.165411 115.580677,156.165411 L117.249924,171.310088 C117.187957,173.400335 117.278698,175.492305 117.521427,177.569421 C115.816986,179.508861 108.97408,187.59237 111.588563,189.792408 C113.599703,191.526378 117.119199,191.240724 119.095145,190.884909 C117.430926,194.989307 114.811415,202.125647 114.464494,207.02687 C113.961709,214.278474 115.324256,223.885471 117.481205,227.573916 C119.638153,231.262362 126.827981,240.724026 126.827981,240.724026 C126.827981,240.724026 126.491115,253.703746 129.060347,258.419544 C131.629579,263.135342 132.665317,272.917741 132.665317,272.917741 C132.665317,272.917741 135.063602,281.176651 133.861945,284.213605 C132.660289,287.250559 136.089284,289.776342 132.489342,291.795966 C128.8894,293.815591 124.283888,339.334817 124.283888,339.334817 C124.283888,339.334817 122.428611,369.168127 124.283888,370.686603 C124.383166,370.758541 124.489254,370.820644 124.600643,370.872028 L124.600643,380.894978 C124.600643,380.894978 123.313513,382.999797 128.547506,383.425772 C132.132364,383.711426 142.293653,384.357907 148.322047,384.733767 L152.992921,385.024433 C152.992921,385.024433 164.054195,387.219459 168.941266,385.024433 C173.828338,382.829407 182.491327,382.879522 181.204197,377.081245 C181.033524,376.292176 180.804981,375.516655 180.520409,374.760932 C179.107583,371.162693 176.709297,370.751753 172.289816,369.749458 C172.033395,369.694331 171.787031,369.644217 171.560777,369.604125 C166.904987,368.797277 165.37652,370.957223 162.767065,368.145786 C160.499504,365.71522 153.279509,362.99399 150.820889,362.132016 C150.881223,361.951603 150.956641,361.776201 151.016975,361.590777 C150.320769,361.473046 149.67324,361.158165 149.151642,360.6837 L155.813546,361.104663 L159.780521,361.350226 C159.780521,361.350226 169.182603,363.219506 173.35572,361.350226 C177.528837,359.480946 184.869501,359.53106 183.773429,354.604781 C183.629051,353.933486 183.435805,353.273566 183.195226,352.63026 C181.993569,349.57326 179.952262,349.237491 176.196456,348.390552 C175.980259,348.345449 175.779145,348.300345 175.578031,348.265265 C171.621111,347.578693 170.323926,349.412893 168.106643,347.027431 C166.206115,344.992772 160.207888,342.712551 158.05094,341.935772 C158.05094,340.823225 156.542584,339.239599 155.59232,337.650961 C154.476137,335.796716 156.537556,329.306856 156.537556,329.306856 L157.714074,302.380201 C158.162108,302.18129 158.636037,302.046322 159.121872,301.979283 C159.121872,301.979283 164.441339,296.917694 163.239683,291.525347 C162.994843,289.894411 162.867146,288.248132 162.857566,286.599067 C164.607258,284.980361 167.015599,282.589887 167.699387,281.116514 C168.81557,278.716017 167.699387,267.084384 167.699387,267.084384 L167.699387,222.607545 L176.598685,223.504599 L184.673414,224.331492 L187.132034,224.582066 L195.206764,225.393925 L213.764564,227.263205 L230.487199,224.105976 L237.722277,222.742855 L252.59969,219.936429 L252.59969,183.653351 L268,181.117545 Z M145.516506,60.8872519 L144.480768,60.7769994 C144.822662,60.7920338 145.184667,60.857183 145.516506,60.8872519 Z" id="search-no-results--Shape" fill="url(#search-no-results--linearGradient-1)"></path>
                <path d="M231.573949,205.531602 C226.600516,212.85115 208.721023,208.973989 208.721023,208.973989 L194.865038,195.639215 L193,193.833624 L196.12829,187 C196.12829,187 197.122976,187.281324 198.828864,187.782593 C207.786017,190.457732 235.771527,199.378271 231.573949,205.531602 Z" id="search-no-results--Path" fill="#EFB7B9"></path>
                <path d="M199,187.724689 C198.369231,189.751924 196.641026,192.78804 194.923077,195 L193,193.328005 L196.225641,187 C196.225641,187 197.261538,187.260509 199,187.724689 Z" id="search-no-results--Path" fill="#000000" opacity="0.1"></path>
                <path d="M151.185563,112.210667 C151.185563,112.210667 138.394776,117.921555 139.022362,131.945571 C139.473932,140.980506 140.451857,149.980977 141.951093,158.900561 C141.951093,158.900561 139.336154,180.004273 150.224261,185.444408 C161.112368,190.884543 171.188599,195.356985 171.188599,195.356985 C171.188599,195.356985 188.223057,197.202119 190.339913,197.964239 C192.456768,198.726359 199.071318,187.073941 197.851013,185.258892 C196.630708,183.443842 180.995865,179.638255 179.00353,176.60983 C177.011196,173.581404 172.403923,171.711201 172.403923,171.711201 C172.403923,171.711201 167.647225,168.813139 167.323471,166.195857 C166.999716,163.578576 168.254887,161.62815 168.57366,160.479955 C168.892434,159.331761 169.699329,148.24592 169.699329,148.24592 C169.699329,148.24592 175.06867,108.78614 151.185563,112.210667 Z" id="search-no-results--Path" fill="#DCE6F2"></path>
                <path d="M159,158 C159,158 141.413845,160.912781 143.116053,167 C143.116053,167 149.500581,160.428963 159,158 Z" id="search-no-results--Path" fill="#000000" opacity="0.1"></path>
                <path d="M160,161 C160,161 150.358124,168.597591 152.244687,168.986842 C154.131249,169.376092 160,161 160,161 Z" id="search-no-results--Path" fill="#000000" opacity="0.1"></path>
                <path d="M164.866461,163 C164.866461,163 161.676511,168.344399 163.637193,167.982408 C165.597876,167.620416 164.866461,163 164.866461,163 Z" id="search-no-results--Path" fill="#000000" opacity="0.1"></path>
                <path d="M199.416081,188.119372 L198.338878,187.812053 C198.645931,186.804452 198.731503,185.988294 198.479821,185.610444 C197.246574,183.786685 181.455988,179.967875 179.447558,176.91988 C177.439128,173.871885 172.777961,171.997746 172.777961,171.997746 C172.777961,171.997746 167.970817,169.085777 167.643629,166.455937 C167.316441,163.826097 168.584923,161.866312 168.907077,160.712608 C169.229231,159.558904 170.044684,148.41483 170.044684,148.41483 C170.044684,148.41483 175.455867,108.770744 151.319475,112.211704 C151.319475,112.211704 138.39304,117.955033 139.022247,132.046342 C139.47878,141.124849 140.468766,150.168595 141.987072,159.130673 C141.987072,159.130673 139.344401,180.335649 150.347979,185.801888 C161.351556,191.268127 171.534647,195.76203 171.534647,195.76203 C171.534647,195.76203 188.744725,197.610979 190.889064,198.381794 C191.699483,198.673999 193.164277,197.167634 194.59887,195.097013 L195.414323,195.857752 L209.438095,208.986801 C209.438095,208.986801 227.534097,212.810649 232.567755,205.60126 C236.821197,199.535498 208.501834,190.749212 199.416081,188.119372 Z" id="search-no-results--Path" fill="#000000" opacity="0.1"></path>
                <path d="M143.980992,59.7915462 C143.496227,59.8844328 143.031926,60.0602318 142.60934,60.3108971 C142.114158,60.7137581 142.114158,61.4029902 141.990363,62.0048548 C141.844939,62.8420921 141.506191,63.6356676 141,64.3249459 C141.563475,64.3654654 142.128698,64.2739591 142.648954,64.0579898 C142.564196,64.7223291 142.397933,65.3742107 142.153773,65.9994886 C142.783983,66.0152018 143.365174,65.6676961 143.639317,65.1112529 C143.901329,64.5643071 144.108625,63.9937496 144.258294,63.4075877 C144.304806,63.2322704 144.385521,63.0674434 144.495981,62.922213 C144.951548,62.3931546 145.798308,62.6309882 146.501465,62.6989406 C147.693138,62.7974292 148.845613,62.2548992 149.512168,61.2816465 C150.259892,60.1701384 150.304459,57.3258427 148.521805,57.0249103 C146.659923,56.723978 145.501199,59.238219 143.980992,59.7915462 Z" id="search-no-results--Path" fill="#965D7B"></path>
                <g id="search-no-results--Group" opacity="0.1" transform="translate(140.000000, 60.000000)" fill="#000000">
                    <path d="M1.72105263,0.855 C1.76842105,0.61 1.8,0.355 1.85789474,0.11 L1.85789474,0.11 C1.35789474,0.525 1.33157895,1.23 1.2,1.855 C1.13370604,2.2156076 1.02968142,2.56902684 0.889473684,2.91 C1.30388683,2.28250526 1.5862917,1.58462564 1.72105263,0.855 L1.72105263,0.855 Z" id="search-no-results--Path"></path>
                    <path d="M1.88947368,4.985 C2.15156346,4.34165544 2.32836054,3.66982651 2.41578947,2.985 C1.88881042,3.19572054 1.31826742,3.28976115 0.747368421,3.26 C0.581187673,3.61165771 0.378425547,3.94665601 0.142105263,4.26 C0.738900917,4.30387035 1.33807592,4.21128698 1.88947368,3.99 C1.80204475,4.67482651 1.62524767,5.34665544 1.36315789,5.99 C2.03263353,6.0049149 2.64969955,5.64732514 2.94210526,5.075 C3.07322938,4.84773602 3.17906423,4.60810828 3.25789474,4.36 C2.94405248,4.7766866 2.42803886,5.01236589 1.88947368,4.985 L1.88947368,4.985 Z" id="search-no-results--Path"></path>
                    <path d="M6.51052632,1.585 C5.76315789,1.515 4.85789474,1.27 4.37368421,1.815 C4.25841621,1.96582571 4.17282693,2.13522116 4.12105263,2.315 C4.07368421,2.445 4.03157895,2.58 3.99473684,2.715 C4.49473684,2.34 5.30526316,2.54 5.98421053,2.605 C7.25017812,2.70320819 8.47347192,2.14508039 9.18421053,1.145 C9.34373744,0.902211352 9.46269302,0.637402014 9.53684211,0.36 C8.80492005,1.22058367 7.67087217,1.67962653 6.51052632,1.585 Z" id="search-no-results--Path"></path>
                </g>
                <polygon id="search-no-results--Path" fill="#DCE6F2" points="158.531832 101 166 109.95848 165.025465 119 156 104.907734"></polygon>
                <polygon id="search-no-results--Path" fill="#000000" opacity="0.1" points="166 109.95848 165.083782 118.462687 165.024988 119 156.877021 106.280326 156 104.907734 156.254777 104.512076 158.528172 101 159.032827 101.605699"></polygon>
                <path d="M170.678599,88.5817135 C168.090974,89.3275738 165.61869,91.887689 163.467351,94.9971202 C162.013266,97.1425297 160.712831,99.3891364 159.575885,101.719942 C158.868802,103.141109 158.24697,104.506839 157.730448,105.696184 L157.369384,106.542837 C156.496813,108.614111 156.01038,110 156.01038,110 C156.01038,110 136.202016,95.0323974 139.336251,94.024478 C140.389354,93.6868251 141.773432,91.4190065 143.142466,88.5615551 L143.312968,88.1987041 C144.180524,86.3642909 145.033036,84.3182145 145.790267,82.3930886 C147.339833,78.437005 148.488216,75 148.488216,75 C148.488216,75 178.57687,86.3138949 170.678599,88.5817135 Z" id="search-no-results--Path" fill="#EFB7B9"></path>
                <path d="M182,74 C182,74 186.620528,81.9870868 192.826828,80.8979386 C199.033129,79.8087904 196.47968,76.609115 196.47968,76.609115 L182,74 Z" id="search-no-results--Path" fill="#444053"></path>
                <path d="M172.757761,360.19172 C168.714693,362.01035 159.572757,360.19172 159.572757,360.19172 L155.719833,359.95515 C150.716036,359.639724 142.33968,359.107442 139.377433,358.870872 C135.054152,358.520946 136.114957,356.776244 136.114957,356.776244 L136.114957,346.234105 L157.090873,341 C157.090873,341 165.382165,343.79448 167.653888,346.234105 C169.810525,348.560375 171.071482,346.771316 174.919401,347.441597 C175.109546,347.476097 175.309698,347.515525 175.519857,347.56481 C179.172629,348.387876 181.154132,348.713159 182.325021,351.694924 C182.56031,352.321365 182.749279,352.963751 182.89045,353.617053 C183.97127,358.417447 176.795825,358.382947 172.757761,360.19172 Z" id="search-no-results--Path" fill="#A36468"></path>
                <path d="M183,351.418669 C182.253643,351.899243 181.469093,352.313751 180.654778,352.657739 C177.921999,353.942891 175.323374,355.509649 172.560783,356.723119 C169.798191,357.936589 166.821946,358.801891 163.830795,358.571485 C162.265658,358.453722 160.66574,358.059472 159.170164,358.520284 C158.245244,358.888291 157.374109,359.38624 156.581477,360 C151.612787,359.672312 143.2952,359.119338 140.353736,358.873572 C136.060788,358.510043 137.11415,356.697519 137.11415,356.697519 L137.11415,355.417487 C137.26818,355.417487 137.442084,355.371406 137.640832,355.356046 C138.669086,355.339111 139.693045,355.496521 140.671732,355.821977 C142.828144,356.426152 144.974618,357.020087 147.131029,357.614021 C147.489476,356.22019 148.387646,355.039195 149.615374,354.347381 C150.846187,353.674095 152.227597,353.347358 153.620138,353.400158 C156.964066,353.446239 160.129121,355.079559 163.468081,355.243403 C164.401572,355.331849 165.341377,355.169559 166.195891,354.772351 C166.653011,354.536826 167.055475,354.193777 167.502657,353.932651 C168.218322,353.5759 168.974456,353.312734 169.753473,353.149271 C171.943063,352.587616 174.092881,351.872549 176.187926,351.009059 C176.784169,350.768413 177.479786,350.333202 177.400287,349.677826 C177.295944,348.807404 175.969304,348.705002 175.621496,347.906262 C175.497087,347.614276 175.511782,347.279231 175.661245,347 C175.850055,347.035841 176.048803,347.076802 176.257488,347.128003 C179.869725,347.983064 181.837327,348.320993 183,351.418669 Z" id="search-no-results--Path" fill="#000000" opacity="0.1"></path>
                <path d="M169.008249,384.030687 C164.280514,386.211642 153.580903,384.030687 153.580903,384.030687 L149.077113,383.764349 C143.244581,383.387456 133.420845,382.7593 129.952181,382.462811 C124.891016,382.040691 126.135157,379.95019 126.135157,379.95019 L126.135157,367.281553 L150.684543,361 C150.684543,361 160.388841,364.351837 163.046326,367.281553 C165.569444,370.070563 167.027577,367.924784 171.551273,368.728823 C171.775218,368.769025 172.009117,368.819277 172.252968,368.874555 C176.527836,369.879604 178.846914,370.256497 180.215469,373.834469 C180.492546,374.585657 180.713787,375.356655 180.877352,376.141056 C182.11154,381.899984 173.735984,381.854757 169.008249,384.030687 Z" id="search-no-results--Path" fill="#A36468"></path>
                <path d="M180,373.077 C179.107752,373.631207 178.170303,374.109955 177.197525,374.508202 C173.930496,375.989622 170.820002,377.797456 167.517626,379.198527 C164.21525,380.599598 160.65535,381.593907 157.075251,381.332775 C155.206935,381.197188 153.293173,380.730164 151.520797,381.272514 C150.410249,381.702641 149.365124,382.284019 148.415352,383 C142.497333,382.623368 132.529612,381.995648 129.010108,381.699364 C123.874762,381.277536 125.137138,379.188483 125.137138,379.188483 L125.137138,377.712086 C125.346214,377.678132 125.556877,377.654667 125.768326,377.641781 C126.998458,377.619436 128.223741,377.801031 129.39387,378.179109 L137.114562,380.248075 C137.549226,378.635189 138.632142,377.271274 140.108918,376.476733 C141.58067,375.696475 143.234298,375.318699 144.900897,375.381989 C148.900104,375.437228 152.682183,377.320388 156.676341,377.511215 C157.788688,377.612126 158.908449,377.4271 159.928221,376.973887 C160.478617,376.69769 160.938122,376.300971 161.493567,376.004687 C162.347566,375.58878 163.25226,375.284933 164.184953,375.10077 C166.789001,374.447266 169.346352,373.621868 171.840001,372.630064 C172.551981,372.348845 173.38515,371.846669 173.289209,371.093405 C173.162971,370.089053 171.577427,369.96853 171.158318,369.044526 C171.015222,368.706713 171.03379,368.322603 171.208813,368 C171.436041,368.040174 171.673368,368.090392 171.920793,368.145631 C176.258317,369.109809 178.611386,369.501507 180,373.077 Z" id="search-no-results--Path" fill="#000000" opacity="0.1"></path>
                <path d="M157.854125,297 L156.480902,328.558992 C156.480902,328.558992 154.42364,335.003395 155.539705,336.846806 C156.65577,338.690217 158.538165,340.528605 157.854125,341.618578 C157.170085,342.708551 148.941034,354.492316 146.282022,349.97169 C143.62301,345.451064 141,325.861685 141,325.861685 L143.453286,301.666291 L157.854125,297 Z" id="search-no-results--Path" fill="#444053"></path>
                <path d="M163.697425,219 L167.505084,223.952822 L167.505084,267.030391 C167.505084,267.030391 168.618645,278.513748 167.505084,280.885311 C166.391523,283.256874 160.746745,288 160.746745,288 L156,264.28437 L157.026323,239.195731 L163.697425,219 Z" id="search-no-results--Path" fill="#444053"></path>
                <path d="M157.854125,297 L156.480902,328.558992 C156.480902,328.558992 154.42364,335.003395 155.539705,336.846806 C156.65577,338.690217 158.538165,340.528605 157.854125,341.618578 C157.170085,342.708551 148.941034,354.492316 146.282022,349.97169 C143.62301,345.451064 141,325.861685 141,325.861685 L143.453286,301.666291 L157.854125,297 Z" id="search-no-results--Path" fill="#000000" opacity="0.1"></path>
                <path d="M163.697425,219 L167.505084,223.952822 L167.505084,267.030391 C167.505084,267.030391 168.618645,278.513748 167.505084,280.885311 C166.391523,283.256874 160.746745,288 160.746745,288 L156,264.28437 L157.026323,239.195731 L163.697425,219 Z" id="search-no-results--Path" fill="#000000" opacity="0.1"></path>
                <path d="M168,200.038308 L168,223.447801 L163.816887,241.67079 C163.816887,241.67079 162.476082,285.645725 163.646148,290.992741 C164.816214,296.339756 159.628753,301.360733 159.628753,301.360733 C159.628753,301.360733 156.615707,301.696803 156.615707,304.034241 C156.615707,306.371679 151.593963,313.062972 151.593963,313.062972 L151.759681,326.104472 C151.759681,326.104472 153.939118,350.517157 150.589615,355.19705 C147.240111,359.876942 151.759681,360.549081 151.759681,360.549081 C147.576568,374.257704 127.489593,371.0826 125.676744,369.577812 C123.863894,368.073023 125.676744,338.478849 125.676744,338.478849 C125.676744,338.478849 130.166183,293.335195 133.681403,291.32881 C137.196624,289.322425 133.852143,286.814445 135.022209,283.804868 C136.192275,280.795291 133.852143,272.604225 133.852143,272.604225 C133.852143,272.604225 132.847794,262.903355 130.336922,258.223463 C127.82605,253.543571 128.157485,240.667597 128.157485,240.667597 C128.157485,240.667597 121.127044,231.302797 119.037999,227.626097 C116.948953,223.949397 115.603126,214.41907 116.1053,207.226181 C116.446779,202.365714 119.002846,195.288192 120.62487,191.215231 C121.40324,189.264022 121.965675,188 121.965675,188 L122.442741,188.125399 L149.871505,195.298224 L168,200.038308 Z" id="search-no-results--Path" fill="#444053"></path>
                <path d="M169.689599,88.5949655 C167.123154,89.3396194 164.671105,91.8955937 162.537375,94.9999955 L161.980317,94.9999955 C155.614231,95.0045493 149.732318,91.5630499 146.561751,85.9786139 C145.910807,84.8417986 145.386997,83.6352058 145,82.3811304 C146.536883,78.4314458 147.675867,75 147.675867,75 C147.675867,75 177.523225,86.3308151 169.689599,88.5949655 Z" id="search-no-results--Path" fill="#000000" opacity="0.1"></path>
                <path d="M179.999976,75.9917877 C180.012204,83.5323354 175.31185,90.2792438 168.228582,92.888497 C161.145315,95.4977502 153.184474,93.4148282 148.291745,87.6721036 C143.399016,81.9293791 142.614205,73.7472993 146.326293,67.1812039 C146.87195,66.2076568 147.509232,65.2882482 148.2295,64.4354398 C149.416827,63.0226148 150.812353,61.7983386 152.368221,60.8045941 C157.714181,57.4114766 164.452266,57.0745532 170.110795,59.9174152 C175.769324,62.7602771 179.515371,68.3644605 179.974801,74.6742232 C179.984871,75.116764 179.999976,75.5542758 179.999976,75.9917877 Z" id="search-no-results--Path" fill="#EFB7B9"></path>
                <path d="M165,118.453876 L164.939304,119 L156.527808,106.091608 C155.647712,108.132127 155.157084,109.497438 155.157084,109.497438 C155.157084,109.497438 135.177885,94.7322229 138.339151,93.7392697 C139.401336,93.4066304 140.797351,91.1724856 142.178192,88.3574632 L142.350164,88 C143.816992,92.289558 152.339764,100.863709 155.885439,104.299327 C156.295139,104.696509 156.634027,105.024183 156.897044,105.262492 L157.438253,105.758969 L157.721502,106.036996 C159.011299,107.342729 164.453733,113.101858 165,118.453876 Z" id="search-no-results--Path" fill="#000000" opacity="0.1"></path>
                <path d="M171,163.318796 L170.088326,192.757609 L169.928031,198 C169.928031,198 159.128196,196.994748 149.049686,195.88897 C140.934783,194.999322 133.285735,194.039306 132.108573,193.476365 C130.605813,192.767662 127.384897,192.219799 124.845233,191.872987 C122.881627,191.606596 121.338793,191.46586 121.338793,191.46586 C121.338793,191.46586 120.762735,191.636753 119.876107,191.797593 C117.942556,192.149432 114.546318,192.435929 112.567684,190.711921 C110.038038,188.505392 116.685246,180.488505 118.343292,178.563447 L118.708963,178.146268 L118.082813,172.340936 L116.454823,157.287283 C116.454823,157.287283 115.452983,148.616982 113.950223,143.96769 C113.548463,142.645833 113.258571,141.292319 113.083632,139.92155 C112.525282,135.675218 112.811309,131.35995 113.925177,127.225213 C114.401076,125.468295 114.70309,123.668557 114.826833,121.85214 C115.077293,117.202848 129.228283,99.2339638 132.734723,97.6004289 C134.312078,96.8623561 135.581333,95.5923351 136.32131,94.0116783 C136.565603,93.5146795 136.748942,92.9897938 136.867312,92.448511 C138.370072,85.9143712 142.172055,88.5079221 142.172055,88.5079221 C143.088739,93.6196299 157.279802,107.150326 157.279802,107.150326 L157.560317,107.431796 C158.967902,108.879359 165.23942,115.674865 164.793601,121.47517 C164.704517,123.633998 165.025815,125.790107 165.74034,127.828365 C168.626903,136.948378 170.286268,146.414463 170.674402,155.975429 L171,163.318796 Z" id="search-no-results--Path" fill="#DCE6F2"></path>
                <path d="M151.886034,128 C151.886034,128 148.21552,136.683462 145.462635,138.088139 C142.70975,139.492817 153.196931,141.050732 151.886034,128 Z" id="search-no-results--Path" fill="#000000" opacity="0.1"></path>
                <path d="M154,144 C154,144 146,145.057617 146,146.644043 C146,148.230469 154,144 154,144 Z" id="search-no-results--Path" fill="#000000" opacity="0.1"></path>
                <path d="M162,154 C162,154 150.57689,179.219697 147.383332,179.98393 C144.189774,180.748163 162,154 162,154 Z" id="search-no-results--Path" fill="#000000" opacity="0.1"></path>
                <path d="M157,108.732928 L147.484684,113 L136,95.1048405 C136.241317,94.6001398 136.422422,94.0671201 136.53935,93.517449 C138.023798,86.8820505 141.779453,89.5157933 141.779453,89.5157933 C142.684967,94.7067166 156.70311,108.447096 156.70311,108.447096 L157,108.732928 Z" id="search-no-results--Path" fill="#000000" opacity="0.1"></path>
                <path d="M158,107.732928 L148.484684,112 L137,94.1048405 C137.241317,93.6001398 137.422422,93.0671201 137.53935,92.517449 C139.023798,85.8820505 142.779453,88.5157933 142.779453,88.5157933 C143.684967,93.7067166 157.70311,107.447096 157.70311,107.447096 L158,107.732928 Z" id="search-no-results--Path" fill="#DCE6F2"></path>
                <path d="M170.839352,197.894668 C170.839352,197.894668 160.015702,196.890712 149.914968,195.786361 L168.038055,200.530053 L168.038055,206.051811 C167.244856,206.76964 166.557083,207.141103 166.110281,206.950352 C164.021858,206.07189 146.978124,203.311011 146.978124,203.311011 C146.978124,203.311011 137.0782,198.291231 126.395117,192.267495 C126.135807,192.123853 125.88443,191.966338 125.64208,191.795635 C124.396432,190.949972 123.323091,189.875027 122.479325,188.628154 C120.506369,185.771899 119.542482,182.10244 119.125801,178.503258 C118.89155,176.44057 118.804313,174.363834 118.864749,172.28877 C118.916496,169.93585 119.131207,167.589341 119.50734,165.266097 C118.474165,156.26784 117.971272,147.216601 118.001266,138.159285 C118.126772,124.1039 131.304917,119.08412 131.304917,119.08412 C155.527603,116.950713 148.017315,156.104999 148.017315,156.104999 C148.017315,156.104999 146.616667,167.148515 146.235128,168.277965 C145.853589,169.407416 144.483062,171.289833 144.668811,173.925218 C144.85456,176.560603 149.483227,179.713025 149.483227,179.713025 C149.483227,179.713025 154.001448,181.831372 155.863959,184.968734 C157.219426,187.282853 166.024937,190.420216 171,192.659038 L170.839352,197.894668 Z" id="search-no-results--Path" fill="#000000" opacity="0.1"></path>
                <path d="M178.999646,64.2213192 C179.008856,65.0544817 178.838173,65.8796397 178.499512,66.6391967 C178.243118,67.2590042 177.945697,67.8606226 177.609272,68.4399589 C177.082895,69.5056382 176.335759,70.4441592 175.418683,71.1916856 C174.263372,72.0263085 172.80298,72.2589913 171.417607,72.5978988 C170.032234,72.9368063 168.591847,73.4780467 167.801634,74.6718104 C167.373372,75.439218 167.086952,76.279128 166.956407,77.1503877 C166.823918,78.0208972 166.480258,78.84465 165.956138,79.5480319 C165.394809,80.2543864 164.432192,80.4873805 163.615509,80.1145638 C163.197233,79.8293665 162.880049,79.4164064 162.710265,78.935975 C162.140112,77.6359865 161.995073,76.194365 161.765011,74.7932101 C161.534949,73.3920552 161.209862,71.9504337 160.359633,70.8224281 C159.509404,69.6944225 158.003999,68.9508494 156.66864,69.3909233 C155.765525,69.7425617 155.043118,70.4512795 154.668102,71.3535518 C154.298525,72.2475051 154.04469,73.186004 153.912899,74.145745 C153.292732,77.5786589 152.560869,80.9913395 151.717309,84.3837868 C151.691572,84.5228516 151.635158,84.6542556 151.552264,84.7682192 C151.419302,84.9022555 151.239847,84.9784852 151.05213,84.9806687 C149.931828,85.1324183 148.856539,84.3382619 147.726235,84.4242533 C147.609765,84.4320993 147.494251,84.4507243 147.381142,84.4798949 C143.637649,77.8998081 144.358935,69.6550105 149.186628,63.8419451 L149.276652,63.8166535 C150.02854,63.5467006 150.711815,63.1113333 151.27719,62.5419566 C151.999163,61.8112513 152.667764,61.0285289 153.277728,60.199954 L153.677836,59.6941219 C154.827425,58.2934363 156.136882,57.0352803 157.578885,55.945906 C157.972507,55.6197554 158.424028,55.372538 158.909243,55.2175078 C159.324485,55.1356909 159.750044,55.1220272 160.169582,55.1770412 C161.89679,55.3867474 163.638102,55.4527271 165.375982,55.3743158 C166.586929,55.1817928 167.807437,55.0568319 169.031965,55 C172.197817,55.0910498 174.898543,57.3521193 176.899081,59.8306966 C177.97437,61.1003351 178.934629,62.5621899 178.999646,64.2213192 Z" id="search-no-results--Path" fill="#000000" opacity="0.1"></path>
                <path d="M144.202544,67.5179175 C143.501659,68.6673679 142.236031,69.4487925 141.762051,70.7091547 C141.066207,72.5392006 142.241073,74.8179355 141.162012,76.4513649 C140.804006,77.0008829 140.214052,77.4092402 140.012358,78.0394213 C139.669479,79.103167 140.607354,80.237493 140.365322,81.3314874 C140.123289,82.4254818 138.681179,83.348067 139.064397,84.4168541 C139.290861,84.8829723 139.688102,85.244037 140.173713,85.4251439 C140.937755,85.863358 141.817153,86.0585499 142.694884,85.9847447 C144.071443,85.7578795 145.095039,84.4067712 146.491768,84.3059423 C147.626295,84.2252791 148.710398,85.0117451 149.839883,84.8655431 C150.029181,84.8589578 150.209118,84.7815987 150.344117,84.6487608 C150.429805,84.5364054 150.486909,84.4049178 150.510515,84.2656107 C151.357628,80.8878399 152.097172,77.4865424 152.729145,74.0617182 C152.857917,73.1049034 153.112222,72.1692239 153.485497,71.2788384 C153.866512,70.3815773 154.593828,69.6762062 155.502434,69.3227562 C156.848739,68.8891916 158.361442,69.6252432 159.223682,70.7494863 C160.085923,71.8737294 160.413675,73.3105423 160.645623,74.7070236 C160.877571,76.103505 161.023799,77.5403179 161.593583,78.8359702 C161.766715,79.3165034 162.088076,79.7296097 162.51129,80.0156693 C163.267641,80.4542753 164.286194,80.1064154 164.866063,79.451027 C165.397286,78.7497128 165.744028,77.9263468 165.874532,77.0563388 C166.00608,76.1895599 166.294871,75.354094 166.726688,74.5910703 C167.523378,73.4012884 168.980615,72.8618533 170.372301,72.5240763 C171.763988,72.1862992 173.231309,71.9493511 174.406175,71.117512 C175.329532,70.3732657 176.082627,69.4398001 176.614721,68.3800053 C177.360988,67.0793115 178.056831,65.6677058 177.996323,64.1703955 C177.930773,62.5369661 176.962643,61.0799873 175.928963,59.8095422 C173.912026,57.3392323 171.184118,55.0857046 167.992316,55 C166.757386,55.0516295 165.526588,55.1762026 164.306363,55.3730672 C162.554106,55.451851 160.798329,55.3843979 159.057285,55.1714093 C158.633929,55.1207781 158.20528,55.1360843 157.786615,55.2167823 C157.296853,55.3663286 156.842356,55.6132572 156.450394,55.9427509 C154.995151,57.0266848 153.673274,58.2789449 152.512325,59.6734231 C151.763769,60.6657822 150.951946,61.608812 150.081916,62.4966345 C149.511673,63.0650139 148.822977,63.5005368 148.064979,63.772121 C147.560744,63.9132816 147.05651,63.8124526 146.577488,63.9687375 C145.089997,64.4375923 144.893345,66.3785501 144.202544,67.5179175 Z" id="search-no-results--Path" fill="#965D7B"></path>
                <path d="M192.828921,80.8970586 C188.775044,81.6090442 185.415392,78.4753386 183.555676,76.1892349 C182.9845,75.4949451 182.464681,74.7634254 182,74 L195.914936,76.5089019 L196.477412,76.6106142 C196.477412,76.6106142 199.036422,79.812128 192.828921,80.8970586 Z" id="search-no-results--Path" fill="#000000" opacity="0.1"></path>
                <g id="search-no-results--Group" opacity="0.1" transform="translate(139.000000, 63.000000)" fill="#000000">
                    <path d="M1.76708861,16.57 C1.82375223,15.9160904 1.72312751,15.2582129 1.47341772,14.65 C1.47341772,14.7 1.4278481,14.75 1.41265823,14.8 C1.19493671,15.47 1.48860759,16.165 1.67594937,16.86 C1.71618436,16.7666264 1.74672052,16.6694621 1.76708861,16.57 L1.76708861,16.57 Z" id="search-no-results--Path"></path>
                    <path d="M2.9721519,8.385 C2.92006053,9.07639963 2.9336218,9.77109654 3.01265823,10.46 C3.0645721,9.76859556 3.05101115,9.07391502 2.9721519,8.385 L2.9721519,8.385 Z" id="search-no-results--Path"></path>
                    <path d="M38.1367089,3.71 C37.6038116,4.76339229 36.8474217,5.69109243 35.9189873,6.43 C34.7493671,7.255 33.2759494,7.485 31.8683544,7.82 C30.4607595,8.155 29.0075949,8.69 28.2075949,9.87 C27.7747489,10.6288798 27.4848276,11.4589724 27.3518987,12.32 C27.2200177,13.1826234 26.8719189,13.9990239 26.3392405,14.695 C25.756962,15.345 24.7341772,15.695 23.9746835,15.255 C23.5497122,14.9712923 23.2270152,14.5615824 23.0531646,14.085 C22.4810127,12.8 22.3291139,11.38 22.1012658,9.99 C21.8734177,8.6 21.5341772,7.18 20.6734177,6.065 C19.8126582,4.95 18.2886076,4.215 16.9367089,4.65 C16.0233722,4.99907168 15.2925297,5.69912743 14.9113924,6.59 C14.5365674,7.47306513 14.2812051,8.4010518 14.1518987,9.35 C13.5206751,12.7466667 12.7780591,16.12 11.9240506,19.47 C11.9003464,19.6081618 11.8430058,19.7385683 11.756962,19.85 C11.6214015,19.9817458 11.4407173,20.0584688 11.2506329,20.065 C10.1164557,20.21 9.0278481,19.43 7.88860759,19.51 C6.48607595,19.61 5.45822785,20.95 4.07594937,21.17 C3.19424557,21.2480872 2.30972129,21.0541774 1.5443038,20.615 C1.19237059,20.4654771 0.876559276,20.2439346 0.617721519,19.965 C0.377683505,20.304424 0.30862935,20.7338428 0.430379747,21.13 C0.653404502,21.595506 1.05384593,21.9549932 1.5443038,22.13 C2.30972129,22.5691774 3.19424557,22.7630872 4.07594937,22.685 C5.45822785,22.465 6.48607595,21.125 7.88860759,21.025 C9.0278481,20.945 10.1164557,21.725 11.2506329,21.58 C11.4407173,21.5734688 11.6214015,21.4967458 11.756962,21.365 C11.8430058,21.2535683 11.9003464,21.1231618 11.9240506,20.985 C12.7746835,17.6516667 13.5172996,14.2783333 14.1518987,10.865 C14.2812051,9.9160518 14.5365674,8.98806513 14.9113924,8.105 C15.2925297,7.21412743 16.0233722,6.51407168 16.9367089,6.165 C18.2886076,5.73 19.8075949,6.465 20.6734177,7.58 C21.5392405,8.695 21.8683544,10.12 22.1012658,11.505 C22.3341772,12.89 22.4810127,14.315 23.0531646,15.6 C23.2270152,16.0765824 23.5497122,16.4862923 23.9746835,16.77 C24.7341772,17.205 25.756962,16.86 26.3392405,16.21 C26.8719189,15.5140239 27.2200177,14.6976234 27.3518987,13.835 C27.4848276,12.9739724 27.7747489,12.1438798 28.2075949,11.385 C29.0075949,10.205 30.4708861,9.675 31.8683544,9.335 C33.2658228,8.995 34.7392405,8.77 35.9189873,7.945 C36.8474217,7.20609243 37.6038116,6.27839229 38.1367089,5.225 C38.8860759,3.94 39.5848101,2.54 39.5240506,1.055 C39.5140871,0.864067391 39.493805,0.673796453 39.4632911,0.485 C39.2190006,1.62940159 38.7697574,2.72153858 38.1367089,3.71 L38.1367089,3.71 Z" id="search-no-results--Path"></path>
                </g>
                <path d="M178.735369,67.3889477 C180.040426,69.7258265 180.813921,72.3254175 181,75 C176.465649,72.4373561 172.201018,69.6235732 170.048346,68.6446432 C166.29771,66.9379224 152.272265,67.1941868 147,67.3530707 C147.551523,66.3608584 148.195654,65.4238224 148.923664,64.5546636 C150.12839,63.1135546 151.544131,61.8657466 153.122137,60.8542058 C157.345637,58.1547042 162.486044,57.3245393 167.335875,58.558717 C172.185707,59.7928947 176.317543,62.9826456 178.760814,67.3786971 L178.735369,67.3889477 Z" id="search-no-results--Path" fill="#000000" opacity="0.1"></path>
                <path d="M193.654453,78.8097754 C191.305985,79.5216222 187.473247,78.1460264 183.498918,76.1740185 C182.948581,75.4845544 182.447727,74.7581192 182,74 L195.407259,76.4914637 C196.295868,77.0878758 196.520462,77.9392061 193.654453,78.8097754 Z" id="search-no-results--Path" fill="#000000" opacity="0.1"></path>
                <path d="M163.804099,50.0227074 C163.804099,50.0227074 150.542208,49.2719441 146.813722,56.4041956 L146.212516,62.7256228 L145.202086,62.6155109 L145,66.9148822 C145,66.9148822 165.269222,66.0389916 169.881834,68.1010882 C174.494446,70.1631848 188.827393,80.5537492 194.571687,78.8019681 C200.31598,77.050187 194.066472,75.4235332 194.066472,75.4235332 C194.066472,75.4235332 186.159858,72.1051593 186.159858,69.5025131 C186.159858,66.8998669 184.199625,53.1508879 163.804099,50.0227074 Z" id="search-no-results--Path" fill="#444053"></path>
                <path d="M138,284 C138,284 146.375,292.627219 150,291.963587 C150,291.963587 139.75,291.034502 138,284 Z" id="search-no-results--Path" fill="#000000" opacity="0.1"></path>
                <path d="M136,288 C136,288 136.694125,292.401965 138.545123,291.970194 C140.396122,291.538422 136,288 136,288 Z" id="search-no-results--Path" fill="#000000" opacity="0.1"></path>
                <path d="M149,358 C149,358 137.24262,367.732 139.225256,367.995027 C141.207893,368.258054 149,358 149,358 Z" id="search-no-results--Path" fill="#000000" opacity="0.1"></path>
                <polygon id="search-no-results--Path" fill="#017FA3" points="165 174.359534 204 168 204 205 166.944935 203.056104"></polygon>
                <polygon id="search-no-results--Path" fill="#000000" opacity="0.05" points="165 174.359534 204 168 204 205 166.944935 203.056104"></polygon>
                <polygon id="search-no-results--Path" fill="#017FA3" points="204 168 250 171.507133 247.454408 203.705761 204 205"></polygon>
                <polygon id="search-no-results--Path" fill="#000000" opacity="0.1" points="204 168 250 171.507133 247.454408 203.705761 204 205"></polygon>
                <polygon id="search-no-results--Path" fill="#017FA3" points="218.270316 156 204 167.445473 250.414968 171 258 159.287037"></polygon>
                <polygon id="search-no-results--Path" fill="#017FA3" points="151 162.124618 186.03013 158 204 167.876604 165.088863 174"></polygon>
                <polygon id="search-no-results--Path" fill="#017FA3" points="213 177.197888 213 227 194.941947 225.151221 187.086919 224.351749 184.693865 224.101914 176.843843 223.297445 166 222.188178 166 174 204.544205 176.618271"></polygon>
                <polygon id="search-no-results--Path" fill="#017FA3" points="250 171 250 219.734891 235.441558 222.517593 228.361251 223.87134 212 227 212 177.026681"></polygon>
                <polygon id="search-no-results--Path" fill="#000000" opacity="0.05" points="250 171 250 219.734891 235.441558 222.517593 228.361251 223.87134 212 227 212 177.026681"></polygon>
                <polygon id="search-no-results--Path" fill="#017FA3" points="152 184.6031 165.967477 174 213 177.234501 206.07638 189"></polygon>
                <polygon id="search-no-results--Path" fill="#FFFFFF" opacity="0.1" points="152 184.6031 165.967477 174 213 177.234501 206.07638 189"></polygon>
                <polygon id="search-no-results--Path" fill="#017FA3" points="249.948382 171 212 177.006467 224.351077 188 265 181.223986"></polygon>
                <polygon id="search-no-results--Path" fill="#FFFFFF" opacity="0.1" points="249.948382 171 212 177.006467 224.351077 188 265 181.223986"></polygon>
                <polygon id="search-no-results--Path" fill="#FFFFFF" opacity="0.1" points="236 222.655044 229 224 229 213.653798 235.556899 212"></polygon>
                <polygon id="search-no-results--Path" fill="#FFFFFF" opacity="0.1" points="195 218 195 225 187 224.184862 187 218"></polygon>
                <polygon id="search-no-results--Path" fill="#FFFFFF" opacity="0.1" points="184 221 184 225 176 224.119015 176 221"></polygon>
                <path d="M207.497711,215.232896 C202.067316,222.187955 184.134384,217.382642 184.134384,217.382642 L170.808448,203.462409 L169,201.575691 L172.536071,195 C172.536071,195 173.546377,195.333843 175.233588,195.920597 C184.164694,199.046579 212.069346,209.380531 207.497711,215.232896 Z" id="search-no-results--Path" fill="#000000" opacity="0.1"></path>
                <path d="M207.497711,214.232896 C202.067316,221.187955 184.134384,216.382642 184.134384,216.382642 L170.808448,202.462409 L169,200.575691 L172.536071,194 C172.536071,194 173.546377,194.333843 175.233588,194.920597 C184.164694,198.046579 212.069346,208.380531 207.497711,214.232896 Z" id="search-no-results--Path" fill="#EFB7B9"></path>
                <path d="M175,194.870293 C174.290113,196.878661 172.486224,199.852959 170.740681,202 L169,200.216378 L172.403566,194 C172.403566,194 173.380875,194.315601 175,194.870293 Z" id="search-no-results--Path" fill="#000000" opacity="0.1"></path>
                <path d="M131.190221,117.086041 C131.190221,117.086041 118.12568,122.106917 118.001255,136.165371 C117.971519,145.224666 118.470077,154.277881 119.494346,163.278104 C119.494346,163.278104 115.76162,184.240263 126.337677,190.265314 C136.913734,196.290366 146.743246,201.311242 146.743246,201.311242 C146.743246,201.311242 163.640053,204.072724 165.715448,204.951378 C167.790844,205.830031 175.002471,194.533059 173.882653,192.650231 C172.762835,190.767402 157.379027,186.123091 155.552479,182.985044 C153.725932,179.846996 149.226753,177.733207 149.226753,177.733207 C149.226753,177.733207 144.637988,174.575076 144.453841,171.939115 C144.269693,169.303155 145.623428,167.420327 146.006655,166.29063 C146.389881,165.160932 147.778455,154.115004 147.778455,154.115004 C147.778455,154.115004 155.204092,114.927064 131.190221,117.086041 Z" id="search-no-results--Path" fill="#DCE6F2"></path>
                <path d="M137,163 C137,163 119.73656,164.939394 121.073869,171 C121.073869,171 127.633976,164.886061 137,163 Z" id="search-no-results--Path" fill="#000000" opacity="0.1"></path>
                <path d="M137,166 C137,166 127.463583,173.471637 129.214687,173.978189 C130.965791,174.48474 137,166 137,166 Z" id="search-no-results--Path" fill="#000000" opacity="0.1"></path>
                <path d="M141.9581,169 C141.9581,169 138.736859,174.264531 140.55756,173.989594 C142.378262,173.714657 141.9581,169 141.9581,169 Z" id="search-no-results--Path" fill="#000000" opacity="0.1"></path>
                <path d="M327.626726,56.0251853 C327.626726,56.0251853 309.000551,54.853426 311.176872,68.4949558 C311.176872,68.4949558 310.740628,70.9049935 312.833622,72 C312.833622,72 312.867933,70.9766294 314.745255,71.3296923 C315.413806,71.4471483 316.093333,71.4815001 316.769626,71.4320293 C317.686136,71.3682191 318.557348,70.9925698 319.249849,70.3626071 L319.249849,70.3626071 C319.249849,70.3626071 324.489686,68.106075 326.528762,59.1618161 C326.528762,59.1618161 328.038462,57.2071783 327.999249,56.7057267 L324.852406,58.1128613 C324.852406,58.1128613 325.925862,60.4819642 325.077881,62.4519525 C325.077881,62.4519525 324.979848,58.1998478 324.372047,58.297068 C324.249506,58.297068 322.739806,59.1208813 322.739806,59.1208813 C322.739806,59.1208813 324.587718,63.2450647 323.190755,66.2486574 C323.190755,66.2486574 323.720131,61.1625056 322.161414,59.4176588 L319.945879,60.7685079 C319.945879,60.7685079 322.107496,65.0308464 320.64191,68.5103063 C320.64191,68.5103063 321.019335,63.1734288 319.480225,61.0959865 L317.470559,62.7282626 C317.470559,62.7282626 319.504733,66.9343156 318.264622,69.8202207 C318.264622,69.8202207 318.102868,63.6083613 317.034314,63.1376108 C317.034314,63.1376108 315.279533,64.7545363 315.014845,65.4197272 C315.014845,65.4197272 316.402005,68.4898389 315.539319,70.0811802 C315.539319,70.0811802 315.009943,65.9416462 314.558994,65.9211788 C314.558994,65.9211788 312.809114,68.6638119 312.627753,70.5263464 C312.712502,68.7899481 313.231306,67.1069784 314.132552,65.6448687 C313.12403,65.844056 312.193568,66.3475048 311.456265,67.0929381 C311.456265,67.0929381 311.725854,65.1536508 314.563895,64.9847947 C314.563895,64.9847947 316.034383,62.9022356 316.397103,62.7743143 C316.397103,62.7743143 313.573767,62.5287053 311.8631,63.3218175 C311.8631,63.3218175 313.367899,61.495101 316.916675,62.2984469 L318.877325,60.6098855 C318.877325,60.6098855 315.161894,60.0982002 313.58357,60.6661709 C313.58357,60.6661709 315.397172,59.0492454 319.411602,60.2261215 L321.568317,58.8803892 C321.568317,58.8803892 318.401868,58.1640298 316.514742,58.4249893 C316.514742,58.4249893 318.504802,57.3043985 322.200627,58.5170927 L323.744639,57.7956164 C323.744639,57.7956164 321.421269,57.3197491 320.744844,57.2429963 C320.06842,57.1662435 320.029207,56.9718031 320.029207,56.9718031 C321.499052,56.7164264 323.007987,56.8936133 324.386752,57.4834884 C324.386752,57.4834884 327.695348,56.2400931 327.626726,56.0251853 Z" id="search-no-results--Path" fill="#017FA3"></path>
                <path d="M384.66907,123.025185 C384.66907,123.025185 365.995459,121.853426 368.177323,135.494956 C368.177323,135.494956 367.739967,137.904993 369.838292,139 C369.838292,139 369.87269,137.976629 371.759708,138.329692 C372.429961,138.447148 373.111218,138.4815 373.789234,138.432029 C374.697285,138.363477 375.559465,137.990012 376.246289,137.367724 L376.246289,137.367724 C376.246289,137.367724 381.504384,135.106075 383.548653,126.161816 C383.548653,126.161816 385.057285,124.212295 384.998315,123.710844 L381.843458,125.112861 C381.843458,125.112861 382.919647,127.481964 382.074421,129.451953 C382.074421,129.451953 381.971225,125.199848 381.366789,125.297068 C381.243937,125.297068 379.725477,126.120881 379.725477,126.120881 C379.725477,126.120881 381.58301,130.250182 380.182489,133.248657 C380.182489,133.248657 380.713213,128.162506 379.145612,126.417659 L376.949006,127.753157 C376.949006,127.753157 379.116128,132.015496 377.646809,135.494956 C377.646809,135.494956 378.025196,130.158078 376.482166,128.080636 L374.472296,129.718029 C374.472296,129.718029 376.506736,133.918965 375.268381,136.80487 C375.268381,136.80487 375.106215,130.593011 374.03494,130.12226 C374.03494,130.12226 372.275689,131.739186 372.005413,132.404377 C372.005413,132.404377 373.40102,135.474488 372.536137,137.06583 C372.536137,137.06583 372.005413,132.926296 371.553315,132.905828 C371.553315,132.905828 369.798979,135.648461 369.617157,137.510996 C369.704953,135.774385 370.226674,134.091735 371.130702,132.629518 C370.118335,132.829191 369.184053,133.332501 368.442685,134.077588 C368.442685,134.077588 368.717875,132.1383 371.563143,131.969444 C371.563143,131.969444 373.012805,129.886885 373.40102,129.758964 C373.40102,129.758964 370.570494,129.513355 368.85547,130.306467 C368.85547,130.306467 370.364101,128.47975 373.917001,129.308681 L375.882645,127.620119 C375.882645,127.620119 372.152836,127.108434 370.575408,127.676405 C370.575408,127.676405 372.393628,126.059479 376.418282,127.236355 L378.58049,125.890623 C378.58049,125.890623 375.401062,125.17938 373.50913,125.435223 C373.50913,125.435223 375.509172,124.314632 379.21441,125.527326 L380.762354,124.80585 C380.762354,124.80585 378.433067,124.329983 377.750006,124.25323 C377.066945,124.176477 377.032546,123.982037 377.032546,123.982037 C378.507748,123.726507 380.022143,123.903684 381.406102,124.493722 C381.406102,124.493722 384.728039,123.240093 384.66907,123.025185 Z" id="search-no-results--Path" fill="#017FA3" opacity="0.1"></path>
                <path d="M269.306965,111.78015 C269.306965,111.78015 273.796274,93.2477647 259.923027,93.1828089 C259.923027,93.1828089 257.619371,92.3433803 256.1674,94.2620742 C256.1674,94.2620742 257.157613,94.4669348 256.485499,96.29569 C256.253046,96.9423581 256.098099,97.613019 256.023742,98.2943295 C255.924359,99.2231037 256.138712,100.158105 256.634288,100.957517 L256.634288,100.957517 C256.634288,100.957517 257.93234,106.603673 266.382501,110.141265 C266.382501,110.141265 268.044828,111.980014 268.547631,112 L267.726728,108.607309 C267.726728,108.607309 265.192193,109.291843 263.396469,108.10765 C263.396469,108.10765 267.618985,108.712238 267.624116,108.10765 C267.624116,107.982735 267.111052,106.32886 267.111052,106.32886 C267.111052,106.32886 262.703833,107.498064 259.984595,105.59436 C259.984595,105.59436 264.915138,106.973422 266.921218,105.699289 L265.997703,103.240962 C265.997703,103.240962 261.380129,104.704966 258.219655,102.651364 C258.219655,102.651364 263.427253,103.9205 265.756563,102.721316 L264.499557,100.432874 C264.499557,100.432874 259.984595,101.771962 257.352577,100.048136 C257.352577,100.048136 263.509344,100.917544 264.176327,99.9282173 C264.176327,99.9282173 262.893667,97.8946016 262.283121,97.5148601 C262.283121,97.5148601 259.020035,98.4042546 257.583456,97.2700267 C257.583456,97.2700267 261.764926,97.4249213 261.862409,96.9952138 C261.862409,96.9952138 259.4664,94.7817205 257.639893,94.2820606 C259.342024,94.6594871 260.913948,95.4619386 262.201031,96.6104757 C262.182216,95.5632902 261.850611,94.5441143 261.246732,93.6774722 C261.246732,93.6774722 263.114284,94.277064 262.785924,97.1750913 C262.785924,97.1750913 264.581647,98.9738669 264.638084,99.383588 C264.638084,99.383588 265.382027,96.5904893 264.904877,94.7367511 C264.904877,94.7367511 266.444069,96.5555131 264.992098,99.9781833 L266.305542,102.251636 C266.305542,102.251636 267.49585,98.6041186 267.193142,96.9252614 C267.193142,96.9252614 268.470671,99.0138397 266.587727,102.851228 L267.536895,105.244598 C267.536895,105.244598 268.804162,102.176687 268.886253,100.248 C268.886253,100.248 269.640457,102.43651 267.778035,105.949119 L268.21927,107.617983 C268.21927,107.617983 269.10174,105.364517 269.296704,104.694973 C269.491668,104.025428 269.691763,104.020432 269.691763,104.020432 C269.683944,105.540536 269.241574,107.028483 268.414234,108.317507 C268.414234,108.317507 269.086348,111.805133 269.306965,111.78015 Z" id="search-no-results--Path" fill="#017FA3" opacity="0.1"></path>
                <path d="M228,117.856339 C228,117.856339 212.46942,106.314922 206.917696,118.81686 C206.917696,118.81686 205.223173,120.560964 206.439362,122.648833 C206.439362,122.648833 207.019469,121.834918 208.474825,123.184703 C208.990316,123.66114 209.560832,124.075199 210.174436,124.418214 C211.005548,124.877967 211.965062,125.055479 212.907044,124.923751 L212.907044,124.923751 C212.907044,124.923751 218.687758,126.030878 225.343721,119.807713 C225.343721,119.807713 227.720124,119.049407 227.944025,118.604535 L224.43794,117.992834 C224.43794,117.992834 224.071557,120.555909 222.265084,121.703478 C222.265084,121.703478 224.499004,118.134385 223.918897,117.876561 C223.801858,117.820952 222.05136,117.623792 222.05136,117.623792 C222.05136,117.623792 221.400012,122.082631 218.550365,123.766071 C218.550365,123.766071 221.791839,119.868378 221.389835,117.542906 L218.728468,117.401356 C218.728468,117.401356 218.275577,122.148351 215.100255,124.190722 C215.100255,124.190722 218.34173,119.999818 218.153449,117.411466 L215.517525,117.623792 C215.517525,117.623792 214.983216,122.239348 212.332026,123.917732 C212.332026,123.917732 215.583678,118.700587 214.917064,117.709734 C214.917064,117.709734 212.510129,118.048444 211.914756,118.442763 C211.914756,118.442763 211.451689,121.748977 209.823319,122.588169 C209.823319,122.588169 211.629792,118.872469 211.263408,118.614645 C211.263408,118.614645 208.245835,119.883544 207.060178,121.329381 C208.085823,119.945032 209.457497,118.850687 211.039508,118.154606 C210.055184,117.748172 208.972917,117.635734 207.92525,117.831062 C207.92525,117.831062 209.217768,116.385226 211.772274,117.856339 C211.772274,117.856339 214.163943,116.961538 214.571035,117.072756 C214.571035,117.072756 212.255696,115.267988 210.337273,114.954555 C210.337273,114.954555 212.647523,114.297357 215.268181,116.976704 L217.909194,116.70877 C217.909194,116.70877 214.973039,114.181083 213.288694,113.756432 C213.288694,113.756432 215.746515,113.448054 218.580897,116.693603 L221.186289,116.809877 C221.186289,116.809877 218.830241,114.423741 217.0543,113.564327 C217.0543,113.564327 219.389993,113.766542 221.934321,116.865486 L223.669553,117.143532 C223.669553,117.143532 221.913967,115.434816 221.364392,114.989943 C220.814817,114.54507 220.891147,114.358021 220.891147,114.358021 C222.306804,114.980809 223.520587,115.981887 224.397231,117.249695 C224.397231,117.249695 227.933847,118.06361 228,117.856339 Z" id="search-no-results--Path" fill="#017FA3" opacity="0.1"></path>
                <path d="M279,10.8597577 C279,10.8597577 263.46942,-0.689510493 257.917696,11.8205112 C257.917696,11.8205112 256.223173,13.5650372 257.439362,15.6534119 C257.439362,15.6534119 258.019469,14.8392997 259.474825,16.1894112 C259.993016,16.6635027 260.56512,17.0758767 261.179525,17.4181643 C262.010508,17.8783817 262.970142,18.0559586 263.912133,17.9238241 L263.912133,17.9238241 C263.912133,17.9238241 269.692847,19.0312189 276.34881,12.801491 C276.34881,12.801491 278.725213,12.048058 278.944025,11.5980209 L275.43794,10.9962858 C275.43794,10.9962858 275.076646,13.5599806 273.265084,14.7078282 C273.265084,14.7078282 275.504093,11.1378705 274.923986,10.8799841 C274.806947,10.8243615 273.056449,10.6271542 273.056449,10.6271542 C273.056449,10.6271542 272.384746,15.0971862 269.535099,16.7709199 C269.535099,16.7709199 272.771484,12.8722834 272.374569,10.5462486 L269.713202,10.4046639 C269.713202,10.4046639 269.255223,15.1528088 266.08499,17.1906175 C266.08499,17.1906175 269.326464,12.9986983 269.138183,10.4097205 L266.507348,10.6220976 C266.507348,10.6220976 265.96795,15.2438275 263.31676,16.9226178 C263.31676,16.9226178 266.573501,11.7042094 265.906887,10.7131164 C265.906887,10.7131164 263.499952,11.0519084 262.904579,11.446323 C262.904579,11.446323 262.441511,14.7533376 260.813141,15.5927327 C260.813141,15.5927327 262.619614,11.8761337 262.253231,11.6131907 C262.253231,11.6131907 259.235658,12.8874532 258.050001,14.33364 C259.074095,12.9474796 260.446204,11.8525237 262.02933,11.1580969 C261.043995,10.7485405 259.959203,10.6359967 258.909984,10.8344747 C258.909984,10.8344747 260.207591,9.38828787 262.762097,10.8597577 C262.762097,10.8597577 265.153765,9.95968337 265.560858,10.0759851 C265.560858,10.0759851 263.245519,8.27077988 261.327096,7.95221425 C261.327096,7.95221425 263.632257,7.2999132 266.252915,9.97485316 L268.893928,9.7068535 C268.893928,9.7068535 265.962862,7.17855486 264.273428,6.7487441 C264.273428,6.7487441 266.731249,6.44534826 269.570719,9.69168371 L272.176111,9.80292885 C272.176111,9.80292885 269.820063,7.41621494 268.039034,6.56165 C268.039034,6.56165 270.379816,6.76391389 272.924144,9.86360802 L274.654287,10.1417209 C274.654287,10.1417209 272.893612,8.45281738 272.344037,8.01795001 C271.794462,7.58308265 271.870792,7.39093195 271.870792,7.39093195 C273.286876,8.01318704 274.50083,9.01464831 275.376876,10.2833056 C275.376876,10.2833056 278.913493,11.0519084 279,10.8597577 Z" id="search-no-results--Path" fill="#017FA3" opacity="0.1"></path>
                <path d="M337,25.3801825 C337,25.3801825 330.942403,7.65706612 319.517378,14.6216472 C319.517378,14.6216472 317.183714,15.1124563 317,17.4241671 C317,17.4241671 317.91857,17.0904169 318.32572,18.9554915 C318.476986,19.6189278 318.705244,20.2628802 319.005958,20.8745551 C319.416329,21.6977475 320.085212,22.3675401 320.912612,22.7838024 L320.912612,22.7838024 C320.912612,22.7838024 324.944389,26.8329775 333.762661,25.4930686 C333.762661,25.4930686 336.09136,26.1900176 336.518371,25.9495211 L334.03575,23.5396484 C334.03575,23.5396484 332.317776,25.3899987 330.222443,25.3163774 C330.222443,25.3163774 334.010924,23.6868912 333.698113,23.1617254 C333.633565,23.0586555 332.337637,21.9445189 332.337637,21.9445189 C332.337637,21.9445189 329.328699,25.1495023 326.101291,24.9384544 C326.101291,24.9384544 330.87289,23.5936374 331.846077,21.5027907 L329.790467,19.9371097 C329.790467,19.9371097 326.781529,23.4807513 323.092354,23.3727733 C323.092354,23.3727733 328.057597,21.7972762 329.313803,19.6180838 L327.079444,18.3468882 C327.079444,18.3468882 324.100298,21.7481952 321.011917,21.6402172 C321.011917,21.6402172 326.533267,19.2499769 326.548163,18.0916675 C326.548163,18.0916675 324.428004,17.0462441 323.727905,17.0364279 C323.727905,17.0364279 321.513406,19.4266682 319.75571,19.2107122 C319.75571,19.2107122 323.271102,17.2229354 323.122145,16.8155638 C323.122145,16.8155638 319.994042,16.1824201 318.23138,16.6928616 C319.82565,16.1441662 321.537392,16.0172632 323.196624,16.3247547 C322.63003,15.4604316 321.820769,14.7781748 320.867925,14.3615184 C320.867925,14.3615184 322.714995,13.9148821 323.951341,16.4867217 C323.951341,16.4867217 326.374379,17.0806007 326.632572,17.3898105 C326.632572,17.3898105 325.77855,14.6854524 324.413108,13.3799002 C324.413108,13.3799002 326.632572,14.1210219 327.238332,17.7088364 L329.512413,18.9358591 C329.512413,18.9358591 328.573982,15.2989637 327.441907,14.0277682 C327.441907,14.0277682 329.591857,15.1271805 330.05859,19.2745174 L332.09434,20.7911175 C332.09434,20.7911175 331.528302,17.5910422 330.574975,15.9321075 C330.574975,15.9321075 332.342602,17.3750862 332.660377,21.24757 L333.896723,22.4156956 C333.896723,22.4156956 333.439921,20.0892605 333.251241,19.4315763 C333.062562,18.7738921 333.216485,18.7297193 333.216485,18.7297193 C334.005812,20.0029465 334.4234,21.4672137 334.423039,22.9604937 C334.423039,22.9604937 336.826216,25.5077929 337,25.3801825 Z" id="search-no-results--Path" fill="#017FA3" opacity="0.1"></path>
                <path d="M297.651001,27.1207738 C297.651001,27.1207738 278.512182,25.0044835 280.092776,38.4895658 C280.092776,38.4895658 279.522146,40.826512 281.607722,42 C281.607722,42 281.693569,40.9970188 283.62765,41.4483603 C284.311161,41.5944127 285.009087,41.6633863 285.708176,41.6539715 C286.652486,41.6370354 287.565497,41.3148494 288.308834,40.7362437 L288.308834,40.7362437 C288.308834,40.7362437 293.818188,38.7954751 296.388546,30.1447622 C296.388546,30.1447622 298.034788,28.3143215 297.999439,27.8178458 L294.691806,29.031453 C294.691806,29.031453 295.701771,31.4035036 294.691806,33.2891082 C294.691806,33.2891082 294.797853,29.1217213 294.186824,29.1869151 C294.060579,29.1869151 292.464836,29.9090616 292.464836,29.9090616 C292.464836,29.9090616 294.161575,34.0463591 292.575932,36.92993 C292.575932,36.92993 293.373803,31.9752029 291.853807,30.1898963 L289.505641,31.3934738 C289.505641,31.3934738 291.525569,35.6812184 289.833879,39.011116 C289.833879,39.011116 290.490356,33.8056436 289.010759,31.6943681 L286.864585,33.1988399 C286.864585,33.1988399 288.743118,37.4163759 287.324119,40.1795891 C287.324119,40.1795891 287.470563,34.0914932 286.394952,33.5749579 C286.394952,33.5749579 284.506319,35.0794297 284.19828,35.701278 C284.19828,35.701278 285.475884,38.7603707 284.511369,40.289917 C284.511369,40.289917 284.173031,36.2127985 283.728646,36.1726792 C283.728646,36.1726792 281.789515,38.7653856 281.506726,40.5958263 C281.681892,38.8987956 282.301716,37.276955 283.304462,35.8918445 C282.256577,36.0356516 281.27375,36.4800947 280.476562,37.1706455 C280.476562,37.1706455 280.850249,35.2900557 283.779145,35.2699961 C283.779145,35.2699961 285.369838,33.3091679 285.799073,33.2038548 C285.799073,33.2038548 282.905526,32.8177071 281.10274,33.5047492 C281.10274,33.5047492 282.743931,31.7896513 286.349503,32.7876176 L288.475478,31.2380117 C288.475478,31.2380117 284.632564,30.4657162 283.006522,30.9672068 C283.006522,30.9672068 284.955753,29.4627349 289.025908,30.8418341 L291.313477,29.6332418 C291.313477,29.6332418 288.086641,28.7706779 286.132361,28.92614 C286.132361,28.92614 288.238136,27.9231588 291.980053,29.3122878 L293.606095,28.6854245 C293.606095,28.6854245 291.237729,28.0986805 290.540854,27.9883526 C289.843979,27.8780246 289.81873,27.6874582 289.81873,27.6874582 C291.34536,27.5135092 292.890656,27.7634912 294.282771,28.4096047 C294.282771,28.4096047 297.68635,27.3313999 297.651001,27.1207738 Z" id="search-no-results--Path" fill="#017FA3" opacity="0.1"></path>
                <path d="M463.665683,174.121099 C463.665683,174.121099 444.510142,172.002713 446.092952,185.48609 C446.092952,185.48609 445.521523,187.82535 447.610023,189 C447.610023,189 447.69599,187.996026 449.632783,188.442794 C450.31646,188.593945 451.015949,188.663044 451.716226,188.648609 C452.66233,188.634233 453.577424,188.311444 454.32053,187.729972 L454.32053,187.729972 C454.32053,187.729972 459.837609,185.787282 462.386287,177.133022 C462.386287,177.133022 464.034836,175.295749 463.999438,174.803802 L460.687168,176.013591 C460.687168,176.013591 461.698548,178.39301 460.687168,180.280482 C460.687168,180.280482 460.793363,176.103948 460.181478,176.174227 C460.055055,176.174227 458.457075,176.892068 458.457075,176.892068 C458.457075,176.892068 460.156193,181.033463 458.568327,183.919889 C458.568327,183.919889 459.367317,178.965276 457.84519,177.173181 L455.493731,178.38297 C455.493731,178.38297 457.516491,182.674961 455.827486,186.008156 C455.827486,186.008156 456.479827,180.797529 454.998155,178.679143 L452.848972,180.185105 C452.848972,180.185105 454.730139,184.406817 453.30915,187.167747 C453.30915,187.167747 453.4558,181.073622 452.37868,180.561595 C452.37868,180.561595 450.492456,182.067557 450.178928,182.690021 C450.178928,182.690021 451.463381,185.752143 450.492456,187.283204 C450.492456,187.283204 450.153644,183.202048 449.708636,183.161889 C449.708636,183.161889 447.766787,185.757163 447.4836,187.589416 C447.659012,185.890705 448.279705,184.267258 449.283857,182.880776 C448.233753,183.022154 447.248836,183.467359 446.451992,184.160843 C446.451992,184.160843 446.826203,182.273371 449.759205,182.253292 C449.759205,182.253292 451.357186,180.290522 451.781966,180.190124 C451.781966,180.190124 448.884362,179.798574 447.079048,180.486297 C447.079048,180.486297 448.722541,178.77452 452.338225,179.773475 L454.462123,178.222335 C454.462123,178.222335 450.659334,177.509513 449.005727,178.00146 C449.005727,178.00146 450.957691,176.495499 455.033553,177.870943 L457.324329,176.666174 C457.324329,176.666174 454.092969,175.802756 452.135949,175.958372 C452.135949,175.958372 454.244676,174.954398 457.99184,176.344902 L459.620162,175.712398 C459.620162,175.712398 457.248475,175.125073 456.550623,175.019656 C455.852771,174.914239 455.827486,174.718464 455.827486,174.718464 C457.355823,174.541183 458.903702,174.789742 460.297787,175.436306 C460.297787,175.436306 463.716252,174.336954 463.665683,174.121099 Z" id="search-no-results--Path" fill="#017FA3" opacity="0.1"></path>
                <path d="M492.685391,192.12045 C492.685391,192.12045 473.50848,190.006992 475.093056,203.485936 C475.093056,203.485936 474.526051,205.825299 476.611819,207 C476.611819,207 476.697882,205.995982 478.636836,206.44779 C479.320092,206.595225 480.018438,206.662621 480.717541,206.648594 C481.659897,206.629471 482.570816,206.309009 483.314625,205.734937 L483.314625,205.734937 C483.314625,205.734937 488.832796,203.792162 491.384318,195.132505 C491.384318,195.132505 493.039769,193.300171 492.999269,192.803182 L489.683303,194.013024 C489.683303,194.013024 490.695812,196.392548 489.683303,198.280102 C489.683303,198.280102 489.789617,194.108406 489.177049,194.173667 C489.050486,194.173667 487.450722,194.89154 487.450722,194.89154 C487.450722,194.89154 489.151737,199.033115 487.562098,201.919668 C487.562098,201.919668 488.36198,196.964838 486.838155,195.177686 L484.484072,196.382507 C484.484072,196.382507 486.509089,200.674685 484.8182,204.008026 C484.8182,204.008026 485.471268,198.797171 483.987943,196.683713 L481.836363,198.18974 C481.836363,198.18974 483.719628,202.411637 482.302117,205.177707 C482.302117,205.177707 482.443868,199.078296 481.365546,198.566247 C481.365546,198.566247 479.477218,200.072274 479.16334,200.694766 C479.16334,200.694766 480.449226,203.757021 479.477218,205.288149 C479.477218,205.288149 479.138028,201.206815 478.692524,201.166654 C478.692524,201.166654 476.748507,203.762041 476.470068,205.594374 C476.64533,203.896335 477.264846,202.273142 478.26727,200.885529 C477.216746,201.029485 476.231442,201.474387 475.432246,202.165652 C475.432246,202.165652 475.811937,200.278098 478.748212,200.263038 C478.748212,200.263038 480.342913,198.300182 480.773229,198.19476 C480.773229,198.19476 477.872392,197.808213 476.065064,198.495966 C476.065064,198.495966 477.710391,196.779095 481.330108,197.778093 L483.456376,196.226885 C483.456376,196.226885 479.649344,195.514032 477.993893,196.006001 C477.993893,196.006001 479.948034,194.499973 484.028444,195.880498 L486.321775,194.670656 C486.321775,194.670656 483.086811,193.807201 481.127607,193.962823 C481.127607,193.962823 483.238687,192.958805 486.990031,194.34937 L488.62017,193.721859 C488.62017,193.721859 486.245837,193.134508 485.552269,193.024066 C484.858701,192.913624 484.823263,192.722861 484.823263,192.722861 C486.353739,192.548732 487.902928,192.798973 489.29855,193.445754 C489.29855,193.445754 492.736017,192.336314 492.685391,192.12045 Z" id="search-no-results--Path" fill="#017FA3" opacity="0.1"></path>
                <path d="M428,42.8563393 C428,42.8563393 412.46942,31.3149221 406.917696,43.8168603 C406.917696,43.8168603 405.223173,45.5609641 406.439362,47.6488332 C406.439362,47.6488332 407.019469,46.8349181 408.474825,48.1847028 C408.990316,48.6611404 409.560832,49.075199 410.174436,49.4182139 C411.005676,49.8776148 411.96507,50.0551045 412.907044,49.9237512 L412.907044,49.9237512 C412.907044,49.9237512 418.687758,51.030878 425.34881,44.8077134 C425.34881,44.8077134 427.720124,44.0494074 427.944025,43.6045346 L424.448118,42.9776683 C424.448118,42.9776683 424.081734,45.5407426 422.275261,46.6883123 C422.275261,46.6883123 424.509182,43.1192188 423.929075,42.8613947 C423.812036,42.8057856 422.066626,42.6086261 422.066626,42.6086261 C422.066626,42.6086261 421.41019,47.0674653 418.560542,48.7509046 C418.560542,48.7509046 421.802016,44.8532118 421.400012,42.5277401 L418.738645,42.3861896 C418.738645,42.3861896 418.285755,47.1331852 415.110433,49.175556 C415.110433,49.175556 418.356996,44.9846515 418.163627,42.3963004 L415.527703,42.6086261 C415.527703,42.6086261 415.018837,47.2241819 412.342204,48.9025658 C412.342204,48.9025658 415.598944,43.6854206 414.927241,42.6945674 C414.927241,42.6945674 412.520307,43.0332774 411.924934,43.4275965 C411.924934,43.4275965 411.466955,46.7338107 409.838585,47.5730026 C409.838585,47.5730026 411.639969,43.8573033 411.273586,43.5994792 C411.273586,43.5994792 408.256012,44.8683779 407.070355,46.3142147 C408.096,44.9298654 409.467674,43.8355212 411.049685,43.1394402 C410.065361,42.7330057 408.983095,42.6205678 407.935427,42.8158964 C407.935427,42.8158964 409.233034,41.3700596 411.78754,42.8411732 C411.78754,42.8411732 414.17412,41.9463721 414.581213,42.0575904 C414.581213,42.0575904 412.265874,40.2528221 410.34745,39.9393889 C410.34745,39.9393889 412.6577,39.2821904 415.278358,41.9615383 L417.919371,41.6936035 C417.919371,41.6936035 414.988305,39.1659168 413.298871,38.7412655 C413.298871,38.7412655 415.756692,38.4328877 418.591074,41.6784374 L421.201555,41.7947109 C421.201555,41.7947109 418.840418,39.4085748 417.064477,38.5491613 C417.064477,38.5491613 419.405259,38.7513762 421.944499,41.8503201 L423.679731,42.1283656 C423.679731,42.1283656 421.924144,40.4196494 421.374569,39.9747766 C420.824994,39.5299037 420.906413,39.3832979 420.906413,39.3832979 C422.320065,40.007102 423.531948,41.008066 424.407408,42.2749714 C424.407408,42.2749714 427.933847,43.0636096 428,42.8563393 Z" id="search-no-results--Path" fill="#017FA3" opacity="0.1"></path>
                <path d="M440,125.367522 C440,125.367522 434.674766,106.770428 422.698051,113.446698 C422.698051,113.446698 420.298659,113.81732 420,116.223824 C420,116.223824 420.951658,115.92428 421.280688,117.868776 C421.402697,118.567347 421.606592,119.249009 421.88813,119.89958 C422.263597,120.774441 422.914301,121.501965 423.740825,121.971001 L423.740825,121.971001 C423.740825,121.971001 427.658821,126.337231 436.69957,125.362445 C436.69957,125.362445 439.038218,126.184921 439.483675,125.961533 L437.089344,123.351948 C437.089344,123.351948 435.251835,125.189827 433.125791,125.017208 C433.125791,125.017208 437.05391,123.494105 436.75019,122.950865 C436.689446,122.83917 435.423943,121.625764 435.423943,121.625764 C435.423943,121.625764 432.214629,124.803974 428.934447,124.433352 C428.934447,124.433352 433.859782,123.265639 434.943052,121.163756 L432.918249,119.447726 C432.918249,119.447726 429.688686,122.971173 425.937737,122.697014 C425.937737,122.697014 431.040243,121.290682 432.447482,119.10249 L430.230321,117.686003 C430.230321,117.686003 427.015945,121.062216 423.897747,120.808366 C423.897747,120.808366 429.633004,118.589711 429.703872,117.396614 C429.703872,117.396614 427.587952,116.218747 426.874209,116.178131 C426.874209,116.178131 424.510251,118.544018 422.713237,118.239398 C422.713237,118.239398 426.388256,116.345672 426.256644,115.919203 C426.256644,115.919203 423.09795,115.122112 421.280688,115.563812 C422.926587,115.074301 424.671282,115.023555 426.342698,115.416579 C425.807329,114.497923 425.015437,113.756634 424.064794,113.284234 C424.064794,113.284234 425.968109,112.903458 427.101999,115.619659 C427.101999,115.619659 429.536826,116.340595 429.789927,116.675678 C429.789927,116.675678 429.045811,113.837628 427.714503,112.431296 C427.714503,112.431296 429.941787,113.294388 430.392306,117.031069 L432.649962,118.406939 C432.649962,118.406939 431.860289,114.59918 430.766894,113.258849 C430.766894,113.258849 432.903063,114.492563 433.191597,118.797869 L435.216401,120.458052 C435.216401,120.458052 434.78613,117.127532 433.895216,115.38104 C433.895216,115.38104 435.631486,116.954914 435.773222,120.965753 L436.97798,122.235006 C436.97798,122.235006 436.62364,119.808194 436.471779,119.117721 C436.319919,118.427247 436.471779,118.330784 436.471779,118.330784 C437.220848,119.681229 437.580173,121.214205 437.509491,122.757938 C437.509491,122.757938 439.817768,125.48937 440,125.367522 Z" id="search-no-results--Path" fill="#017FA3" opacity="0.1"></path>
                <path d="M323,166.486896 C323,166.486896 312.564264,150.472432 302.874303,160.057223 C302.874303,160.057223 300.657412,161.052529 301.045623,163.416379 C301.045623,163.416379 301.888451,162.868961 302.756818,164.610745 C303.068845,165.228015 303.456475,165.806186 303.911236,166.332624 C304.52029,167.051149 305.35486,167.554735 306.286477,167.765863 L306.286477,167.765863 C306.286477,167.765863 311.317901,170.791592 319.797256,167.367741 C319.797256,167.367741 322.29509,167.497131 322.662869,167.163704 L319.598042,165.372154 C319.598042,165.372154 318.336355,167.611591 316.226733,168.034596 C316.226733,168.034596 319.608258,165.546332 319.153642,165.088492 C319.066805,164.998915 317.493528,164.212623 317.493528,164.212623 C317.493528,164.212623 315.281744,168.084361 312.002379,168.646709 C312.002379,168.646709 316.44127,166.183328 316.900994,163.904079 L314.454241,162.854031 C314.454241,162.854031 312.324186,167.059197 308.615746,167.830558 C308.615746,167.830558 313.161906,165.098445 313.902572,162.649994 L311.34855,161.933374 C311.34855,161.933374 309.192955,165.999196 306.102588,166.621262 C306.102588,166.621262 311.026743,162.948585 310.756017,161.803984 C310.756017,161.803984 308.375668,161.281449 307.69119,161.440698 C307.69119,161.440698 306.071939,164.322107 304.243259,164.531121 C304.243259,164.531121 307.267222,161.734313 307.016928,161.36605 C307.016928,161.36605 303.732455,161.490463 302.097881,162.411121 C303.555951,161.490833 305.23613,160.95892 306.970955,160.868397 C306.194242,160.152193 305.219433,159.673013 304.166639,159.489899 C304.166639,159.489899 305.898266,158.609054 307.74227,160.848491 C307.74227,160.848491 310.296293,160.848491 310.648748,161.097317 C310.648748,161.097317 309.116334,158.609054 307.435787,157.678443 C307.435787,157.678443 309.836568,157.877504 311.328118,161.266519 L313.90768,161.933374 C313.90768,161.933374 312.063676,158.574218 310.628315,157.613749 C310.628315,157.613749 313.044421,158.181073 314.541078,162.157318 L316.952075,163.152623 C316.952075,163.152623 315.593335,160.141824 314.229487,158.733467 C314.229487,158.733467 316.354434,159.728772 317.626337,163.466144 L319.15875,164.327083 C319.15875,164.327083 318.137141,162.142388 317.77447,161.540228 C317.411799,160.938069 317.554824,160.798726 317.554824,160.798726 C318.660176,161.862446 319.440115,163.20469 319.807472,164.67544 C319.807472,164.67544 322.862083,166.656098 323,166.486896 Z" id="search-no-results--Path" fill="#017FA3" opacity="0.1"></path>
                <path d="M389,83.8345827 C389,83.8345827 379.475461,67.6071496 369.882294,76.8417913 C369.882294,76.8417913 367.725424,77.7820817 368.029347,80.1278588 C368.029347,80.1278588 368.847977,79.6032758 369.632293,81.3601342 C369.912759,81.9846504 370.266609,82.5728441 370.686218,83.1120437 C371.249132,83.8418449 372.034857,84.3637175 372.921519,84.5967128 L372.921519,84.5967128 C372.921519,84.5967128 377.651926,87.754109 385.892147,84.5967128 C385.892147,84.5967128 388.284312,84.7996176 388.647058,84.4779393 L385.769598,82.6072562 C385.769598,82.6072562 384.495084,84.7897198 382.455862,85.1509892 C382.455862,85.1509892 385.7745,82.760672 385.357832,82.3103224 C385.269596,82.2162934 383.7892,81.3848787 383.7892,81.3848787 C383.7892,81.3848787 381.548997,85.1707848 378.397026,85.6310322 C378.397026,85.6310322 382.730373,83.3149485 383.235276,81.0681493 L380.921544,79.9694941 C380.921544,79.9694941 378.749968,84.0919253 375.166624,84.7501286 C375.166624,84.7501286 379.612716,82.1717533 380.397032,79.7616405 L377.975456,78.969817 C377.975456,78.969817 375.779371,82.9289345 372.798969,83.4733132 C372.798969,83.4733132 377.632318,79.9694941 377.406827,78.826299 C377.406827,78.826299 375.142114,78.2324313 374.465641,78.3710004 C374.465641,78.3710004 372.823479,81.1869228 371.06367,81.3403386 C371.06367,81.3403386 374.048973,78.6580365 373.823482,78.2819203 C373.823482,78.2819203 370.66661,78.3066648 369.073468,79.1727217 C370.500614,78.303656 372.127854,77.825994 373.794071,77.7870306 C373.06951,77.0513625 372.147702,76.5456222 371.142102,76.3320549 C371.142102,76.3320549 372.833283,75.5055891 374.573485,77.7870306 C374.573485,77.7870306 377.024473,77.8711618 377.352905,78.1235556 C377.352905,78.1235556 375.965646,75.6491071 374.377406,74.6296343 C374.377406,74.6296343 376.67153,74.8968748 377.999966,78.3116137 L380.450954,79.0539482 C380.450954,79.0539482 378.789184,75.6590049 377.436239,74.6593277 C377.436239,74.6593277 379.740167,75.2977354 381.053897,79.2914953 L383.333316,80.3654059 C383.333316,80.3654059 382.122528,77.3317321 380.882328,75.9113987 C380.882328,75.9113987 382.887236,76.9655137 383.999985,80.7167776 L385.436263,81.6174768 C385.436263,81.6174768 384.514692,79.4152177 384.191162,78.8065034 C383.867631,78.197789 384.004886,78.0641688 384.004886,78.0641688 C385.032429,79.1545135 385.740064,80.5113772 386.04901,81.9836952 C386.04901,81.9836952 388.857843,83.9978963 389,83.8345827 Z" id="search-no-results--Path" fill="#017FA3"></path>
                <path d="M327.997549,118.607263 C327.997549,118.607263 328.494213,99.5768135 315.347516,102.259058 C315.347516,102.259058 312.993328,101.894433 312,104.062206 C312,104.062206 312.993328,104.062206 312.715196,105.98523 C312.624211,106.670928 312.614208,107.365044 312.685396,108.053106 C312.775181,108.986384 313.167879,109.864008 313.80289,110.55054 L313.80289,110.55054 C313.80289,110.55054 316.171978,115.815131 324.918232,117.603294 C324.918232,117.603294 326.860188,119.076781 327.346919,118.996863 L325.856927,115.840106 C325.856927,115.840106 323.597106,117.008905 321.655149,116.214721 C321.655149,116.214721 325.777461,115.969972 325.663228,115.360598 C325.663228,115.235727 324.808966,113.717287 324.808966,113.717287 C324.808966,113.717287 320.865453,115.740208 317.910302,114.411573 C317.910302,114.411573 322.876943,114.786189 324.501034,113.142877 L323.115341,110.93015 C323.115341,110.93015 319.052629,113.267748 315.625648,111.889165 C315.625648,111.889165 320.815787,112.098949 322.782576,110.465627 L321.128685,108.46768 C321.128685,108.46768 317.120606,110.675412 314.279688,109.506612 C314.279688,109.506612 320.299256,109.141987 320.736321,108.038121 C320.736321,108.038121 319.107263,106.304902 318.451666,106.040174 C318.451666,106.040174 315.541215,107.538634 313.95189,106.729465 C313.95189,106.729465 317.925202,106.060153 317.950035,105.61561 C317.950035,105.61561 315.233283,103.922349 313.400593,103.797478 C315.09054,103.827863 316.743053,104.303185 318.193401,105.176061 C317.96712,104.155111 317.449252,103.222859 316.703409,102.493817 C316.703409,102.493817 318.595699,102.708596 318.853964,105.590635 C318.853964,105.590635 320.925053,106.999188 321.059152,107.388788 C321.059152,107.388788 321.203185,104.506749 320.373756,102.788514 C320.373756,102.788514 322.20148,104.262 321.516083,107.898265 L323.219641,109.866243 C323.219641,109.866243 323.607039,106.060153 322.986209,104.47678 C322.986209,104.47678 324.615267,106.269938 323.612005,110.395699 L324.987765,112.548487 C324.987765,112.548487 325.573828,109.296828 325.26093,107.383793 C325.26093,107.383793 326.413191,109.381741 325.360263,113.182836 L326.115192,114.731245 C326.115192,114.731245 326.497624,112.348693 326.54729,111.654406 C326.596956,110.960119 326.785689,110.915165 326.785689,110.915165 C327.084666,112.405181 326.966019,113.949442 326.442991,115.375583 C326.442991,115.375583 327.779017,118.672196 327.997549,118.607263 Z" id="search-no-results--Path" fill="#017FA3"></path>
                <ellipse id="search-no-results--Oval" fill="#017FA3" opacity="0.1" cx="350.5" cy="359.5" rx="13.5" ry="2.5"></ellipse>
                <ellipse id="search-no-results--Oval" fill="#017FA3" opacity="0.1" cx="300.5" cy="393.5" rx="13.5" ry="2.5"></ellipse>
                <ellipse id="search-no-results--Oval" fill="#017FA3" opacity="0.1" cx="46.5" cy="375.5" rx="13.5" ry="2.5"></ellipse>
                <ellipse id="search-no-results--Oval" fill="#017FA3" opacity="0.1" cx="403.5" cy="391.5" rx="13.5" ry="2.5"></ellipse>
                <ellipse id="search-no-results--Oval" fill="#017FA3" cx="417" cy="362.5" rx="20" ry="3.5"></ellipse>
                <path d="M425.980266,356.983032 C426.916962,356.259562 427.598849,355.281412 427.934672,354.179483 C428.189816,353.063884 427.689733,351.730016 426.572201,351.32258 C425.31689,350.866639 423.974831,351.691213 422.954253,352.525487 C421.933676,353.359761 420.77532,354.315295 419.443466,354.14068 C420.834149,352.93983 421.461497,351.134332 421.096802,349.382408 C421.038983,349.025474 420.880245,348.690174 420.637542,348.412322 C419.938447,347.704159 418.678033,348.009736 417.84116,348.567535 C415.187658,350.342793 414.447739,353.767197 414.43243,356.852071 C414.16708,355.741322 414.391607,354.582069 414.386504,353.456769 C414.381401,352.331469 414.049714,351.031554 413.034239,350.439802 C412.410929,350.109446 411.706616,349.942079 410.993084,349.954758 C409.799008,349.915955 408.467154,350.027515 407.655795,350.856939 C406.635217,351.88523 406.905671,353.616833 407.783367,354.737283 C408.661064,355.857732 410.003124,356.580447 411.238022,357.366216 C412.226369,357.927229 413.070225,358.69122 413.70782,359.602265 C413.780479,359.729164 413.840281,359.862342 413.886421,360 L421.367255,360 C423.041991,359.198234 424.593945,358.183236 425.980266,356.983032 Z" id="search-no-results--Path" fill="#017FA3"></path>
                <path d="M37,365.288932 C37,365.288932 44.7867505,365.046027 47.1456032,363.340523 C49.5044559,361.635019 59.1326334,359.603918 59.7160056,362.337893 C60.2993777,365.071868 71.4240316,375.925075 62.6277937,375.99743 C53.8315557,376.069785 42.189476,374.602018 39.8458417,373.144587 C37.5022074,371.687156 37,365.288932 37,365.288932 Z" id="search-no-results--Path" fill="#A8A8A8"></path>
                <path d="M62.7858678,375.11944 C53.9858885,375.186992 42.3388571,373.816663 39.9942259,372.455985 C38.2078403,371.423413 37.497346,367.712911 37.2588229,366 L37,366 C37,366 37.5074959,371.9783 39.8369022,373.334153 C42.1663085,374.690006 53.8285648,376.06516 62.6285441,375.997609 C65.1660237,375.997609 66.0439916,375.11944 65.998317,373.845614 C65.6430698,374.622455 64.6737526,375.104965 62.7858678,375.11944 Z" id="search-no-results--Path" fill="#000000" opacity="0.2"></path>
            </g>
        </g>
    </g>
</svg>