<?xml version="1.0" encoding="UTF-8"?>
<svg width="72px" height="45px" viewBox="0 0 72 45" version="1.1" xmlns="http://www.w3.org/2000/svg" xmlns:xlink="http://www.w3.org/1999/xlink">
    <!-- Generator: Sketch 53.2 (72643) - https://sketchapp.com -->
    <title>illucons/team</title>
    <desc>Created with Sketch.</desc>
    <g id="illucons/team--Guidelines" stroke="none" stroke-width="1" fill="none" fill-rule="evenodd">
        <g id="illucons/team--icons-badges-variations" transform="translate(-104.000000, -941.000000)">
            <g id="illucons/team--illucons/team" transform="translate(104.000000, 927.000000)">
                <rect id="illucons/team--Rectangle" x="0" y="0" width="72" height="72"></rect>
                <g id="illucons/team--icon" transform="translate(0.000000, 14.000000)" fill-rule="nonzero">
                    <path d="M21.1906355,45 L21.1906355,41.5321101 L20.7123288,41.5321101 L9.15050167,41.5321101 L9.15050167,35.8348624 L0,35.8348624 L0,29.8899083 C0,25.6788991 3.61204013,21.9633028 7.70568562,21.9633028 C8.909699,21.9633028 9.8729097,22.2110092 10.8361204,22.706422 C11.5585284,23.2018349 12.2809365,23.6972477 12.7625418,24.1926606 C16.2127019,20.8801903 20.7613737,20.2797338 24.9395653,22.1754184 C25.1356042,22.2643631 25.3308276,22.3588029 25.5250836,22.4587156 C28.173913,19.4862385 32.0267559,18 36.1204013,18 C40.2140468,18 43.826087,19.4862385 46.7157191,22.4587156 C46.9017352,22.3574131 47.089243,22.2617367 47.2780616,22.1717098 C51.2445635,20.2805187 55.7895499,20.8823523 59.2374582,24.1926606 C60.6822742,22.706422 62.367893,21.9633028 64.2943144,21.9633028 C68.6287625,21.9633028 72,25.6788991 72,29.8899083 L72,35.8348624 L62.8494983,35.8348624 L62.8494983,41.5321101 L51.2876712,41.5321101 L51.0501672,41.5321101 L51.0501672,45 L21.1906355,45 Z" id="illucons/team--Path" fill="#CACACA"></path>
                    <path d="M8.38356164,14 C10.9531363,14 12.8219178,15.8947368 12.8219178,18.5 C12.8219178,21.1052632 10.7195386,23 8.38356164,23 C5.81398702,23 3.94520548,21.1052632 3.94520548,18.5 C3.94520548,15.8947368 5.81398702,14 8.38356164,14 Z" id="illucons/team--Path" fill="#CACACA"></path>
                    <path d="M63.5870453,14 C66.1736369,14 68.0547945,15.8947368 68.0547945,18.5 C68.0547945,21.1052632 66.1736369,23 63.5870453,23 C57.7084278,23 57.7084278,14 63.5870453,14 Z" id="illucons/team--Path" fill="#CACACA"></path>
                    <path d="M20.407472,40 L20.407472,33.9996261 C20.407472,30.3994018 21.6627646,27.2792073 23.6712329,24.8790578 C17.1437111,21.9988783 9.8630137,26.5591625 9.8630137,33.2795812 L9.8630137,40 L20.407472,40 Z" id="illucons/team--Path" fill="#98BF61"></path>
                    <path d="M48.3287671,24.8918693 C50.3372354,27.2899853 51.592528,30.4075361 51.592528,34.00471 L51.592528,40 L62.1369863,40 L62.1369863,33.2852752 C62.1369863,30.6473477 60.8816936,28.4890433 59.1242839,26.8103621 C56.3626401,23.9326229 51.8435866,23.2131881 48.3287671,24.8918693 Z" id="illucons/team--Path" fill="#98BF61"></path>
                    <path d="M51.2876712,8 C54.9863014,8 58.1917808,11 58.1917808,15 C58.1917808,18.75 54.9863014,22 51.2876712,22 C47.3424658,22 44.3835616,18.75 44.3835616,15 C44.3835616,11 47.3424658,8 51.2876712,8 Z" id="illucons/team--Path" fill="#98BF61"></path>
                    <path d="M52.3942533,9 C49.5075175,9 47.3424658,11.4390244 47.3424658,14.1219512 C47.3424658,16.804878 49.5075175,19 52.3942533,19 C55.0404277,19 57.2054795,16.804878 57.2054795,14.1219512 C57.2054795,11.4390244 55.0404277,9 52.3942533,9 Z" id="illucons/team--Path" fill="#98BF61"></path>
                    <path d="M20.7123288,8 C24.4109589,8 27.6164384,11 27.6164384,15 C27.6164384,18.75 24.4109589,22 20.7123288,22 C16.7671233,22 13.8082192,18.75 13.8082192,15 C13.8082192,11 16.7671233,8 20.7123288,8 Z" id="illucons/team--Path" fill="#98BF61"></path>
                    <path d="M19.8463081,9 C16.9595723,9 14.7945205,11.4390244 14.7945205,14.1219512 C14.7945205,16.804878 16.9595723,19 19.8463081,19 C22.4924825,19 24.6575342,16.804878 24.6575342,14.1219512 C24.6575342,11.4390244 22.4924825,9 19.8463081,9 Z" id="illucons/team--Path" fill="#98BF61"></path>
                    <path d="M35.1386301,0 C40.1358904,0 44.3835616,4.08 44.3835616,9.12 C44.3835616,13.92 40.1358904,18 35.1386301,18 C29.8915068,18 25.6438356,13.92 25.6438356,9.12 C25.6438356,4.08 29.8915068,0 35.1386301,0 Z" id="illucons/team--Path" fill="#017FA3"></path>
                </g>
            </g>
        </g>
    </g>
</svg>