<?xml version="1.0" encoding="UTF-8"?>
<svg width="26px" height="22px" viewBox="0 0 26 22" version="1.1" xmlns="http://www.w3.org/2000/svg" xmlns:xlink="http://www.w3.org/1999/xlink">
    <!-- Generator: Sketch 53.2 (72643) - https://sketchapp.com -->
    <title>(Logo) Twitter</title>
    <desc>Created with Sketch.</desc>
    <g id="(Logo) Twitter--Guidelines" stroke="none" stroke-width="1" fill="none" fill-rule="evenodd">
        <g id="(Logo) Twitter--icons-badges-variations" transform="translate(-633.000000, -473.000000)" fill="#000000" fill-rule="nonzero">
            <g id="(Logo) Twitter--(Logo)-Twitter" transform="translate(633.000000, 473.000000)">
                <g id="(Logo) Twitter--Twitter-icon">
                    <path d="M25.87032,2.77452 C24.91452,3.19464 23.89392,3.48084 22.81932,3.61152 C23.91444,2.95164 24.75684,1.9116 25.15536,0.67068 C24.12828,1.27008 22.98996,1.7064 21.7782,1.9494 C20.81052,0.91368 19.43136,0.26568 17.89992,0.26568 C14.96556,0.26568 12.58632,2.64492 12.58632,5.57604 C12.58632,5.99724 12.63492,6.40224 12.72348,6.78996 C8.30628,6.58152 4.39128,4.4604 1.7712,1.25388 C1.31004,2.03364 1.05192,2.93976 1.05192,3.92688 C1.05192,5.77368 1.99152,7.39692 3.41496,8.35056 C2.5434,8.32248 1.72368,8.08272 1.00872,7.68528 L1.00872,7.75116 C1.00872,10.32696 2.83716,12.47508 5.2704,12.96432 C4.82436,13.0842 4.35348,13.149 3.87072,13.149 C3.5316,13.149 3.20652,13.1166 2.88144,13.05612 C3.56292,15.16536 5.52204,16.70328 7.85376,16.74648 C6.03936,18.171 3.74004,19.01988 1.2636,19.01988 C0.8424,19.01988 0.42228,18.99504 0,18.94752 C2.36412,20.45304 5.14944,21.33324 8.16156,21.33324 C17.93988,21.33324 23.28048,13.23756 23.28048,6.22836 C23.28048,6.00264 23.28048,5.77476 23.26428,5.54796 C24.30216,4.80384 25.20828,3.86316 25.92108,2.79612 L25.87032,2.77452 Z" id="(Logo) Twitter--Shape"></path>
                </g>
            </g>
        </g>
    </g>
</svg>