<?xml version="1.0" encoding="UTF-8"?>
<svg width="145px" height="70px" viewBox="0 0 145 70" version="1.1" xmlns="http://www.w3.org/2000/svg" xmlns:xlink="http://www.w3.org/1999/xlink">
    <!-- Generator: sketchtool 53.2 (72643) - https://sketchapp.com -->
    <title>1A539F44-5DB1-4FB5-97CD-71C072B8492B</title>
    <desc>Created with sketchtool.</desc>
    <g id="List-Resources" stroke="none" stroke-width="1" fill="none" fill-rule="evenodd">
        <g id="list-resources" transform="translate(-595.000000, -475.000000)" fill-rule="nonzero">
            <g id="dbgap-logo" transform="translate(590.000000, 459.000000)">
                <g id="dbgap" transform="translate(5.000000, 16.000000)">
                    <path d="M63.936,27.384 C61.9733235,27.384 60.4106725,26.680007 59.248,25.272 C58.0853275,23.863993 57.504,21.8586797 57.504,19.256 C57.504,17.997327 57.6906648,16.8613384 58.064,15.848 C58.4373352,14.8346616 58.9333302,13.9760035 59.552,13.272 C60.1706698,12.5679965 60.8853293,12.0240019 61.696,11.64 C62.5066707,11.2559981 63.3599955,11.064 64.256,11.064 C65.1520045,11.064 65.9306634,11.2239984 66.592,11.544 C67.2533366,11.8640016 67.9253299,12.3013306 68.608,12.856 L68.48,10.2 L68.48,4.216 L71.136,4.216 L71.136,27 L68.96,27 L68.736,25.176 L68.64,25.176 C68.0213302,25.7733363 67.312004,26.2906645 66.512,26.728 C65.711996,27.1653355 64.8533379,27.384 63.936,27.384 Z M64.512,25.176 C65.237337,25.176 65.9199968,25.0000018 66.56,24.648 C67.2000032,24.2959982 67.8399968,23.757337 68.48,23.032 L68.48,14.904 C67.8186634,14.3066637 67.184003,13.8853346 66.576,13.64 C65.967997,13.3946654 65.3440032,13.272 64.704,13.272 C64.0853302,13.272 63.5040027,13.4159986 62.96,13.704 C62.4159973,13.9920014 61.9413354,14.3973307 61.536,14.92 C61.1306646,15.4426693 60.8106678,16.066663 60.576,16.792 C60.3413322,17.517337 60.224,18.3279955 60.224,19.224 C60.224,21.1013427 60.5973296,22.5626614 61.344,23.608 C62.0906704,24.6533386 63.1466598,25.176 64.512,25.176 Z M83.264,27.384 C82.538663,27.384 81.7866706,27.2080018 81.008,26.856 C80.2293294,26.5039982 79.4986701,26.0186698 78.816,25.4 L78.72,25.4 L78.496,27 L76.384,27 L76.384,4.216 L79.008,4.216 L79.008,10.424 L78.944,13.24 C79.6480035,12.6213302 80.4159958,12.1040021 81.248,11.688 C82.0800042,11.2719979 82.933329,11.064 83.808,11.064 C84.8106717,11.064 85.6959962,11.2506648 86.464,11.624 C87.2320038,11.9973352 87.8773307,12.5306632 88.4,13.224 C88.9226693,13.9173368 89.317332,14.7493285 89.584,15.72 C89.850668,16.6906715 89.984,17.7733274 89.984,18.968 C89.984,20.2906733 89.8026685,21.4746614 89.44,22.52 C89.0773315,23.5653386 88.5866698,24.450663 87.968,25.176 C87.3493302,25.901337 86.6346707,26.4506648 85.824,26.824 C85.0133293,27.1973352 84.1600045,27.384 83.264,27.384 Z M82.816,25.176 C83.4560032,25.176 84.0479973,25.0320014 84.592,24.744 C85.1360027,24.4559986 85.6053314,24.0506693 86,23.528 C86.3946686,23.0053307 86.7039989,22.3600038 86.928,21.592 C87.1520011,20.8239962 87.264,19.9600048 87.264,19 C87.264,18.1466624 87.1893341,17.3680035 87.04,16.664 C86.8906659,15.9599965 86.6506683,15.3573358 86.32,14.856 C85.9893317,14.3546642 85.5626693,13.9653347 85.04,13.688 C84.5173307,13.4106653 83.893337,13.272 83.168,13.272 C81.909327,13.272 80.5226742,13.975993 79.008,15.384 L79.008,23.544 C79.6906701,24.1413363 80.3679966,24.5626654 81.04,24.808 C81.7120034,25.0533346 82.3039974,25.176 82.816,25.176 Z M102.592,27.384 C101.205326,27.384 99.9306725,27.1386691 98.768,26.648 C97.6053275,26.1573309 96.6080042,25.4480046 95.776,24.52 C94.9439958,23.5919954 94.2933357,22.4506734 93.824,21.096 C93.3546643,19.7413266 93.12,18.2106752 93.12,16.504 C93.12,14.8186582 93.3599976,13.3040067 93.84,11.96 C94.3200024,10.6159933 94.9866624,9.47467136 95.84,8.536 C96.6933376,7.59732864 97.7119941,6.87733584 98.896,6.376 C100.080006,5.87466416 101.365326,5.624 102.752,5.624 C103.477337,5.624 104.143997,5.69866592 104.752,5.848 C105.360003,5.99733408 105.914664,6.19466544 106.416,6.44 C106.917336,6.68533456 107.365331,6.96266512 107.76,7.272 C108.154669,7.58133488 108.501332,7.8959984 108.8,8.216 L107.328,9.944 C106.794664,9.38933056 106.176004,8.92000192 105.472,8.536 C104.767996,8.15199808 103.882672,7.96 102.816,7.96 C101.749328,7.96 100.789338,8.15733136 99.936,8.552 C99.0826624,8.94666864 98.3573363,9.51199632 97.76,10.248 C97.1626637,10.9840037 96.6986683,11.8746614 96.368,12.92 C96.0373317,13.9653386 95.872,15.1386602 95.872,16.44 C95.872,17.7626733 96.0266651,18.9519947 96.336,20.008 C96.6453349,21.0640053 97.0933304,21.9653296 97.68,22.712 C98.2666696,23.4586704 98.9919957,24.0346646 99.856,24.44 C100.720004,24.8453354 101.717328,25.048 102.848,25.048 C103.59467,25.048 104.303997,24.9360011 104.976,24.712 C105.648003,24.4879989 106.197331,24.1840019 106.624,23.8 L106.624,18.328 L102.176,18.328 L102.176,16.12 L109.056,16.12 L109.056,24.952 C108.37333,25.6560035 107.477339,26.237331 106.368,26.696 C105.258661,27.154669 104.000007,27.384 102.592,27.384 Z M117.408,27.384 C116.10666,27.384 115.024004,27.0000038 114.16,26.232 C113.295996,25.4639962 112.864,24.376007 112.864,22.968 C112.864,21.2613248 113.621326,19.9546712 115.136,19.048 C116.650674,18.1413288 119.071983,17.5066685 122.4,17.144 C122.4,16.6533309 122.352,16.1733357 122.256,15.704 C122.16,15.2346643 121.994668,14.8186685 121.76,14.456 C121.525332,14.0933315 121.200002,13.8000011 120.784,13.576 C120.367998,13.3519989 119.840003,13.24 119.2,13.24 C118.303996,13.24 117.461337,13.410665 116.672,13.752 C115.882663,14.093335 115.17867,14.4773312 114.56,14.904 L113.536,13.08 C114.261337,12.6106643 115.146661,12.1573355 116.192,11.72 C117.237339,11.2826645 118.389327,11.064 119.648,11.064 C121.546676,11.064 122.922662,11.6453275 123.776,12.808 C124.629338,13.9706725 125.056,15.522657 125.056,17.464 L125.056,27 L122.88,27 L122.656,25.144 L122.56,25.144 C121.81333,25.7626698 121.013338,26.2906645 120.16,26.728 C119.306662,27.1653355 118.389338,27.384 117.408,27.384 Z M118.176,25.272 C118.92267,25.272 119.626663,25.0960018 120.288,24.744 C120.949337,24.3919982 121.65333,23.8746701 122.4,23.192 L122.4,18.872 C121.09866,19.0426675 120.005338,19.2453322 119.12,19.48 C118.234662,19.7146678 117.520003,19.9919984 116.976,20.312 C116.431997,20.6320016 116.037335,20.9999979 115.792,21.416 C115.546665,21.8320021 115.424,22.2853309 115.424,22.776 C115.424,23.6720045 115.690664,24.3119981 116.224,24.696 C116.757336,25.0800019 117.407996,25.272 118.176,25.272 Z M130.208,27 L130.208,6.008 L136.192,6.008 C137.365339,6.008 138.437328,6.1146656 139.408,6.328 C140.378672,6.5413344 141.20533,6.8879976 141.888,7.368 C142.57067,7.8480024 143.103998,8.48266272 143.488,9.272 C143.872002,10.0613373 144.064,11.0319942 144.064,12.184 C144.064,13.2933389 143.877335,14.2533293 143.504,15.064 C143.130665,15.8746707 142.60267,16.546664 141.92,17.08 C141.23733,17.613336 140.421338,18.013332 139.472,18.28 C138.522662,18.546668 137.472006,18.68 136.32,18.68 L132.864,18.68 L132.864,27 L130.208,27 Z M132.864,16.504 L136,16.504 C137.834676,16.504 139.194662,16.1573368 140.08,15.464 C140.965338,14.7706632 141.408,13.6773408 141.408,12.184 C141.408,10.6693258 140.944005,9.6186696 140.016,9.032 C139.087995,8.4453304 137.706676,8.152 135.872,8.152 L132.864,8.152 L132.864,16.504 Z" id="dbGaP" fill="#326295"></path>
                    <g id="nih">
                        <path d="M33.5315482,8.84518622 L33.5315482,23.1521828 L31.1949115,23.1521828 L31.1949115,16.6800954 L25.079937,16.6800954 L25.079937,23.1521828 L22.6754259,23.1521828 L22.6754259,8.84518622 L25.0133196,8.84518622 L25.0133196,14.5266793 L31.129551,14.5266793 L31.129551,8.84518622 L33.5315482,8.84518622 Z M20.2696579,23.1521828 L17.9342781,23.1521828 L17.9342781,8.84518622 L20.2696579,8.84518622 L20.2696579,23.1521828 Z M15.5976414,23.1521828 L13.1239991,23.1521828 L7.00902458,12.6560881 L6.93989332,12.6560881 L6.93989332,23.1521828 L4.67741559,23.1521828 L4.67741559,8.84518622 L7.14603018,8.84518622 L13.330136,19.3439119 L13.3992672,19.3439119 L13.3992672,8.84518622 L15.661745,8.84518622 L15.661745,23.1521828 L15.5976414,23.1521828 Z M41.8461538,15.9618515 L33.5315482,0 L2.74928179,0 C2.01024791,0.00621057358 1.30419345,0.321078328 0.788012196,0.874635868 C0.271830941,1.42819341 -0.0117187184,2.17458624 0.000371354575,2.94795692 L0.000371354575,29.0520431 C-0.0117187184,29.8254138 0.271830941,30.5718066 0.788012196,31.1253641 C1.30419345,31.6789217 2.01024791,31.9937894 2.74928179,32 L33.4624169,32 L41.8461538,15.9618515 Z" id="Shape" fill="#63666A"></path>
                        <path d="M35.6923077,31.9947273 L43.9423831,15.9973637 L35.6923077,0 L37.7211162,0 C38.8703619,0 40.2237256,0.86472236 40.7643288,1.94562531 L48,15.9973637 L40.7643288,30.0543747 C40.2237256,31.1352776 38.8703619,32 37.7211162,32 L35.6923077,31.9947273 Z" id="Path" fill="#326295"></path>
                    </g>
                    <path d="M2.26,49 L2.26,39.816 L4.556,39.816 C5.97467376,39.816 7.05266298,40.2079961 7.79,40.992 C8.52733702,41.7760039 8.896,42.9006593 8.896,44.366 C8.896,45.0940036 8.8026676,45.7449971 8.616,46.319 C8.4293324,46.8930029 8.15400182,47.3783314 7.79,47.775 C7.42599818,48.1716687 6.97800266,48.474999 6.446,48.685 C5.91399734,48.8950011 5.30267012,49 4.612,49 L2.26,49 Z M3.422,48.048 L4.472,48.048 C5.5453387,48.048 6.35033065,47.7260032 6.887,47.082 C7.42366935,46.4379968 7.692,45.5326725 7.692,44.366 C7.692,43.1993275 7.42366935,42.3080031 6.887,41.692 C6.35033065,41.0759969 5.5453387,40.768 4.472,40.768 L3.422,40.768 L3.422,48.048 Z M12.326,49.168 C11.7566638,49.168 11.2830019,49.0000017 10.905,48.664 C10.5269981,48.3279983 10.338,47.8520031 10.338,47.236 C10.338,46.4893296 10.66933,45.9176687 11.332,45.521 C11.99467,45.1243314 13.0539927,44.8466675 14.51,44.688 C14.51,44.4733323 14.4890002,44.2633344 14.447,44.058 C14.4049998,43.8526656 14.3326672,43.6706675 14.23,43.512 C14.1273328,43.3533325 13.9850009,43.2250005 13.803,43.127 C13.6209991,43.0289995 13.3900014,42.98 13.11,42.98 C12.717998,42.98 12.3493351,43.0546659 12.004,43.204 C11.6586649,43.3533341 11.350668,43.5213324 11.08,43.708 L10.632,42.91 C10.9493349,42.7046656 11.3366644,42.5063343 11.794,42.315 C12.2513356,42.1236657 12.7553306,42.028 13.306,42.028 C14.1366708,42.028 14.7386648,42.2823308 15.112,42.791 C15.4853352,43.2996692 15.672,43.9786624 15.672,44.828 L15.672,49 L14.72,49 L14.622,48.188 L14.58,48.188 C14.2533317,48.458668 13.9033352,48.6896657 13.53,48.881 C13.1566648,49.0723343 12.7553355,49.168 12.326,49.168 Z M12.662,48.244 C12.9886683,48.244 13.2966652,48.1670008 13.586,48.013 C13.8753348,47.8589992 14.1833317,47.6326682 14.51,47.334 L14.51,45.444 C13.9406638,45.518667 13.4623353,45.6073328 13.075,45.71 C12.6876647,45.8126672 12.3750012,45.9339993 12.137,46.074 C11.8989988,46.2140007 11.7263339,46.3749991 11.619,46.557 C11.5116661,46.7390009 11.458,46.9373323 11.458,47.152 C11.458,47.544002 11.5746655,47.8239992 11.808,47.992 C12.0413345,48.1600008 12.3259983,48.244 12.662,48.244 Z M19.76,49.168 C19.3959982,49.168 19.0903346,49.1120006 18.843,49 C18.5956654,48.8879994 18.3950008,48.734001 18.241,48.538 C18.0869992,48.341999 17.9773337,48.1040014 17.912,47.824 C17.8466663,47.5439986 17.814,47.2360017 17.814,46.9 L17.814,43.134 L16.806,43.134 L16.806,42.266 L17.87,42.196 L18.01,40.292 L18.976,40.292 L18.976,42.196 L20.81,42.196 L20.81,43.134 L18.976,43.134 L18.976,46.914 C18.976,47.3340021 19.0529992,47.6583322 19.207,47.887 C19.3610008,48.1156678 19.633998,48.23 20.026,48.23 C20.1473339,48.23 20.2779993,48.2113335 20.418,48.174 C20.5580007,48.1366665 20.6839994,48.0946669 20.796,48.048 L21.02,48.916 C20.8333324,48.9813337 20.6303344,49.0396664 20.411,49.091 C20.1916656,49.1423336 19.9746677,49.168 19.76,49.168 Z M23.624,49.168 C23.0546638,49.168 22.5810019,49.0000017 22.203,48.664 C21.8249981,48.3279983 21.636,47.8520031 21.636,47.236 C21.636,46.4893296 21.96733,45.9176687 22.63,45.521 C23.29267,45.1243314 24.3519927,44.8466675 25.808,44.688 C25.808,44.4733323 25.7870002,44.2633344 25.745,44.058 C25.7029998,43.8526656 25.6306672,43.6706675 25.528,43.512 C25.4253328,43.3533325 25.2830009,43.2250005 25.101,43.127 C24.9189991,43.0289995 24.6880014,42.98 24.408,42.98 C24.015998,42.98 23.6473351,43.0546659 23.302,43.204 C22.9566649,43.3533341 22.648668,43.5213324 22.378,43.708 L21.93,42.91 C22.2473349,42.7046656 22.6346644,42.5063343 23.092,42.315 C23.5493356,42.1236657 24.0533306,42.028 24.604,42.028 C25.4346708,42.028 26.0366648,42.2823308 26.41,42.791 C26.7833352,43.2996692 26.97,43.9786624 26.97,44.828 L26.97,49 L26.018,49 L25.92,48.188 L25.878,48.188 C25.5513317,48.458668 25.2013352,48.6896657 24.828,48.881 C24.4546648,49.0723343 24.0533355,49.168 23.624,49.168 Z M23.96,48.244 C24.2866683,48.244 24.5946652,48.1670008 24.884,48.013 C25.1733348,47.8589992 25.4813317,47.6326682 25.808,47.334 L25.808,45.444 C25.2386638,45.518667 24.7603353,45.6073328 24.373,45.71 C23.9856647,45.8126672 23.6730012,45.9339993 23.435,46.074 C23.1969988,46.2140007 23.0243339,46.3749991 22.917,46.557 C22.8096661,46.7390009 22.756,46.9373323 22.756,47.152 C22.756,47.544002 22.8726655,47.8239992 23.106,47.992 C23.3393345,48.1600008 23.6239983,48.244 23.96,48.244 Z M32.122,49.168 C31.8046651,49.168 31.4756684,49.0910008 31.135,48.937 C30.7943316,48.7829992 30.4746682,48.570668 30.176,48.3 L30.134,48.3 L30.036,49 L29.112,49 L29.112,39.032 L30.26,39.032 L30.26,41.748 L30.232,42.98 C30.5400015,42.709332 30.8759982,42.4830009 31.24,42.301 C31.6040018,42.1189991 31.9773314,42.028 32.36,42.028 C32.7986689,42.028 33.1859983,42.1096659 33.522,42.273 C33.8580017,42.4363342 34.1403322,42.6696652 34.369,42.973 C34.5976678,43.2763349 34.7703328,43.6403312 34.887,44.065 C35.0036673,44.4896688 35.062,44.9633307 35.062,45.486 C35.062,46.0646696 34.9826675,46.5826644 34.824,47.04 C34.6653325,47.4973356 34.450668,47.8846651 34.18,48.202 C33.909332,48.5193349 33.5966684,48.7596659 33.242,48.923 C32.8873316,49.0863342 32.514002,49.168 32.122,49.168 Z M31.926,48.202 C32.2060014,48.202 32.4649988,48.1390006 32.703,48.013 C32.9410012,47.8869994 33.1463325,47.7096678 33.319,47.481 C33.4916675,47.2523322 33.6269995,46.9700017 33.725,46.634 C33.8230005,46.2979983 33.872,45.9200021 33.872,45.5 C33.872,45.1266648 33.8393337,44.7860015 33.774,44.478 C33.7086663,44.1699985 33.6036674,43.9063344 33.459,43.687 C33.3143326,43.4676656 33.1276678,43.2973339 32.899,43.176 C32.6703322,43.0546661 32.3973349,42.994 32.08,42.994 C31.5293306,42.994 30.92267,43.3019969 30.26,43.918 L30.26,47.488 C30.5586682,47.7493346 30.8549985,47.9336661 31.149,48.041 C31.4430015,48.1483339 31.7019989,48.202 31.926,48.202 Z M38.226,49.168 C37.6566638,49.168 37.1830019,49.0000017 36.805,48.664 C36.4269981,48.3279983 36.238,47.8520031 36.238,47.236 C36.238,46.4893296 36.56933,45.9176687 37.232,45.521 C37.89467,45.1243314 38.9539927,44.8466675 40.41,44.688 C40.41,44.4733323 40.3890002,44.2633344 40.347,44.058 C40.3049998,43.8526656 40.2326672,43.6706675 40.13,43.512 C40.0273328,43.3533325 39.8850009,43.2250005 39.703,43.127 C39.5209991,43.0289995 39.2900014,42.98 39.01,42.98 C38.617998,42.98 38.2493351,43.0546659 37.904,43.204 C37.5586649,43.3533341 37.250668,43.5213324 36.98,43.708 L36.532,42.91 C36.8493349,42.7046656 37.2366644,42.5063343 37.694,42.315 C38.1513356,42.1236657 38.6553306,42.028 39.206,42.028 C40.0366708,42.028 40.6386648,42.2823308 41.012,42.791 C41.3853352,43.2996692 41.572,43.9786624 41.572,44.828 L41.572,49 L40.62,49 L40.522,48.188 L40.48,48.188 C40.1533317,48.458668 39.8033352,48.6896657 39.43,48.881 C39.0566648,49.0723343 38.6553355,49.168 38.226,49.168 Z M38.562,48.244 C38.8886683,48.244 39.1966652,48.1670008 39.486,48.013 C39.7753348,47.8589992 40.0833317,47.6326682 40.41,47.334 L40.41,45.444 C39.8406638,45.518667 39.3623353,45.6073328 38.975,45.71 C38.5876647,45.8126672 38.2750012,45.9339993 38.037,46.074 C37.7989988,46.2140007 37.6263339,46.3749991 37.519,46.557 C37.4116661,46.7390009 37.358,46.9373323 37.358,47.152 C37.358,47.544002 37.4746655,47.8239992 37.708,47.992 C37.9413345,48.1600008 38.2259983,48.244 38.562,48.244 Z M45.492,49.168 C45.0066642,49.168 44.5446689,49.0793342 44.106,48.902 C43.6673311,48.7246658 43.2846683,48.500668 42.958,48.23 L43.532,47.46 C43.8306682,47.7026679 44.1363318,47.8986659 44.449,48.048 C44.7616682,48.1973341 45.1233313,48.272 45.534,48.272 C45.9820022,48.272 46.3179989,48.1693344 46.542,47.964 C46.7660011,47.7586656 46.878,47.5066682 46.878,47.208 C46.878,47.0306658 46.8313338,46.8766673 46.738,46.746 C46.6446662,46.6153327 46.5256674,46.5010005 46.381,46.403 C46.2363326,46.3049995 46.0706676,46.218667 45.884,46.144 L45.324,45.92 C45.0813321,45.8359996 44.8386679,45.7403339 44.596,45.633 C44.3533321,45.5256661 44.1363343,45.3950008 43.945,45.241 C43.7536657,45.0869992 43.5973339,44.9073344 43.476,44.702 C43.3546661,44.4966656 43.294,44.2493348 43.294,43.96 C43.294,43.689332 43.3476661,43.4350012 43.455,43.197 C43.5623339,42.9589988 43.7163323,42.7536675 43.917,42.581 C44.1176677,42.4083325 44.3626652,42.2730005 44.652,42.175 C44.9413348,42.0769995 45.2679982,42.028 45.632,42.028 C46.0613355,42.028 46.4556649,42.1026659 46.815,42.252 C47.1743351,42.4013341 47.4846654,42.5833323 47.746,42.798 L47.2,43.526 C46.9666655,43.3486658 46.7240013,43.2040006 46.472,43.092 C46.2199987,42.9799994 45.9446682,42.924 45.646,42.924 C45.2166645,42.924 44.9016677,43.021999 44.701,43.218 C44.5003323,43.414001 44.4,43.6426654 44.4,43.904 C44.4,44.0626675 44.4419996,44.2003328 44.526,44.317 C44.6100004,44.4336673 44.7219993,44.5363329 44.862,44.625 C45.0020007,44.7136671 45.1629991,44.7929997 45.345,44.863 C45.5270009,44.9330004 45.715999,45.005333 45.912,45.08 C46.1546679,45.1733338 46.3996654,45.2713328 46.647,45.374 C46.8943346,45.4766672 47.115999,45.6049992 47.312,45.759 C47.508001,45.9130008 47.6689994,46.1019989 47.795,46.326 C47.9210006,46.5500011 47.984,46.8206651 47.984,47.138 C47.984,47.4180014 47.9303339,47.6793321 47.823,47.922 C47.7156661,48.1646679 47.5570011,48.3793324 47.347,48.566 C47.136999,48.7526676 46.8756682,48.8996661 46.563,49.007 C46.2503318,49.1143339 45.8933353,49.168 45.492,49.168 Z M52.338,49.168 C51.8806644,49.168 51.4536687,49.0863342 51.057,48.923 C50.6603314,48.7596659 50.3150015,48.5263349 50.021,48.223 C49.7269985,47.9196652 49.4960008,47.5486689 49.328,47.11 C49.1599992,46.6713311 49.076,46.1720028 49.076,45.612 C49.076,45.0519972 49.1623325,44.5503356 49.335,44.107 C49.5076675,43.6636645 49.7363319,43.2880015 50.021,42.98 C50.3056681,42.6719985 50.6299982,42.4363342 50.994,42.273 C51.3580018,42.1096659 51.735998,42.028 52.128,42.028 C52.5573355,42.028 52.9423316,42.1026659 53.283,42.252 C53.6236684,42.4013341 53.9083322,42.6159986 54.137,42.896 C54.3656678,43.1760014 54.5406661,43.511998 54.662,43.904 C54.7833339,44.296002 54.844,44.7346642 54.844,45.22 C54.844,45.3413339 54.8416667,45.4603328 54.837,45.577 C54.8323333,45.6936673 54.8206668,45.7939996 54.802,45.878 L50.21,45.878 C50.2566669,46.6060036 50.482998,47.1823312 50.889,47.607 C51.295002,48.0316688 51.8246634,48.244 52.478,48.244 C52.8046683,48.244 53.1056653,48.1950005 53.381,48.097 C53.6563347,47.9989995 53.9199987,47.8706675 54.172,47.712 L54.578,48.468 C54.2793318,48.6546676 53.9480018,48.8179993 53.584,48.958 C53.2199982,49.0980007 52.804669,49.168 52.338,49.168 Z M50.196,45.052 L53.836,45.052 C53.836,44.3613299 53.6890015,43.8363351 53.395,43.477 C53.1009985,43.1176649 52.6880027,42.938 52.156,42.938 C51.9133321,42.938 51.6823344,42.9846662 51.463,43.078 C51.2436656,43.1713338 51.0453342,43.3089991 50.868,43.491 C50.6906658,43.6730009 50.5436673,43.8946654 50.427,44.156 C50.3103328,44.4173346 50.2333335,44.7159983 50.196,45.052 Z M61.97,49.168 C61.5499979,49.168 61.1510019,49.0886675 60.773,48.93 C60.3949981,48.7713325 60.0613348,48.5403349 59.772,48.237 C59.4826652,47.9336652 59.2516675,47.5603356 59.079,47.117 C58.9063325,46.6736645 58.82,46.1720028 58.82,45.612 C58.82,45.0426638 58.9063325,44.5363356 59.079,44.093 C59.2516675,43.6496645 59.4826652,43.2740015 59.772,42.966 C60.0613348,42.6579985 60.3949981,42.4246675 60.773,42.266 C61.1510019,42.1073325 61.5499979,42.028 61.97,42.028 C62.3900021,42.028 62.7889981,42.1073325 63.167,42.266 C63.5450019,42.4246675 63.8786652,42.6579985 64.168,42.966 C64.4573348,43.2740015 64.6883325,43.6496645 64.861,44.093 C65.0336675,44.5363356 65.12,45.0426638 65.12,45.612 C65.12,46.1720028 65.0336675,46.6736645 64.861,47.117 C64.6883325,47.5603356 64.4573348,47.9336652 64.168,48.237 C63.8786652,48.5403349 63.5450019,48.7713325 63.167,48.93 C62.7889981,49.0886675 62.3900021,49.168 61.97,49.168 Z M61.97,48.216 C62.2593348,48.216 62.5253321,48.1530006 62.768,48.027 C63.0106679,47.9009994 63.2183325,47.7236678 63.391,47.495 C63.5636675,47.2663322 63.6966662,46.9933349 63.79,46.676 C63.8833338,46.3586651 63.93,46.004002 63.93,45.612 C63.93,45.219998 63.8833338,44.8630016 63.79,44.541 C63.6966662,44.2189984 63.5636675,43.9413345 63.391,43.708 C63.2183325,43.4746655 63.0106679,43.2950006 62.768,43.169 C62.5253321,43.0429994 62.2593348,42.98 61.97,42.98 C61.6806652,42.98 61.4146679,43.0429994 61.172,43.169 C60.9293321,43.2950006 60.7216675,43.4746655 60.549,43.708 C60.3763325,43.9413345 60.2433338,44.2189984 60.15,44.541 C60.0566662,44.8630016 60.01,45.219998 60.01,45.612 C60.01,46.004002 60.0566662,46.3586651 60.15,46.676 C60.2433338,46.9933349 60.3763325,47.2663322 60.549,47.495 C60.7216675,47.7236678 60.9293321,47.9009994 61.172,48.027 C61.4146679,48.1530006 61.6806652,48.216 61.97,48.216 Z M67.108,49 L67.108,43.134 L66.184,43.134 L66.184,42.266 L67.108,42.196 L67.108,41.118 C67.108,40.4179965 67.2689984,39.8673353 67.591,39.466 C67.9130016,39.0646647 68.4146633,38.864 69.096,38.864 C69.3106677,38.864 69.5136657,38.8849998 69.705,38.927 C69.8963343,38.9690002 70.0713325,39.0226663 70.23,39.088 L69.978,39.97 C69.7259987,39.8579994 69.4693346,39.802 69.208,39.802 C68.5733302,39.802 68.256,40.2406623 68.256,41.118 L68.256,42.196 L69.698,42.196 L69.698,43.134 L68.256,43.134 L68.256,49 L67.108,49 Z M77.524,49.168 C76.9173303,49.168 76.3596692,49.0606677 75.851,48.846 C75.3423308,48.6313323 74.9060018,48.321002 74.542,47.915 C74.1779982,47.508998 73.8933344,47.0096696 73.688,46.417 C73.4826656,45.8243304 73.38,45.1546704 73.38,44.408 C73.38,43.670663 73.484999,43.0080029 73.695,42.42 C73.9050011,41.8319971 74.1966648,41.3326687 74.57,40.922 C74.9433352,40.5113313 75.3889974,40.1963344 75.907,39.977 C76.4250026,39.7576656 76.9873303,39.648 77.594,39.648 C77.9113349,39.648 78.2029987,39.6806663 78.469,39.746 C78.7350013,39.8113337 78.9776656,39.8976661 79.197,40.005 C79.4163344,40.1123339 79.6123325,40.233666 79.785,40.369 C79.9576675,40.504334 80.1093327,40.6419993 80.24,40.782 L79.596,41.538 C79.3626655,41.2953321 79.0920015,41.0900008 78.784,40.922 C78.4759985,40.7539992 78.088669,40.67 77.622,40.67 C77.155331,40.67 76.7353352,40.7563325 76.362,40.929 C75.9886648,41.1016675 75.6713346,41.3489984 75.41,41.671 C75.1486654,41.9930016 74.9456674,42.3826644 74.801,42.84 C74.6563326,43.2973356 74.584,43.8106638 74.584,44.38 C74.584,44.9586696 74.651666,45.4789977 74.787,45.941 C74.922334,46.4030023 75.1183321,46.7973317 75.375,47.124 C75.631668,47.4506683 75.9489981,47.7026658 76.327,47.88 C76.7050019,48.0573342 77.1413309,48.146 77.636,48.146 C77.9626683,48.146 78.2729985,48.0970005 78.567,47.999 C78.8610015,47.9009995 79.1013324,47.7680008 79.288,47.6 L79.288,45.206 L77.342,45.206 L77.342,44.24 L80.352,44.24 L80.352,48.104 C80.0533318,48.4120015 79.6613358,48.6663323 79.176,48.867 C78.6906642,49.0676677 78.1400031,49.168 77.524,49.168 Z M85.196,49.168 C84.7386644,49.168 84.3116687,49.0863342 83.915,48.923 C83.5183314,48.7596659 83.1730015,48.5263349 82.879,48.223 C82.5849985,47.9196652 82.3540008,47.5486689 82.186,47.11 C82.0179992,46.6713311 81.934,46.1720028 81.934,45.612 C81.934,45.0519972 82.0203325,44.5503356 82.193,44.107 C82.3656675,43.6636645 82.5943319,43.2880015 82.879,42.98 C83.1636681,42.6719985 83.4879982,42.4363342 83.852,42.273 C84.2160018,42.1096659 84.593998,42.028 84.986,42.028 C85.4153355,42.028 85.8003316,42.1026659 86.141,42.252 C86.4816684,42.4013341 86.7663322,42.6159986 86.995,42.896 C87.2236678,43.1760014 87.3986661,43.511998 87.52,43.904 C87.6413339,44.296002 87.702,44.7346642 87.702,45.22 C87.702,45.3413339 87.6996667,45.4603328 87.695,45.577 C87.6903333,45.6936673 87.6786668,45.7939996 87.66,45.878 L83.068,45.878 C83.1146669,46.6060036 83.340998,47.1823312 83.747,47.607 C84.153002,48.0316688 84.6826634,48.244 85.336,48.244 C85.6626683,48.244 85.9636653,48.1950005 86.239,48.097 C86.5143347,47.9989995 86.7779987,47.8706675 87.03,47.712 L87.436,48.468 C87.1373318,48.6546676 86.8060018,48.8179993 86.442,48.958 C86.0779982,49.0980007 85.662669,49.168 85.196,49.168 Z M83.054,45.052 L86.694,45.052 C86.694,44.3613299 86.5470015,43.8363351 86.253,43.477 C85.9589985,43.1176649 85.5460027,42.938 85.014,42.938 C84.7713321,42.938 84.5403344,42.9846662 84.321,43.078 C84.1016656,43.1713338 83.9033342,43.3089991 83.726,43.491 C83.5486658,43.6730009 83.4016673,43.8946654 83.285,44.156 C83.1683328,44.4173346 83.0913335,44.7159983 83.054,45.052 Z M89.382,49 L89.382,42.196 L90.334,42.196 L90.432,43.176 L90.474,43.176 C90.8006683,42.8493317 91.1436649,42.5763344 91.503,42.357 C91.8623351,42.1376656 92.2799976,42.028 92.756,42.028 C93.4746703,42.028 93.999665,42.2519978 94.331,42.7 C94.662335,43.1480022 94.828,43.8106623 94.828,44.688 L94.828,49 L93.68,49 L93.68,44.842 C93.68,44.1979968 93.5773344,43.7336681 93.372,43.449 C93.1666656,43.1643319 92.8400022,43.022 92.392,43.022 C92.0373316,43.022 91.724668,43.1106658 91.454,43.288 C91.183332,43.4653342 90.8753351,43.7266649 90.53,44.072 L90.53,49 L89.382,49 Z M99.686,49.168 C99.2659979,49.168 98.8670019,49.0886675 98.489,48.93 C98.1109981,48.7713325 97.7773348,48.5403349 97.488,48.237 C97.1986652,47.9336652 96.9676675,47.5603356 96.795,47.117 C96.6223325,46.6736645 96.536,46.1720028 96.536,45.612 C96.536,45.0426638 96.6223325,44.5363356 96.795,44.093 C96.9676675,43.6496645 97.1986652,43.2740015 97.488,42.966 C97.7773348,42.6579985 98.1109981,42.4246675 98.489,42.266 C98.8670019,42.1073325 99.2659979,42.028 99.686,42.028 C100.106002,42.028 100.504998,42.1073325 100.883,42.266 C101.261002,42.4246675 101.594665,42.6579985 101.884,42.966 C102.173335,43.2740015 102.404332,43.6496645 102.577,44.093 C102.749668,44.5363356 102.836,45.0426638 102.836,45.612 C102.836,46.1720028 102.749668,46.6736645 102.577,47.117 C102.404332,47.5603356 102.173335,47.9336652 101.884,48.237 C101.594665,48.5403349 101.261002,48.7713325 100.883,48.93 C100.504998,49.0886675 100.106002,49.168 99.686,49.168 Z M99.686,48.216 C99.9753348,48.216 100.241332,48.1530006 100.484,48.027 C100.726668,47.9009994 100.934332,47.7236678 101.107,47.495 C101.279668,47.2663322 101.412666,46.9933349 101.506,46.676 C101.599334,46.3586651 101.646,46.004002 101.646,45.612 C101.646,45.219998 101.599334,44.8630016 101.506,44.541 C101.412666,44.2189984 101.279668,43.9413345 101.107,43.708 C100.934332,43.4746655 100.726668,43.2950006 100.484,43.169 C100.241332,43.0429994 99.9753348,42.98 99.686,42.98 C99.3966652,42.98 99.1306679,43.0429994 98.888,43.169 C98.6453321,43.2950006 98.4376675,43.4746655 98.265,43.708 C98.0923325,43.9413345 97.9593338,44.2189984 97.866,44.541 C97.7726662,44.8630016 97.726,45.219998 97.726,45.612 C97.726,46.004002 97.7726662,46.3586651 97.866,46.676 C97.9593338,46.9933349 98.0923325,47.2663322 98.265,47.495 C98.4376675,47.7236678 98.6453321,47.9009994 98.888,48.027 C99.1306679,48.1530006 99.3966652,48.216 99.686,48.216 Z M106.532,49.168 C106.167998,49.168 105.862335,49.1120006 105.615,49 C105.367665,48.8879994 105.167001,48.734001 105.013,48.538 C104.858999,48.341999 104.749334,48.1040014 104.684,47.824 C104.618666,47.5439986 104.586,47.2360017 104.586,46.9 L104.586,43.134 L103.578,43.134 L103.578,42.266 L104.642,42.196 L104.782,40.292 L105.748,40.292 L105.748,42.196 L107.582,42.196 L107.582,43.134 L105.748,43.134 L105.748,46.914 C105.748,47.3340021 105.824999,47.6583322 105.979,47.887 C106.133001,48.1156678 106.405998,48.23 106.798,48.23 C106.919334,48.23 107.049999,48.2113335 107.19,48.174 C107.330001,48.1366665 107.455999,48.0946669 107.568,48.048 L107.792,48.916 C107.605332,48.9813337 107.402334,49.0396664 107.183,49.091 C106.963666,49.1423336 106.746668,49.168 106.532,49.168 Z M109.234,51.926 C109.075333,51.926 108.930667,51.9143335 108.8,51.891 C108.669333,51.8676666 108.548001,51.8326669 108.436,51.786 L108.66,50.876 L108.912,50.939 C109.005334,50.9623335 109.094,50.974 109.178,50.974 C109.570002,50.974 109.889665,50.8363347 110.137,50.561 C110.384335,50.2856653 110.577999,49.9380021 110.718,49.518 L110.872,49.014 L108.142,42.196 L109.332,42.196 L110.718,45.962 C110.820667,46.2606682 110.930333,46.575665 111.047,46.907 C111.163667,47.238335 111.273333,47.5626651 111.376,47.88 L111.432,47.88 C111.534667,47.5719985 111.632666,47.2500017 111.726,46.914 C111.819334,46.5779983 111.912666,46.2606682 112.006,45.962 L113.224,42.196 L114.344,42.196 L111.782,49.56 C111.660666,49.8960017 111.525334,50.2086652 111.376,50.498 C111.226666,50.7873348 111.049334,51.036999 110.844,51.247 C110.638666,51.4570011 110.405335,51.6226661 110.144,51.744 C109.882665,51.8653339 109.579335,51.926 109.234,51.926 Z M115.66,51.87 L115.66,42.196 L116.612,42.196 L116.71,42.98 L116.752,42.98 C117.060002,42.7186654 117.398331,42.4946676 117.767,42.308 C118.135669,42.1213324 118.520665,42.028 118.922,42.028 C119.360669,42.028 119.747998,42.1096659 120.084,42.273 C120.420002,42.4363342 120.699999,42.6696652 120.924,42.973 C121.148001,43.2763349 121.318333,43.6403312 121.435,44.065 C121.551667,44.4896688 121.61,44.9679973 121.61,45.5 C121.61,46.0786696 121.530667,46.5943311 121.372,47.047 C121.213333,47.4996689 120.998668,47.8846651 120.728,48.202 C120.457332,48.5193349 120.144668,48.7596659 119.79,48.923 C119.435332,49.0863342 119.062002,49.168 118.67,49.168 C118.352665,49.168 118.037668,49.0980007 117.725,48.958 C117.412332,48.8179993 117.097335,48.6266679 116.78,48.384 L116.808,49.574 L116.808,51.87 L115.66,51.87 Z M118.474,48.202 C118.754001,48.202 119.012999,48.1390006 119.251,48.013 C119.489001,47.8869994 119.694332,47.7096678 119.867,47.481 C120.039668,47.2523322 120.175,46.9700017 120.273,46.634 C120.371,46.2979983 120.42,45.9200021 120.42,45.5 C120.42,45.1266648 120.387334,44.7860015 120.322,44.478 C120.256666,44.1699985 120.151667,43.9063344 120.007,43.687 C119.862333,43.4676656 119.675668,43.2973339 119.447,43.176 C119.218332,43.0546661 118.945335,42.994 118.628,42.994 C118.338665,42.994 118.047001,43.0733325 117.753,43.232 C117.458999,43.3906675 117.144002,43.6193318 116.808,43.918 L116.808,47.488 C117.116002,47.7493346 117.414665,47.9336661 117.704,48.041 C117.993335,48.1483339 118.249999,48.202 118.474,48.202 Z M126.188,49.168 C125.730664,49.168 125.303669,49.0863342 124.907,48.923 C124.510331,48.7596659 124.165001,48.5263349 123.871,48.223 C123.576999,47.9196652 123.346001,47.5486689 123.178,47.11 C123.009999,46.6713311 122.926,46.1720028 122.926,45.612 C122.926,45.0519972 123.012332,44.5503356 123.185,44.107 C123.357668,43.6636645 123.586332,43.2880015 123.871,42.98 C124.155668,42.6719985 124.479998,42.4363342 124.844,42.273 C125.208002,42.1096659 125.585998,42.028 125.978,42.028 C126.407335,42.028 126.792332,42.1026659 127.133,42.252 C127.473668,42.4013341 127.758332,42.6159986 127.987,42.896 C128.215668,43.1760014 128.390666,43.511998 128.512,43.904 C128.633334,44.296002 128.694,44.7346642 128.694,45.22 C128.694,45.3413339 128.691667,45.4603328 128.687,45.577 C128.682333,45.6936673 128.670667,45.7939996 128.652,45.878 L124.06,45.878 C124.106667,46.6060036 124.332998,47.1823312 124.739,47.607 C125.145002,48.0316688 125.674663,48.244 126.328,48.244 C126.654668,48.244 126.955665,48.1950005 127.231,48.097 C127.506335,47.9989995 127.769999,47.8706675 128.022,47.712 L128.428,48.468 C128.129332,48.6546676 127.798002,48.8179993 127.434,48.958 C127.069998,49.0980007 126.654669,49.168 126.188,49.168 Z M124.046,45.052 L127.686,45.052 C127.686,44.3613299 127.539001,43.8363351 127.245,43.477 C126.950999,43.1176649 126.538003,42.938 126.006,42.938 C125.763332,42.938 125.532334,42.9846662 125.313,43.078 C125.093666,43.1713338 124.895334,43.3089991 124.718,43.491 C124.540666,43.6730009 124.393667,43.8946654 124.277,44.156 C124.160333,44.4173346 124.083334,44.7159983 124.046,45.052 Z M3.716,67.168 C3.14666382,67.168 2.67300189,67.0000017 2.295,66.664 C1.91699811,66.3279983 1.728,65.8520031 1.728,65.236 C1.728,64.4893296 2.05933002,63.9176687 2.722,63.521 C3.38466998,63.1243314 4.44399272,62.8466675 5.9,62.688 C5.9,62.4733323 5.87900021,62.2633344 5.837,62.058 C5.79499979,61.8526656 5.72266718,61.6706675 5.62,61.512 C5.51733282,61.3533325 5.37500091,61.2250005 5.193,61.127 C5.01099909,61.0289995 4.7800014,60.98 4.5,60.98 C4.10799804,60.98 3.73933506,61.0546659 3.394,61.204 C3.04866494,61.3533341 2.74066802,61.5213324 2.47,61.708 L2.022,60.91 C2.33933492,60.7046656 2.72666438,60.5063343 3.184,60.315 C3.64133562,60.1236657 4.14533058,60.028 4.696,60.028 C5.52667082,60.028 6.1286648,60.2823308 6.502,60.791 C6.8753352,61.2996692 7.062,61.9786624 7.062,62.828 L7.062,67 L6.11,67 L6.012,66.188 L5.97,66.188 C5.6433317,66.458668 5.2933352,66.6896657 4.92,66.881 C4.5466648,67.0723343 4.14533548,67.168 3.716,67.168 Z M4.052,66.244 C4.3786683,66.244 4.68666522,66.1670008 4.976,66.013 C5.26533478,65.8589992 5.5733317,65.6326682 5.9,65.334 L5.9,63.444 C5.33066382,63.518667 4.85233527,63.6073328 4.465,63.71 C4.07766473,63.8126672 3.76500119,63.9339993 3.527,64.074 C3.28899881,64.2140007 3.11633387,64.3749991 3.009,64.557 C2.90166613,64.7390009 2.848,64.9373323 2.848,65.152 C2.848,65.544002 2.9646655,65.8239992 3.198,65.992 C3.4313345,66.1600008 3.71599832,66.244 4.052,66.244 Z M9.204,67 L9.204,60.196 L10.156,60.196 L10.254,61.176 L10.296,61.176 C10.6226683,60.8493317 10.9656649,60.5763344 11.325,60.357 C11.6843351,60.1376656 12.1019976,60.028 12.578,60.028 C13.2966703,60.028 13.821665,60.2519978 14.153,60.7 C14.484335,61.1480022 14.65,61.8106623 14.65,62.688 L14.65,67 L13.502,67 L13.502,62.842 C13.502,62.1979968 13.3993344,61.7336681 13.194,61.449 C12.9886656,61.1643319 12.6620022,61.022 12.214,61.022 C11.8593316,61.022 11.546668,61.1106658 11.276,61.288 C11.005332,61.4653342 10.6973351,61.7266649 10.352,62.072 L10.352,67 L9.204,67 Z M19.186,67.168 C18.327329,67.168 17.6436692,66.8600031 17.135,66.244 C16.6263308,65.6279969 16.372,64.7506724 16.372,63.612 C16.372,63.0613306 16.4536659,62.5643356 16.617,62.121 C16.7803342,61.6776645 16.997332,61.3020015 17.268,60.994 C17.538668,60.6859985 17.8513316,60.4480008 18.206,60.28 C18.5606684,60.1119992 18.933998,60.028 19.326,60.028 C19.718002,60.028 20.0586652,60.0979993 20.348,60.238 C20.6373348,60.3780007 20.9313318,60.5693321 21.23,60.812 L21.174,59.65 L21.174,57.032 L22.336,57.032 L22.336,67 L21.384,67 L21.286,66.202 L21.244,66.202 C20.973332,66.4633346 20.6630018,66.6896657 20.313,66.881 C19.9629983,67.0723343 19.5873353,67.168 19.186,67.168 Z M19.438,66.202 C19.7553349,66.202 20.0539986,66.1250008 20.334,65.971 C20.6140014,65.8169992 20.8939986,65.5813349 21.174,65.264 L21.174,61.708 C20.8846652,61.4466654 20.6070013,61.2623339 20.341,61.155 C20.0749987,61.0476661 19.8020014,60.994 19.522,60.994 C19.251332,60.994 18.9970012,61.0569994 18.759,61.183 C18.5209988,61.3090006 18.3133342,61.4863322 18.136,61.715 C17.9586658,61.9436678 17.8186672,62.2166651 17.716,62.534 C17.6133328,62.8513349 17.562,63.205998 17.562,63.598 C17.562,64.4193374 17.7253317,65.0586644 18.052,65.516 C18.3786683,65.9733356 18.8406637,66.202 19.438,66.202 Z M27.544,67 L27.544,57.816 L30.162,57.816 C30.6753359,57.816 31.1443312,57.8626662 31.569,57.956 C31.9936688,58.0493338 32.3553318,58.200999 32.654,58.411 C32.9526682,58.6210011 33.1859992,58.8986649 33.354,59.244 C33.5220008,59.5893351 33.606,60.0139975 33.606,60.518 C33.606,61.0033358 33.5243342,61.4233316 33.361,61.778 C33.1976659,62.1326684 32.9666682,62.4266655 32.668,62.66 C32.3693318,62.8933345 32.0123354,63.0683328 31.597,63.185 C31.1816646,63.3016673 30.7220025,63.36 30.218,63.36 L28.706,63.36 L28.706,67 L27.544,67 Z M28.706,62.408 L30.078,62.408 C30.8806707,62.408 31.4756647,62.2563349 31.863,61.953 C32.2503353,61.6496652 32.444,61.1713366 32.444,60.518 C32.444,59.85533 32.241002,59.395668 31.835,59.139 C31.428998,58.8823321 30.8246707,58.754 30.022,58.754 L28.706,58.754 L28.706,62.408 Z M35.356,67 L35.356,57.032 L36.504,57.032 L36.504,59.748 L36.462,61.148 C36.7886683,60.8399985 37.1293316,60.5763344 37.484,60.357 C37.8386684,60.1376656 38.2539976,60.028 38.73,60.028 C39.4486703,60.028 39.973665,60.2519978 40.305,60.7 C40.636335,61.1480022 40.802,61.8106623 40.802,62.688 L40.802,67 L39.654,67 L39.654,62.842 C39.654,62.1979968 39.5513344,61.7336681 39.346,61.449 C39.1406656,61.1643319 38.8140022,61.022 38.366,61.022 C38.0113316,61.022 37.698668,61.1106658 37.428,61.288 C37.157332,61.4653342 36.8493351,61.7266649 36.504,62.072 L36.504,67 L35.356,67 Z M45.73,67.168 C45.2726644,67.168 44.8456687,67.0863342 44.449,66.923 C44.0523314,66.7596659 43.7070015,66.5263349 43.413,66.223 C43.1189985,65.9196652 42.8880008,65.5486689 42.72,65.11 C42.5519992,64.6713311 42.468,64.1720028 42.468,63.612 C42.468,63.0519972 42.5543325,62.5503356 42.727,62.107 C42.8996675,61.6636645 43.1283319,61.2880015 43.413,60.98 C43.6976681,60.6719985 44.0219982,60.4363342 44.386,60.273 C44.7500018,60.1096659 45.127998,60.028 45.52,60.028 C45.9493355,60.028 46.3343316,60.1026659 46.675,60.252 C47.0156684,60.4013341 47.3003322,60.6159986 47.529,60.896 C47.7576678,61.1760014 47.9326661,61.511998 48.054,61.904 C48.1753339,62.296002 48.236,62.7346642 48.236,63.22 C48.236,63.3413339 48.2336667,63.4603328 48.229,63.577 C48.2243333,63.6936673 48.2126668,63.7939996 48.194,63.878 L43.602,63.878 C43.6486669,64.6060036 43.874998,65.1823312 44.281,65.607 C44.687002,66.0316688 45.2166634,66.244 45.87,66.244 C46.1966683,66.244 46.4976653,66.1950005 46.773,66.097 C47.0483347,65.9989995 47.3119987,65.8706675 47.564,65.712 L47.97,66.468 C47.6713318,66.6546676 47.3400018,66.8179993 46.976,66.958 C46.6119982,67.0980007 46.196669,67.168 45.73,67.168 Z M43.588,63.052 L47.228,63.052 C47.228,62.3613299 47.0810015,61.8363351 46.787,61.477 C46.4929985,61.1176649 46.0800027,60.938 45.548,60.938 C45.3053321,60.938 45.0743344,60.9846662 44.855,61.078 C44.6356656,61.1713338 44.4373342,61.3089991 44.26,61.491 C44.0826658,61.6730009 43.9356673,61.8946654 43.819,62.156 C43.7023328,62.4173346 43.6253335,62.7159983 43.588,63.052 Z M49.916,67 L49.916,60.196 L50.868,60.196 L50.966,61.176 L51.008,61.176 C51.3346683,60.8493317 51.6776649,60.5763344 52.037,60.357 C52.3963351,60.1376656 52.8139976,60.028 53.29,60.028 C54.0086703,60.028 54.533665,60.2519978 54.865,60.7 C55.196335,61.1480022 55.362,61.8106623 55.362,62.688 L55.362,67 L54.214,67 L54.214,62.842 C54.214,62.1979968 54.1113344,61.7336681 53.906,61.449 C53.7006656,61.1643319 53.3740022,61.022 52.926,61.022 C52.5713316,61.022 52.258668,61.1106658 51.988,61.288 C51.717332,61.4653342 51.4093351,61.7266649 51.064,62.072 L51.064,67 L49.916,67 Z M60.22,67.168 C59.7999979,67.168 59.4010019,67.0886675 59.023,66.93 C58.6449981,66.7713325 58.3113348,66.5403349 58.022,66.237 C57.7326652,65.9336652 57.5016675,65.5603356 57.329,65.117 C57.1563325,64.6736645 57.07,64.1720028 57.07,63.612 C57.07,63.0426638 57.1563325,62.5363356 57.329,62.093 C57.5016675,61.6496645 57.7326652,61.2740015 58.022,60.966 C58.3113348,60.6579985 58.6449981,60.4246675 59.023,60.266 C59.4010019,60.1073325 59.7999979,60.028 60.22,60.028 C60.6400021,60.028 61.0389981,60.1073325 61.417,60.266 C61.7950019,60.4246675 62.1286652,60.6579985 62.418,60.966 C62.7073348,61.2740015 62.9383325,61.6496645 63.111,62.093 C63.2836675,62.5363356 63.37,63.0426638 63.37,63.612 C63.37,64.1720028 63.2836675,64.6736645 63.111,65.117 C62.9383325,65.5603356 62.7073348,65.9336652 62.418,66.237 C62.1286652,66.5403349 61.7950019,66.7713325 61.417,66.93 C61.0389981,67.0886675 60.6400021,67.168 60.22,67.168 Z M60.22,66.216 C60.5093348,66.216 60.7753321,66.1530006 61.018,66.027 C61.2606679,65.9009994 61.4683325,65.7236678 61.641,65.495 C61.8136675,65.2663322 61.9466662,64.9933349 62.04,64.676 C62.1333338,64.3586651 62.18,64.004002 62.18,63.612 C62.18,63.219998 62.1333338,62.8630016 62.04,62.541 C61.9466662,62.2189984 61.8136675,61.9413345 61.641,61.708 C61.4683325,61.4746655 61.2606679,61.2950006 61.018,61.169 C60.7753321,61.0429994 60.5093348,60.98 60.22,60.98 C59.9306652,60.98 59.6646679,61.0429994 59.422,61.169 C59.1793321,61.2950006 58.9716675,61.4746655 58.799,61.708 C58.6263325,61.9413345 58.4933338,62.2189984 58.4,62.541 C58.3066662,62.8630016 58.26,63.219998 58.26,63.612 C58.26,64.004002 58.3066662,64.3586651 58.4,64.676 C58.4933338,64.9933349 58.6263325,65.2663322 58.799,65.495 C58.9716675,65.7236678 59.1793321,65.9009994 59.422,66.027 C59.6646679,66.1530006 59.9306652,66.216 60.22,66.216 Z M67.066,67.168 C66.7019982,67.168 66.3963346,67.1120006 66.149,67 C65.9016654,66.8879994 65.7010008,66.734001 65.547,66.538 C65.3929992,66.341999 65.2833337,66.1040014 65.218,65.824 C65.1526663,65.5439986 65.12,65.2360017 65.12,64.9 L65.12,61.134 L64.112,61.134 L64.112,60.266 L65.176,60.196 L65.316,58.292 L66.282,58.292 L66.282,60.196 L68.116,60.196 L68.116,61.134 L66.282,61.134 L66.282,64.914 C66.282,65.3340021 66.3589992,65.6583322 66.513,65.887 C66.6670008,66.1156678 66.939998,66.23 67.332,66.23 C67.4533339,66.23 67.5839993,66.2113335 67.724,66.174 C67.8640007,66.1366665 67.9899994,66.0946669 68.102,66.048 L68.326,66.916 C68.1393324,66.9813337 67.9363344,67.0396664 67.717,67.091 C67.4976656,67.1423336 67.2806677,67.168 67.066,67.168 Z M69.768,69.926 C69.6093325,69.926 69.4646673,69.9143335 69.334,69.891 C69.2033327,69.8676666 69.0820006,69.8326669 68.97,69.786 L69.194,68.876 L69.446,68.939 C69.5393338,68.9623335 69.6279996,68.974 69.712,68.974 C70.104002,68.974 70.4236654,68.8363347 70.671,68.561 C70.9183346,68.2856653 71.1119993,67.9380021 71.252,67.518 L71.406,67.014 L68.676,60.196 L69.866,60.196 L71.252,63.962 C71.3546672,64.2606682 71.4643328,64.575665 71.581,64.907 C71.6976673,65.238335 71.8073328,65.5626651 71.91,65.88 L71.966,65.88 C72.0686672,65.5719985 72.1666662,65.2500017 72.26,64.914 C72.3533338,64.5779983 72.4466662,64.2606682 72.54,63.962 L73.758,60.196 L74.878,60.196 L72.316,67.56 C72.1946661,67.8960017 72.0593341,68.2086652 71.91,68.498 C71.7606659,68.7873348 71.5833344,69.036999 71.378,69.247 C71.1726656,69.4570011 70.9393346,69.6226661 70.678,69.744 C70.4166654,69.8653339 70.1133351,69.926 69.768,69.926 Z M76.194,69.87 L76.194,60.196 L77.146,60.196 L77.244,60.98 L77.286,60.98 C77.5940015,60.7186654 77.9323315,60.4946676 78.301,60.308 C78.6696685,60.1213324 79.0546647,60.028 79.456,60.028 C79.8946689,60.028 80.2819983,60.1096659 80.618,60.273 C80.9540017,60.4363342 81.2339989,60.6696652 81.458,60.973 C81.6820011,61.2763349 81.8523328,61.6403312 81.969,62.065 C82.0856673,62.4896688 82.144,62.9679973 82.144,63.5 C82.144,64.0786696 82.0646675,64.5943311 81.906,65.047 C81.7473325,65.4996689 81.532668,65.8846651 81.262,66.202 C80.991332,66.5193349 80.6786684,66.7596659 80.324,66.923 C79.9693316,67.0863342 79.596002,67.168 79.204,67.168 C78.8866651,67.168 78.5716682,67.0980007 78.259,66.958 C77.9463318,66.8179993 77.6313349,66.6266679 77.314,66.384 L77.342,67.574 L77.342,69.87 L76.194,69.87 Z M79.008,66.202 C79.2880014,66.202 79.5469988,66.1390006 79.785,66.013 C80.0230012,65.8869994 80.2283325,65.7096678 80.401,65.481 C80.5736675,65.2523322 80.7089995,64.9700017 80.807,64.634 C80.9050005,64.2979983 80.954,63.9200021 80.954,63.5 C80.954,63.1266648 80.9213337,62.7860015 80.856,62.478 C80.7906663,62.1699985 80.6856674,61.9063344 80.541,61.687 C80.3963326,61.4676656 80.2096678,61.2973339 79.981,61.176 C79.7523322,61.0546661 79.4793349,60.994 79.162,60.994 C78.8726652,60.994 78.5810015,61.0733325 78.287,61.232 C77.9929985,61.3906675 77.6780017,61.6193318 77.342,61.918 L77.342,65.488 C77.6500015,65.7493346 77.9486652,65.9336661 78.238,66.041 C78.5273348,66.1483339 78.7839989,66.202 79.008,66.202 Z M86.722,67.168 C86.2646644,67.168 85.8376687,67.0863342 85.441,66.923 C85.0443314,66.7596659 84.6990015,66.5263349 84.405,66.223 C84.1109985,65.9196652 83.8800008,65.5486689 83.712,65.11 C83.5439992,64.6713311 83.46,64.1720028 83.46,63.612 C83.46,63.0519972 83.5463325,62.5503356 83.719,62.107 C83.8916675,61.6636645 84.1203319,61.2880015 84.405,60.98 C84.6896681,60.6719985 85.0139982,60.4363342 85.378,60.273 C85.7420018,60.1096659 86.119998,60.028 86.512,60.028 C86.9413355,60.028 87.3263316,60.1026659 87.667,60.252 C88.0076684,60.4013341 88.2923322,60.6159986 88.521,60.896 C88.7496678,61.1760014 88.9246661,61.511998 89.046,61.904 C89.1673339,62.296002 89.228,62.7346642 89.228,63.22 C89.228,63.3413339 89.2256667,63.4603328 89.221,63.577 C89.2163333,63.6936673 89.2046668,63.7939996 89.186,63.878 L84.594,63.878 C84.6406669,64.6060036 84.866998,65.1823312 85.273,65.607 C85.679002,66.0316688 86.2086634,66.244 86.862,66.244 C87.1886683,66.244 87.4896653,66.1950005 87.765,66.097 C88.0403347,65.9989995 88.3039987,65.8706675 88.556,65.712 L88.962,66.468 C88.6633318,66.6546676 88.3320018,66.8179993 87.968,66.958 C87.6039982,67.0980007 87.188669,67.168 86.722,67.168 Z M84.58,63.052 L88.22,63.052 C88.22,62.3613299 88.0730015,61.8363351 87.779,61.477 C87.4849985,61.1176649 87.0720027,60.938 86.54,60.938 C86.2973321,60.938 86.0663344,60.9846662 85.847,61.078 C85.6276656,61.1713338 85.4293342,61.3089991 85.252,61.491 C85.0746658,61.6730009 84.9276673,61.8946654 84.811,62.156 C84.6943328,62.4173346 84.6173335,62.7159983 84.58,63.052 Z M92.686,67.168 C92.2006642,67.168 91.7386689,67.0793342 91.3,66.902 C90.8613311,66.7246658 90.4786683,66.500668 90.152,66.23 L90.726,65.46 C91.0246682,65.7026679 91.3303318,65.8986659 91.643,66.048 C91.9556682,66.1973341 92.3173313,66.272 92.728,66.272 C93.1760022,66.272 93.5119989,66.1693344 93.736,65.964 C93.9600011,65.7586656 94.072,65.5066682 94.072,65.208 C94.072,65.0306658 94.0253338,64.8766673 93.932,64.746 C93.8386662,64.6153327 93.7196674,64.5010005 93.575,64.403 C93.4303326,64.3049995 93.2646676,64.218667 93.078,64.144 L92.518,63.92 C92.2753321,63.8359996 92.0326679,63.7403339 91.79,63.633 C91.5473321,63.5256661 91.3303343,63.3950008 91.139,63.241 C90.9476657,63.0869992 90.7913339,62.9073344 90.67,62.702 C90.5486661,62.4966656 90.488,62.2493348 90.488,61.96 C90.488,61.689332 90.5416661,61.4350012 90.649,61.197 C90.7563339,60.9589988 90.9103323,60.7536675 91.111,60.581 C91.3116677,60.4083325 91.5566652,60.2730005 91.846,60.175 C92.1353348,60.0769995 92.4619982,60.028 92.826,60.028 C93.2553355,60.028 93.6496649,60.1026659 94.009,60.252 C94.3683351,60.4013341 94.6786654,60.5833323 94.94,60.798 L94.394,61.526 C94.1606655,61.3486658 93.9180013,61.2040006 93.666,61.092 C93.4139987,60.9799994 93.1386682,60.924 92.84,60.924 C92.4106645,60.924 92.0956677,61.021999 91.895,61.218 C91.6943323,61.414001 91.594,61.6426654 91.594,61.904 C91.594,62.0626675 91.6359996,62.2003328 91.72,62.317 C91.8040004,62.4336673 91.9159993,62.5363329 92.056,62.625 C92.1960007,62.7136671 92.3569991,62.7929997 92.539,62.863 C92.7210009,62.9330004 92.909999,63.005333 93.106,63.08 C93.3486679,63.1733338 93.5936654,63.2713328 93.841,63.374 C94.0883346,63.4766672 94.309999,63.6049992 94.506,63.759 C94.702001,63.9130008 94.8629994,64.1019989 94.989,64.326 C95.1150006,64.5500011 95.178,64.8206651 95.178,65.138 C95.178,65.4180014 95.1243339,65.6793321 95.017,65.922 C94.9096661,66.1646679 94.7510011,66.3793324 94.541,66.566 C94.330999,66.7526676 94.0696682,66.8996661 93.757,67.007 C93.4443318,67.1143339 93.0873353,67.168 92.686,67.168 Z" id="DatabaseofGenotypeandPhenotypes" fill="#326295"></path>
                </g>
            </g>
        </g>
    </g>
</svg>