<?xml version="1.0" encoding="UTF-8"?>
<svg width="139px" height="49px" viewBox="0 0 139 49" version="1.1" xmlns="http://www.w3.org/2000/svg" xmlns:xlink="http://www.w3.org/1999/xlink">
    <!-- Generator: sketchtool 53.2 (72643) - https://sketchapp.com -->
    <title>513176AF-93BE-4951-A5D4-1C714EE9CD3A</title>
    <desc>Created with sketchtool.</desc>
    <g id="List-Resources" stroke="none" stroke-width="1" fill="none" fill-rule="evenodd">
        <g id="list-resources" transform="translate(-414.000000, -488.000000)" fill-rule="nonzero">
            <g id="geo-logo" transform="translate(402.000000, 459.000000)">
                <g id="geo" transform="translate(12.000000, 29.000000)">
                    <path d="M75.6803519,25 C74.4095733,25 73.2414521,24.7745121 72.1759531,24.3235294 C71.1104541,23.8725468 70.1964848,23.2205925 69.4340176,22.3676471 C68.6715504,21.5147016 68.075271,20.4656925 67.6451613,19.2205882 C67.2150516,17.975484 67,16.5686353 67,15 C67,13.4509726 67.2199391,12.0588297 67.659824,10.8235294 C68.0997089,9.58822912 68.710651,8.53922 69.4926686,7.67647059 C70.2746862,6.81372118 71.2082057,6.15196309 72.2932551,5.69117647 C73.3783045,5.23038985 74.5562009,5 75.8269795,5 C76.4916944,5 77.1026365,5.06862676 77.659824,5.20588235 C78.2170116,5.34313794 78.7253154,5.52450868 79.1847507,5.75 C79.6441861,5.97549132 80.0547391,6.23039074 80.4164223,6.51470588 C80.7781054,6.79902103 81.0957953,7.08823382 81.3695015,7.38235294 L80.0205279,8.97058824 C79.5317669,8.46078176 78.9648126,8.02941353 78.3196481,7.67647059 C77.6744836,7.32352765 76.8631525,7.14705882 75.8856305,7.14705882 C74.9081085,7.14705882 74.0283519,7.32842956 73.2463343,7.69117647 C72.4643167,8.05392338 71.7996117,8.57352603 71.2521994,9.25 C70.7047871,9.92647397 70.2795714,10.7450932 69.9765396,11.7058824 C69.6735078,12.6666715 69.5219941,13.7450921 69.5219941,14.9411765 C69.5219941,16.1568688 69.6637327,17.2499951 69.9472141,18.2205882 C70.2306955,19.1911813 70.6412485,20.0196044 71.1788856,20.7058824 C71.7165227,21.3921603 72.3812277,21.9215668 73.1730205,22.2941176 C73.9648133,22.6666685 74.8787827,22.8529412 75.914956,22.8529412 C76.5992214,22.8529412 77.2492638,22.750001 77.8651026,22.5441176 C78.4809415,22.3382343 78.9843578,22.0588253 79.3753666,21.7058824 L79.3753666,16.6764706 L75.2991202,16.6764706 L75.2991202,14.6470588 L81.6041056,14.6470588 L81.6041056,22.7647059 C80.9784915,23.4117679 80.1573853,23.9460763 79.1407625,24.3676471 C78.1241396,24.7892178 76.9706809,25 75.6803519,25 Z M86.2082111,24.6470588 L86.2082111,5.35294118 L97.2932551,5.35294118 L97.2932551,7.41176471 L88.6422287,7.41176471 L88.6422287,13.4705882 L95.9442815,13.4705882 L95.9442815,15.5588235 L88.6422287,15.5588235 L88.6422287,22.5588235 L97.5865103,22.5588235 L97.5865103,24.6470588 L86.2082111,24.6470588 Z M108.759531,25 C107.547404,25 106.437933,24.7647082 105.431085,24.2941176 C104.424237,23.8235271 103.559143,23.1519651 102.835777,22.2794118 C102.112411,21.4068584 101.550344,20.3480454 101.14956,19.1029412 C100.748776,17.8578369 100.548387,16.4607921 100.548387,14.9117647 C100.548387,13.3627374 100.748776,11.9754963 101.14956,10.75 C101.550344,9.52450368 102.112411,8.48529838 102.835777,7.63235294 C103.559143,6.7794075 104.424237,6.12745324 105.431085,5.67647059 C106.437933,5.22548794 107.547404,5 108.759531,5 C109.971658,5 111.081129,5.23038985 112.087977,5.69117647 C113.094824,6.15196309 113.964806,6.80881926 114.697947,7.66176471 C115.431089,8.51471015 115.998043,9.55391544 116.398827,10.7794118 C116.799611,12.0049081 117,13.3823453 117,14.9117647 C117,16.4607921 116.799611,17.8578369 116.398827,19.1029412 C115.998043,20.3480454 115.431089,21.4068584 114.697947,22.2794118 C113.964806,23.1519651 113.094824,23.8235271 112.087977,24.2941176 C111.081129,24.7647082 109.971658,25 108.759531,25 Z M108.759531,22.8529412 C109.61975,22.8529412 110.396868,22.6666685 111.090909,22.2941176 C111.78495,21.9215668 112.381229,21.3872584 112.879765,20.6911765 C113.378302,19.9950946 113.764417,19.1617696 114.038123,18.1911765 C114.311829,17.2205834 114.44868,16.1274571 114.44868,14.9117647 C114.44868,13.7156803 114.311829,12.6372597 114.038123,11.6764706 C113.764417,10.7156815 113.378302,9.90196412 112.879765,9.23529412 C112.381229,8.56862412 111.78495,8.05392338 111.090909,7.69117647 C110.396868,7.32842956 109.61975,7.14705882 108.759531,7.14705882 C107.899311,7.14705882 107.122193,7.32842956 106.428152,7.69117647 C105.734112,8.05392338 105.137832,8.56862412 104.639296,9.23529412 C104.14076,9.90196412 103.754645,10.7156815 103.480938,11.6764706 C103.207232,12.6372597 103.070381,13.7156803 103.070381,14.9117647 C103.070381,16.1274571 103.207232,17.2205834 103.480938,18.1911765 C103.754645,19.1617696 104.14076,19.9950946 104.639296,20.6911765 C105.137832,21.3872584 105.734112,21.9215668 106.428152,22.2941176 C107.122193,22.6666685 107.899311,22.8529412 108.759531,22.8529412 Z" id="GEO" fill="#326295"></path>
                    <g id="nih" transform="translate(14.000000, 0.000000)">
                        <path d="M30.7372525,8.29236208 L30.7372525,21.7051714 L28.5953355,21.7051714 L28.5953355,15.6375894 L22.9899422,15.6375894 L22.9899422,21.7051714 L20.7858071,21.7051714 L20.7858071,8.29236208 L22.9288763,8.29236208 L22.9288763,13.6187618 L28.5354218,13.6187618 L28.5354218,8.29236208 L30.7372525,8.29236208 Z M18.5805198,21.7051714 L16.439755,21.7051714 L16.439755,8.29236208 L18.5805198,8.29236208 L18.5805198,21.7051714 Z M14.297838,21.7051714 L12.0303325,21.7051714 L6.4249392,11.8650826 L6.36156887,11.8650826 L6.36156887,21.7051714 L4.28763096,21.7051714 L4.28763096,8.29236208 L6.55052766,8.29236208 L12.2192913,18.1349174 L12.2826616,18.1349174 L12.2826616,8.29236208 L14.3565995,8.29236208 L14.3565995,21.7051714 L14.297838,21.7051714 Z M38.3589744,14.9642358 L30.7372525,0 L2.52017498,0 C1.84272725,0.00582241273 1.19551066,0.301010932 0.722344513,0.819971126 C0.249178363,1.33893132 -0.0107421586,2.0386746 0.00034040836,2.76370961 L0.00034040836,27.2362904 C-0.0107421586,27.9613254 0.249178363,28.6610687 0.722344513,29.1800289 C1.19551066,29.6989891 1.84272725,29.9941776 2.52017498,30 L30.6738822,30 L38.3589744,14.9642358 Z" id="Shape" fill="#63666A"></path>
                        <path d="M32.7179487,29.9950568 L40.2805178,14.9975284 L32.7179487,0 L34.5776898,0 C35.6311651,0 36.8717485,0.810677212 37.3673014,1.82402373 L44,14.9975284 L37.3673014,28.1759763 C36.8717485,29.1893228 35.6311651,30 34.5776898,30 L32.7179487,29.9950568 Z" id="Path" fill="#326295"></path>
                    </g>
                    <path d="M3.81776004,46.474373 C3.25885094,46.474373 2.74509219,46.3740468 2.2764684,46.1733915 C1.80784461,45.9727362 1.40586602,45.6826627 1.07052055,45.3031625 C0.735175089,44.9236622 0.472921672,44.4569275 0.283752436,43.9029444 C0.0945831994,43.3489612 0,42.7230133 0,42.0250818 C0,41.3358744 0.0967328176,40.7164695 0.290201355,40.1668484 C0.483669892,39.6172274 0.752372163,39.1504926 1.09631623,38.7666303 C1.4402603,38.382768 1.85083737,38.0883325 2.32805976,37.8833152 C2.80528215,37.6782978 3.32334013,37.5757906 3.88224923,37.5757906 C4.17460169,37.5757906 4.44330396,37.6063247 4.68836411,37.6673937 C4.93342426,37.7284627 5.15698455,37.8091598 5.35905168,37.9094875 C5.56111882,38.0098151 5.74168675,38.1232273 5.90076088,38.2497274 C6.05983501,38.3762275 6.19956019,38.5049067 6.31994061,38.6357688 L5.72664007,39.3424209 C5.51167503,39.1155932 5.26231932,38.9236649 4.97856546,38.7666303 C4.69481161,38.6095957 4.33797499,38.5310796 3.90804491,38.5310796 C3.47811483,38.5310796 3.09118356,38.6117767 2.74723949,38.7731734 C2.40329543,38.9345701 2.11094735,39.1657564 1.87018651,39.4667394 C1.62942566,39.7677223 1.44240888,40.1319499 1.30913056,40.5594329 C1.17585223,40.986916 1.10921407,41.4667367 1.10921407,41.9989095 C1.10921407,42.5398064 1.17155299,43.0261701 1.29623272,43.4580153 C1.42091244,43.8898604 1.60148037,44.2584499 1.83794191,44.563795 C2.07440346,44.86914 2.36675153,45.1046884 2.7149949,45.2704471 C3.06323826,45.4362058 3.46521686,45.519084 3.92094275,45.519084 C4.22189381,45.519084 4.50779302,45.4732829 4.77864897,45.3816794 C5.04950493,45.2900759 5.2709156,45.1657587 5.44288763,45.0087241 L5.44288763,42.7709924 L3.65008815,42.7709924 L3.65008815,41.868048 L6.42312332,41.868048 L6.42312332,45.4798255 C6.14796807,45.7677223 5.78683221,46.0054516 5.33970493,46.1930207 C4.89257764,46.3805898 4.38526775,46.474373 3.81776004,46.474373 Z M10.8857753,46.474373 C10.4644438,46.474373 10.0710637,46.3980378 9.70562309,46.2453653 C9.34018252,46.0926928 9.02203903,45.8745925 8.75118308,45.5910578 C8.48032712,45.3075231 8.26751492,44.9607436 8.11274009,44.5507088 C7.95796526,44.1406741 7.88057901,43.6739394 7.88057901,43.1504907 C7.88057901,42.6270421 7.96011488,42.1581264 8.11918901,41.7437296 C8.27826314,41.3293327 8.48892572,40.9781912 8.75118308,40.6902944 C9.01344043,40.4023977 9.31223735,40.1821164 9.64758282,40.0294438 C9.98292828,39.8767713 10.3311664,39.8004362 10.6923077,39.8004362 C11.0878434,39.8004362 11.4425304,39.8702283 11.7563793,40.0098146 C12.0702283,40.1494009 12.3324817,40.3500532 12.5431474,40.6117775 C12.7538132,40.8735019 12.9150345,41.1875663 13.0268164,41.5539804 C13.1385982,41.9203944 13.1944883,42.330423 13.1944883,42.7840785 C13.1944883,42.8974924 13.1923386,43.0087236 13.1880393,43.1177754 C13.18374,43.2268272 13.172992,43.3206103 13.1557947,43.3991276 L8.92530389,43.3991276 C8.9682969,44.0796108 9.17680986,44.6183186 9.55084903,45.0152672 C9.9248882,45.4122157 10.4128515,45.610687 11.0147536,45.610687 C11.3157047,45.610687 11.5930054,45.564886 11.8466642,45.4732824 C12.1003229,45.3816789 12.3432298,45.2617238 12.575392,45.1134133 L12.9494293,45.8200654 C12.6742741,45.9945483 12.3690283,46.1472185 12.0336828,46.2780807 C11.6983374,46.4089429 11.3157053,46.474373 10.8857753,46.474373 Z M8.91240605,42.6270447 L12.2658439,42.6270447 C12.2658439,41.9814581 12.130418,41.4907323 11.859562,41.1548528 C11.5887061,40.8189732 11.2082237,40.651036 10.7181034,40.651036 C10.4945397,40.651036 10.2817275,40.6946561 10.0796604,40.7818975 C9.87759325,40.8691389 9.6948757,40.9978181 9.53150227,41.1679389 C9.36812884,41.3380597 9.2327029,41.545255 9.12522038,41.7895311 C9.01773786,42.0338071 8.94680046,42.3129755 8.91240605,42.6270447 Z M14.7422288,46.3173391 L14.7422288,39.95747 L15.6192818,39.95747 L15.7095667,40.8735005 L15.7482602,40.8735005 C16.0492112,40.5681555 16.3652051,40.3129781 16.6962513,40.1079607 C17.0272974,39.9029434 17.4120791,39.8004362 17.8506078,39.8004362 C18.5127001,39.8004362 18.9963642,40.0098125 19.3016145,40.4285714 C19.6068649,40.8473303 19.7594878,41.4667353 19.7594878,42.2868048 L19.7594878,46.3173391 L18.7018651,46.3173391 L18.7018651,42.4307525 C18.7018651,41.8287865 18.6072819,41.3947669 18.4181126,41.1286805 C18.2289434,40.8625941 17.9279969,40.7295529 17.515264,40.7295529 C17.1885171,40.7295529 16.9004683,40.812431 16.6511088,40.9781897 C16.4017494,41.1439485 16.1179998,41.3882209 15.7998515,41.7110142 L15.7998515,46.3173391 L14.7422288,46.3173391 Z M24.3382203,46.474373 C23.9168888,46.474373 23.5235087,46.3980378 23.1580681,46.2453653 C22.7926275,46.0926928 22.474484,45.8745925 22.2036281,45.5910578 C21.9327721,45.3075231 21.7199599,44.9607436 21.5651851,44.5507088 C21.4104103,44.1406741 21.333024,43.6739394 21.333024,43.1504907 C21.333024,42.6270421 21.4125599,42.1581264 21.571634,41.7437296 C21.7307082,41.3293327 21.9413707,40.9781912 22.2036281,40.6902944 C22.4658854,40.4023977 22.7646824,40.1821164 23.1000278,40.0294438 C23.4353733,39.8767713 23.7836114,39.8004362 24.1447527,39.8004362 C24.5402884,39.8004362 24.8949754,39.8702283 25.2088243,40.0098146 C25.5226733,40.1494009 25.7849267,40.3500532 25.9955925,40.6117775 C26.2062582,40.8735019 26.3674796,41.1875663 26.4792614,41.5539804 C26.5910432,41.9203944 26.6469333,42.330423 26.6469333,42.7840785 C26.6469333,42.8974924 26.6447837,43.0087236 26.6404844,43.1177754 C26.6361851,43.2268272 26.625437,43.3206103 26.6082398,43.3991276 L22.3777489,43.3991276 C22.4207419,44.0796108 22.6292549,44.6183186 23.0032941,45.0152672 C23.3773332,45.4122157 23.8652965,45.610687 24.4671987,45.610687 C24.7681497,45.610687 25.0454505,45.564886 25.2991092,45.4732824 C25.552768,45.3816789 25.7956748,45.2617238 26.0278371,45.1134133 L26.4018744,45.8200654 C26.1267191,45.9945483 25.8214733,46.1472185 25.4861279,46.2780807 C25.1507824,46.4089429 24.7681504,46.474373 24.3382203,46.474373 Z M22.3648511,42.6270447 L25.7182889,42.6270447 C25.7182889,41.9814581 25.582863,41.4907323 25.3120071,41.1548528 C25.0411511,40.8189732 24.6606687,40.651036 24.1705484,40.651036 C23.9469847,40.651036 23.7341725,40.6946561 23.5321054,40.7818975 C23.3300383,40.8691389 23.1473207,40.9978181 22.9839473,41.1679389 C22.8205739,41.3380597 22.6851479,41.545255 22.5776654,41.7895311 C22.4701829,42.0338071 22.3992455,42.3129755 22.3648511,42.6270447 Z M30.8774241,46.3173391 L30.8774241,37.7328244 L35.7528069,37.7328244 L35.7528069,38.648855 L31.9479447,38.648855 L31.9479447,41.344602 L35.1595064,41.344602 L35.1595064,42.2737186 L31.9479447,42.2737186 L31.9479447,45.3882225 L35.8817853,45.3882225 L35.8817853,46.3173391 L30.8774241,46.3173391 Z M36.2945161,46.3173391 L38.3452723,42.9934569 L36.4492902,39.95747 L37.5971977,39.95747 L38.4355572,41.3576881 C38.5301418,41.532171 38.6290243,41.7088323 38.7322075,41.8876772 C38.8353907,42.0665222 38.9428716,42.2431834 39.0546534,42.4176663 L39.1062448,42.4176663 C39.2008294,42.2431834 39.2954126,42.0665222 39.3899972,41.8876772 C39.4845818,41.7088323 39.579165,41.532171 39.6737497,41.3576881 L40.4347221,39.95747 L41.5439362,39.95747 L39.647954,43.1112323 L41.6858124,46.3173391 L40.5379048,46.3173391 L39.6221583,44.8386041 L39.2868145,44.2628135 C39.1750327,44.0708824 39.0589533,43.8833161 38.9385729,43.7001091 L38.8869815,43.7001091 C38.7751997,43.8833161 38.6677188,44.0687014 38.5645356,44.2562704 C38.4613524,44.4438395 38.3581707,44.6379488 38.2549875,44.8386041 L37.4037302,46.3173391 L36.2945161,46.3173391 Z M42.9240048,49 L42.9240048,39.95747 L43.8010578,39.95747 L43.8913427,40.6902944 L43.9300362,40.6902944 C44.21379,40.4460184 44.5254847,40.2366421 44.8651294,40.0621592 C45.2047742,39.8876763 45.5594612,39.8004362 45.9292011,39.8004362 C46.3333354,39.8004362 46.690172,39.8767713 46.9997216,40.0294438 C47.3092713,40.1821164 47.5672255,40.4002167 47.7735919,40.6837514 C47.9799583,40.967286 48.1368805,41.3075226 48.244363,41.7044711 C48.3518455,42.1014197 48.405586,42.5485253 48.405586,43.0458015 C48.405586,43.5866985 48.332499,44.0687002 48.1863227,44.4918212 C48.0401465,44.9149421 47.8423816,45.2748077 47.5930222,45.5714286 C47.3436627,45.8680495 47.0556139,46.0926928 46.728867,46.2453653 C46.4021202,46.3980378 46.0581813,46.474373 45.69704,46.474373 C45.4046875,46.474373 45.1144891,46.4089429 44.8264359,46.2780807 C44.5383828,46.1472185 44.2481843,45.9683763 43.9558319,45.7415485 L43.9816275,46.8538713 L43.9816275,49 L42.9240048,49 Z M45.5164703,45.5714286 C45.7744283,45.5714286 46.0130359,45.5125415 46.2323003,45.3947655 C46.4515646,45.2769896 46.640731,45.1112333 46.7998051,44.8974918 C46.9588793,44.6837503 47.0835571,44.4198489 47.1738424,44.1057797 C47.2641278,43.7917105 47.3092697,43.438388 47.3092697,43.0458015 C47.3092697,42.6968358 47.2791751,42.3784093 47.2189849,42.0905125 C47.1587947,41.8026158 47.0620618,41.5561624 46.9287835,41.351145 C46.7955052,41.1461277 46.6235357,40.9869144 46.41287,40.8735005 C46.2022043,40.7600867 45.9506989,40.7033806 45.6583465,40.7033806 C45.3917898,40.7033806 45.1230876,40.7775347 44.8522316,40.9258451 C44.5813757,41.0741556 44.2911772,41.2878939 43.9816275,41.5670665 L43.9816275,44.9040349 C44.2653814,45.1483109 44.5405325,45.3206102 44.8070892,45.4209378 C45.0736458,45.5212655 45.3101038,45.5714286 45.5164703,45.5714286 Z M50.0823049,46.3173391 L50.0823049,39.95747 L50.9593579,39.95747 L51.0496428,41.1090513 L51.0883363,41.1090513 C51.3033013,40.7077406 51.5634051,40.3893142 51.8686555,40.1537623 C52.1739058,39.9182104 52.5070966,39.8004362 52.8682379,39.8004362 C53.1175974,39.8004362 53.3411577,39.8440563 53.5389255,39.9312977 L53.3325601,40.8735005 C53.2293769,40.838604 53.1347937,40.8124319 53.0488076,40.7949836 C52.9628216,40.7775354 52.8553407,40.7688113 52.7263617,40.7688113 C52.459805,40.7688113 52.1825043,40.8778615 51.8944511,41.0959651 C51.606398,41.3140687 51.3548927,41.6935633 51.1399276,42.2344602 L51.1399276,46.3173391 L50.0823049,46.3173391 Z M56.9697504,46.474373 C56.5484189,46.474373 56.1550388,46.3980378 55.7895982,46.2453653 C55.4241576,46.0926928 55.1060142,45.8745925 54.8351582,45.5910578 C54.5643023,45.3075231 54.3514901,44.9607436 54.1967152,44.5507088 C54.0419404,44.1406741 53.9645541,43.6739394 53.9645541,43.1504907 C53.9645541,42.6270421 54.04409,42.1581264 54.2031641,41.7437296 C54.3622383,41.3293327 54.5729009,40.9781912 54.8351582,40.6902944 C55.0974156,40.4023977 55.3962125,40.1821164 55.7315579,40.0294438 C56.0669034,39.8767713 56.4151416,39.8004362 56.7762828,39.8004362 C57.1718185,39.8004362 57.5265055,39.8702283 57.8403545,40.0098146 C58.1542034,40.1494009 58.4164568,40.3500532 58.6271226,40.6117775 C58.8377883,40.8735019 58.9990097,41.1875663 59.1107915,41.5539804 C59.2225733,41.9203944 59.2784634,42.330423 59.2784634,42.7840785 C59.2784634,42.8974924 59.2763138,43.0087236 59.2720145,43.1177754 C59.2677152,43.2268272 59.2569671,43.3206103 59.2397699,43.3991276 L55.009279,43.3991276 C55.052272,44.0796108 55.260785,44.6183186 55.6348242,45.0152672 C56.0088633,45.4122157 56.4968267,45.610687 57.0987288,45.610687 C57.3996798,45.610687 57.6769806,45.564886 57.9306393,45.4732824 C58.1842981,45.3816789 58.4272049,45.2617238 58.6593672,45.1134133 L59.0334045,45.8200654 C58.7582492,45.9945483 58.4530034,46.1472185 58.117658,46.2780807 C57.7823125,46.4089429 57.3996805,46.474373 56.9697504,46.474373 Z M54.9963812,42.6270447 L58.3498191,42.6270447 C58.3498191,41.9814581 58.2143931,41.4907323 57.9435372,41.1548528 C57.6726812,40.8189732 57.2921988,40.651036 56.8020785,40.651036 C56.5785149,40.651036 56.3657027,40.6946561 56.1636355,40.7818975 C55.9615684,40.8691389 55.7788508,40.9978181 55.6154774,41.1679389 C55.452104,41.3380597 55.316678,41.545255 55.2091955,41.7895311 C55.101713,42.0338071 55.0307756,42.3129755 54.9963812,42.6270447 Z M62.4642294,46.474373 C62.0171021,46.474373 61.5914777,46.3914948 61.1873434,46.2257361 C60.7832091,46.0599774 60.4306718,45.850601 60.1297207,45.5976009 L60.6585321,44.8778626 C60.9336873,45.1046903 61.2152873,45.2878946 61.5033404,45.4274809 C61.7913936,45.5670672 62.1245844,45.6368593 62.5029229,45.6368593 C62.9156558,45.6368593 63.2252008,45.5408952 63.4315672,45.348964 C63.6379337,45.1570328 63.7411153,44.9214845 63.7411153,44.6423119 C63.7411153,44.4765532 63.698123,44.3326069 63.612137,44.2104689 C63.5261509,44.0883309 63.4165204,43.9814617 63.2832421,43.8898582 C63.1499638,43.7982547 62.9973409,43.7175576 62.8253688,43.6477644 L62.3094553,43.438386 C62.0858917,43.3598687 61.8623314,43.2704476 61.6387677,43.17012 C61.4152041,43.0697923 61.2152896,42.9476561 61.0390183,42.8037077 C60.8627469,42.6597594 60.7187225,42.4918221 60.6069407,42.2998909 C60.4951589,42.1079598 60.4392688,41.8767734 60.4392688,41.606325 C60.4392688,41.3533248 60.48871,41.1155954 60.587594,40.8931298 C60.6864779,40.6706641 60.8283527,40.4787358 61.0132226,40.3173391 C61.1980925,40.1559425 61.4238024,40.0294443 61.6903591,39.9378408 C61.9569157,39.8462373 62.2578623,39.8004362 62.5932078,39.8004362 C62.9887434,39.8004362 63.3520289,39.8702283 63.6830751,40.0098146 C64.0141212,40.1494009 64.3000204,40.3195192 64.5407813,40.5201745 L64.0377656,41.2006543 C63.8228006,41.0348956 63.5992403,40.8996734 63.367078,40.7949836 C63.1349158,40.6902939 62.8812608,40.6379498 62.6061056,40.6379498 C62.2105699,40.6379498 61.9203715,40.729552 61.7355015,40.912759 C61.5506316,41.095966 61.458198,41.3097043 61.458198,41.5539804 C61.458198,41.7022908 61.4968911,41.83097 61.5742786,41.9400218 C61.651666,42.0490736 61.7548476,42.1450378 61.8838267,42.2279171 C62.0128057,42.3107965 62.1611293,42.3849506 62.3288021,42.4503817 C62.4964748,42.5158128 62.6705939,42.5834239 62.8511645,42.653217 C63.0747282,42.7404585 63.3004381,42.8320606 63.528301,42.9280262 C63.756164,43.0239918 63.9603777,43.1439469 64.1409483,43.2878953 C64.321519,43.4318437 64.4698426,43.608505 64.5859237,43.8178844 C64.7020048,44.0272639 64.7600445,44.2802602 64.7600445,44.5768811 C64.7600445,44.8386055 64.7106033,45.0828778 64.6117194,45.3097056 C64.5128355,45.5365333 64.3666614,45.7371856 64.1731929,45.9116685 C63.9797244,46.0861514 63.7389671,46.2235546 63.450914,46.3238822 C63.1628608,46.4242099 62.8339692,46.474373 62.4642294,46.474373 Z M67.8684235,46.474373 C67.4212962,46.474373 66.9956718,46.3914948 66.5915375,46.2257361 C66.1874033,46.0599774 65.8348659,45.850601 65.5339148,45.5976009 L66.0627262,44.8778626 C66.3378814,45.1046903 66.6194814,45.2878946 66.9075346,45.4274809 C67.1955877,45.5670672 67.5287785,45.6368593 67.907117,45.6368593 C68.3198499,45.6368593 68.6293949,45.5408952 68.8357613,45.348964 C69.0421278,45.1570328 69.1453095,44.9214845 69.1453095,44.6423119 C69.1453095,44.4765532 69.1023171,44.3326069 69.0163311,44.2104689 C68.9303451,44.0883309 68.8207145,43.9814617 68.6874362,43.8898582 C68.5541579,43.7982547 68.401535,43.7175576 68.229563,43.6477644 L67.7136494,43.438386 C67.4900858,43.3598687 67.2665255,43.2704476 67.0429619,43.17012 C66.8193982,43.0697923 66.6194837,42.9476561 66.4432124,42.8037077 C66.2669411,42.6597594 66.1229166,42.4918221 66.0111348,42.2998909 C65.899353,42.1079598 65.8434629,41.8767734 65.8434629,41.606325 C65.8434629,41.3533248 65.8929041,41.1155954 65.9917881,40.8931298 C66.090672,40.6706641 66.2325468,40.4787358 66.4174167,40.3173391 C66.6022867,40.1559425 66.8279966,40.0294443 67.0945532,39.9378408 C67.3611099,39.8462373 67.6620564,39.8004362 67.9974019,39.8004362 C68.3929376,39.8004362 68.756223,39.8702283 69.0872692,40.0098146 C69.4183153,40.1494009 69.7042146,40.3195192 69.9449754,40.5201745 L69.4419597,41.2006543 C69.2269947,41.0348956 69.0034344,40.8996734 68.7712722,40.7949836 C68.5391099,40.6902939 68.285455,40.6379498 68.0102997,40.6379498 C67.614764,40.6379498 67.3245656,40.729552 67.1396956,40.912759 C66.9548257,41.095966 66.8623921,41.3097043 66.8623921,41.5539804 C66.8623921,41.7022908 66.9010853,41.83097 66.9784727,41.9400218 C67.0558601,42.0490736 67.1590418,42.1450378 67.2880208,42.2279171 C67.4169998,42.3107965 67.5653235,42.3849506 67.7329962,42.4503817 C67.9006689,42.5158128 68.074788,42.5834239 68.2553586,42.653217 C68.4789223,42.7404585 68.7046322,42.8320606 68.9324951,42.9280262 C69.1603581,43.0239918 69.3645718,43.1439469 69.5451424,43.2878953 C69.7257131,43.4318437 69.8740367,43.608505 69.9901178,43.8178844 C70.106199,44.0272639 70.1642387,44.2802602 70.1642387,44.5768811 C70.1642387,44.8386055 70.1147974,45.0828778 70.0159135,45.3097056 C69.9170296,45.5365333 69.7708556,45.7371856 69.577387,45.9116685 C69.3839185,46.0861514 69.1431613,46.2235546 68.8551081,46.3238822 C68.5670549,46.4242099 68.2381634,46.474373 67.8684235,46.474373 Z M71.6345922,46.3173391 L71.6345922,39.95747 L72.6922149,39.95747 L72.6922149,46.3173391 L71.6345922,46.3173391 Z M72.1763014,38.648855 C71.9699349,38.648855 71.7958159,38.5834249 71.6539389,38.4525627 C71.512062,38.3217005 71.4411246,38.1559443 71.4411246,37.955289 C71.4411246,37.7459095 71.512062,37.5779723 71.6539389,37.4514722 C71.7958159,37.3249721 71.9699349,37.261723 72.1763014,37.261723 C72.3826678,37.261723 72.5567869,37.3249721 72.6986638,37.4514722 C72.8405407,37.5779723 72.9114781,37.7459095 72.9114781,37.955289 C72.9114781,38.1559443 72.8405407,38.3217005 72.6986638,38.4525627 C72.5567869,38.5834249 72.3826678,38.648855 72.1763014,38.648855 Z M77.2451517,46.474373 C76.8582146,46.474373 76.4906299,46.4002188 76.1423866,46.2519084 C75.7941432,46.1035979 75.4867478,45.8876786 75.2201911,45.6041439 C74.9536345,45.3206093 74.7408223,44.9716487 74.5817482,44.5572519 C74.422674,44.1428551 74.3431382,43.6739394 74.3431382,43.1504907 C74.3431382,42.6183179 74.422674,42.1450402 74.5817482,41.7306434 C74.7408223,41.3162466 74.9536345,40.965105 75.2201911,40.6772083 C75.4867478,40.3893115 75.7941432,40.1712112 76.1423866,40.0229008 C76.4906299,39.8745903 76.8582146,39.8004362 77.2451517,39.8004362 C77.6320888,39.8004362 77.9996735,39.8745903 78.3479169,40.0229008 C78.6961602,40.1712112 79.0035556,40.3893115 79.2701123,40.6772083 C79.5366689,40.965105 79.7494811,41.3162466 79.9085553,41.7306434 C80.0676294,42.1450402 80.1471653,42.6183179 80.1471653,43.1504907 C80.1471653,43.6739394 80.0676294,44.1428551 79.9085553,44.5572519 C79.7494811,44.9716487 79.5366689,45.3206093 79.2701123,45.6041439 C79.0035556,45.8876786 78.6961602,46.1035979 78.3479169,46.2519084 C77.9996735,46.4002188 77.6320888,46.474373 77.2451517,46.474373 Z M77.2451517,45.5845147 C77.5117084,45.5845147 77.7567648,45.5256276 77.9803285,45.4078517 C78.2038921,45.2900757 78.3952081,45.1243195 78.5542823,44.910578 C78.7133564,44.6968364 78.8358846,44.4416591 78.9218707,44.1450382 C79.0078567,43.8484173 79.050849,43.5169048 79.050849,43.1504907 C79.050849,42.7840767 79.0078567,42.4503832 78.9218707,42.1494002 C78.8358846,41.8484173 78.7133564,41.5888779 78.5542823,41.3707743 C78.3952081,41.1526707 78.2038921,40.9847334 77.9803285,40.8669575 C77.7567648,40.7491815 77.5117084,40.6902944 77.2451517,40.6902944 C76.9785951,40.6902944 76.7335386,40.7491815 76.5099749,40.8669575 C76.2864113,40.9847334 76.0950953,41.1526707 75.9360212,41.3707743 C75.776947,41.5888779 75.6544188,41.8484173 75.5684328,42.1494002 C75.4824468,42.4503832 75.4394544,42.7840767 75.4394544,43.1504907 C75.4394544,43.5169048 75.4824468,43.8484173 75.5684328,44.1450382 C75.6544188,44.4416591 75.776947,44.6968364 75.9360212,44.910578 C76.0950953,45.1243195 76.2864113,45.2900757 76.5099749,45.4078517 C76.7335386,45.5256276 76.9785951,45.5845147 77.2451517,45.5845147 Z M81.7980885,46.3173391 L81.7980885,39.95747 L82.6751415,39.95747 L82.7654264,40.8735005 L82.8041199,40.8735005 C83.1050709,40.5681555 83.4210648,40.3129781 83.752111,40.1079607 C84.0831571,39.9029434 84.4679388,39.8004362 84.9064675,39.8004362 C85.5685598,39.8004362 86.0522239,40.0098125 86.3574743,40.4285714 C86.6627246,40.8473303 86.8153475,41.4667353 86.8153475,42.2868048 L86.8153475,46.3173391 L85.7577248,46.3173391 L85.7577248,42.4307525 C85.7577248,41.8287865 85.6631416,41.3947669 85.4739723,41.1286805 C85.2848031,40.8625941 84.9838566,40.7295529 84.5711237,40.7295529 C84.2443768,40.7295529 83.956328,40.812431 83.7069685,40.9781897 C83.4576091,41.1439485 83.1738595,41.3882209 82.8557112,41.7110142 L82.8557112,46.3173391 L81.7980885,46.3173391 Z M94.657233,46.474373 C94.1241197,46.474373 93.6361564,46.3696848 93.1933284,46.1603053 C92.7505004,45.9509259 92.370018,45.6521284 92.0518697,45.263904 C91.7337215,44.8756796 91.4865154,44.4045829 91.310244,43.8505998 C91.1339727,43.2966166 91.0458384,42.6750307 91.0458384,41.9858233 C91.0458384,41.296616 91.1339727,40.679392 91.310244,40.134133 C91.4865154,39.588874 91.7337215,39.1265014 92.0518697,38.7470011 C92.370018,38.3675008 92.7505004,38.0774274 93.1933284,37.8767721 C93.6361564,37.6761168 94.1241197,37.5757906 94.657233,37.5757906 C95.1903463,37.5757906 95.6783096,37.6782978 96.1211376,37.8833152 C96.5639656,38.0883325 96.9465976,38.380587 97.2690452,38.7600872 C97.5914928,39.1395875 97.8408485,39.6019602 98.0171198,40.1472192 C98.1933911,40.6924782 98.2815255,41.3053401 98.2815255,41.9858233 C98.2815255,42.6750307 98.1933911,43.2966166 98.0171198,43.8505998 C97.8408485,44.4045829 97.5914928,44.8756796 97.2690452,45.263904 C96.9465976,45.6521284 96.5639656,45.9509259 96.1211376,46.1603053 C95.6783096,46.3696848 95.1903463,46.474373 94.657233,46.474373 Z M94.657233,45.519084 C95.0355715,45.519084 95.3773608,45.4362058 95.6826111,45.2704471 C95.9878615,45.1046884 96.2501149,44.866959 96.4693792,44.5572519 C96.6886436,44.2475448 96.8584634,43.8767742 96.9788438,43.4449291 C97.0992243,43.013084 97.1594136,42.5267203 97.1594136,41.9858233 C97.1594136,41.4536506 97.0992243,40.9738298 96.9788438,40.5463468 C96.8584634,40.1188637 96.6886436,39.7568172 96.4693792,39.4601963 C96.2501149,39.1635754 95.9878615,38.9345701 95.6826111,38.7731734 C95.3773608,38.6117767 95.0355715,38.5310796 94.657233,38.5310796 C94.2788945,38.5310796 93.9371052,38.6117767 93.6318549,38.7731734 C93.3266045,38.9345701 93.0643511,39.1635754 92.8450868,39.4601963 C92.6258224,39.7568172 92.4560026,40.1188637 92.3356222,40.5463468 C92.2152417,40.9738298 92.1550524,41.4536506 92.1550524,41.9858233 C92.1550524,42.5267203 92.2152417,43.013084 92.3356222,43.4449291 C92.4560026,43.8767742 92.6258224,44.2475448 92.8450868,44.5572519 C93.0643511,44.866959 93.3266045,45.1046884 93.6318549,45.2704471 C93.9371052,45.4362058 94.2788945,45.519084 94.657233,45.519084 Z M99.9969379,46.3173391 L99.9969379,39.95747 L100.873991,39.95747 L100.964276,40.8735005 L101.002969,40.8735005 C101.278125,40.5681555 101.576921,40.3129781 101.899369,40.1079607 C102.221817,39.9029434 102.572204,39.8004362 102.950543,39.8004362 C103.432065,39.8004362 103.808248,39.9073054 104.079104,40.1210469 C104.34996,40.3347884 104.549874,40.6335859 104.678853,41.0174482 C105.0056,40.6510342 105.334492,40.3565987 105.665538,40.134133 C105.996584,39.9116674 106.35557,39.8004362 106.742507,39.8004362 C107.387402,39.8004362 107.866767,40.0098125 108.180616,40.4285714 C108.494465,40.8473303 108.651387,41.4667353 108.651387,42.2868048 L108.651387,46.3173391 L107.593764,46.3173391 L107.593764,42.4307525 C107.593764,41.8287865 107.499181,41.3947669 107.310012,41.1286805 C107.120843,40.8625941 106.828495,40.7295529 106.432959,40.7295529 C105.960036,40.7295529 105.435529,41.0567034 104.859423,41.7110142 L104.859423,46.3173391 L103.8018,46.3173391 L103.8018,42.4307525 C103.8018,41.8287865 103.707217,41.3947669 103.518048,41.1286805 C103.328878,40.8625941 103.032231,40.7295529 102.628097,40.7295529 C102.155174,40.7295529 101.630667,41.0567034 101.054561,41.7110142 L101.054561,46.3173391 L99.9969379,46.3173391 Z M110.689246,46.3173391 L110.689246,39.95747 L111.566299,39.95747 L111.656583,40.8735005 L111.695277,40.8735005 C111.996228,40.5681555 112.312222,40.3129781 112.643268,40.1079607 C112.974314,39.9029434 113.359096,39.8004362 113.797625,39.8004362 C114.459717,39.8004362 114.943381,40.0098125 115.248631,40.4285714 C115.553882,40.8473303 115.706505,41.4667353 115.706505,42.2868048 L115.706505,46.3173391 L114.648882,46.3173391 L114.648882,42.4307525 C114.648882,41.8287865 114.554299,41.3947669 114.365129,41.1286805 C114.17596,40.8625941 113.875014,40.7295529 113.462281,40.7295529 C113.135534,40.7295529 112.847485,40.812431 112.598126,40.9781897 C112.348766,41.1439485 112.065017,41.3882209 111.746868,41.7110142 L111.746868,46.3173391 L110.689246,46.3173391 Z M117.744363,46.3173391 L117.744363,39.95747 L118.801986,39.95747 L118.801986,46.3173391 L117.744363,46.3173391 Z M118.286072,38.648855 C118.079706,38.648855 117.905587,38.5834249 117.76371,38.4525627 C117.621833,38.3217005 117.550895,38.1559443 117.550895,37.955289 C117.550895,37.7459095 117.621833,37.5779723 117.76371,37.4514722 C117.905587,37.3249721 118.079706,37.261723 118.286072,37.261723 C118.492439,37.261723 118.666558,37.3249721 118.808435,37.4514722 C118.950312,37.5779723 119.021249,37.7459095 119.021249,37.955289 C119.021249,38.1559443 118.950312,38.3217005 118.808435,38.4525627 C118.666558,38.5834249 118.492439,38.648855 118.286072,38.648855 Z M123.690266,46.474373 C123.397914,46.474373 123.094818,46.4023998 122.780969,46.2584515 C122.46712,46.1145031 122.172622,45.9160318 121.897467,45.6630316 L121.858773,45.6630316 L121.768488,46.3173391 L120.917231,46.3173391 L120.917231,37 L121.974854,37 L121.974854,39.5387132 L121.949058,40.6902944 C122.232812,40.4372943 122.542357,40.2257369 122.877703,40.0556161 C123.213048,39.8854953 123.556987,39.8004362 123.90953,39.8004362 C124.313664,39.8004362 124.6705,39.8767713 124.98005,40.0294438 C125.2896,40.1821164 125.549704,40.4002167 125.760369,40.6837514 C125.971035,40.967286 126.130107,41.3075226 126.237589,41.7044711 C126.345072,42.1014197 126.398812,42.5441633 126.398812,43.0327154 C126.398812,43.5736123 126.325725,44.057795 126.179549,44.4852781 C126.033373,44.9127611 125.835608,45.2748077 125.586248,45.5714286 C125.336889,45.8680495 125.04884,46.0926928 124.722093,46.2453653 C124.395346,46.3980378 124.051408,46.474373 123.690266,46.474373 Z M123.509697,45.5714286 C123.767655,45.5714286 124.006262,45.5125415 124.225527,45.3947655 C124.444791,45.2769896 124.633957,45.1112333 124.793031,44.8974918 C124.952106,44.6837503 125.076783,44.4198489 125.167069,44.1057797 C125.257354,43.7917105 125.302496,43.438388 125.302496,43.0458015 C125.302496,42.6968358 125.272401,42.3784093 125.212211,42.0905125 C125.152021,41.8026158 125.055288,41.5561624 124.92201,41.351145 C124.788732,41.1461277 124.616762,40.9869144 124.406096,40.8735005 C124.195431,40.7600867 123.943925,40.7033806 123.651573,40.7033806 C123.144255,40.7033806 122.585355,40.991273 121.974854,41.5670665 L121.974854,44.9040349 C122.250009,45.1483109 122.523011,45.3206102 122.793867,45.4209378 C123.064723,45.5212655 123.30333,45.5714286 123.509697,45.5714286 Z M129.881229,46.474373 C129.210538,46.474373 128.722574,46.2649966 128.417324,45.8462377 C128.112074,45.4274788 127.959451,44.8080739 127.959451,43.9880044 L127.959451,39.95747 L129.029971,39.95747 L129.029971,43.8440567 C129.029971,44.4460226 129.122405,44.8800423 129.307275,45.1461287 C129.492145,45.4122151 129.790942,45.5452563 130.203674,45.5452563 C130.530421,45.5452563 130.81847,45.4601971 131.06783,45.2900763 C131.317189,45.1199555 131.59234,44.8473301 131.893291,44.4721919 L131.893291,39.95747 L132.950914,39.95747 L132.950914,46.3173391 L132.073861,46.3173391 L131.983576,45.3227917 L131.944883,45.3227917 C131.65253,45.6717575 131.345135,45.9509259 131.022687,46.1603053 C130.70024,46.3696848 130.319757,46.474373 129.881229,46.474373 Z M136.704185,46.474373 C136.257058,46.474373 135.831433,46.3914948 135.427299,46.2257361 C135.023165,46.0599774 134.670627,45.850601 134.369676,45.5976009 L134.898488,44.8778626 C135.173643,45.1046903 135.455243,45.2878946 135.743296,45.4274809 C136.031349,45.5670672 136.36454,45.6368593 136.742878,45.6368593 C137.155611,45.6368593 137.465156,45.5408952 137.671523,45.348964 C137.877889,45.1570328 137.981071,44.9214845 137.981071,44.6423119 C137.981071,44.4765532 137.938078,44.3326069 137.852092,44.2104689 C137.766106,44.0883309 137.656476,43.9814617 137.523198,43.8898582 C137.389919,43.7982547 137.237296,43.7175576 137.065324,43.6477644 L136.549411,43.438386 C136.325847,43.3598687 136.102287,43.2704476 135.878723,43.17012 C135.65516,43.0697923 135.455245,42.9476561 135.278974,42.8037077 C135.102702,42.6597594 134.958678,42.4918221 134.846896,42.2998909 C134.735114,42.1079598 134.679224,41.8767734 134.679224,41.606325 C134.679224,41.3533248 134.728665,41.1155954 134.827549,40.8931298 C134.926433,40.6706641 135.068308,40.4787358 135.253178,40.3173391 C135.438048,40.1559425 135.663758,40.0294443 135.930315,39.9378408 C136.196871,39.8462373 136.497818,39.8004362 136.833163,39.8004362 C137.228699,39.8004362 137.591984,39.8702283 137.923031,40.0098146 C138.254077,40.1494009 138.539976,40.3195192 138.780737,40.5201745 L138.277721,41.2006543 C138.062756,41.0348956 137.839196,40.8996734 137.607033,40.7949836 C137.374871,40.6902939 137.121216,40.6379498 136.846061,40.6379498 C136.450525,40.6379498 136.160327,40.729552 135.975457,40.912759 C135.790587,41.095966 135.698153,41.3097043 135.698153,41.5539804 C135.698153,41.7022908 135.736847,41.83097 135.814234,41.9400218 C135.891621,42.0490736 135.994803,42.1450378 136.123782,42.2279171 C136.252761,42.3107965 136.401085,42.3849506 136.568758,42.4503817 C136.73643,42.5158128 136.910549,42.5834239 137.09112,42.653217 C137.314684,42.7404585 137.540394,42.8320606 137.768256,42.9280262 C137.996119,43.0239918 138.200333,43.1439469 138.380904,43.2878953 C138.561474,43.4318437 138.709798,43.608505 138.825879,43.8178844 C138.94196,44.0272639 139,44.2802602 139,44.5768811 C139,44.8386055 138.950559,45.0828778 138.851675,45.3097056 C138.752791,45.5365333 138.606617,45.7371856 138.413148,45.9116685 C138.21968,46.0861514 137.978923,46.2235546 137.690869,46.3238822 C137.402816,46.4242099 137.073925,46.474373 136.704185,46.474373 Z" id="GeneExpressionOmnibus" fill="#326295"></path>
                </g>
            </g>
        </g>
    </g>
</svg>