<?xml version="1.0" encoding="UTF-8"?>
<svg width="136px" height="52px" viewBox="0 0 136 52" version="1.1" xmlns="http://www.w3.org/2000/svg" xmlns:xlink="http://www.w3.org/1999/xlink">
    <!-- Generator: sketchtool 53.2 (72643) - https://sketchapp.com -->
    <title>B1890821-5786-47A0-AE66-90ED3619E2D8</title>
    <desc>Created with sketchtool.</desc>
    <g id="List-Resources" stroke="none" stroke-width="1" fill="none" fill-rule="evenodd">
        <g id="list-resources" transform="translate(-224.000000, -485.000000)" fill-rule="nonzero">
            <g id="sra-logo" transform="translate(214.000000, 459.000000)">
                <g id="sra" transform="translate(10.000000, 21.000000)">
                    <path d="M72.704,31.384 C71.2319926,31.384 69.866673,31.1066694 68.608,30.552 C67.349327,29.9973306 66.2613379,29.2400048 65.344,28.28 L66.944,26.424 C67.6906704,27.2133373 68.5706616,27.8479976 69.584,28.328 C70.5973384,28.8080024 71.6479946,29.048 72.736,29.048 C74.1226736,29.048 75.1999962,28.7333365 75.968,28.104 C76.7360038,27.4746635 77.12,26.6480051 77.12,25.624 C77.12,25.090664 77.0293342,24.6373352 76.848,24.264 C76.6666658,23.8906648 76.4213349,23.570668 76.112,23.304 C75.8026651,23.037332 75.4346688,22.7973344 75.008,22.584 C74.5813312,22.3706656 74.1226691,22.1466678 73.632,21.912 L70.624,20.6 C70.1333309,20.3866656 69.6320026,20.1306682 69.12,19.832 C68.6079974,19.5333318 68.1493354,19.1706688 67.744,18.744 C67.3386646,18.3173312 67.0080013,17.8106696 66.752,17.224 C66.4959987,16.6373304 66.368,15.9600038 66.368,15.192 C66.368,14.4026627 66.5333317,13.6666701 66.864,12.984 C67.1946683,12.3013299 67.6533304,11.7093358 68.24,11.208 C68.8266696,10.7066642 69.519996,10.3173347 70.32,10.04 C71.120004,9.76266528 71.9999952,9.624 72.96,9.624 C74.218673,9.624 75.381328,9.8639976 76.448,10.344 C77.514672,10.8240024 78.4213296,11.4479962 79.168,12.216 L77.728,13.944 C77.0879968,13.3253302 76.3786706,12.8400018 75.6,12.488 C74.8213294,12.1359982 73.9413382,11.96 72.96,11.96 C71.7866608,11.96 70.8426702,12.2319973 70.128,12.776 C69.4133298,13.3200027 69.056,14.0719952 69.056,15.032 C69.056,15.5440026 69.1573323,15.9759982 69.36,16.328 C69.5626677,16.6800018 69.834665,16.989332 70.176,17.256 C70.517335,17.522668 70.8906646,17.7573323 71.296,17.96 C71.7013354,18.1626677 72.1173312,18.3493325 72.544,18.52 L75.52,19.8 C76.1173363,20.0560013 76.682664,20.3493317 77.216,20.68 C77.749336,21.0106683 78.2079981,21.3946645 78.592,21.832 C78.9760019,22.2693355 79.2799989,22.7813304 79.504,23.368 C79.7280011,23.9546696 79.84,24.6319962 79.84,25.4 C79.84,26.2320042 79.6746683,27.010663 79.344,27.736 C79.0133317,28.461337 78.5386698,29.0959973 77.92,29.64 C77.3013302,30.1840027 76.554671,30.6106651 75.68,30.92 C74.805329,31.2293349 73.8133389,31.384 72.704,31.384 Z M83.968,31 L83.968,10.008 L90.528,10.008 C91.594672,10.008 92.5813288,10.1093323 93.488,10.312 C94.3946712,10.5146677 95.1733301,10.8506643 95.824,11.32 C96.4746699,11.7893357 96.9813315,12.3973296 97.344,13.144 C97.7066685,13.8906704 97.888,14.8079946 97.888,15.896 C97.888,17.5386749 97.4613376,18.8506618 96.608,19.832 C95.7546624,20.8133382 94.6026739,21.4853315 93.152,21.848 L98.496,31 L95.488,31 L90.432,22.136 L86.624,22.136 L86.624,31 L83.968,31 Z M86.624,19.96 L90.144,19.96 C91.7866749,19.96 93.045329,19.6240034 93.92,18.952 C94.794671,18.2799966 95.232,17.2613402 95.232,15.896 C95.232,14.5093264 94.794671,13.5386694 93.92,12.984 C93.045329,12.4293306 91.7866749,12.152 90.144,12.152 L86.624,12.152 L86.624,19.96 Z M105.664,19.256 L104.672,22.456 L110.976,22.456 L109.984,19.256 C109.599998,18.0826608 109.237335,16.9146725 108.896,15.752 C108.554665,14.5893275 108.213335,13.4000061 107.872,12.184 L107.744,12.184 C107.423998,13.4000061 107.093335,14.5893275 106.752,15.752 C106.410665,16.9146725 106.048002,18.0826608 105.664,19.256 Z M99.264,31 L106.368,10.008 L109.376,10.008 L116.48,31 L113.632,31 L111.648,24.6 L104,24.6 L101.984,31 L99.264,31 Z" id="SRA" fill="#326295"></path>
                    <g id="nih" transform="translate(12.000000, 5.000000)">
                        <path d="M33.654826,8.84518622 L33.654826,23.1521828 L31.3095987,23.1521828 L31.3095987,16.6800954 L25.1721426,16.6800954 L25.1721426,23.1521828 L22.7587914,23.1521828 L22.7587914,8.84518622 L25.1052803,8.84518622 L25.1052803,14.5266793 L31.2439979,14.5266793 L31.2439979,8.84518622 L33.654826,8.84518622 Z M20.3441787,23.1521828 L18.000213,23.1521828 L18.000213,8.84518622 L20.3441787,8.84518622 L20.3441787,23.1521828 Z M15.6549857,23.1521828 L13.1722491,23.1521828 L7.03479305,12.6560881 L6.96540763,12.6560881 L6.96540763,23.1521828 L4.69461197,23.1521828 L4.69461197,8.84518622 L7.17230235,8.84518622 L13.3791438,19.3439119 L13.4485292,19.3439119 L13.4485292,8.84518622 L15.7193249,8.84518622 L15.7193249,23.1521828 L15.6549857,23.1521828 Z M42,15.9618515 L33.654826,0 L2.75938945,0 C2.01763853,0.00621057358 1.30898828,0.321078328 0.790909299,0.874635868 C0.27283032,1.42819341 -0.011761802,2.17458624 0.000372719849,2.94795692 L0.000372719849,29.0520431 C-0.011761802,29.8254138 0.27283032,30.5718066 0.790909299,31.1253641 C1.30898828,31.6789217 2.01763853,31.9937894 2.75938945,32 L33.5854405,32 L42,15.9618515 Z" id="Shape" fill="#63666A"></path>
                        <path d="M36,31.9947273 L44.0438235,15.9973637 L36,0 L37.9780883,0 C39.0986029,0 40.4181325,0.86472236 40.9452206,1.94562531 L48,15.9973637 L40.9452206,30.0543747 C40.4181325,31.1352776 39.0986029,32 37.9780883,32 L36,31.9947273 Z" id="Path" fill="#326295"></path>
                    </g>
                    <path d="M3.808,54.168 C3.16399678,54.168 2.56666942,54.0466679 2.016,53.804 C1.46533058,53.5613321 0.98933534,53.2300021 0.588,52.81 L1.288,51.998 C1.6146683,52.3433351 1.99966445,52.620999 2.443,52.831 C2.88633555,53.041001 3.34599762,53.146 3.822,53.146 C4.4286697,53.146 4.89999832,53.0083347 5.236,52.733 C5.57200168,52.4576653 5.74,52.0960022 5.74,51.648 C5.74,51.4146655 5.70033373,51.2163342 5.621,51.053 C5.54166627,50.8896659 5.43433401,50.7496673 5.299,50.633 C5.16366599,50.5163328 5.0026676,50.4113338 4.816,50.318 C4.6293324,50.2246662 4.42866774,50.1266672 4.214,50.024 L2.898,49.45 C2.68333226,49.3566662 2.46400112,49.2446673 2.24,49.114 C2.01599888,48.9833327 1.81533422,48.8246676 1.638,48.638 C1.46066578,48.4513324 1.31600056,48.2296679 1.204,47.973 C1.09199944,47.716332 1.036,47.4200017 1.036,47.084 C1.036,46.7386649 1.10833261,46.4166682 1.253,46.118 C1.39766739,45.8193318 1.59833205,45.5603344 1.855,45.341 C2.11166795,45.1216656 2.41499825,44.9513339 2.765,44.83 C3.11500175,44.7086661 3.4999979,44.648 3.92,44.648 C4.47066942,44.648 4.979331,44.7529989 5.446,44.963 C5.912669,45.173001 6.3093317,45.4459983 6.636,45.782 L6.006,46.538 C5.7259986,46.267332 5.41566837,46.0550008 5.075,45.901 C4.73433163,45.7469992 4.34933548,45.67 3.92,45.67 C3.4066641,45.67 2.99366823,45.7889988 2.681,46.027 C2.36833177,46.2650012 2.212,46.5939979 2.212,47.014 C2.212,47.2380011 2.25633289,47.4269992 2.345,47.581 C2.43366711,47.7350008 2.55266592,47.8703328 2.702,47.987 C2.85133408,48.1036673 3.01466578,48.2063329 3.192,48.295 C3.36933422,48.3836671 3.5513324,48.465333 3.738,48.54 L5.04,49.1 C5.30133464,49.2120006 5.5486655,49.3403326 5.782,49.485 C6.0153345,49.6296674 6.21599916,49.7976657 6.384,49.989 C6.55200084,50.1803343 6.68499951,50.4043321 6.783,50.661 C6.88100049,50.9176679 6.93,51.2139983 6.93,51.55 C6.93,51.9140018 6.85766739,52.2546651 6.713,52.572 C6.56833261,52.8893349 6.36066802,53.1669988 6.09,53.405 C5.81933198,53.6430012 5.49266858,53.829666 5.11,53.965 C4.72733142,54.100334 4.29333576,54.168 3.808,54.168 Z M11.382,54.168 C10.9246644,54.168 10.4976686,54.0863341 10.101,53.923 C9.70433135,53.7596659 9.35900147,53.5263348 9.065,53.223 C8.77099853,52.9196652 8.54000084,52.5486689 8.372,52.11 C8.20399916,51.6713311 8.12,51.1720028 8.12,50.612 C8.12,50.0519972 8.20633247,49.5503355 8.379,49.107 C8.55166753,48.6636644 8.78033191,48.2880015 9.065,47.98 C9.34966809,47.6719985 9.67399818,47.4363342 10.038,47.273 C10.4020018,47.1096658 10.779998,47.028 11.172,47.028 C11.6013355,47.028 11.9863316,47.1026659 12.327,47.252 C12.6676684,47.4013341 12.9523322,47.6159986 13.181,47.896 C13.4096678,48.1760014 13.5846661,48.511998 13.706,48.904 C13.8273339,49.296002 13.888,49.7346642 13.888,50.22 C13.888,50.3413339 13.8856667,50.4603327 13.881,50.577 C13.8763333,50.6936672 13.8646668,50.7939996 13.846,50.878 L9.254,50.878 C9.3006669,51.6060036 9.52699797,52.1823312 9.933,52.607 C10.339002,53.0316688 10.8686634,53.244 11.522,53.244 C11.8486683,53.244 12.1496653,53.1950005 12.425,53.097 C12.7003347,52.9989995 12.9639987,52.8706675 13.216,52.712 L13.622,53.468 C13.3233318,53.6546676 12.9920018,53.8179993 12.628,53.958 C12.2639982,54.0980007 11.848669,54.168 11.382,54.168 Z M9.24,50.052 L12.88,50.052 C12.88,49.3613299 12.7330015,48.8363351 12.439,48.477 C12.1449985,48.1176649 11.7320027,47.938 11.2,47.938 C10.9573321,47.938 10.7263344,47.9846662 10.507,48.078 C10.2876656,48.1713338 10.0893342,48.3089991 9.912,48.491 C9.73466578,48.6730009 9.58766725,48.8946654 9.471,49.156 C9.35433275,49.4173346 9.27733352,49.7159983 9.24,50.052 Z M19.88,56.87 L19.88,54.448 L19.936,53.216 C19.665332,53.486668 19.3550017,53.7129991 19.005,53.895 C18.6549983,54.0770009 18.284002,54.168 17.892,54.168 C17.033329,54.168 16.3496692,53.8600031 15.841,53.244 C15.3323308,52.6279969 15.078,51.7506724 15.078,50.612 C15.078,50.0613306 15.1596659,49.5643355 15.323,49.121 C15.4863342,48.6776644 15.703332,48.3020015 15.974,47.994 C16.244668,47.6859985 16.5573316,47.4480008 16.912,47.28 C17.2666684,47.1119992 17.639998,47.028 18.032,47.028 C18.424002,47.028 18.7693318,47.095666 19.068,47.231 C19.3666682,47.366334 19.6699985,47.569332 19.978,47.84 L20.006,47.84 L20.118,47.196 L21.042,47.196 L21.042,56.87 L19.88,56.87 Z M18.144,53.202 C18.4613349,53.202 18.7599986,53.1250008 19.04,52.971 C19.3200014,52.8169992 19.5999986,52.5813349 19.88,52.264 L19.88,48.708 C19.5906652,48.4466654 19.3130013,48.2623339 19.047,48.155 C18.7809987,48.0476661 18.5080014,47.994 18.228,47.994 C17.957332,47.994 17.7030012,48.0569994 17.465,48.183 C17.2269988,48.3090006 17.0193342,48.4863322 16.842,48.715 C16.6646658,48.9436678 16.5246672,49.2166651 16.422,49.534 C16.3193328,49.8513349 16.268,50.205998 16.268,50.598 C16.268,51.4193374 16.4313317,52.0586644 16.758,52.516 C17.0846683,52.9733356 17.5466637,53.202 18.144,53.202 Z M25.326,54.168 C24.5979964,54.168 24.068335,53.9440022 23.737,53.496 C23.405665,53.0479978 23.24,52.3853377 23.24,51.508 L23.24,47.196 L24.402,47.196 L24.402,51.354 C24.402,51.9980032 24.5023323,52.4623319 24.703,52.747 C24.9036677,53.0316681 25.2279978,53.174 25.676,53.174 C26.0306684,53.174 26.343332,53.0830009 26.614,52.901 C26.884668,52.7189991 27.1833317,52.4273353 27.51,52.026 L27.51,47.196 L28.658,47.196 L28.658,54 L27.706,54 L27.608,52.936 L27.566,52.936 C27.2486651,53.3093352 26.9150018,53.6079989 26.565,53.832 C26.2149983,54.0560011 25.8020024,54.168 25.326,54.168 Z M33.712,54.168 C33.2546644,54.168 32.8276687,54.0863341 32.431,53.923 C32.0343313,53.7596659 31.6890015,53.5263348 31.395,53.223 C31.1009985,52.9196652 30.8700008,52.5486689 30.702,52.11 C30.5339992,51.6713311 30.45,51.1720028 30.45,50.612 C30.45,50.0519972 30.5363325,49.5503355 30.709,49.107 C30.8816675,48.6636644 31.1103319,48.2880015 31.395,47.98 C31.6796681,47.6719985 32.0039982,47.4363342 32.368,47.273 C32.7320018,47.1096658 33.109998,47.028 33.502,47.028 C33.9313355,47.028 34.3163316,47.1026659 34.657,47.252 C34.9976684,47.4013341 35.2823322,47.6159986 35.511,47.896 C35.7396678,48.1760014 35.9146661,48.511998 36.036,48.904 C36.1573339,49.296002 36.218,49.7346642 36.218,50.22 C36.218,50.3413339 36.2156667,50.4603327 36.211,50.577 C36.2063333,50.6936672 36.1946668,50.7939996 36.176,50.878 L31.584,50.878 C31.6306669,51.6060036 31.856998,52.1823312 32.263,52.607 C32.669002,53.0316688 33.1986634,53.244 33.852,53.244 C34.1786683,53.244 34.4796653,53.1950005 34.755,53.097 C35.0303347,52.9989995 35.2939987,52.8706675 35.546,52.712 L35.952,53.468 C35.6533318,53.6546676 35.3220018,53.8179993 34.958,53.958 C34.5939982,54.0980007 34.178669,54.168 33.712,54.168 Z M31.57,50.052 L35.21,50.052 C35.21,49.3613299 35.0630015,48.8363351 34.769,48.477 C34.4749985,48.1176649 34.0620027,47.938 33.53,47.938 C33.2873321,47.938 33.0563344,47.9846662 32.837,48.078 C32.6176656,48.1713338 32.4193342,48.3089991 32.242,48.491 C32.0646658,48.6730009 31.9176673,48.8946654 31.801,49.156 C31.6843328,49.4173346 31.6073335,49.7159983 31.57,50.052 Z M37.898,54 L37.898,47.196 L38.85,47.196 L38.948,48.176 L38.99,48.176 C39.3166683,47.8493317 39.6596649,47.5763344 40.019,47.357 C40.3783351,47.1376656 40.7959976,47.028 41.272,47.028 C41.9906703,47.028 42.515665,47.2519978 42.847,47.7 C43.178335,48.1480022 43.344,48.8106623 43.344,49.688 L43.344,54 L42.196,54 L42.196,49.842 C42.196,49.1979968 42.0933344,48.7336681 41.888,48.449 C41.6826656,48.1643319 41.3560022,48.022 40.908,48.022 C40.5533316,48.022 40.240668,48.1106658 39.97,48.288 C39.699332,48.4653342 39.3913351,48.7266649 39.046,49.072 L39.046,54 L37.898,54 Z M48.244,54.168 C47.7959978,54.168 47.376002,54.0886675 46.984,53.93 C46.591998,53.7713325 46.2536681,53.5403349 45.969,53.237 C45.6843319,52.9336651 45.4603342,52.5603355 45.297,52.117 C45.1336658,51.6736645 45.052,51.1720028 45.052,50.612 C45.052,50.0426638 45.1406658,49.5363355 45.318,49.093 C45.4953342,48.6496645 45.7333318,48.2740015 46.032,47.966 C46.3306682,47.6579985 46.6783314,47.4246675 47.075,47.266 C47.4716686,47.1073325 47.8893311,47.028 48.328,47.028 C48.7760022,47.028 49.1586651,47.1073325 49.476,47.266 C49.7933349,47.4246675 50.0733321,47.6113323 50.316,47.826 L49.728,48.582 C49.531999,48.4046658 49.3243344,48.2600006 49.105,48.148 C48.8856656,48.0359994 48.640668,47.98 48.37,47.98 C48.0619985,47.98 47.7773346,48.0429994 47.516,48.169 C47.2546654,48.2950006 47.0306676,48.4746655 46.844,48.708 C46.6573324,48.9413345 46.5103339,49.2189984 46.403,49.541 C46.2956661,49.8630016 46.242,50.219998 46.242,50.612 C46.242,51.004002 46.2933328,51.3586651 46.396,51.676 C46.4986672,51.9933349 46.6409991,52.2663322 46.823,52.495 C47.0050009,52.7236678 47.2266654,52.9009994 47.488,53.027 C47.7493346,53.1530006 48.0339985,53.216 48.342,53.216 C48.6593349,53.216 48.9509987,53.148334 49.217,53.013 C49.4830013,52.877666 49.7233323,52.7166676 49.938,52.53 L50.442,53.3 C50.1339985,53.570668 49.7933352,53.7829992 49.42,53.937 C49.0466648,54.0910008 48.6546687,54.168 48.244,54.168 Z M54.404,54.168 C53.9466644,54.168 53.5196686,54.0863341 53.123,53.923 C52.7263314,53.7596659 52.3810015,53.5263348 52.087,53.223 C51.7929985,52.9196652 51.5620008,52.5486689 51.394,52.11 C51.2259992,51.6713311 51.142,51.1720028 51.142,50.612 C51.142,50.0519972 51.2283325,49.5503355 51.401,49.107 C51.5736675,48.6636644 51.8023319,48.2880015 52.087,47.98 C52.3716681,47.6719985 52.6959982,47.4363342 53.06,47.273 C53.4240018,47.1096658 53.801998,47.028 54.194,47.028 C54.6233355,47.028 55.0083316,47.1026659 55.349,47.252 C55.6896684,47.4013341 55.9743322,47.6159986 56.203,47.896 C56.4316678,48.1760014 56.6066661,48.511998 56.728,48.904 C56.8493339,49.296002 56.91,49.7346642 56.91,50.22 C56.91,50.3413339 56.9076667,50.4603327 56.903,50.577 C56.8983333,50.6936672 56.8866668,50.7939996 56.868,50.878 L52.276,50.878 C52.3226669,51.6060036 52.548998,52.1823312 52.955,52.607 C53.361002,53.0316688 53.8906634,53.244 54.544,53.244 C54.8706683,53.244 55.1716653,53.1950005 55.447,53.097 C55.7223347,52.9989995 55.9859987,52.8706675 56.238,52.712 L56.644,53.468 C56.3453318,53.6546676 56.0140018,53.8179993 55.65,53.958 C55.2859982,54.0980007 54.870669,54.168 54.404,54.168 Z M52.262,50.052 L55.902,50.052 C55.902,49.3613299 55.7550015,48.8363351 55.461,48.477 C55.1669985,48.1176649 54.7540027,47.938 54.222,47.938 C53.9793321,47.938 53.7483344,47.9846662 53.529,48.078 C53.3096656,48.1713338 53.1113342,48.3089991 52.934,48.491 C52.7566658,48.6730009 52.6096673,48.8946654 52.493,49.156 C52.3763328,49.4173346 52.2993335,49.7159983 52.262,50.052 Z M61.502,54 L61.502,44.816 L64.372,44.816 C64.838669,44.816 65.2703314,44.8603329 65.667,44.949 C66.0636687,45.0376671 66.4043319,45.1846656 66.689,45.39 C66.9736681,45.5953344 67.1953325,45.8613317 67.354,46.188 C67.5126675,46.5146683 67.592,46.9159976 67.592,47.392 C67.592,48.1106703 67.4053352,48.6846645 67.032,49.114 C66.6586648,49.5433355 66.1546698,49.8373325 65.52,49.996 L67.858,54 L66.542,54 L64.33,50.122 L62.664,50.122 L62.664,54 L61.502,54 Z M62.664,49.17 L64.204,49.17 C64.9226703,49.17 65.4733314,49.0230015 65.856,48.729 C66.2386686,48.4349985 66.43,47.9893363 66.43,47.392 C66.43,46.7853303 66.2386686,46.3606679 65.856,46.118 C65.4733314,45.8753321 64.9226703,45.754 64.204,45.754 L62.664,45.754 L62.664,49.17 Z M71.974,54.168 C71.5166644,54.168 71.0896687,54.0863341 70.693,53.923 C70.2963314,53.7596659 69.9510015,53.5263348 69.657,53.223 C69.3629985,52.9196652 69.1320008,52.5486689 68.964,52.11 C68.7959992,51.6713311 68.712,51.1720028 68.712,50.612 C68.712,50.0519972 68.7983325,49.5503355 68.971,49.107 C69.1436675,48.6636644 69.3723319,48.2880015 69.657,47.98 C69.9416681,47.6719985 70.2659982,47.4363342 70.63,47.273 C70.9940018,47.1096658 71.371998,47.028 71.764,47.028 C72.1933355,47.028 72.5783316,47.1026659 72.919,47.252 C73.2596684,47.4013341 73.5443322,47.6159986 73.773,47.896 C74.0016678,48.1760014 74.1766661,48.511998 74.298,48.904 C74.4193339,49.296002 74.48,49.7346642 74.48,50.22 C74.48,50.3413339 74.4776667,50.4603327 74.473,50.577 C74.4683333,50.6936672 74.4566668,50.7939996 74.438,50.878 L69.846,50.878 C69.8926669,51.6060036 70.118998,52.1823312 70.525,52.607 C70.931002,53.0316688 71.4606634,53.244 72.114,53.244 C72.4406683,53.244 72.7416653,53.1950005 73.017,53.097 C73.2923347,52.9989995 73.5559987,52.8706675 73.808,52.712 L74.214,53.468 C73.9153318,53.6546676 73.5840018,53.8179993 73.22,53.958 C72.8559982,54.0980007 72.440669,54.168 71.974,54.168 Z M69.832,50.052 L73.472,50.052 C73.472,49.3613299 73.3250015,48.8363351 73.031,48.477 C72.7369985,48.1176649 72.3240027,47.938 71.792,47.938 C71.5493321,47.938 71.3183344,47.9846662 71.099,48.078 C70.8796656,48.1713338 70.6813342,48.3089991 70.504,48.491 C70.3266658,48.6730009 70.1796673,48.8946654 70.063,49.156 C69.9463328,49.4173346 69.8693335,49.7159983 69.832,50.052 Z M77.532,54.168 C76.9626638,54.168 76.4890019,54.0000017 76.111,53.664 C75.7329981,53.3279983 75.544,52.8520031 75.544,52.236 C75.544,51.4893296 75.87533,50.9176686 76.538,50.521 C77.20067,50.1243313 78.2599927,49.8466675 79.716,49.688 C79.716,49.4733323 79.6950002,49.2633344 79.653,49.058 C79.6109998,48.8526656 79.5386672,48.6706675 79.436,48.512 C79.3333328,48.3533325 79.1910009,48.2250005 79.009,48.127 C78.8269991,48.0289995 78.5960014,47.98 78.316,47.98 C77.923998,47.98 77.5553351,48.0546659 77.21,48.204 C76.8646649,48.3533341 76.556668,48.5213324 76.286,48.708 L75.838,47.91 C76.1553349,47.7046656 76.5426644,47.5063343 77,47.315 C77.4573356,47.1236657 77.9613306,47.028 78.512,47.028 C79.3426708,47.028 79.9446648,47.2823308 80.318,47.791 C80.6913352,48.2996692 80.878,48.9786624 80.878,49.828 L80.878,54 L79.926,54 L79.828,53.188 L79.786,53.188 C79.4593317,53.458668 79.1093352,53.6896657 78.736,53.881 C78.3626648,54.0723343 77.9613355,54.168 77.532,54.168 Z M77.868,53.244 C78.1946683,53.244 78.5026652,53.1670008 78.792,53.013 C79.0813348,52.8589992 79.3893317,52.6326682 79.716,52.334 L79.716,50.444 C79.1466638,50.518667 78.6683353,50.6073328 78.281,50.71 C77.8936647,50.8126672 77.5810012,50.9339993 77.343,51.074 C77.1049988,51.2140007 76.9323339,51.3749991 76.825,51.557 C76.7176661,51.7390009 76.664,51.9373323 76.664,52.152 C76.664,52.544002 76.7806655,52.8239992 77.014,52.992 C77.2473345,53.1600008 77.5319983,53.244 77.868,53.244 Z M85.344,54.168 C84.485329,54.168 83.8016692,53.8600031 83.293,53.244 C82.7843308,52.6279969 82.53,51.7506724 82.53,50.612 C82.53,50.0613306 82.6116659,49.5643355 82.775,49.121 C82.9383342,48.6776644 83.155332,48.3020015 83.426,47.994 C83.696668,47.6859985 84.0093316,47.4480008 84.364,47.28 C84.7186684,47.1119992 85.091998,47.028 85.484,47.028 C85.876002,47.028 86.2166652,47.0979993 86.506,47.238 C86.7953348,47.3780007 87.0893318,47.5693321 87.388,47.812 L87.332,46.65 L87.332,44.032 L88.494,44.032 L88.494,54 L87.542,54 L87.444,53.202 L87.402,53.202 C87.131332,53.4633346 86.8210018,53.6896657 86.471,53.881 C86.1209983,54.0723343 85.7453353,54.168 85.344,54.168 Z M85.596,53.202 C85.9133349,53.202 86.2119986,53.1250008 86.492,52.971 C86.7720014,52.8169992 87.0519986,52.5813349 87.332,52.264 L87.332,48.708 C87.0426652,48.4466654 86.7650013,48.2623339 86.499,48.155 C86.2329987,48.0476661 85.9600014,47.994 85.68,47.994 C85.409332,47.994 85.1550012,48.0569994 84.917,48.183 C84.6789988,48.3090006 84.4713342,48.4863322 84.294,48.715 C84.1166658,48.9436678 83.9766672,49.2166651 83.874,49.534 C83.7713328,49.8513349 83.72,50.205998 83.72,50.598 C83.72,51.4193374 83.8833317,52.0586644 84.21,52.516 C84.5366683,52.9733356 84.9986637,53.202 85.596,53.202 Z M95.284,48.862 L94.85,50.262 L97.608,50.262 L97.174,48.862 C97.0059992,48.3486641 96.8473341,47.8376692 96.698,47.329 C96.5486659,46.8203308 96.3993341,46.3000027 96.25,45.768 L96.194,45.768 C96.0539993,46.3000027 95.9093341,46.8203308 95.76,47.329 C95.6106659,47.8376692 95.4520008,48.3486641 95.284,48.862 Z M92.484,54 L95.592,44.816 L96.908,44.816 L100.016,54 L98.77,54 L97.902,51.2 L94.556,51.2 L93.674,54 L92.484,54 Z M101.206,54 L101.206,47.196 L102.158,47.196 L102.256,48.428 L102.298,48.428 C102.531334,47.9986645 102.813665,47.6580013 103.145,47.406 C103.476335,47.1539987 103.837998,47.028 104.23,47.028 C104.500668,47.028 104.743332,47.0746662 104.958,47.168 L104.734,48.176 C104.621999,48.1386665 104.519334,48.1106668 104.426,48.092 C104.332666,48.0733332 104.216001,48.064 104.076,48.064 C103.786665,48.064 103.485668,48.1806655 103.173,48.414 C102.860332,48.6473345 102.587334,49.0533304 102.354,49.632 L102.354,54 L101.206,54 Z M108.612,54.168 C108.163998,54.168 107.744002,54.0886675 107.352,53.93 C106.959998,53.7713325 106.621668,53.5403349 106.337,53.237 C106.052332,52.9336651 105.828334,52.5603355 105.665,52.117 C105.501666,51.6736645 105.42,51.1720028 105.42,50.612 C105.42,50.0426638 105.508666,49.5363355 105.686,49.093 C105.863334,48.6496645 106.101332,48.2740015 106.4,47.966 C106.698668,47.6579985 107.046331,47.4246675 107.443,47.266 C107.839669,47.1073325 108.257331,47.028 108.696,47.028 C109.144002,47.028 109.526665,47.1073325 109.844,47.266 C110.161335,47.4246675 110.441332,47.6113323 110.684,47.826 L110.096,48.582 C109.899999,48.4046658 109.692334,48.2600006 109.473,48.148 C109.253666,48.0359994 109.008668,47.98 108.738,47.98 C108.429998,47.98 108.145335,48.0429994 107.884,48.169 C107.622665,48.2950006 107.398668,48.4746655 107.212,48.708 C107.025332,48.9413345 106.878334,49.2189984 106.771,49.541 C106.663666,49.8630016 106.61,50.219998 106.61,50.612 C106.61,51.004002 106.661333,51.3586651 106.764,51.676 C106.866667,51.9933349 107.008999,52.2663322 107.191,52.495 C107.373001,52.7236678 107.594665,52.9009994 107.856,53.027 C108.117335,53.1530006 108.401998,53.216 108.71,53.216 C109.027335,53.216 109.318999,53.148334 109.585,53.013 C109.851001,52.877666 110.091332,52.7166676 110.306,52.53 L110.81,53.3 C110.501998,53.570668 110.161335,53.7829992 109.788,53.937 C109.414665,54.0910008 109.022669,54.168 108.612,54.168 Z M112.308,54 L112.308,44.032 L113.456,44.032 L113.456,46.748 L113.414,48.148 C113.740668,47.8399985 114.081332,47.5763344 114.436,47.357 C114.790668,47.1376656 115.205998,47.028 115.682,47.028 C116.40067,47.028 116.925665,47.2519978 117.257,47.7 C117.588335,48.1480022 117.754,48.8106623 117.754,49.688 L117.754,54 L116.606,54 L116.606,49.842 C116.606,49.1979968 116.503334,48.7336681 116.298,48.449 C116.092666,48.1643319 115.766002,48.022 115.318,48.022 C114.963332,48.022 114.650668,48.1106658 114.38,48.288 C114.109332,48.4653342 113.801335,48.7266649 113.456,49.072 L113.456,54 L112.308,54 Z M119.924,54 L119.924,47.196 L121.072,47.196 L121.072,54 L119.924,54 Z M120.512,45.796 C120.287999,45.796 120.099001,45.7260007 119.945,45.586 C119.790999,45.4459993 119.714,45.2686677 119.714,45.054 C119.714,44.8299989 119.790999,44.650334 119.945,44.515 C120.099001,44.379666 120.287999,44.312 120.512,44.312 C120.736001,44.312 120.924999,44.379666 121.079,44.515 C121.233001,44.650334 121.31,44.8299989 121.31,45.054 C121.31,45.2686677 121.233001,45.4459993 121.079,45.586 C120.924999,45.7260007 120.736001,45.796 120.512,45.796 Z M124.838,54 L122.388,47.196 L123.578,47.196 L124.866,51.06 C124.968667,51.3960017 125.073666,51.7319983 125.181,52.068 C125.288334,52.4040017 125.393333,52.7353317 125.496,53.062 L125.552,53.062 C125.654667,52.7353317 125.757333,52.4040017 125.86,52.068 L126.168,51.06 L127.456,47.196 L128.59,47.196 L126.182,54 L124.838,54 Z M132.608,54.168 C132.150664,54.168 131.723669,54.0863341 131.327,53.923 C130.930331,53.7596659 130.585001,53.5263348 130.291,53.223 C129.996999,52.9196652 129.766001,52.5486689 129.598,52.11 C129.429999,51.6713311 129.346,51.1720028 129.346,50.612 C129.346,50.0519972 129.432332,49.5503355 129.605,49.107 C129.777668,48.6636644 130.006332,48.2880015 130.291,47.98 C130.575668,47.6719985 130.899998,47.4363342 131.264,47.273 C131.628002,47.1096658 132.005998,47.028 132.398,47.028 C132.827335,47.028 133.212332,47.1026659 133.553,47.252 C133.893668,47.4013341 134.178332,47.6159986 134.407,47.896 C134.635668,48.1760014 134.810666,48.511998 134.932,48.904 C135.053334,49.296002 135.114,49.7346642 135.114,50.22 C135.114,50.3413339 135.111667,50.4603327 135.107,50.577 C135.102333,50.6936672 135.090667,50.7939996 135.072,50.878 L130.48,50.878 C130.526667,51.6060036 130.752998,52.1823312 131.159,52.607 C131.565002,53.0316688 132.094663,53.244 132.748,53.244 C133.074668,53.244 133.375665,53.1950005 133.651,53.097 C133.926335,52.9989995 134.189999,52.8706675 134.442,52.712 L134.848,53.468 C134.549332,53.6546676 134.218002,53.8179993 133.854,53.958 C133.489998,54.0980007 133.074669,54.168 132.608,54.168 Z M130.466,50.052 L134.106,50.052 C134.106,49.3613299 133.959001,48.8363351 133.665,48.477 C133.370999,48.1176649 132.958003,47.938 132.426,47.938 C132.183332,47.938 131.952334,47.9846662 131.733,48.078 C131.513666,48.1713338 131.315334,48.3089991 131.138,48.491 C130.960666,48.6730009 130.813667,48.8946654 130.697,49.156 C130.580333,49.4173346 130.503334,49.7159983 130.466,50.052 Z" id="SequenceReadArchive" fill="#326295"></path>
                </g>
            </g>
        </g>
    </g>
</svg>