<?xml version="1.0" encoding="UTF-8"?>
<svg width="62px" height="57px" viewBox="0 0 62 57" version="1.1" xmlns="http://www.w3.org/2000/svg" xmlns:xlink="http://www.w3.org/1999/xlink">
    <!-- Generator: Sketch 53.2 (72643) - https://sketchapp.com -->
    <title>add-resoruce</title>
    <desc>Created with Sketch.</desc>
    <g id="add-resoruce--Landing-Page" stroke="none" stroke-width="1" fill="none" fill-rule="evenodd">
        <g id="add-resoruce--Artboard" transform="translate(-186.000000, -677.000000)">
            <g id="add-resoruce--add-resoruce" transform="translate(181.000000, 669.000000)">
                <rect id="add-resoruce--Rectangle" x="0" y="0" width="72" height="72"></rect>
                <g id="add-resoruce--Group" transform="translate(6.000000, 8.000000)" fill-rule="nonzero">
                    <path d="M53.5,18.8533333 C53.0625,20.16 52.25,22.2133333 51.25,24.3288889 C51.8125,25.8222222 51.8125,27.6888889 50.6875,29.8666667 C50.4375,30.3644444 50.0625,30.9244444 49.6875,31.4222222 C48.6875,32.7288889 47.375,34.16 45.9375,35.7777778 C45.8125,35.9022222 45.75,35.9644444 45.625,36.0888889 C45.25,36.4622222 44.6875,36.5866667 44.25,36.3377778 C43.6875,35.9644444 43.625,35.2177778 44.0625,34.72 C44.1875,34.5955556 44.3125,34.4711111 44.375,34.3466667 C46.25,32.2933333 48.0625,30.3644444 48.8125,28.8711111 C50.25,26.1333333 49.25,24.2666667 47.9375,23.52 C46.8125,22.8977778 45.25,22.8355556 44.4375,24.1422222 C43.25,25.9466667 41.5625,27.8133333 39.9375,29.68 C38.0625,31.7955556 36.25,34.0355556 35.125,35.7777778 C33.9375,37.7688889 32.4375,42.4355556 32.125,47.3511111 C32,49.7777778 31.875,52.5155556 31.875,54.1955556 C31.875,55.0666667 32.5625,55.7511111 33.375,55.7511111 L43.125,55.7511111 C43.9375,55.7511111 44.625,55.0666667 44.625,54.2577778 L44.625,51.52 C44.625,50.8355556 44.9375,50.2755556 45.5,49.9022222 C48.9375,47.5377778 52.25,44.6755556 54.0625,42.56 C58.0625,37.9555556 59.5,24.2666667 59.6875,20.2222222 C59.875,16.0533333 54.6875,15.12 53.5,18.8533333 Z" id="add-resoruce--Path" stroke="#98BF61" stroke-width="2"></path>
                    <path d="M24.875,35.7777778 C23.8125,34.0355556 22,31.7955556 20.0625,29.68 C18.4375,27.8755556 16.75,25.9466667 15.5625,24.1422222 C14.75,22.8977778 13.1875,22.8977778 12.0625,23.52 C10.6875,24.3288889 9.75,26.1333333 11.1875,28.8711111 C11.9375,30.3644444 13.75,32.2933333 15.625,34.3466667 C15.75,34.4711111 15.875,34.5955556 15.9375,34.72 C16.375,35.2177778 16.3125,35.9644444 15.75,36.3377778 C15.3125,36.6488889 14.6875,36.5244444 14.375,36.0888889 C14.25,35.9644444 14.1875,35.84 14.0625,35.7777778 C12.625,34.16 11.25,32.7288889 10.3125,31.4222222 C9.9375,30.8622222 9.5625,30.3644444 9.3125,29.8666667 C8.1875,27.7511111 8.1875,25.8222222 8.75,24.3288889 C7.75,22.1511111 6.875,20.16 6.5,18.8533333 C5.3125,15.0577778 0.125,15.9911111 0.3125,20.0977778 C0.5,24.1422222 2,37.8311111 5.9375,42.4355556 C7.75,44.5511111 11.0625,47.4133333 14.5,49.7777778 C15.0625,50.1511111 15.375,50.7733333 15.375,51.3955556 L15.375,54.1333333 C15.375,54.9422222 16.0625,55.6266667 16.875,55.6266667 L26.625,55.6266667 C27.5,55.6266667 28.1875,54.9422222 28.125,54.0711111 C28.0625,52.3911111 28,49.6533333 27.875,47.2266667 C27.625,42.4355556 26.0625,37.7688889 24.875,35.7777778 Z" id="add-resoruce--Path" stroke="#98BF61" stroke-width="2"></path>
                    <path d="M36.25,22.0888889 L36.25,3.42222222 L37.125,3.42222222 C38,3.42222222 38.6875,2.73777778 38.6875,1.86666667 C38.6875,0.995555556 38,0.311111111 37.125,0.311111111 L22.8125,0.311111111 C21.9375,0.248888889 21.25,0.995555556 21.25,1.86666667 C21.25,2.73777778 21.9375,3.42222222 22.8125,3.42222222 L23.75,3.42222222 L23.75,22.0888889 C23.75,25.5111111 26.5625,28.3111111 30,28.3111111 C33.4375,28.3111111 36.25,25.5111111 36.25,22.0888889 Z M33.0625,3.42222222 L33.0625,8.58666667 L26.875,8.58666667 L26.875,3.42222222 L33.0625,3.42222222 Z" id="add-resoruce--Shape" fill="#017FA3"></path>
                </g>
            </g>
        </g>
    </g>
</svg>