<?xml version="1.0" encoding="UTF-8"?>
<svg width="140px" height="79px" viewBox="0 0 140 79" version="1.1" xmlns="http://www.w3.org/2000/svg" xmlns:xlink="http://www.w3.org/1999/xlink">
    <!-- Generator: Sketch 53.2 (72643) - https://sketchapp.com -->
    <title>illucons/cite-large</title>
    <desc>Created with Sketch.</desc>
    <defs>
        <path d="M23.14,14.3666667 C26,14.7333333 31.0375,18.4666667 31.0375,24.8 C31.0375,29.2666667 28.5025,31.3333333 25.545,31.3333333 C22.23,31.3333333 20.5075,28.7 20.5075,25.5666667 C20.5075,21.4333333 23.53,20.4 25.415,20.2333333 C25.545,19.1333333 24.18,17.2 22.5225,16.1 L23.14,14.3666667 Z M10.595,14.3666667 C13.455,14.7333333 18.4925,18.4666667 18.4925,24.8 C18.4925,29.2666667 15.9575,31.3333333 13,31.3333333 C9.685,31.3333333 7.9625,28.7 7.9625,25.5666667 C7.9625,21.4333333 10.985,20.4 12.87,20.2333333 C13,19.1333333 11.635,17.2 9.9775,16.1 L10.595,14.3666667 Z M0,0 L0,33.3333333 C0,36.5666667 1.7225,38.3333333 4.875,38.3333333 L34.125,38.3333333 C37.2775,38.3333333 39,36.5666667 39,33.3333333 L39,13.3333333 C39,10.1 37.2775,8.33333333 34.125,8.33333333 L8.125,8.33333333 L0,0 Z" id="path-1"></path>
        <path d="M23.14,14.3666667 C26,14.7333333 31.0375,18.4666667 31.0375,24.8 C31.0375,29.2666667 28.5025,31.3333333 25.545,31.3333333 C22.23,31.3333333 20.5075,28.7 20.5075,25.5666667 C20.5075,21.4333333 23.53,20.4 25.415,20.2333333 C25.545,19.1333333 24.18,17.2 22.5225,16.1 L23.14,14.3666667 Z M10.595,14.3666667 C13.455,14.7333333 18.4925,18.4666667 18.4925,24.8 C18.4925,29.2666667 15.9575,31.3333333 13,31.3333333 C9.685,31.3333333 7.9625,28.7 7.9625,25.5666667 C7.9625,21.4333333 10.985,20.4 12.87,20.2333333 C13,19.1333333 11.635,17.2 9.9775,16.1 L10.595,14.3666667 Z M0,0 L0,33.3333333 C0,36.5666667 1.7225,38.3333333 4.875,38.3333333 L34.125,38.3333333 C37.2775,38.3333333 39,36.5666667 39,33.3333333 L39,13.3333333 C39,10.1 37.2775,8.33333333 34.125,8.33333333 L8.125,8.33333333 L0,0 Z" id="path-3"></path>
        <path d="M23.14,14.3666667 C26,14.7333333 31.0375,18.4666667 31.0375,24.8 C31.0375,29.2666667 28.5025,31.3333333 25.545,31.3333333 C22.23,31.3333333 20.5075,28.7 20.5075,25.5666667 C20.5075,21.4333333 23.53,20.4 25.415,20.2333333 C25.545,19.1333333 24.18,17.2 22.5225,16.1 L23.14,14.3666667 Z M10.595,14.3666667 C13.455,14.7333333 18.4925,18.4666667 18.4925,24.8 C18.4925,29.2666667 15.9575,31.3333333 13,31.3333333 C9.685,31.3333333 7.9625,28.7 7.9625,25.5666667 C7.9625,21.4333333 10.985,20.4 12.87,20.2333333 C13,19.1333333 11.635,17.2 9.9775,16.1 L10.595,14.3666667 Z M0,0 L0,33.3333333 C0,36.5666667 1.7225,38.3333333 4.875,38.3333333 L34.125,38.3333333 C37.2775,38.3333333 39,36.5666667 39,33.3333333 L39,13.3333333 C39,10.1 37.2775,8.33333333 34.125,8.33333333 L8.125,8.33333333 L0,0 Z" id="path-5"></path>
        <path d="M23.14,14.3666667 C26,14.7333333 31.0375,18.4666667 31.0375,24.8 C31.0375,29.2666667 28.5025,31.3333333 25.545,31.3333333 C22.23,31.3333333 20.5075,28.7 20.5075,25.5666667 C20.5075,21.4333333 23.53,20.4 25.415,20.2333333 C25.545,19.1333333 24.18,17.2 22.5225,16.1 L23.14,14.3666667 Z M10.595,14.3666667 C13.455,14.7333333 18.4925,18.4666667 18.4925,24.8 C18.4925,29.2666667 15.9575,31.3333333 13,31.3333333 C9.685,31.3333333 7.9625,28.7 7.9625,25.5666667 C7.9625,21.4333333 10.985,20.4 12.87,20.2333333 C13,19.1333333 11.635,17.2 9.9775,16.1 L10.595,14.3666667 Z M0,0 L0,33.3333333 C0,36.5666667 1.7225,38.3333333 4.875,38.3333333 L34.125,38.3333333 C37.2775,38.3333333 39,36.5666667 39,33.3333333 L39,13.3333333 C39,10.1 37.2775,8.33333333 34.125,8.33333333 L8.125,8.33333333 L0,0 Z" id="path-7"></path>
        <path d="M23.14,14.3666667 C26,14.7333333 31.0375,18.4666667 31.0375,24.8 C31.0375,29.2666667 28.5025,31.3333333 25.545,31.3333333 C22.23,31.3333333 20.5075,28.7 20.5075,25.5666667 C20.5075,21.4333333 23.53,20.4 25.415,20.2333333 C25.545,19.1333333 24.18,17.2 22.5225,16.1 L23.14,14.3666667 Z M10.595,14.3666667 C13.455,14.7333333 18.4925,18.4666667 18.4925,24.8 C18.4925,29.2666667 15.9575,31.3333333 13,31.3333333 C9.685,31.3333333 7.9625,28.7 7.9625,25.5666667 C7.9625,21.4333333 10.985,20.4 12.87,20.2333333 C13,19.1333333 11.635,17.2 9.9775,16.1 L10.595,14.3666667 Z M0,0 L0,33.3333333 C0,36.5666667 1.7225,38.3333333 4.875,38.3333333 L34.125,38.3333333 C37.2775,38.3333333 39,36.5666667 39,33.3333333 L39,13.3333333 C39,10.1 37.2775,8.33333333 34.125,8.33333333 L8.125,8.33333333 L0,0 Z" id="path-9"></path>
        <path d="M23.14,14.3666667 C26,14.7333333 31.0375,18.4666667 31.0375,24.8 C31.0375,29.2666667 28.5025,31.3333333 25.545,31.3333333 C22.23,31.3333333 20.5075,28.7 20.5075,25.5666667 C20.5075,21.4333333 23.53,20.4 25.415,20.2333333 C25.545,19.1333333 24.18,17.2 22.5225,16.1 L23.14,14.3666667 Z M10.595,14.3666667 C13.455,14.7333333 18.4925,18.4666667 18.4925,24.8 C18.4925,29.2666667 15.9575,31.3333333 13,31.3333333 C9.685,31.3333333 7.9625,28.7 7.9625,25.5666667 C7.9625,21.4333333 10.985,20.4 12.87,20.2333333 C13,19.1333333 11.635,17.2 9.9775,16.1 L10.595,14.3666667 Z M0,0 L0,33.3333333 C0,36.5666667 1.7225,38.3333333 4.875,38.3333333 L34.125,38.3333333 C37.2775,38.3333333 39,36.5666667 39,33.3333333 L39,13.3333333 C39,10.1 37.2775,8.33333333 34.125,8.33333333 L8.125,8.33333333 L0,0 Z" id="path-11"></path>
        <path d="M23.14,14.3666667 C26,14.7333333 31.0375,18.4666667 31.0375,24.8 C31.0375,29.2666667 28.5025,31.3333333 25.545,31.3333333 C22.23,31.3333333 20.5075,28.7 20.5075,25.5666667 C20.5075,21.4333333 23.53,20.4 25.415,20.2333333 C25.545,19.1333333 24.18,17.2 22.5225,16.1 L23.14,14.3666667 Z M10.595,14.3666667 C13.455,14.7333333 18.4925,18.4666667 18.4925,24.8 C18.4925,29.2666667 15.9575,31.3333333 13,31.3333333 C9.685,31.3333333 7.9625,28.7 7.9625,25.5666667 C7.9625,21.4333333 10.985,20.4 12.87,20.2333333 C13,19.1333333 11.635,17.2 9.9775,16.1 L10.595,14.3666667 Z M0,0 L0,33.3333333 C0,36.5666667 1.7225,38.3333333 4.875,38.3333333 L34.125,38.3333333 C37.2775,38.3333333 39,36.5666667 39,33.3333333 L39,13.3333333 C39,10.1 37.2775,8.33333333 34.125,8.33333333 L8.125,8.33333333 L0,0 Z" id="path-13"></path>
        <path d="M23.14,14.3666667 C26,14.7333333 31.0375,18.4666667 31.0375,24.8 C31.0375,29.2666667 28.5025,31.3333333 25.545,31.3333333 C22.23,31.3333333 20.5075,28.7 20.5075,25.5666667 C20.5075,21.4333333 23.53,20.4 25.415,20.2333333 C25.545,19.1333333 24.18,17.2 22.5225,16.1 L23.14,14.3666667 Z M10.595,14.3666667 C13.455,14.7333333 18.4925,18.4666667 18.4925,24.8 C18.4925,29.2666667 15.9575,31.3333333 13,31.3333333 C9.685,31.3333333 7.9625,28.7 7.9625,25.5666667 C7.9625,21.4333333 10.985,20.4 12.87,20.2333333 C13,19.1333333 11.635,17.2 9.9775,16.1 L10.595,14.3666667 Z M0,0 L0,33.3333333 C0,36.5666667 1.7225,38.3333333 4.875,38.3333333 L34.125,38.3333333 C37.2775,38.3333333 39,36.5666667 39,33.3333333 L39,13.3333333 C39,10.1 37.2775,8.33333333 34.125,8.33333333 L8.125,8.33333333 L0,0 Z" id="path-15"></path>
    </defs>
    <g id="Guidelines" stroke="none" stroke-width="1" fill="none" fill-rule="evenodd">
        <g id="icons-badges-variations" transform="translate(-65.000000, -470.000000)">
            <g id="illucons/cite-large" transform="translate(65.000000, 470.000000)">
                <rect id="Rectangle" x="1" y="0" width="140" height="80"></rect>
                <g id="icon">
                    <g id="icons/cite_looper-copy-2" transform="translate(0.000000, 40.000000)">
                        <g id="icons/cite" opacity="0.2" transform="translate(100.653595, 0.000000)">
                            <mask id="mask-2" fill="white">
                                <use xlink:href="#path-1"></use>
                            </mask>
                            <use id="Shape" fill="#003595" fill-rule="nonzero" transform="translate(19.500000, 19.166667) scale(-1, 1) rotate(-180.000000) translate(-19.500000, -19.166667) " xlink:href="#path-1"></use>
                            <g id="color/alexs-lemonade/base-FFDD00" mask="url(#mask-2)" fill="#FFDD00" fill-rule="evenodd">
                                <rect id="alexs-lemonade-FFDD00" x="0" y="0" width="41" height="40"></rect>
                            </g>
                        </g>
                        <g id="icons/cite" opacity="0.4" transform="translate(67.712418, 0.000000)">
                            <mask id="mask-4" fill="white">
                                <use xlink:href="#path-3"></use>
                            </mask>
                            <use id="Shape" fill="#003595" fill-rule="nonzero" transform="translate(19.500000, 19.166667) scale(-1, 1) rotate(-180.000000) translate(-19.500000, -19.166667) " xlink:href="#path-3"></use>
                            <g id="color/alexs-lemonade/base-FFDD00" mask="url(#mask-4)" fill="#FFDD00" fill-rule="evenodd">
                                <rect id="alexs-lemonade-FFDD00" x="0" y="0" width="41" height="40"></rect>
                            </g>
                        </g>
                        <g id="icons/cite" opacity="0.6" transform="translate(33.856209, 0.000000)">
                            <mask id="mask-6" fill="white">
                                <use xlink:href="#path-5"></use>
                            </mask>
                            <use id="Shape" fill="#003595" fill-rule="nonzero" transform="translate(19.500000, 19.166667) scale(-1, 1) rotate(-180.000000) translate(-19.500000, -19.166667) " xlink:href="#path-5"></use>
                            <g id="color/alexs-lemonade/base-FFDD00" mask="url(#mask-6)" fill="#FFDD00" fill-rule="evenodd">
                                <rect id="alexs-lemonade-FFDD00" x="0" y="0" width="41" height="40"></rect>
                            </g>
                        </g>
                        <g id="icons/cite" opacity="0.8">
                            <mask id="mask-8" fill="white">
                                <use xlink:href="#path-7"></use>
                            </mask>
                            <use id="Shape" fill="#003595" fill-rule="nonzero" transform="translate(19.500000, 19.166667) scale(-1, 1) rotate(-180.000000) translate(-19.500000, -19.166667) " xlink:href="#path-7"></use>
                            <g id="color/alexs-lemonade/base-FFDD00" mask="url(#mask-8)" fill="#FFDD00" fill-rule="evenodd">
                                <rect id="alexs-lemonade-FFDD00" x="0" y="0" width="41" height="40"></rect>
                            </g>
                        </g>
                    </g>
                    <g id="icons/cite_looper-copy-3">
                        <g id="icons/cite" opacity="0.2" transform="translate(100.653595, 0.000000)">
                            <mask id="mask-10" fill="white">
                                <use xlink:href="#path-9"></use>
                            </mask>
                            <use id="Shape" fill="#003595" fill-rule="nonzero" transform="translate(19.500000, 19.166667) scale(-1, 1) rotate(-180.000000) translate(-19.500000, -19.166667) " xlink:href="#path-9"></use>
                            <g id="color/alexs-deep-blue/base-003595" mask="url(#mask-10)" fill="#003996" fill-rule="evenodd">
                                <rect id="alexs-deep-blue-003595" x="0" y="0" width="41" height="40"></rect>
                            </g>
                        </g>
                        <g id="icons/cite" opacity="0.4" transform="translate(67.712418, 0.000000)">
                            <mask id="mask-12" fill="white">
                                <use xlink:href="#path-11"></use>
                            </mask>
                            <use id="Shape" fill="#003595" fill-rule="nonzero" transform="translate(19.500000, 19.166667) scale(-1, 1) rotate(-180.000000) translate(-19.500000, -19.166667) " xlink:href="#path-11"></use>
                            <g id="color/alexs-deep-blue/base-003595" mask="url(#mask-12)" fill="#003996" fill-rule="evenodd">
                                <rect id="alexs-deep-blue-003595" x="0" y="0" width="41" height="40"></rect>
                            </g>
                        </g>
                        <g id="icons/cite" opacity="0.6" transform="translate(33.856209, 0.000000)">
                            <mask id="mask-14" fill="white">
                                <use xlink:href="#path-13"></use>
                            </mask>
                            <use id="Shape" fill="#003595" fill-rule="nonzero" transform="translate(19.500000, 19.166667) scale(-1, 1) rotate(-180.000000) translate(-19.500000, -19.166667) " xlink:href="#path-13"></use>
                            <g id="color/alexs-deep-blue/base-003595" mask="url(#mask-14)" fill="#003996" fill-rule="evenodd">
                                <rect id="alexs-deep-blue-003595" x="0" y="0" width="41" height="40"></rect>
                            </g>
                        </g>
                        <g id="icons/cite" opacity="0.8">
                            <mask id="mask-16" fill="white">
                                <use xlink:href="#path-15"></use>
                            </mask>
                            <use id="Shape" fill="#003595" fill-rule="nonzero" transform="translate(19.500000, 19.166667) scale(-1, 1) rotate(-180.000000) translate(-19.500000, -19.166667) " xlink:href="#path-15"></use>
                            <g id="color/alexs-deep-blue/base-003595" mask="url(#mask-16)" fill="#003996" fill-rule="evenodd">
                                <rect id="alexs-deep-blue-003595" x="0" y="0" width="41" height="40"></rect>
                            </g>
                        </g>
                    </g>
                </g>
            </g>
        </g>
    </g>
</svg>