<?xml version="1.0" encoding="UTF-8"?>
<svg width="140px" height="80px" viewBox="0 0 140 80" version="1.1" xmlns="http://www.w3.org/2000/svg" xmlns:xlink="http://www.w3.org/1999/xlink">
    <!-- Generator: Sketch 53.2 (72643) - https://sketchapp.com -->
    <title>illucons/collaboration</title>
    <desc>Created with Sketch.</desc>
    <g id="Guidelines" stroke="none" stroke-width="1" fill="none" fill-rule="evenodd">
        <g id="icons-badges-variations" transform="translate(-456.000000, -460.000000)">
            <g id="illucons/collaboration" transform="translate(456.000000, 460.000000)">
                <rect id="Rectangle" x="0" y="0" width="140" height="80"></rect>
                <g id="icon" fill-rule="nonzero">
                    <path d="M75.9791667,25.9150579 L92.75,25.9150579 C93.4791667,25.9150579 93.9166667,25.3281853 93.9166667,24.7413127 L93.9166667,7.86872587 C93.9166667,7.13513514 93.3333333,6.69498069 92.75,6.69498069 L86.7708333,6.69498069 L86.7708333,6.25482625 C86.7708333,5.66795367 86.9166667,4.93436293 87.2083333,4.34749035 C87.5,3.90733591 87.5,3.32046332 87.5,2.73359073 C87.3541667,1.41312741 86.3333333,0.386100386 85.0208333,0.239382239 C83.2708333,-0.0540540541 81.8125,1.41312741 81.8125,3.02702703 C81.8125,3.46718147 81.9583333,3.90733591 82.1041667,4.34749035 C82.3958333,4.93436293 82.5416667,5.52123552 82.5416667,6.10810811 L82.5416667,6.54826255 L75.9791667,6.54826255 C75.25,6.54826255 74.8125,7.13513514 74.8125,7.72200772 L74.8125,14.030888 L74.8125,14.030888 L75.25,14.030888 C75.8333333,14.030888 76.4166667,13.8841699 77,13.5907336 C77.4375,13.4440154 77.875,13.2972973 78.3125,13.2972973 C80.0625,13.2972973 81.375,14.7644788 81.0833333,16.5250965 C80.9375,17.8455598 79.9166667,18.8725869 78.6041667,19.019305 C78.0208333,19.1660232 77.4375,19.019305 77,18.7258687 C76.4166667,18.4324324 75.8333333,18.2857143 75.1041667,18.2857143 L74.8125,18.2857143 L74.8125,18.2857143 L74.8125,24.5945946 C74.8125,25.3281853 75.3958333,25.9150579 75.9791667,25.9150579 Z" id="Path" fill="#003595"></path>
                    <path d="M47.25,25.9150579 L64.0208333,25.9150579 C64.75,25.9150579 65.1875,25.3281853 65.1875,24.7413127 L65.1875,18.5791506 L65.1875,18.5791506 L65.625,18.5791506 C66.3541667,18.5791506 66.9375,18.7258687 67.5208333,19.1660232 C67.8125,19.3127413 68.25,19.4594595 68.6875,19.4594595 C70.2916667,19.6061776 71.8958333,18.1389961 71.8958333,16.5250965 C71.8958333,14.7644788 70.5833333,13.2972973 68.8333333,13.2972973 C68.3958333,13.2972973 67.8125,13.4440154 67.375,13.5907336 C66.7916667,13.8841699 66.2083333,14.030888 65.625,14.030888 L65.1875,14.030888 L65.1875,14.030888 L65.1875,7.86872587 C65.1875,7.13513514 64.6041667,6.69498069 64.0208333,6.69498069 L57.8958333,6.69498069 L57.8958333,6.69498069 L57.8958333,7.13513514 C57.8958333,7.72200772 58.0416667,8.45559846 58.3333333,8.8957529 C58.625,9.33590734 58.625,9.77606178 58.625,10.3629344 C58.625,12.1235521 57.3125,13.4440154 55.5625,13.4440154 C53.9583333,13.4440154 52.5,12.1235521 52.5,10.3629344 C52.5,9.92277992 52.6458333,9.33590734 52.7916667,8.8957529 C53.0833333,8.30888031 53.2291667,7.72200772 53.2291667,7.13513514 L53.2291667,6.69498069 L47.1041667,6.69498069 C46.375,6.69498069 45.9375,7.28185328 45.9375,7.86872587 L45.9375,24.7413127 C46.0833333,25.3281853 46.5208333,25.9150579 47.25,25.9150579 Z" id="Path" fill="#FFDD00"></path>
                    <ellipse id="Oval" fill="#999999" transform="translate(30.723817, 14.506431) rotate(-83.788255) translate(-30.723817, -14.506431) " cx="30.7238167" cy="14.5064309" rx="8.94891765" ry="8.89620941"></ellipse>
                    <path d="M30.1875,59.0733591 L17.3541667,59.0733591 C14.2916667,59.0733591 11.8125,56.8725869 11.2291667,53.9382239 L6.85416667,28.996139 C6.5625,27.2355212 4.95833333,26.2084942 3.20833333,26.5019305 C1.45833333,26.7953668 0.4375,28.4092664 0.729166667,30.1698842 L5.10416667,55.1119691 C6.125,61.1274131 11.2291667,65.3822394 17.2083333,65.3822394 L27.8541667,65.3822394 L27.8541667,76.6795367 C27.8541667,78.4401544 29.1666667,79.7606178 30.9166667,79.7606178 C32.6666667,79.7606178 33.9791667,78.4401544 33.9791667,76.6795367 L33.9791667,63.1814672 C34.125,60.8339768 32.375,59.0733591 30.1875,59.0733591 Z" id="Path" fill="#999999"></path>
                    <path d="M40.25,46.015444 L32.0833333,46.015444 L34.125,36.3320463 L39.8125,39.1196911 C40.3958333,39.4131274 40.9791667,39.5598456 41.5625,39.5598456 C41.5625,39.5598456 41.7083333,39.5598456 41.7083333,39.5598456 L50.3125,39.1196911 C52.6458333,38.972973 54.3958333,37.0656371 54.25,34.8648649 C54.1041667,32.5173745 52.2083333,30.7567568 50.0208333,30.9034749 L42.5833333,31.1969112 C42.5833333,31.1969112 33.9791667,26.6486486 32.9583333,26.3552124 C31.7916667,26.0617761 26.8333333,25.034749 26.8333333,25.034749 C25.0833333,24.5945946 23.3333333,25.034749 21.875,25.9150579 C20.4166667,26.9420849 19.3958333,28.4092664 18.9583333,30.1698842 L15.3125,47.4826255 C14.875,49.3899614 15.4583333,51.2972973 16.625,52.9111969 C17.7916667,54.3783784 19.6875,55.2586873 21.5833333,55.2586873 L35.875,55.2586873 C36.75,55.2586873 37.4791667,55.992278 37.4791667,56.8725869 L37.4791667,74.7722008 C37.4791667,77.2664093 39.5208333,79.4671815 42.1458333,79.4671815 C44.625,79.4671815 46.8125,77.4131274 46.8125,74.7722008 L46.8125,52.7644788 C46.8125,48.9498069 43.8958333,46.015444 40.25,46.015444 Z" id="Path" fill="#999999"></path>
                    <ellipse id="Oval" fill="#999999" transform="translate(109.375758, 14.461447) rotate(-6.211745) translate(-109.375758, -14.461447) " cx="109.375758" cy="14.4614471" rx="8.89620941" ry="8.94891765"></ellipse>
                    <path d="M136.791667,26.5019305 C135.1875,26.2084942 133.583333,27.3822394 133.145833,28.996139 L128.770833,53.9382239 C128.1875,56.8725869 125.708333,59.0733591 122.645833,59.0733591 L109.8125,59.0733591 C107.625,59.0733591 105.875,60.8339768 105.875,63.034749 L105.875,76.5328185 C105.875,78.2934363 107.1875,79.6138996 108.9375,79.6138996 C110.6875,79.6138996 112,78.2934363 112,76.5328185 L112,65.2355212 L122.645833,65.2355212 C128.625,65.2355212 133.729167,60.980695 134.75,54.965251 L139.125,30.023166 C139.5625,28.4092664 138.395833,26.7953668 136.791667,26.5019305 Z" id="Path" fill="#999999"></path>
                    <path d="M123.229167,52.9111969 C124.395833,51.4440154 124.979167,49.3899614 124.541667,47.4826255 L121.041667,30.1698842 C120.75,28.4092664 119.729167,26.9420849 118.125,25.9150579 C116.666667,24.8880309 114.916667,24.5945946 113.166667,25.034749 C113.166667,25.034749 108.208333,26.0617761 107.041667,26.3552124 C106.020833,26.6486486 97.4166667,31.1969112 97.4166667,31.1969112 L89.8333333,30.9034749 C87.6458333,30.7567568 85.6041667,32.5173745 85.6041667,34.8648649 C85.4583333,37.2123552 87.2083333,39.1196911 89.5416667,39.1196911 L98.1458333,39.5598456 C98.1458333,39.5598456 98.2916667,39.5598456 98.2916667,39.5598456 C98.875,39.5598456 99.4583333,39.4131274 100.041667,39.1196911 L105.729167,36.3320463 L107.770833,46.015444 L99.75,46.015444 C96.1041667,46.015444 93.1875,48.9498069 93.1875,52.6177606 L93.1875,74.7722008 C93.1875,77.2664093 95.2291667,79.4671815 97.8541667,79.4671815 C100.479167,79.4671815 102.520833,77.4131274 102.520833,74.7722008 L102.520833,57.019305 C102.520833,56.1389961 103.25,55.4054054 104.125,55.4054054 L118.416667,55.4054054 C120.3125,55.2586873 122.0625,54.3783784 123.229167,52.9111969 Z" id="Path" fill="#999999"></path>
                    <path d="M87.3541667,42.6409266 L52.6458333,42.6409266 C50.8958333,42.6409266 49.5833333,43.96139 49.5833333,45.7220077 C49.5833333,47.4826255 50.8958333,48.8030888 52.6458333,48.8030888 L66.9375,48.8030888 L66.9375,76.5328185 C66.9375,78.2934363 68.25,79.6138996 70,79.6138996 C71.75,79.6138996 73.0625,78.2934363 73.0625,76.5328185 L73.0625,48.8030888 L87.3541667,48.8030888 C89.1041667,48.8030888 90.4166667,47.4826255 90.4166667,45.7220077 C90.4166667,43.96139 89.1041667,42.6409266 87.3541667,42.6409266 Z" id="Path" fill="#999999"></path>
                </g>
            </g>
        </g>
    </g>
</svg>