<?xml version="1.0" encoding="UTF-8"?>
<svg width="72px" height="72px" viewBox="0 0 72 72" version="1.1" xmlns="http://www.w3.org/2000/svg" xmlns:xlink="http://www.w3.org/1999/xlink">
    <!-- Generator: Sketch 53.2 (72643) - https://sketchapp.com -->
    <title>illucons/discover</title>
    <desc>Created with Sketch.</desc>
    <g id="Guidelines" stroke="none" stroke-width="1" fill="none" fill-rule="evenodd">
        <g id="icons-badges-variations" transform="translate(-297.000000, -655.000000)">
            <g id="illucons/discover" transform="translate(297.000000, 655.000000)">
                <rect id="Rectangle" x="0" y="0" width="72" height="72"></rect>
                <g id="icon" fill-rule="nonzero">
                    <path d="M60.3092784,51.710567 L56.7301546,48.1314433 L58.4095361,46.4520619 L49.0024485,35.476933 C50.3431701,32.3257732 51.0309278,28.979768 51.0309278,25.5154639 C51.0309278,11.4460052 39.5849227,-2.98427949e-13 25.5154639,-2.98427949e-13 C11.4460052,-2.98427949e-13 1.42108547e-13,11.4460052 1.42108547e-13,25.5154639 C1.42108547e-13,39.5849227 11.4460052,51.0309278 25.5154639,51.0309278 C30.7635309,51.0309278 35.7552835,49.4478093 40.0314433,46.4775773 C39.6614691,47.143299 39.4329897,47.8971649 39.4329897,48.7113402 C39.4329897,50.433634 40.3875,51.9228093 41.7850515,52.723067 L38.4054124,60.3382732 C36.7782216,64.0043814 35.9536082,67.8966495 35.9536082,71.9072165 L38.2731959,71.9072165 C38.2731959,68.2225515 39.0305412,64.6457474 40.5255155,61.2777062 L42.9123711,55.8997423 L42.9123711,71.9072165 L45.2319588,71.9072165 L45.2319588,55.8997423 L47.6188144,61.2777062 C49.1137887,64.6457474 49.871134,68.2225515 49.871134,71.9072165 L52.1907216,71.9072165 C52.1907216,67.8966495 51.3661082,64.0043814 49.7389175,60.3371134 L46.3592784,52.7219072 C46.5552835,52.6094072 46.7408505,52.4853093 46.918299,52.346134 L49.9314433,54.9289948 L51.6108247,53.2496134 L55.1899485,56.8298969 L54.0301546,57.9896907 L59.1494845,63.1090206 L66.5884021,55.6701031 L61.4690722,50.5507732 L60.3092784,51.710567 Z M6.95876289,11.6570876 L6.95876289,19.7164948 C6.95876289,21.6347938 8.51984536,23.1958763 10.4381443,23.1958763 C12.3564433,23.1958763 13.9175258,21.6347938 13.9175258,19.7164948 L13.9175258,15.0773196 C13.9175258,14.4371134 14.4382732,13.9175258 15.0773196,13.9175258 C15.716366,13.9175258 16.2371134,14.4371134 16.2371134,15.0773196 L16.2371134,24.3556701 C16.2371134,26.2739691 17.7981959,27.8350515 19.7164948,27.8350515 C21.6347938,27.8350515 23.1958763,26.2739691 23.1958763,24.3556701 L23.1958763,13.9175258 L20.8762887,13.9175258 L20.8762887,24.3556701 C20.8762887,24.9958763 20.3555412,25.5154639 19.7164948,25.5154639 C19.0774485,25.5154639 18.556701,24.9958763 18.556701,24.3556701 L18.556701,15.0773196 C18.556701,13.1590206 16.9956186,11.5979381 15.0773196,11.5979381 C13.1590206,11.5979381 11.5979381,13.1590206 11.5979381,15.0773196 L11.5979381,19.7164948 C11.5979381,20.356701 11.0771907,20.8762887 10.4381443,20.8762887 C9.79909794,20.8762887 9.27835052,20.356701 9.27835052,19.7164948 L9.27835052,8.97796392 C12.4132732,5.89987113 16.4110825,3.69742268 20.8762887,2.78698454 L20.8762887,6.95876289 L23.1958763,6.95876289 L23.1958763,2.4367268 C23.9590206,2.36134021 24.7326031,2.31958763 25.5154639,2.31958763 C29.1166237,2.31958763 32.5148196,3.1685567 35.5592784,4.63917526 L28.9948454,4.63917526 C27.0765464,4.63917526 25.5154639,6.20025773 25.5154639,8.1185567 C25.5154639,10.0368557 27.0765464,11.5979381 28.9948454,11.5979381 L37.1134021,11.5979381 C37.7524485,11.5979381 38.2731959,12.1175258 38.2731959,12.757732 C38.2731959,13.3979381 37.7524485,13.9175258 37.1134021,13.9175258 L31.314433,13.9175258 C29.396134,13.9175258 27.8350515,15.4786082 27.8350515,17.3969072 C27.8350515,19.3152062 29.396134,20.8762887 31.314433,20.8762887 L42.9123711,20.8762887 L42.9123711,18.556701 L31.314433,18.556701 C30.6753866,18.556701 30.1546392,18.0371134 30.1546392,17.3969072 C30.1546392,16.756701 30.6753866,16.2371134 31.314433,16.2371134 L37.1134021,16.2371134 C39.031701,16.2371134 40.5927835,14.6760309 40.5927835,12.757732 C40.5927835,10.839433 39.031701,9.27835052 37.1134021,9.27835052 L28.9948454,9.27835052 C28.355799,9.27835052 27.8350515,8.75876289 27.8350515,8.1185567 C27.8350515,7.47835052 28.355799,6.95876289 28.9948454,6.95876289 L39.3738402,6.95876289 C43.2231959,9.84085052 46.164433,13.8699742 47.6420103,18.556701 L45.2319588,18.556701 L45.2319588,20.8762887 L48.2439433,20.8762887 C48.5489691,22.3759021 48.7113402,23.9265464 48.7113402,25.5154639 C48.7113402,28.271134 48.2311856,30.9444588 47.2975515,33.4878866 L45.0278351,30.8389175 L46.8719072,28.9948454 L41.7525773,23.8755155 L27.3548969,38.2731959 L32.4742268,43.3925258 L34.3194588,41.5472938 L38.2337629,44.9014175 C36.0927835,46.3117268 33.7650773,47.3462629 31.3155928,47.9760309 L31.3155928,47.5515464 C31.3155928,45.6332474 29.7545103,44.0721649 27.8362113,44.0721649 L18.5578608,44.0721649 C17.9188144,44.0721649 17.398067,43.5525773 17.398067,42.9123711 C17.398067,42.2721649 17.9188144,41.7525773 18.5578608,41.7525773 L22.0372423,41.7525773 C23.9555412,41.7525773 25.5166237,40.1914948 25.5166237,38.2731959 C25.5166237,36.3548969 23.9555412,34.7938144 22.0372423,34.7938144 L9.27835052,34.7938144 C8.63930412,34.7938144 8.1185567,34.2742268 8.1185567,33.6340206 C8.1185567,32.9938144 8.63930412,32.4742268 9.27835052,32.4742268 L10.4381443,32.4742268 C12.3564433,32.4742268 13.9175258,30.9131443 13.9175258,28.9948454 C13.9175258,27.0765464 12.3564433,25.5154639 10.4381443,25.5154639 L2.31958763,25.5154639 C2.31958763,20.317268 4.05927835,15.5284794 6.95876289,11.6570876 Z M32.4742268,40.1126289 L30.6347938,38.2731959 L41.7525773,27.1554124 L43.5920103,28.9948454 L32.4742268,40.1126289 Z M2.4367268,27.8350515 L10.4381443,27.8350515 C11.0771907,27.8350515 11.5979381,28.3546392 11.5979381,28.9948454 C11.5979381,29.6350515 11.0771907,30.1546392 10.4381443,30.1546392 L9.27835052,30.1546392 C7.36005155,30.1546392 5.79896907,31.7157216 5.79896907,33.6340206 C5.79896907,35.5523196 7.36005155,37.1134021 9.27835052,37.1134021 L22.0360825,37.1134021 C22.6751289,37.1134021 23.1958763,37.6329897 23.1958763,38.2731959 C23.1958763,38.9134021 22.6751289,39.4329897 22.0360825,39.4329897 L18.556701,39.4329897 C16.6384021,39.4329897 15.0773196,40.9940722 15.0773196,42.9123711 C15.0773196,44.8306701 16.6384021,46.3917526 18.556701,46.3917526 L27.8350515,46.3917526 C28.4740979,46.3917526 28.9948454,46.9113402 28.9948454,47.5515464 L28.9948454,48.4445876 C27.8524485,48.6162371 26.6914948,48.7113402 25.5154639,48.7113402 C13.5081186,48.7113402 3.60463918,39.5408505 2.4367268,27.8350515 Z M44.0721649,46.3917526 C45.3514175,46.3917526 46.3917526,47.4320876 46.3917526,48.7113402 C46.3917526,49.9905928 45.3514175,51.0309278 44.0721649,51.0309278 C42.7929124,51.0309278 41.7525773,49.9905928 41.7525773,48.7113402 C41.7525773,47.4320876 42.7929124,46.3917526 44.0721649,46.3917526 Z M49.8108247,51.7708763 L48.3460052,50.5159794 C48.5814433,49.9604381 48.7113402,49.3515464 48.7113402,48.7113402 C48.7113402,46.1528351 46.6306701,44.0721649 44.0721649,44.0721649 C43.1802835,44.0721649 42.3545103,44.3365979 41.6470361,44.775 L35.9628866,39.903866 L43.3820876,32.4846649 L55.2502577,46.3302835 L49.8108247,51.7708763 Z M53.2507732,51.6108247 L55.0902062,49.7713918 L58.6693299,53.3505155 L56.8298969,55.1899485 L53.2507732,51.6108247 Z M59.1494845,59.8291237 L57.3100515,57.9896907 L61.4690722,53.8306701 L63.3085052,55.6701031 L59.1494845,59.8291237 Z" id="Shape" fill="#003595"></path>
                    <path d="M10.4381443,55.6701031 L8.1185567,55.6701031 C8.1185567,58.8676546 5.51713918,61.4690722 2.31958763,61.4690722 L2.31958763,63.7886598 C5.51713918,63.7886598 8.1185567,66.3900773 8.1185567,69.5876289 L10.4381443,69.5876289 C10.4381443,66.3900773 13.0395619,63.7886598 16.2371134,63.7886598 L16.2371134,61.4690722 C13.0395619,61.4690722 10.4381443,58.8676546 10.4381443,55.6701031 Z M9.27835052,65.4274485 C8.58943299,64.2792526 7.62796392,63.3177835 6.47976804,62.628866 C7.62796392,61.9399485 8.58943299,60.9784794 9.27835052,59.8302835 C9.96726804,60.9784794 10.9287371,61.9399485 12.076933,62.628866 C10.9287371,63.3177835 9.96726804,64.2792526 9.27835052,65.4274485 Z" id="Shape" fill="#FFDD00"></path>
                    <path d="M55.6701031,16.2371134 L57.9896907,16.2371134 C57.9896907,13.0395619 60.5911082,10.4381443 63.7886598,10.4381443 L63.7886598,8.1185567 C60.5911082,8.1185567 57.9896907,5.51713918 57.9896907,2.31958763 L55.6701031,2.31958763 C55.6701031,5.51713918 53.0686856,8.1185567 49.871134,8.1185567 L49.871134,10.4381443 C53.0686856,10.4381443 55.6701031,13.0395619 55.6701031,16.2371134 Z M56.8298969,6.47976804 C57.5188144,7.62796392 58.4802835,8.58943299 59.6284794,9.27835052 C58.4802835,9.96726804 57.5188144,10.9287371 56.8298969,12.076933 C56.1409794,10.9287371 55.1795103,9.96726804 54.0313144,9.27835052 C55.1795103,8.58943299 56.1409794,7.62796392 56.8298969,6.47976804 Z" id="Shape" fill="#FFDD00"></path>
                    <rect id="Rectangle" fill="#FFDD00" x="67.2680412" y="27.8350515" width="2.31958763" height="2.31958763"></rect>
                    <rect id="Rectangle" fill="#FFDD00" x="69.5876289" y="30.1546392" width="2.31958763" height="2.31958763"></rect>
                    <rect id="Rectangle" fill="#FFDD00" x="67.2680412" y="32.4742268" width="2.31958763" height="2.31958763"></rect>
                    <rect id="Rectangle" fill="#FFDD00" x="64.9484536" y="30.1546392" width="2.31958763" height="2.31958763"></rect>
                    <rect id="Rectangle" fill="#FFDD00" x="24.3556701" y="64.9484536" width="2.31958763" height="2.31958763"></rect>
                    <rect id="Rectangle" fill="#FFDD00" x="26.6752577" y="67.2680412" width="2.31958763" height="2.31958763"></rect>
                    <rect id="Rectangle" fill="#FFDD00" x="24.3556701" y="69.5876289" width="2.31958763" height="2.31958763"></rect>
                    <rect id="Rectangle" fill="#FFDD00" x="22.0360825" y="67.2680412" width="2.31958763" height="2.31958763"></rect>
                    <rect id="Rectangle" fill="#FFDD00" x="57.9896907" y="18.556701" width="2.31958763" height="2.31958763"></rect>
                    <rect id="Rectangle" fill="#FFDD00" x="60.3092784" y="20.8762887" width="2.31958763" height="2.31958763"></rect>
                    <rect id="Rectangle" fill="#FFDD00" x="57.9896907" y="23.1958763" width="2.31958763" height="2.31958763"></rect>
                    <rect id="Rectangle" fill="#FFDD00" x="55.6701031" y="20.8762887" width="2.31958763" height="2.31958763"></rect>
                    <rect id="Rectangle" fill="#003595" x="20.8762887" y="9.27835052" width="2.31958763" height="2.31958763"></rect>
                </g>
            </g>
        </g>
    </g>
</svg>