<?xml version="1.0" encoding="UTF-8"?>
<svg width="1440px" height="456px" viewBox="0 1440 456" version="1.1" xmlns="http://www.w3.org/2000/svg" xmlns:xlink="http://www.w3.org/1999/xlink">
    <!-- Generator: Sketch 53.2 (72643) - https://sketchapp.com -->
    <title>Combined Shape</title>
    <desc>Created with Sketch.</desc>
    <g id="Combined Shape--Landing-Page" stroke="none" stroke-width="1" fill="none" fill-rule="evenodd">
        <g id="Combined Shape--landing-page-gradient-pop" transform="translate(0.000000, -2205.000000)" fill="#017FA3" fill-rule="nonzero">
            <path d="M1,2205 L1440,2209.24242 L1440,2597 C1430.71598,2595.75737 1423.18976,2587.51796 1412,2581 C1396.59114,2572.02444 1376.4258,2563.5432 1355,2556 C1313.77074,2541.48476 1259.82855,2539 1203,2539 C1058.46039,2539 881.28398,2653.41454 658,2660 C619,2661.15025 515.266328,2657.1134 472,2651.66197 C411.18924,2644 264,2594.39464 114.085106,2547 C90.7548262,2539.62428 58,2531 19,2532 C12.0305922,2532.1787 5.69725883,2534.0256 -6.13908924e-12,2537.5407 L1,2205 Z" id="Combined Shape--Rectangle-Copy-6" transform="translate(720.000000, 2432.598392) scale(-1, 1) translate(-720.000000, -2432.598392) "></path>
        </g>
    </g>
</svg>
