<?xml version="1.0" encoding="UTF-8"?>
<svg width="64px" height="62px" viewBox="0 0 64 62" version="1.1" xmlns="http://www.w3.org/2000/svg" xmlns:xlink="http://www.w3.org/1999/xlink">
    <!-- Generator: Sketch 53.2 (72643) - https://sketchapp.com -->
    <title>illucons/request-n--track</title>
    <desc>Created with Sketch.</desc>
    <g id="Guidelines" stroke="none" stroke-width="1" fill="none" fill-rule="evenodd">
        <g id="icons-badges-variations" transform="translate(-555.000000, -660.000000)">
            <g id="illucons/request-n--track" transform="translate(551.000000, 655.000000)">
                <rect id="Rectangle" x="0" y="0" width="72" height="72"></rect>
                <g id="icon" transform="translate(4.000000, 5.000000)" fill-rule="nonzero">
                    <path d="M14,5.41666667 C13.4793468,2.3436725 10.7933332,0 7.54909639,0 C3.93211778,0 1,2.91013667 1,6.5 C1,10.0898633 3.93211778,13 7.54909639,13 C10.7933332,13 13.4793468,10.6563275 13.9999891,7.58333333" id="Path" fill="#003595"></path>
                    <path d="M14,7.07903092 C16.6246148,7.07903092 20.5615369,7.07903092 25.8107664,7.07903092 L24.3958319,8.47418553 L25.9432787,10 L30,6 L25.9432897,2 L24.3958429,3.52581447 L25.8107774,4.92096908 C20.561543,4.92096908 16.6246172,4.92096908 14,4.92096908" id="Path" fill="#999999"></path>
                    <path d="M44,5.41666667 C43.4793573,2.3436725 40.7933414,0 37.5491019,0 C33.9321202,0 31,2.91013667 31,6.5 C31,10.0898633 33.9321202,13 37.5491019,13 C40.7933414,13 43.4793573,10.6563275 44,7.58333333" id="Path" fill="#FFDD00"></path>
                    <path d="M44.5555556,7.16551539 C45.8771589,7.16551539 47.859564,7.16551539 50.5027707,7.16551539 C56.7547305,7.16551539 61.8404433,12.2657914 61.8404433,18.5344712 C61.8404433,24.803151 56.7547305,29.903427 50.5027707,29.903427 L33.1335211,29.903427 L34.5296421,28.5034538 L33.0027707,26.9723695 L29,30.9861847 L33.0027707,35 L34.5296421,33.4689157 L33.1335211,32.0689424 L50.5027707,32.0689424 C57.9452293,32.0689424 64,25.9974653 64,18.5344712 C64,11.0714772 57.9452293,5 50.5027707,5 L50.5027707,5 C47.859564,5 45.8771589,5 44.5555556,5" id="Path" fill="#999999"></path>
                    <circle id="Oval" fill="#003595" cx="56.5" cy="55.5" r="6.5"></circle>
                    <path d="M33,54.4166667 C32.4793468,51.3436725 29.7933332,49 26.5490964,49 L26.5490964,49 C22.9321178,49 20,51.9101367 20,55.5 C20,59.0898633 22.9321178,62 26.5490964,62 C29.7933332,62 32.4793468,59.6563275 32.9999891,56.5833333" id="Path" fill="#FFDD00"></path>
                    <path d="M34,57.0790309 C36.6246148,57.0790309 40.5615369,57.0790309 45.8107664,57.0790309 L44.3958319,58.4741855 L45.9432787,60 L50,56 L45.9432897,52 L44.3958429,53.5258145 L45.8107774,54.9209691 C40.561543,54.9209691 36.6246172,54.9209691 34,54.9209691" id="Path" fill="#999999"></path>
                    <path d="M15.6402227,29 C15.181636,29 14.4937558,29 13.5765822,29 C6.0903679,29 0,35.0714772 0,42.5344712 C0,49.9974653 6.0903679,56.0689424 13.5765822,56.0689424 L13.5765822,56.0689424 L15.8421771,56.0689424 L14.437848,57.4689157 L15.9736962,59 L20,54.9861847 L15.9736962,50.9723695 L14.437848,52.5034538 L15.8421771,53.903427 L13.5765822,53.903427 C7.2878659,53.903427 2.17225316,48.803151 2.17225316,42.5344712 C2.17225316,36.2657914 7.2878659,31.1655154 13.5765822,31.1655154 C14.4937558,31.1655154 15.181636,31.1655154 15.6402227,31.1655154" id="Path" fill="#999999"></path>
                    <path d="M16,31.5833333 C16.5206427,34.6563275 19.2066695,37 22.4508981,37 C26.0678798,37 29,34.0898633 29,30.5 C29,26.9101367 26.0678798,24 22.4508981,24 C19.2066586,24 16.5206427,26.3436725 16,29.4166667" id="Path" fill="#003595"></path>
                </g>
            </g>
        </g>
    </g>
</svg>