<?xml version="1.0" encoding="UTF-8"?>
<svg width="318px" height="254px" viewBox="0 0 318 254" version="1.1" xmlns="http://www.w3.org/2000/svg" xmlns:xlink="http://www.w3.org/1999/xlink">
    <!-- Generator: Sketch 53.2 (72643) - https://sketchapp.com -->
    <title>undraw_data_extraction_ih3n copy</title>
    <desc>Created with Sketch.</desc>
    <defs>
        <circle id="undraw_data_extraction_ih3n copy--path-1" cx="18" cy="18" r="18"></circle>
    </defs>
    <g id="undraw_data_extraction_ih3n copy--Landing-Page" stroke="none" stroke-width="1" fill="none" fill-rule="evenodd">
        <g id="undraw_data_extraction_ih3n copy--Artboard" transform="translate(-864.000000, -174.000000)">
            <g id="undraw_data_extraction_ih3n copy--undraw_data_extraction_ih3n-copy" transform="translate(854.000000, 96.000000)">
                <g id="undraw_data_extraction_ih3n copy--Big-Leaf-Plant" transform="translate(10.000000, 226.000000)">
                    <g id="undraw_data_extraction_ih3n copy--Big-Ass-Leaf" transform="translate(12.000000, 0.000000)">
                        <path d="M14.2298332,0.656275846 C15.8436792,0.460487517 17.5661431,0.529599997 19.0669727,1.16216286 C22.2583333,2.50741725 23.1654826,6.25126915 23.1217192,9.29427594 C23.0745389,12.5695335 22.3741133,16.1469428 24.8817556,18.785897 C26.0344689,19.9991358 27.4683546,20.9276169 28.6002418,22.163133 C29.8096817,23.4834486 30.7586644,24.994152 31.4613151,26.6164078 C32.7514652,29.5961841 33.3846934,33.1003622 32.2049217,36.2261671 C31.1661534,38.978255 28.5527287,41.46225 29.1174264,44.5916402 C29.7064558,47.856177 33.0209634,50.3519428 35.0932079,52.7835102 C37.4384031,55.5352829 39.5976912,59.0523006 39.9524134,62.6609616 C40.2925567,66.1193419 38.7765676,69.6169963 36.4500107,72.231249 C31.8015442,77.4549584 24.8141781,80.0157935 17.7687685,79.9999267 C14.7774794,79.9930454 11.3907328,79.8588915 8.80933089,78.2626652 C8.01151123,77.7692835 7.59061009,77.2157538 7.11632865,76.4462689 C6.69108446,75.7562648 6.12934014,75.3074462 5.47913236,74.8191992 C4.05062808,73.7467939 3.01899457,72.3014509 2.36063198,70.6835409 C-0.195932276,64.3994535 1.84741789,56.6252669 5.42602919,51.0449485 C6.27400206,49.722857 6.96825089,48.4506086 6.55630222,46.8747533 C6.12642129,45.2297514 5.06986732,43.7460492 4.1353573,42.3320302 C3.21191289,40.9345385 2.15767811,39.6013503 1.43591975,38.0903553 C0.679995997,36.5074805 0.467133923,34.8499445 0.600697181,33.1176197 C0.851720174,29.8635607 2.26632812,26.8606884 4.26910509,24.2437064 C6.19814992,21.7229803 8.46317054,19.3110357 8.46824577,16.0081251 C8.47381907,12.5074897 6.1170318,9.39345864 7.121058,5.83439392 C7.53679055,4.36064975 8.37180522,2.84857934 9.71749289,1.96504785 C11.0080326,1.11767618 12.7120302,0.840412439 14.2298332,0.656275846 Z" id="undraw_data_extraction_ih3n copy--leaf" fill="#EAF2DF"></path>
                        <path d="M13.1753012,6.25254878 C13.2055649,5.78240014 13.7671825,5.50042246 14.2093001,5.6231055 C14.7912487,5.78466976 14.7800567,6.32462745 14.7646926,6.80568747 C14.7175946,8.28435154 14.9331247,9.7213716 15.2910737,11.1560951 C16.0350323,14.1390448 17.4099679,16.8873429 18.4992617,19.7527026 C19.5876061,22.6156636 20.0984979,25.5715842 19.4600294,28.6010057 C18.8581441,31.4573277 17.9125638,34.2396171 17.2965923,37.0995444 C16.7536633,39.620203 16.1759609,42.2783789 17.0027723,44.7926189 C17.7983682,47.2127577 19.5573212,49.183696 20.8239198,51.3707937 C23.4459252,55.8982252 24.6091645,60.9208694 24.764753,66.0896132 C24.8368582,68.4897793 24.7719257,70.9120162 24.2111933,73.2660567 C23.8884545,74.6215194 23.4547479,76.453367 22.2850275,77.3891822 C21.7456394,77.8207357 20.8231145,77.9699604 20.3691378,77.3308787 C19.9429198,76.7314708 20.3168289,75.8035271 20.4521384,75.1646523 C21.038127,72.3990668 21.1560146,69.5727482 21.0157206,66.7645853 C20.8799386,64.0445105 20.556298,61.3289785 19.6941869,58.7311942 C18.8940321,56.3204129 17.678449,54.1550629 16.247781,52.0461416 C14.7899404,49.8970035 13.274387,47.7432801 12.6720125,45.1967727 C12.0599822,42.6104248 12.5571954,39.9787327 13.2220376,37.4417786 C13.9251245,34.7583967 14.8460583,32.1519931 15.7981398,29.541316 C16.7259758,26.9974058 17.0548482,24.5904144 16.5426438,21.9279168 C15.5308087,16.667709 12.8224238,11.7304149 13.1753012,6.25254878 Z" id="undraw_data_extraction_ih3n copy--middle-thing" fill="#CACACA"></path>
                    </g>
                    <g id="undraw_data_extraction_ih3n copy--Big-Ass-Leaf" transform="translate(18.000000, 6.000000)">
                        <path d="M50.6899545,0.883951669 C52.6668897,1.4852541 54.6303578,2.45542954 56.0396074,3.97669255 C59.0361408,7.2117084 58.1167223,12.1010666 56.4625193,15.6722039 C54.6819737,19.5158608 51.9837643,23.379366 53.5047962,27.7895034 C54.2038978,29.8169496 55.3794993,31.6531505 56.0426824,33.6961622 C56.7512274,35.8793265 57.0570483,38.1529737 57.0180851,40.4312877 C56.9459526,44.6158681 55.8347817,49.0808719 52.8179776,52.1637671 C50.1618023,54.8780503 45.8186168,56.4634159 44.8253575,60.4504524 C43.7891385,64.6096454 46.3224369,69.2669128 47.4472199,73.207526 C48.7201958,77.6670987 49.3741068,82.9345034 47.8845207,87.379228 C46.457192,91.638954 42.8540879,94.9875517 38.7753392,96.8747329 C30.6257647,100.645828 21.1636825,100.065586 12.9918986,96.4123813 C9.52245788,94.8611593 5.66092854,92.9556297 3.50483346,89.7388775 C2.83848461,88.7446408 2.6414535,87.873809 2.4962336,86.7204028 C2.36606968,85.6861578 1.95033778,84.8663315 1.45266975,83.9543061 C0.359151559,81.9509104 -0.0770711352,79.7118157 0.0110234883,77.4614804 C0.35384785,68.721297 6.82259788,60.59427 13.9179071,55.8501297 C15.599078,54.7262112 17.0755031,53.5818557 17.4275401,51.5083018 C17.7951906,49.3438369 17.3502456,47.0465854 17.0102842,44.8945859 C16.6744623,42.7678131 16.1529026,40.6495113 16.1110563,38.4927364 C16.0674161,36.2334486 16.693643,34.1661332 17.7614974,32.1892023 C19.7675468,28.4757353 22.9922355,25.6591637 26.6964943,23.6017334 C30.2644275,21.6199431 34.1651306,19.9399385 35.9113603,16.0419036 C37.7623515,11.9106177 36.6667942,7.0172473 39.7078362,3.33202278 C40.9670574,1.80602961 42.7332849,0.451066257 44.7612509,0.10182861 C46.7061337,-0.233154031 48.8306705,0.318433891 50.6899545,0.883951669 Z" id="undraw_data_extraction_ih3n copy--leaf" fill="#D5E5BF"></path>
                        <path d="M46.6516609,7.71557614 C46.9321508,7.17531632 47.7294424,7.13374858 48.1771435,7.50861641 C48.7663998,8.00213985 48.471539,8.63486687 48.2025986,9.19577412 C47.376088,10.919936 46.8753121,12.7313482 46.5405856,14.614065 C45.8443541,18.528309 46.0009895,22.4930007 45.765877,26.4476686 C45.5309181,30.3990064 44.5790227,34.1601527 42.2583651,37.4108539 C40.0704259,40.4758645 37.5233105,43.2746944 35.3171842,46.3366475 C33.3727336,49.0353507 31.3162362,51.8786062 30.9606154,55.2816245 C30.6179917,58.5571365 31.6249797,61.8021255 31.9492115,65.0468453 C32.6204677,71.7636562 31.3446525,78.3079207 28.8262012,84.5012459 C27.6565623,87.3771133 26.316779,90.2078575 24.4387103,92.7002682 C23.3574667,94.1354736 21.899062,96.0763687 20.0565279,96.5750986 C19.206875,96.8051054 18.061141,96.5021049 17.8693192,95.5103899 C17.688915,94.5800198 18.6061853,93.6769856 19.0963562,92.9917896 C21.2185221,90.0258201 22.830568,86.7447391 24.1342888,83.350942 C25.3972424,80.0636614 26.4403773,76.6841157 26.7987562,73.1639529 C27.1312175,69.8971374 26.8546822,66.7046505 26.2997245,63.4671077 C25.7343113,60.1678824 25.1044893,56.8332392 25.7367429,53.5087103 C26.3786204,50.1320484 28.3281242,47.2782789 30.4221977,44.6236678 C32.6369877,41.8157712 35.0637468,39.2121309 37.5287904,36.6196254 C39.9309116,34.093476 41.5682467,31.4179402 42.3654298,28.0031085 C43.9405254,21.2565961 43.3832693,14.0101947 46.6516609,7.71557614 Z" id="undraw_data_extraction_ih3n copy--middle-thing" fill="#CACACA"></path>
                    </g>
                    <g id="undraw_data_extraction_ih3n copy--Big-Ass-Leaf" transform="translate(0.000000, 35.000000)">
                        <path d="M7.44501067,-1.56319402e-13 C10.743006,-1.56319402e-13 13.6424952,1.74669012 15.6404191,4.2253015 C17.9791786,7.12686821 18.4515358,10.670258 19.401229,14.1284088 C19.8737937,15.8493855 20.6865718,17.5578092 22.1109041,18.727061 C23.4064118,19.7904222 25.051053,20.0032159 26.6017207,20.5227484 C29.7007742,21.5610035 32.2032096,24.0620888 33.1914879,27.1138867 C34.397171,30.8364605 33.1201261,34.5906193 33.3400201,38.3632027 C33.5418662,41.8278325 36.9608032,43.9893792 39.7115529,45.650223 C42.4239248,47.2879854 44.8674452,48.821072 45.6843722,52.0115603 C46.5506716,55.3954054 46.8413051,59.1724431 45.6414306,62.5151873 C43.6437142,68.0810284 37.7972303,70.5319017 32.1480286,70.9119338 C27.0211789,71.2567365 20.5747577,70.7153375 16.724538,66.9970155 C14.4206296,64.7718939 13.5862771,61.6599631 13.6897932,58.5638247 C13.7541018,56.638558 14.1358046,54.7311084 14.6293215,52.8706314 C14.9790774,51.5519583 15.4516421,50.2389543 15.5862753,48.8763457 C15.9441217,45.2511589 12.590738,44.5548719 9.7362648,43.55954 C6.10905081,42.2945209 3.56968985,39.9051978 1.80389943,36.576424 C0.159465619,33.4770462 -0.53050371,29.9978387 0.455285301,26.5854456 C0.958759613,24.8430073 1.87194211,23.2621383 3.11040179,21.9175494 C3.65557299,21.3257359 4.42395735,20.8321192 4.91602207,20.2103405 C5.37531013,19.6296627 5.27532059,18.8772922 5.11703839,18.1972027 C4.38516473,15.0557116 2.1049053,12.4544047 1.28943042,9.31858266 C0.553200371,6.48808216 0.98842456,2.96534409 3.57840263,1.13928658 C4.69737274,0.350269375 6.07731139,0.00870611742 7.44501067,-1.56319402e-13 Z" id="undraw_data_extraction_ih3n copy--leaf" fill="#D5E5BF"></path>
                        <path d="M11.9389463,8.18533659 C15.4344681,11.9056506 16.3845932,16.9533322 16.6634365,21.8457223 C16.8196299,24.5891375 16.657057,27.4827826 17.4637476,30.1437941 C18.1539619,32.4213349 19.7720761,34.1623406 21.4399911,35.8077824 C24.7974289,39.1201273 28.5417489,42.4875429 29.5237711,47.281332 C30.0999787,50.0945981 29.7110386,53.0003911 30.5072339,55.7826798 C31.2311975,58.3116835 32.5058509,60.7963471 34.0562607,62.9319592 C35.3045732,64.651706 36.9309189,65.9683428 38.2955018,67.5714691 C38.7118117,68.0608296 39.3081865,68.7812039 39.1363532,69.4720181 C38.9352979,70.2810725 37.9038865,70.5371921 37.1721029,70.4100434 C35.4659113,70.1138356 34.029714,68.4860084 32.9141351,67.3025942 C31.2828504,65.5721167 29.8966597,63.7108461 28.7699682,61.623016 C27.5191863,59.3043746 26.5120578,56.8440069 26.0817543,54.2427229 C25.6351935,51.5440527 25.8574449,48.7315965 24.8377634,46.1416505 C23.1218997,41.7837709 18.960035,39.2120469 15.950997,35.8154761 C12.2019439,31.5831254 12.761071,26.3155657 13.1450721,21.1093532 C13.3560053,18.2483052 13.5657036,15.0173516 12.1188054,12.4051344 C11.5664693,11.407989 10.3350315,10.4782648 10.0975517,9.34485977 C9.88003334,8.3064113 11.0672266,7.25702967 11.9389463,8.18533659 Z" id="undraw_data_extraction_ih3n copy--middle-thing" fill="#CACACA"></path>
                    </g>
                </g>
                <g id="undraw_data_extraction_ih3n copy--Big-Leaf-Plant-Copy" transform="translate(271.000000, 276.000000)">
                    <g id="undraw_data_extraction_ih3n copy--Big-Ass-Leaf" transform="translate(6.000000, 0.000000)">
                        <path d="M7.47066243,0.344544819 C8.3179316,0.241755946 9.22222515,0.278039998 10.0101607,0.610135502 C11.685625,1.31639406 12.1618784,3.2819163 12.1389026,4.87949487 C12.1141329,6.59900509 11.7464095,8.47714495 13.0629217,9.86259594 C13.6680962,10.4995463 14.4208862,10.9869989 15.0151269,11.6356448 C15.6500829,12.3288105 16.1482988,13.1219298 16.5171904,13.9736141 C17.1945192,15.5379966 17.526964,17.3776902 16.9075839,19.0187377 C16.3622306,20.4635839 14.9901826,21.7676813 15.2866489,23.4106111 C15.5958893,25.1244929 17.3360058,26.43477 18.4239341,27.7113429 C19.6551616,29.1560235 20.7887879,31.0024578 20.9750171,32.8970049 C21.1535923,34.7126545 20.357698,36.548923 19.1362556,37.9214057 C16.6958107,40.6638532 13.0274435,42.0082916 9.32860344,41.9999615 C7.75817667,41.9963489 5.98013473,41.925918 4.62489872,41.0878992 C4.20604339,40.8288739 3.9850703,40.5382707 3.73607254,40.1342912 C3.51281934,39.772039 3.21790357,39.5364093 2.87654449,39.2800796 C2.12657974,38.7170668 1.58497215,37.9582617 1.23933179,37.108859 C-0.102864445,33.8097131 0.969894391,29.7282651 2.84866532,26.798598 C3.29385108,26.1044999 3.65833172,25.4365695 3.44205867,24.6092455 C3.21637118,23.7456195 2.66168034,22.9666758 2.17106258,22.2243158 C1.68625427,21.4906327 1.13278101,20.7907089 0.753857871,19.9974365 C0.356997898,19.1664273 0.24524531,18.2962208 0.31536602,17.3867503 C0.447153091,15.6783694 1.18982226,14.1018614 2.24128017,12.7279459 C3.25402871,11.4045646 4.44316453,10.1382938 4.44582903,8.40426567 C4.44875501,6.5664321 3.2114417,4.93156579 3.73855545,3.06305681 C3.95681504,2.28934112 4.39519774,1.49550415 5.10168377,1.03165012 C5.77921709,0.586779992 6.67381585,0.44121653 7.47066243,0.344544819 Z" id="undraw_data_extraction_ih3n copy--leaf" fill="#EAF2DF"></path>
                        <path d="M6.91703315,3.28258811 C6.93292159,3.03576007 7.22777083,2.88772179 7.45988257,2.95213039 C7.76540556,3.03695163 7.75952979,3.32042941 7.7514636,3.57298592 C7.72673715,4.34928456 7.83989045,5.10372009 8.02781371,5.85694991 C8.41839197,7.42299852 9.14023312,8.86585501 9.71211238,10.3701688 C10.2834932,11.8732234 10.5517114,13.4250817 10.2165155,15.015528 C9.90052565,16.515097 9.404096,17.975799 9.08071094,19.4772608 C8.79567324,20.8006066 8.49237948,22.1961489 8.92645546,23.5161249 C9.34414329,24.7866978 10.2675936,25.8214404 10.9325579,26.9696667 C12.3091107,29.3465682 12.9198114,31.9834564 13.0014953,34.6970469 C13.0393505,35.9571341 13.005261,37.2288085 12.7108765,38.4646798 C12.5414386,39.1762977 12.3137427,40.1380177 11.6996394,40.6293207 C11.4164607,40.8558863 10.9321351,40.9342292 10.6937973,40.5987113 C10.4700329,40.2840221 10.6663352,39.7968517 10.7373727,39.4614425 C11.0450167,38.0095101 11.1069077,36.5256928 11.0332533,35.0514073 C10.9619678,33.623368 10.7920564,32.1977137 10.3394481,30.833877 C9.91936685,29.5682168 9.28118572,28.431408 8.53008503,27.3242244 C7.7647187,26.1959269 6.9690532,25.065222 6.65280655,23.7283057 C6.33149066,22.370473 6.59252758,20.9888347 6.94156976,19.6569338 C7.31069038,18.2481583 7.79418063,16.8797964 8.29402337,15.5091909 C8.78113729,14.173638 8.95379529,12.9099675 8.68488801,11.5121563 C8.15367459,8.75054721 6.73177248,6.15846783 6.91703315,3.28258811 Z" id="undraw_data_extraction_ih3n copy--middle-thing" fill="#CACACA"></path>
                    </g>
                    <g id="undraw_data_extraction_ih3n copy--Big-Ass-Leaf" transform="translate(9.000000, 3.000000)">
                        <path d="M27.0929067,0.468494385 C28.1495445,0.787184672 29.1989844,1.30137766 29.952204,2.10764705 C31.5537994,3.82220545 31.0623861,6.41356528 30.1782431,8.30626807 C29.2265722,10.3434062 27.7844258,12.391064 28.597391,14.7284368 C28.9710488,15.8029833 29.5993875,16.7761698 29.9538475,17.858966 C30.3325525,19.016043 30.4960086,20.2210761 30.4751834,21.4285825 C30.4366298,23.6464101 29.8427281,26.0128621 28.2302984,27.6467965 C26.8106185,29.0853667 24.4892607,29.9256104 23.9583807,32.0387398 C23.4045395,34.2431121 24.7585439,36.7114638 25.359721,38.7999888 C26.0401046,41.1635623 26.3896088,43.9552868 25.5934507,46.3109908 C24.8305681,48.5686456 22.9047711,50.3434024 20.7247503,51.3436084 C16.3689432,53.342289 11.3116234,53.0347604 6.9439458,51.0985621 C5.08958956,50.2764145 3.0256687,49.2664837 1.87327305,47.5616051 C1.51712108,47.0346596 1.41181135,46.5731188 1.33419382,45.9618135 C1.26462345,45.4136637 1.04242192,44.9791557 0.776426934,44.4957822 C0.191960316,43.4339825 -0.041193193,42.2472623 0.00589186441,41.0545846 C0.189125575,36.4222874 3.64656093,32.1149631 7.43888136,29.6005687 C8.33743822,29.0048919 9.12656203,28.3983835 9.31471969,27.2993999 C9.51122257,26.1522335 9.27340715,24.9346902 9.09170364,23.7941305 C8.91221259,22.666941 8.63344794,21.544241 8.61108181,20.4011503 C8.5877569,19.2037278 8.92246435,18.1080506 9.49321413,17.0602772 C10.5654129,15.0921397 12.2889535,13.5993568 14.2688159,12.5089187 C16.1758147,11.4585698 18.2606733,10.5681674 19.1940029,8.5022089 C20.1833258,6.3126274 19.5977693,3.71914107 21.2231538,1.76597207 C21.8961859,0.957195694 22.840204,0.239065116 23.9241168,0.0539691633 C24.9636232,-0.123571637 26.0991515,0.168769962 27.0929067,0.468494385 Z" id="undraw_data_extraction_ih3n copy--leaf" fill="#D5E5BF"></path>
                        <path d="M24.9345084,4.08925536 C25.0844254,3.80291765 25.5105641,3.78088675 25.7498525,3.9795667 C26.0647999,4.24113412 25.9072019,4.57647944 25.7634579,4.87376028 C25.3217022,5.78756611 25.0540461,6.74761457 24.8751406,7.74545447 C24.5030168,9.82000376 24.5867357,11.9212904 24.4610722,14.0172644 C24.3354907,16.1114734 23.826719,18.1048809 22.5863675,19.8277525 C21.4169518,21.4522082 20.0555625,22.935588 18.876426,24.5584232 C17.8371507,25.9887359 16.7379883,27.4956613 16.5479151,29.299261 C16.3647887,31.0352824 16.9030064,32.7551265 17.0763027,34.474828 C17.4350776,38.0347378 16.7531763,41.503198 15.4071075,44.7856603 C14.7819557,46.30987 14.0658646,47.8101645 13.0620693,49.1311422 C12.4841632,49.891801 11.7046711,50.9204754 10.7198684,51.1848022 C10.2657436,51.3067059 9.65336844,51.1461156 9.55084304,50.6205067 C9.45442007,50.1274105 9.94468524,49.6488023 10.2066731,49.2856485 C11.3409342,47.7136847 12.202545,45.9747117 12.8993612,44.1759993 C13.5743882,42.4337405 14.1319258,40.6425813 14.3234732,38.776895 C14.501168,37.0454828 14.3533646,35.3534648 14.0567493,33.6375671 C13.7545457,31.8889777 13.4179167,30.1216168 13.7558454,28.3596165 C14.0989178,26.5699857 15.140894,25.0574878 16.2601401,23.6505439 C17.4439072,22.1623587 18.7409681,20.7824294 20.0584914,19.4084015 C21.3423838,18.0695423 22.2175112,16.6515083 22.6435918,14.8416475 C23.4854532,11.2659959 23.1876094,7.42540318 24.9345084,4.08925536 Z" id="undraw_data_extraction_ih3n copy--middle-thing" fill="#CACACA"></path>
                    </g>
                    <g id="undraw_data_extraction_ih3n copy--Big-Ass-Leaf" transform="translate(0.000000, 18.000000)">
                        <path d="M3.96011206,-1.56319402e-13 C5.71436488,-1.56319402e-13 7.25664641,0.934848231 8.31937184,2.26142897 C9.56339287,3.81438017 9.81464672,5.71084231 10.3198027,7.5616836 C10.5711669,8.48276972 11.0034956,9.39713733 11.7611192,10.0229341 C12.450219,10.5920569 13.3250282,10.7059465 14.1498515,10.9840062 C15.7982841,11.539692 17.1293668,12.8783011 17.6550468,14.5116577 C18.2963675,16.5040211 17.6170884,18.5132892 17.7340533,20.5324184 C17.8414182,22.3867273 19.6600017,23.5436114 21.1231664,24.4325137 C22.5659174,25.3090626 23.8656623,26.1295878 24.300198,27.8371731 C24.7609955,29.6482451 24.9155878,31.6697583 24.2773567,33.4588326 C23.2147416,36.4377335 20.1049097,37.7494685 17.1000152,37.952866 C14.3729675,38.1374083 10.9440201,37.8476454 8.89603087,35.8575576 C7.67054767,34.6666474 7.22674312,33.001107 7.2818049,31.3440189 C7.31601161,30.3135944 7.51904502,29.2927059 7.78155399,28.2969576 C7.96759438,27.5911889 8.21895858,26.8884544 8.29057199,26.1591709 C8.48091582,24.2189301 6.69720108,23.8462695 5.17886425,23.3135566 C3.24949511,22.6365041 1.8987712,21.3577115 0.959520976,19.5761142 C0.0848221375,17.9172923 -0.282182825,16.0551813 0.242173032,14.22883 C0.509978517,13.2962574 0.995713888,12.4501586 1.65446904,11.7305194 C1.94445372,11.4137741 2.3531688,11.1495849 2.61490535,10.816802 C2.85920751,10.5060167 2.80602159,10.1033395 2.72182893,9.73934792 C2.33253443,8.05798648 1.11963048,6.66573771 0.685867246,4.98741044 C0.294255516,3.47249468 0.525757745,1.58708557 1.90340566,0.609759012 C2.49860252,0.187468116 3.23261244,0.00465961214 3.96011206,-1.56319402e-13 Z" id="undraw_data_extraction_ih3n copy--leaf" fill="#D5E5BF"></path>
                        <path d="M6.35050336,4.38088437 C8.20982347,6.37203835 8.71520914,9.0736144 8.86353003,11.6920767 C8.94661163,13.1603834 8.86013671,14.7090949 9.28922743,16.1332983 C9.65636269,17.3522638 10.5170617,18.2840696 11.4042506,19.1647286 C13.1901217,20.9375329 15.1817813,22.7398117 15.7041336,25.3055017 C16.0106269,26.8111933 15.8037439,28.3664065 16.2272521,29.8555188 C16.6123391,31.20907 17.2903462,32.53889 18.1150323,33.6818936 C18.7790283,34.6023215 19.6441058,35.3070004 20.3699478,36.1650116 C20.5913892,36.4269229 20.9086099,36.8124753 20.8172092,37.1822069 C20.7102649,37.6152219 20.1616417,37.7523 19.7723952,37.6842486 C18.8648464,37.5257148 18.1009117,36.6544834 17.5075187,36.0211068 C16.639814,35.0949357 15.9024786,34.0987627 15.3031746,32.9813325 C14.637865,31.7403695 14.1021584,30.423553 13.8732736,29.0313165 C13.6357412,27.5869578 13.7539601,26.0816995 13.2115763,24.6955313 C12.2988828,22.363145 10.085125,20.9867293 8.48457288,19.1688464 C6.49039568,16.9036446 6.78780371,14.0843873 6.99205965,11.2979637 C7.10425811,9.76669853 7.21579981,8.0374558 6.44617307,6.63936771 C6.15237729,6.10568426 5.49735718,5.6080854 5.37103813,5.00147424 C5.25533688,4.44568492 5.88682268,3.88404405 6.35050336,4.38088437 Z" id="undraw_data_extraction_ih3n copy--middle-thing" fill="#CACACA"></path>
                    </g>
                </g>
                <path d="M101.459331,99.0000041 L101.459331,99.0000041 C92.4767801,99.0000041 85.9373798,105.565232 83.73287,114.938439 L81,129 L82.9444433,129 L87.1574065,117.488371 L86.2704746,129 L88.4537006,129 L90.0740714,123.069764 L89.7329502,129 L116,129 L116,114.651707 C116,106.007502 109.489926,98.9999959 101.459352,99 L101.459331,99.0000041 Z" id="undraw_data_extraction_ih3n copy--Path" fill="#2F2E41" fill-rule="nonzero"></path>
                <path d="M89.6244522,175 C89.6244522,175 76.3766505,193.36798 77.0228975,200.779623 C77.6691446,208.191266 86.0701685,329.033265 86.0701685,329.033265 L105.780295,330 L99.9641882,242.993767 L104.810937,219.469862 L116.766257,329.033265 L141,329.677752 L119.351191,187.567576 L115.150677,175.000008 L89.6244522,175 Z" id="undraw_data_extraction_ih3n copy--Path" fill="#2F2E41" fill-rule="nonzero"></path>
                <path d="M94.3645839,119 C94.3645839,119 98.562501,126.757579 93.0729151,131.929296 C87.5833292,137.101012 85,151 85,151 L116,148.737372 L113.416667,131.28283 C113.416667,131.28283 106.635416,127.08081 108.25,119.646466 L94.3645839,119 Z" id="undraw_data_extraction_ih3n copy--Path" fill="#E4AD7C" fill-rule="nonzero"></path>
                <path d="M88.3000019,140 C88.3000019,140 90.2500005,145.846155 98.7000002,145.196582 C103.844569,144.767373 108.781205,142.973413 113,140 L113,178 L87,177.025641 L87,153.965796 L88.3000019,140 Z" id="undraw_data_extraction_ih3n copy--Path" fill="#017FA3" fill-rule="nonzero"></path>
                <path d="M90.6763661,177.944987 L92.5778218,171.575331 C92.5778218,171.575331 91.9440019,156.606649 89.4087262,150.555474 C89.4087262,150.555474 94.2530866,134.60465 95,130 L92.5778218,131.765002 L78,138.771623 L83.0705554,165.20568 L86.556559,170.938369 L82.9445551,186 L90.6763661,177.944987 Z" id="undraw_data_extraction_ih3n copy--Path" fill="#3F3D56" fill-rule="nonzero"></path>
                <polygon id="undraw_data_extraction_ih3n copy--Path" fill="#3F3D56" fill-rule="nonzero" points="103 175.820511 110.450705 135.900233 108.405923 126 114.338031 131.74852 126 135.261504 120.492972 165.281548 117.253535 171.668794 118.855588 186"></polygon>
                <path d="M133.156887,203 C133.156887,203 136.529337,217.234649 129.784442,218.889842 C123.039547,220.545034 125.400259,203 125.400259,203 L133.156887,203 Z" id="undraw_data_extraction_ih3n copy--Path" fill="#E4AD7C" fill-rule="nonzero"></path>
                <path d="M76.0750628,189 C76.0750628,189 88.6823184,195.811327 85.4786046,201.535291 C82.2748907,207.259256 71,194.360101 71,194.360101 L76.0750628,189 Z" id="undraw_data_extraction_ih3n copy--Path" fill="#E4AD7C" fill-rule="nonzero"></path>
                <path d="M120.629465,136.640352 L125.350321,136 C125.350321,136 128.182838,139.842119 128.497561,142.723683 C128.812283,145.605248 133.847853,194.271917 133.847853,194.271917 C134.210113,195.334232 133.852535,196.376855 133.533127,205.157881 L132.588956,209 C132.588956,209 130.700613,201.635965 123.461962,205.478071 L122.517791,200.995613 C122.517791,200.995613 120.629449,184.026318 120.629449,176.021935 C120.629449,168.017552 120,159.372813 120,159.372813 L120.629465,136.640352 Z" id="undraw_data_extraction_ih3n copy--Path" fill="#3F3D56" fill-rule="nonzero"></path>
                <ellipse id="undraw_data_extraction_ih3n copy--Oval" fill="#2F2E41" fill-rule="nonzero" cx="97.5" cy="329.5" rx="4.5" ry="1.5"></ellipse>
                <ellipse id="undraw_data_extraction_ih3n copy--Oval" fill="#2F2E41" fill-rule="nonzero" cx="128.5" cy="329.5" rx="4.5" ry="1.5"></ellipse>
                <path d="M81.461226,138 L77.9704081,138.320154 L70.0367407,169.374826 C70.0367407,169.374826 69.0729154,209.698128 77.0183683,202.030264 C77.0183683,202.030264 74.162249,193.706328 81.461226,190.824968 L81.461226,173.856948 L84,159.13 L81.461226,138 Z" id="undraw_data_extraction_ih3n copy--Path" fill="#3F3D56" fill-rule="nonzero"></path>
                <ellipse id="undraw_data_extraction_ih3n copy--Oval" fill="#E4AD7C" fill-rule="nonzero" cx="111.5" cy="116.5" rx="1" ry="1.5"></ellipse>
                <ellipse id="undraw_data_extraction_ih3n copy--Oval" fill="#FFB8B8" fill-rule="nonzero" cx="90.5" cy="116.5" rx="1" ry="1.5"></ellipse>
                <circle id="undraw_data_extraction_ih3n copy--Oval" fill="#E4AD7C" fill-rule="nonzero" cx="100.5" cy="115.5" r="10.5"></circle>
                <polygon id="undraw_data_extraction_ih3n copy--Path" fill="#2F2E41" fill-rule="nonzero" points="96.1549178 110.333419 95.8817656 113 103.281555 113 104.253692 110.999742 104.048723 113 113 113 106.845082 103 93.2397607 103.333161 90 113 94.8594318 113"></polygon>
                <g id="undraw_data_extraction_ih3n copy--orbit" transform="translate(156.000000, 78.000000)">
                    <path d="M86,177 C38.5792593,177 0,138.420383 0,90.9998982 C0,43.5794131 38.5792593,5 86,5 C133.420741,5 172,43.5794131 172,90.9998982 C172,138.420383 133.420745,177 86,177 Z M86,5.83091689 C39.0377224,5.83091689 0.830917874,44.0374726 0.830917874,90.9998982 C0.830917874,137.962324 39.0377224,176.169083 86,176.169083 C132.962278,176.169083 171.169082,137.962324 171.169082,90.9998982 C171.169082,44.0374726 132.962278,5.83091689 86,5.83091689 Z" id="undraw_data_extraction_ih3n copy--Shape" fill="#666666" fill-rule="nonzero"></path>
                    <path d="M86,153 C51.8129587,153 24,125.186883 24,90.9998981 C24,56.8131168 51.8129587,29 86,29 C120.187041,29 148,56.8131168 148,90.9998981 C148,125.186883 120.187041,153 86,153 Z M86,29.8322134 C52.2721415,29.8322134 24.8322148,57.2718911 24.8322148,90.9998981 C24.8322148,124.727905 52.2721415,152.167787 86,152.167787 C119.727859,152.167787 147.167785,124.727905 147.167785,90.9998981 C147.167785,57.2718911 119.727863,29.8322134 86,29.8322134 Z" id="undraw_data_extraction_ih3n copy--Shape" fill="#666666" fill-rule="nonzero"></path>
                    <path d="M85.4999004,128 C64.7892482,127.999945 47.9999817,111.210619 48,90.4999668 C48.0000183,69.7893146 64.7893146,53.0000183 85.4999668,53 C106.210619,52.9999817 122.999945,69.7892482 123,90.4999004 C122.976542,111.200909 106.200909,127.976542 85.4999004,128 Z M85.4999004,53.8301868 C70.6683434,53.8302271 57.2972213,62.7645781 51.6214678,76.4671656 C45.9457143,90.1697531 49.0830718,105.942087 59.5705954,116.429553 C70.058119,126.917018 85.8304704,130.054288 99.5330265,124.378459 C113.235583,118.702629 122.169859,105.331457 122.169817,90.4999004 C122.146866,70.2572116 105.742589,53.8530254 85.4999004,53.8301868 L85.4999004,53.8301868 Z" id="undraw_data_extraction_ih3n copy--Shape" fill="#666666" fill-rule="nonzero"></path>
                    <circle id="undraw_data_extraction_ih3n copy--Oval" fill="#017FA3" fill-rule="nonzero" cx="100" cy="6" r="6"></circle>
                    <circle id="undraw_data_extraction_ih3n copy--Oval" fill="#017FA3" fill-rule="nonzero" cx="24" cy="149" r="6"></circle>
                    <circle id="undraw_data_extraction_ih3n copy--Oval" fill="#98BF61" fill-rule="nonzero" cx="25" cy="98" r="6"></circle>
                    <circle id="undraw_data_extraction_ih3n copy--Oval" fill="#98BF61" fill-rule="nonzero" cx="138" cy="57" r="6"></circle>
                    <circle id="undraw_data_extraction_ih3n copy--Oval" fill="#98BF61" fill-rule="nonzero" cx="161" cy="132" r="6"></circle>
                    <circle id="undraw_data_extraction_ih3n copy--Oval" fill="#017FA3" fill-rule="nonzero" cx="144" cy="105" r="6"></circle>
                    <circle id="undraw_data_extraction_ih3n copy--Oval" fill="#98BF61" fill-rule="nonzero" cx="11" cy="48" r="6"></circle>
                    <circle id="undraw_data_extraction_ih3n copy--Oval" fill="#017FA3" fill-rule="nonzero" cx="108" cy="174" r="6"></circle>
                    <g id="undraw_data_extraction_ih3n copy--badges/resource-type" transform="translate(69.000000, 73.000000)">
                        <mask id="undraw_data_extraction_ih3n copy--mask-2" fill="white">
                            <use xlink:href="#undraw_data_extraction_ih3n copy--path-1"></use>
                        </mask>
                        <use id="undraw_data_extraction_ih3n copy--Oval" fill="#017FA3" fill-rule="evenodd" xlink:href="#undraw_data_extraction_ih3n copy--path-1"></use>
                        <g id="undraw_data_extraction_ih3n copy--color/turteal/base-017FA3" mask="url(#undraw_data_extraction_ih3n copy--mask-2)" fill="#017FA3" fill-rule="evenodd" stroke="#017FA3" stroke-width="1">
                            <rect id="undraw_data_extraction_ih3n copy--turteal-017FA3" x="0.5" y="0.5" width="35" height="35"></rect>
                        </g>
                        <g id="undraw_data_extraction_ih3n copy--test-tube" stroke-width="1" fill-rule="evenodd" mask="url(#undraw_data_extraction_ih3n copy--mask-2)" fill="#FDFDFD">
                            <path d="M22.2004656,15.2818429 L22.2004656,10.9350011 L23.7575241,10.9350011 L23.7575241,6 L13.032342,6 L13.032342,10.9350011 L13.7845802,10.9350011 L14.5890081,10.9350011 L14.5890081,15.2818429 C11.2253222,16.7069694 9,19.9366077 9,23.4726726 C9,26.8227863 10.938475,29.8679701 14.0600477,31.4188101 L14.2232877,31.5 L22.566186,31.5 L22.7298184,31.4188101 C25.8509987,29.8675959 27.7894737,26.8227863 27.7894737,23.4726726 C27.7894737,19.9366077 25.5641514,16.7065953 22.2004656,15.2818429 Z M22.1934023,30.0640232 L14.5964637,30.0640232 C12.0682057,28.7384198 10.5052612,26.2282665 10.5052612,23.4722984 C10.5052612,20.3620131 12.5559637,17.5330863 15.6072961,16.4342161 L16.0938769,16.2587411 L16.0938769,10.934627 L18.3945406,10.934627 L18.3945406,9.49939843 L16.0938769,9.49939843 L14.5372108,9.49939843 L14.5372108,7.43522852 L22.2518705,7.43522852 L22.2518705,9.49939843 L20.6952044,9.49939843 L20.6952044,16.2587411 L21.1817852,16.4342161 C24.23351,17.5334605 26.2842125,20.3620131 26.2842125,23.4722984 C26.2846049,26.2282665 24.721268,28.7384198 22.1934023,30.0640232 Z" id="undraw_data_extraction_ih3n copy--Shape" fill-rule="nonzero"></path>
                            <path d="M24.7595281,19.7492739 C23.7519023,20.6529893 20.7317141,22.9772608 18.3949289,20.767411 C16.3635431,18.8468537 13.4751184,19.4047134 11.987305,19.8809667 C11.790236,20.5895177 11.6842105,21.344269 11.6842105,22.1262225 C11.6842105,25.0355559 13.151664,27.5580144 15.2990631,28.8157895 L21.4907947,28.8157895 C23.6378097,27.5580144 25.1052632,25.0355559 25.1052632,22.1262225 C25.1052632,21.2946143 24.9804144,20.4971167 24.7595281,19.7492739 Z M14.8196438,24.1188871 C14.3014253,24.1188871 13.8819333,23.6465198 13.8819333,23.0649122 C13.8819333,22.4833046 14.3018094,22.0109373 14.8196438,22.0109373 C15.3374781,22.0109373 15.7573542,22.4833046 15.7573542,23.0649122 C15.7573542,23.6465198 15.337094,24.1188871 14.8196438,24.1188871 Z M16.6036369,26.4621569 C16.2986217,26.4621569 16.0512291,26.1836588 16.0512291,25.8412573 C16.0512291,25.4975605 16.2990059,25.2194942 16.6036369,25.2194942 C16.9090363,25.2194942 17.1564289,25.4979923 17.1564289,25.8412573 C17.1568131,26.1840906 16.9090363,26.4621569 16.6036369,26.4621569 Z M19.4578723,24.5985946 C18.9492575,24.5985946 18.5366803,24.1348629 18.5366803,23.563618 C18.5366803,22.9923731 18.9492575,22.5286415 19.4578723,22.5286415 C19.966487,22.5286415 20.3786801,22.9923731 20.3786801,23.563618 C20.3786801,24.1348629 19.966487,24.5985946 19.4578723,24.5985946 Z M21.5288256,26.9798611 C21.2487801,26.9798611 21.0221316,26.7246791 21.0221316,26.4107751 C21.0221316,26.0955757 21.2487801,25.8416891 21.5288256,25.8416891 C21.8084869,25.8416891 22.0351354,26.0955757 22.0351354,26.4107751 C22.0355196,26.7251109 21.8084869,26.9798611 21.5288256,26.9798611 Z" id="undraw_data_extraction_ih3n copy--Shape" fill-rule="nonzero"></path>
                            <path d="M19.0657895,12.7105263 C19.4367474,12.7105263 19.7368421,12.5137871 19.7368421,12.272159 L19.7368421,11.8067883 C19.7368421,11.5648096 19.4367474,11.3684211 19.0657895,11.3684211 C18.6953684,11.3684211 18.3947368,11.5648096 18.3947368,11.8067883 L18.3947368,12.272159 C18.3947368,12.5141378 18.6953684,12.7105263 19.0657895,12.7105263 Z" id="undraw_data_extraction_ih3n copy--Path" fill-rule="nonzero"></path>
                            <path d="M19.0657895,19.4210526 C19.4367474,19.4210526 19.7368421,19.2249123 19.7368421,18.9824561 L19.7368421,18.5175439 C19.7368421,18.2750877 19.4367474,18.0789474 19.0657895,18.0789474 C18.6953684,18.0789474 18.3947368,18.2750877 18.3947368,18.5175439 L18.3947368,18.9824561 C18.3947368,19.2249123 18.6953684,19.4210526 19.0657895,19.4210526 Z" id="undraw_data_extraction_ih3n copy--Path" fill-rule="nonzero"></path>
                            <path d="M19.0657895,12.7105263 C19.4367474,12.7105263 19.7368421,12.5140864 19.7368421,12.2720445 L19.7368421,11.8069029 C19.7368421,11.5648609 19.4367474,11.3684211 19.0657895,11.3684211 C18.6953684,11.3684211 18.3947368,11.5648609 18.3947368,11.8069029 L18.3947368,12.2720445 C18.3947368,12.5140864 18.6953684,12.7105263 19.0657895,12.7105263 Z" id="undraw_data_extraction_ih3n copy--Path" fill-rule="nonzero"></path>
                            <path d="M19.0657895,16.7368421 C19.4367474,16.7368421 19.7368421,16.5404022 19.7368421,16.2983602 L19.7368421,15.8332187 C19.7368421,15.5911767 19.4367474,15.3947368 19.0657895,15.3947368 C18.6953684,15.3947368 18.3947368,15.5911767 18.3947368,15.8332187 L18.3947368,16.2983602 C18.3947368,16.540753 18.6953684,16.7368421 19.0657895,16.7368421 Z" id="undraw_data_extraction_ih3n copy--Path" fill-rule="nonzero"></path>
                        </g>
                    </g>
                </g>
                <rect id="undraw_data_extraction_ih3n copy--Rectangle" fill="#3F3D56" fill-rule="nonzero" x="26" y="331" width="276" height="1"></rect>
            </g>
        </g>
    </g>
</svg>