<?xml version="1.0" encoding="UTF-8"?>
<svg width="56px" height="54px" viewBox="0 0 56 54" version="1.1" xmlns="http://www.w3.org/2000/svg" xmlns:xlink="http://www.w3.org/1999/xlink">
    <!-- Generator: Sketch 53.2 (72643) - https://sketchapp.com -->
    <title>illucons/track-request</title>
    <desc>Created with Sketch.</desc>
    <g id="Guidelines" stroke="none" stroke-width="1" fill="none" fill-rule="evenodd">
        <g id="icons-badges-variations" transform="translate(-176.000000, -657.000000)">
            <g id="illucons/track-request" transform="translate(168.000000, 647.000000)">
                <rect id="Rectangle" x="0" y="0" width="72" height="72"></rect>
                <g id="icon" transform="translate(8.000000, 9.000000)" fill-rule="nonzero">
                    <path d="M6.3,2 L14.7,2 C18.1793938,2 21,4.82060607 21,8.3 L21,16.7 C21,20.1793938 18.1793938,23 14.7,23 L6.3,23 C2.82060607,23 0,20.1793938 0,16.7 L0,8.3 C0,4.82060607 2.82060607,2 6.3,2 Z" id="Path" fill="#003595"></path>
                    <path d="M41.3,32.3333333 L49.7,32.3333333 C53.1793938,32.3333333 56,35.1539395 56,38.6333333 L56,47.0333333 C56,50.5127272 53.1793938,53.3333333 49.7,53.3333333 L41.3,53.3333333 C37.8206062,53.3333333 35,50.5127272 35,47.0333333 L35,38.6333333 C35,35.1539395 37.8206062,32.3333333 41.3,32.3333333 Z" id="Path" fill="#FFDD00"></path>
                    <path d="M30.1388889,13.6666667 C28.9576133,13.6666667 28,12.883165 28,11.9166667 C28,10.9501684 28.9576133,10.1666667 30.1388889,10.1666667 L51.5277778,10.1666667 C52.7090534,10.1666667 53.6666667,10.9501684 53.6666667,11.9166667 C53.6666667,12.883165 52.7090534,13.6666667 51.5277778,13.6666667 L30.1388889,13.6666667 Z" id="Path" fill="#999999"></path>
                    <path d="M47.3846154,8.28205128 L36.6153846,8.28205128 C35.4258483,8.28205128 34.4615385,7.31774151 34.4615385,6.12820513 C34.4615385,4.93866874 35.4258483,3.97435897 36.6153846,3.97435897 L49.5384615,3.97435897 C50.7279978,3.97435897 51.6923077,4.93866874 51.6923077,6.12820513 L51.6923077,19.0512821 C51.6923077,20.2408183 50.7279978,21.2051282 49.5384615,21.2051282 C48.3489253,21.2051282 47.3846154,20.2408183 47.3846154,19.0512821 L47.3846154,8.28205128 Z" id="Path" fill="#999999" transform="translate(43.076923, 12.589744) rotate(45.000000) translate(-43.076923, -12.589744) "></path>
                    <path d="M4.47222222,45.1666667 C3.29094651,45.1666667 2.33333333,44.3831649 2.33333333,43.4166667 C2.33333333,42.4501684 3.29094651,41.6666667 4.47222222,41.6666667 L25.8611111,41.6666667 C27.0423867,41.6666667 28,42.4501684 28,43.4166667 C28,44.3831649 27.0423867,45.1666667 25.8611111,45.1666667 L4.47222222,45.1666667 Z" id="Path" fill="#999999" transform="translate(15.166667, 43.416667) scale(-1, 1) translate(-15.166667, -43.416667) "></path>
                    <path d="M17.2307692,38.4358974 L6.46153846,38.4358974 C5.27200208,38.4358974 4.30769231,37.4715876 4.30769231,36.2820513 C4.30769231,35.092515 5.27200208,34.1282051 6.46153846,34.1282051 L19.3846154,34.1282051 C20.5741518,34.1282051 21.5384615,35.092515 21.5384615,36.2820513 L21.5384615,49.2051282 C21.5384615,50.3946645 20.5741518,51.3589744 19.3846154,51.3589744 C18.195079,51.3589744 17.2307692,50.3946645 17.2307692,49.2051282 L17.2307692,38.4358974 Z" id="Path" fill="#999999" transform="translate(12.923077, 42.743590) scale(-1, 1) rotate(45.000000) translate(-12.923077, -42.743590) "></path>
                </g>
            </g>
        </g>
    </g>
</svg>